<svg width="550" height="395" viewBox="0 0 550 395" fill="none" xmlns="http://www.w3.org/2000/svg">
<path d="M216.249 68.167C205.263 68.167 196.359 77.0702 196.359 88.0565C196.359 99.0429 205.263 107.946 216.249 107.946C227.235 107.946 236.139 99.0429 236.139 88.0565C236.139 77.0702 227.235 68.167 216.249 68.167ZM216.249 102.99C207.993 102.99 201.306 96.3034 201.306 88.047C201.306 79.7906 207.993 73.1037 216.249 73.1037C224.505 73.1037 231.192 79.7906 231.192 88.047C231.192 96.3034 224.505 102.99 216.249 102.99Z" fill="#66D6A0"/>
<mask id="mask0_46_3218" style="mask-type:alpha" maskUnits="userSpaceOnUse" x="0" y="0" width="550" height="395">
<rect width="550" height="395" fill="#C4C4C4"/>
</mask>
<g mask="url(#mask0_46_3218)">
<path opacity="0.04" d="M305.557 377.307C208.766 395.507 35.1283 414.5 9.00007 295.5C-17.1282 176.5 46.0189 135.631 91 132.5C104.973 131.565 142.583 161.034 185.321 141.437C237.217 117.64 237.776 50.4646 268.327 49.055C294.761 47.8192 318.332 111.543 343.949 116.492C355.093 118.714 401.857 34.786 456.007 74.1446C490.565 99.2629 519.576 195.81 504.357 139.213C489.137 82.6169 416.847 356.381 305.557 377.307Z" fill="#276ED8"/>
</g>
<path d="M295.569 296.626H267.785C266.691 296.626 265.797 295.741 265.797 294.638C265.797 293.544 266.681 292.65 267.785 292.65H295.569C296.663 292.65 297.557 293.534 297.557 294.638C297.557 295.732 296.663 296.626 295.569 296.626Z" fill="#66D6A0"/>
<path d="M295.569 306.547H267.785C266.691 306.547 265.797 305.662 265.797 304.559C265.797 303.465 266.681 302.571 267.785 302.571H295.569C296.663 302.571 297.557 303.455 297.557 304.559C297.557 305.653 296.663 306.547 295.569 306.547Z" fill="#66D6A0"/>
<path opacity="0.2" d="M156.402 141.101L168.775 138.774V127.681L156.402 125.548C155.452 120.99 153.648 116.724 151.166 112.942L158.264 102.528L150.41 94.6739L140.151 101.927C136.369 99.4445 132.122 97.6604 127.545 96.7101L125.218 84.3374H114.125L111.992 96.7101C107.435 97.6604 103.168 99.4639 99.3867 101.946L88.992 94.8484L81.1379 102.703L88.3908 112.961C85.9085 116.743 84.1244 121.01 83.1741 125.567L70.8014 127.894V138.987L83.1741 141.12C84.1244 145.697 85.9279 149.944 88.4102 153.726L81.3124 164.12L89.1665 171.974L99.4448 164.721C103.226 167.204 107.493 169.007 112.05 169.938L114.377 182.311H125.47L127.603 169.938C132.18 168.988 136.427 167.184 140.209 164.702L150.604 171.8L158.458 163.946L151.205 153.687C153.668 149.924 155.452 145.677 156.402 141.101ZM119.788 156.305C107.105 156.305 96.8268 146.007 96.8268 133.343C96.8268 120.68 107.105 110.382 119.788 110.382C132.471 110.382 142.749 120.66 142.749 133.343C142.749 146.027 132.471 156.305 119.788 156.305Z" fill="#84B5FF"/>
<path d="M89.8254 181.711V322.737C89.8254 329.756 93.0511 333.454 97.0246 333.454H195.819C199.792 333.454 203.018 329.756 203.018 322.737V181.711C203.018 174.692 199.792 170.994 195.819 170.994H97.0168C93.0433 171.008 89.8254 174.692 89.8254 181.711ZM195.92 328.93H146.422H96.9233C95.4508 328.93 94.2587 326.824 94.2587 324.223V180.224C94.2587 177.623 95.4508 175.517 96.9233 175.517H195.92C197.393 175.517 198.585 177.623 198.585 180.224V324.223C198.585 326.824 197.393 328.93 195.92 328.93Z" fill="#66D6A0"/>
<path d="M316.382 137.89V264.39C316.382 267.643 313.747 270.277 310.494 270.277H117.591C114.338 270.277 111.703 267.643 111.703 264.39V137.89C111.703 130.385 117.791 124.288 125.305 124.288H302.78C310.294 124.288 316.382 130.385 316.382 137.89Z" fill="white" stroke="#84B5FF" stroke-miterlimit="10"/>
<path d="M316.382 137.89V138.46H111.703V137.89C111.703 130.385 117.791 124.288 125.305 124.288H302.78C310.294 124.288 316.382 130.385 316.382 137.89Z" fill="#84B5FF"/>
<path d="M316.382 243.026V264.39C316.382 267.643 313.747 270.277 310.494 270.277H117.591C114.338 270.277 111.703 267.643 111.703 264.39V243.026H316.382Z" fill="#EDF1FF"/>
<path d="M285.297 132.031C285.297 133.01 284.507 133.8 283.527 133.8C282.548 133.8 281.758 133.01 281.758 132.031C281.758 131.051 282.548 130.261 283.527 130.261C284.498 130.261 285.297 131.051 285.297 132.031Z" fill="#84B5FF"/>
<path d="M294.98 132.031C294.98 133.01 294.19 133.8 293.211 133.8C292.231 133.8 291.441 133.01 291.441 132.031C291.441 131.051 292.231 130.261 293.211 130.261C294.181 130.261 294.98 131.051 294.98 132.031Z" fill="#84B5FF"/>
<path d="M304.235 132.031C304.235 133.01 303.446 133.8 302.466 133.8C301.486 133.8 300.697 133.01 300.697 132.031C300.697 131.051 301.486 130.261 302.466 130.261C303.446 130.261 304.235 131.051 304.235 132.031Z" fill="#84B5FF"/>
<path d="M316.382 137.89V264.39C316.382 267.643 313.747 270.277 310.494 270.277H117.591C114.338 270.277 111.703 267.643 111.703 264.39V137.89C111.703 130.385 117.791 124.288 125.305 124.288H302.78C310.294 124.288 316.382 130.385 316.382 137.89Z" stroke="#84B5FF" stroke-miterlimit="10"/>
<g filter="url(#filter0_d_46_3218)">
<path d="M472.409 66.0439C453.366 57.7907 434.698 56.9275 424.776 62.8261C424.927 62.0921 425.135 61.3658 425.406 60.6668C430.428 47.7162 454.609 45.93 479.409 56.6785C504.21 67.4269 520.247 86.6434 515.225 99.5939C514.058 102.604 511.856 105.008 508.851 106.793C511.483 93.9472 495.867 76.2105 472.409 66.0439Z" fill="#043072"/>
<path d="M423.381 63.687C420.761 76.5355 436.369 94.2669 459.821 104.431C468.92 108.374 478.709 111.042 488.43 111.415C492.403 111.568 496.389 111.327 500.191 110.444C501.867 110.053 503.522 109.531 505.099 108.894C506.567 108.302 509.52 106.664 509.895 104.927C509.081 108.709 506.409 112.044 503.643 114.569C491.051 126.055 467.694 120.24 452.823 113.796C428.023 103.047 411.994 83.8366 417.015 70.8874C418.181 67.8782 420.383 65.4736 423.381 63.687Z" fill="#84B5FF"/>
<path d="M425.499 60.7919C430.662 47.7722 454.88 45.8917 479.584 56.593C504.288 67.2943 520.132 86.5286 514.969 99.5483C513.769 102.574 511.54 104.996 508.514 106.799" stroke="#84B5FF" stroke-width="2" stroke-miterlimit="10"/>
<path d="M424.108 63.6522C421.368 76.5239 436.739 94.2018 460.002 104.271C478.887 112.444 497.473 113.224 507.414 107.277" stroke="#84B5FF" stroke-width="2" stroke-miterlimit="10"/>
<path d="M416.768 83.5383C433.418 102.808 456.71 117.597 485.096 129.181C486.929 129.927 488.949 129.151 489.641 127.418L500.679 99.7003C501.364 97.9817 500.5 95.9507 498.717 95.1261C474.14 83.7286 452.062 69.2592 432.943 51.1528C431.079 49.3885 428.103 49.8918 427.208 52.1365L416.115 79.9594C415.647 81.1318 415.889 82.5172 416.768 83.5383Z" fill="#276ED8"/>
<path d="M410.939 85.1342C427.59 104.407 467.333 133.27 467.333 133.27L487.1 129.626C488.282 129.397 488.791 128.137 489.086 126.995L494.885 101.303C495.573 99.5791 494.696 97.548 492.907 96.7209C468.483 85.3902 448.621 68.6885 429.605 50.7135C429.36 50.4782 428.999 50.4101 428.704 50.547C425.712 51.9198 409.824 56.9076 408.889 58.6359L410.289 81.5617C409.816 82.7321 410.058 84.1179 410.939 85.1342Z" fill="#276ED8"/>
<path opacity="0.21" d="M448.404 71.9614C447.026 72.4108 445.572 72.8036 444.093 73.2097C443.801 73.2724 443.508 73.3228 443.213 73.3782C447.325 71.9439 451.475 70.6023 455.592 69.1876C455.663 69.242 455.734 69.2964 455.808 69.3457C453.353 70.2684 450.885 71.1444 448.404 71.9614Z" fill="white"/>
<path opacity="0.21" d="M426.143 68.2275C434.338 73.9157 442.519 79.639 450.964 84.9437C456.973 88.7185 463.099 91.8466 469.305 95.2029C471.7 96.4981 475.753 98.6289 477.865 101.33C473.792 102.577 469.712 103.809 465.625 105.014C464.34 105.395 465.037 107.402 466.322 107.021C470.54 105.779 474.74 104.505 478.944 103.221C479.128 103.729 479.229 104.247 479.233 104.776C474.002 106.47 468.765 108.162 463.428 109.569C462.127 109.914 462.829 111.922 464.125 111.576C466.26 111.013 468.369 110.392 470.477 109.758C470.135 110.079 469.793 110.399 469.465 110.732C466.838 113.378 464.591 116.411 462.672 119.634C462.55 119.558 462.432 119.483 462.31 119.407C460.738 118.322 459.072 117.366 457.492 116.47C452.973 113.909 448.444 111.695 444.21 108.678C443.524 108.17 442.843 107.664 442.16 107.163C434.381 101.368 426.961 95.119 419.521 88.9026C417.24 86.69 415.009 84.4289 412.807 82.1395C412.661 80.149 412.503 78.159 412.33 76.1745C412.25 73.2635 412.105 70.3476 411.928 67.4354C412.221 64.8032 412.579 62.176 412.943 59.5509C413.405 59.376 413.866 59.201 414.321 59.0288C417.92 62.4861 422.111 65.4264 426.143 68.2275Z" fill="white"/>
<path d="M476.884 130.472L487.717 104.279C488.74 101.807 487.772 98.861 485.414 97.27L422.532 54.8236C421.663 54.2362 420.716 53.9086 419.774 53.8005C421.585 52.7802 423.988 52.8093 425.974 54.145L488.856 96.5915C491.214 98.1824 492.182 101.128 491.159 103.601L480.326 129.794C479.593 131.569 477.645 132.377 475.816 131.884C476.271 131.529 476.645 131.056 476.884 130.472Z" fill="#06B25F"/>
<path d="M401.09 90.3189L463.417 132.404C466.654 134.593 470.943 133.449 472.303 130.037L481.449 107.09C482.553 104.32 481.284 101.052 478.507 99.5144C456.839 87.5194 436.388 73.7075 417.038 58.2582C413.808 55.6794 409.149 56.6871 407.71 60.2987L398.643 83.0452C397.622 85.6222 398.642 88.6658 401.09 90.3189Z" fill="#84B5FF"/>
<path d="M432.313 77.656L456.262 93.8596C457.336 94.5868 458.756 94.1762 459.164 93.0239L459.258 92.7557C459.555 91.9113 459.195 90.9334 458.394 90.4233C449.797 84.9293 441.775 79.7656 434.452 74.555C433.398 73.8074 431.975 74.1642 431.528 75.2937C431.19 76.1323 431.522 77.1211 432.313 77.656Z" fill="#06B25F"/>
<path d="M401.565 90.3775L463.132 131.946C466.331 134.107 470.566 132.974 471.908 129.608L480.942 106.941C482.033 104.206 480.778 100.979 478.038 99.4577C456.636 87.6131 436.439 73.9644 417.327 58.706C414.133 56.1604 409.535 57.1535 408.114 60.72L399.159 83.1861C398.141 85.7408 399.152 88.7453 401.565 90.3775Z" stroke="#1351AC" stroke-width="3" stroke-miterlimit="10"/>
<path d="M477.84 126.082C478.209 126.531 478.808 126.739 479.357 126.604L491.958 123.562L499.616 108.998C499.92 108.421 499.741 107.69 499.193 107.261C498.82 106.965 498.343 106.827 497.883 106.869L485.103 108.135C484.503 108.194 484.001 108.557 483.783 109.094L477.56 124.429C477.335 124.969 477.439 125.602 477.84 126.082Z" fill="#194484"/>
<path d="M479.533 126.681L492.072 125.204C492.752 125.124 493.314 124.709 493.559 124.106L499.67 109.07C499.864 108.593 499.429 108.069 498.897 108.128L486.344 109.611C485.71 109.687 485.177 110.078 484.948 110.641L478.796 125.779C478.605 126.233 479.022 126.737 479.533 126.681Z" fill="#194484"/>
<path d="M486.895 121.909L491.538 121.384C491.979 121.336 492.35 121.062 492.506 120.673L494.933 114.594C495.268 113.755 494.485 112.819 493.534 112.929L488.858 113.457C488.435 113.508 488.085 113.76 487.935 114.134L485.496 120.244C485.161 121.083 485.946 122.014 486.895 121.909Z" fill="#276ED8"/>
<path d="M487.364 122.469L492.007 121.944C492.448 121.896 492.819 121.622 492.975 121.233L495.402 115.154C495.737 114.315 494.954 113.379 494.003 113.488L489.326 114.017C488.904 114.067 488.554 114.32 488.404 114.694L485.965 120.804C485.638 121.64 486.42 122.576 487.364 122.469Z" fill="#06B25F"/>
</g>
<g filter="url(#filter1_d_46_3218)">
<path d="M172.57 299.77C172.18 300.243 171.789 300.711 171.398 301.178C167.356 305.992 161.006 308.451 155.31 306.053C147.094 302.593 138.633 298.139 130.957 293.574C124.577 289.778 118.912 284.473 111.949 281.901C103.818 278.898 96.217 274.743 89.1682 269.875C86.1928 267.821 83.0659 265.693 80.2702 263.425C78.8663 262.284 77.3768 261.227 76.0156 260.043C75.2098 259.345 73.5541 257.97 74.0823 256.675C74.1218 256.578 74.1722 256.475 74.1495 256.379C74.133 256.293 74.0672 256.233 74.0014 256.174C72.6899 254.969 71.3052 253.771 70.2303 252.359C69.3333 251.177 70.3688 249.847 71.1735 248.822C71.631 248.239 73.6981 245.513 75.6696 245.641C73.0363 242.965 70.0902 240.547 67.5086 237.789C67.5026 237.784 67.4966 237.78 67.4963 237.774C69.0275 234.605 71.5064 231.858 74.6958 230.108C79.302 234.164 83.9085 238.225 88.5091 242.281C90.9529 244.438 93.5712 246.672 96.856 247.276C92.4474 244.253 88.6684 240.401 85.7721 235.977C83.3366 232.255 81.4634 228.093 78.4771 224.814C78.5591 224.67 78.6526 224.53 78.7401 224.386C78.9092 224.184 79.0843 223.988 79.2656 223.802C80.2785 222.758 81.3933 221.902 82.6279 221.063C83.3837 220.545 84.1643 220.064 84.9637 219.614C86.051 219.34 87.2081 219.191 88.3925 219.122C92.4335 224.706 96.5779 230.22 101.461 235.115C107.584 241.253 114.951 246.426 123.555 248.723C125.298 249.188 127.159 249.265 128.944 248.824C138.549 246.469 131.562 230.848 129.471 225.218C129.655 225.065 129.85 224.922 130.063 224.787C132.402 223.306 135.655 223.191 138.372 223.283C139.761 223.332 141.145 223.469 142.519 223.634C142.564 223.821 142.609 224.014 142.661 224.217C143.589 227.611 145.657 233.96 146.939 237.229C149.417 243.551 153.968 248.766 155.278 255.621C157.073 265.018 156.34 272.726 165.624 278.058C166.808 278.738 167.986 279.413 169.17 280.093C176.203 284.125 177.842 293.373 172.57 299.77Z" fill="#84B5FF"/>
<path d="M119.129 249.558C107.928 246.81 97.005 238.818 90.9498 229.8C89.349 227.413 87.8681 224.949 86.1366 222.65C84.5466 220.541 86.1731 219.673 85.9759 219.937C87.4247 217.55 92.8142 220.981 95.3605 224.234C99.0164 228.906 101.026 231.923 104.744 235.944C107.343 238.753 112.339 241.975 115.474 244.276C118.597 246.574 119.577 246.329 123.428 247.432C130.305 249.403 128.557 247.616 132.741 246.398C132.741 246.398 132.968 238.729 132.996 237.866C133.089 234.557 127.471 228.716 129.658 225.993C129.911 225.68 130.197 225.448 130.549 225.177C132.754 225.249 132.162 224.987 132.765 225.437C132.427 224.778 133.369 225.888 132.765 225.437C134.197 228.223 135.038 231.149 135.777 234.181C136.936 238.944 136.73 247.362 131.381 250.588C127.442 252.967 123.366 250.597 119.129 249.558Z" fill="#06B25F"/>
<path d="M75.2205 230.915C75.3538 231.043 75.4814 231.175 75.6146 231.303C79.4442 234.992 82.6611 236.355 87.2329 239.553C89.5015 241.139 91.8554 242.689 94.3839 244.052C95.8757 244.857 97.4013 245.621 99.0449 246.235C99.673 246.598 100.295 246.957 100.923 247.316C101.634 248.719 100.05 249.512 98.2515 249.696C97.5036 249.771 96.7256 249.744 96.0549 249.614C94.4439 249.293 93.1241 248.522 91.8673 247.759C85.5658 243.927 78.2428 239.812 73.7429 234.759C72.4946 233.358 71.388 232.459 74.4971 231.109C74.7301 231.005 74.9694 230.95 75.2205 230.915Z" fill="#276ED8"/>
<path d="M92.2185 258.255C92.1458 258.576 91.8617 258.89 91.2605 259.191C90.6457 259.493 89.9303 259.489 89.2848 259.348C87.5662 258.971 86.2289 257.75 84.9766 256.573C82.2632 254.02 79.1616 251.881 76.5366 249.349C75.8073 248.645 73.5866 246.47 76.448 246.172C77.856 246.026 79.5937 247.473 80.4865 248.23C82.494 249.93 84.536 251.594 86.6121 253.213C87.6645 254.033 88.7058 254.898 89.7877 255.674C90.5345 256.211 92.4432 257.246 92.2185 258.255Z" fill="#276ED8"/>
<path d="M134.523 297.11C131.392 295.23 128.449 293.376 125.111 290.959C125.211 290.939 125.577 290.83 125.683 290.81C139.123 288.831 151.494 280.749 157.924 268.908C157.96 268.84 158.001 268.782 158.037 268.719C160.115 271.477 161.457 274.584 164.01 276.707C157.189 286.724 146.196 293.411 134.523 297.11Z" fill="#276ED8"/>
<path d="M158.676 310.735C154.753 308.564 152.279 307.09 148.412 304.831C148.608 304.792 148.809 304.757 149.017 304.738C160.924 303.593 170.042 295.052 171.292 283.435C171.333 283.077 171.403 282.743 171.504 282.433C174.625 283.581 177.623 285.673 180.566 287.153C178.541 298.392 172.436 307.293 158.676 310.735Z" fill="#276ED8"/>
<path opacity="0.33" d="M134.679 297.138C133.786 296.602 132.903 296.066 132.026 295.523C130.061 294.014 128.148 292.441 126.305 290.802C133.239 289.719 139.869 287.027 145.527 283.034C147.186 284.516 148.947 285.898 150.728 287.256C151.213 287.737 151.709 288.216 152.204 288.685C146.907 292.375 140.892 295.185 134.679 297.138Z" fill="white"/>
<path opacity="0.33" d="M156.707 285.064C156.32 285.412 155.932 285.755 155.532 286.093C153.574 283.906 151.625 281.668 149.479 279.657C149.7 279.456 149.914 279.244 150.129 279.038C152.304 281.063 154.495 283.07 156.707 285.064Z" fill="white"/>
<path opacity="0.33" d="M170.238 297.334C171.744 298.561 173.295 299.772 174.955 300.826C174.603 301.29 174.245 301.744 173.858 302.19C171.34 300.048 168.743 297.996 166.161 295.926C166.477 295.535 166.776 295.136 167.063 294.721C168.123 295.594 169.178 296.467 170.238 297.334Z" fill="white"/>
<path opacity="0.33" d="M163.4 298.985C165.93 300.994 168.476 302.986 170.975 305.031C167.831 307.558 163.849 309.518 158.854 310.752C154.947 308.601 152.484 307.141 148.634 304.904C148.828 304.865 149.029 304.831 149.236 304.812C154.718 304.291 159.6 302.208 163.4 298.985Z" fill="white"/>
<path d="M155.554 312.873C152.436 312.31 148.955 311.239 145.432 309.654C137.853 306.244 130.646 303.106 129.364 299.358C128.976 298.223 130.652 295.582 131.108 294.693C133.071 290.87 142.667 291.376 152.538 295.816C158.591 298.541 163.177 301.872 165.801 304.999C166.22 305.497 166.777 306.519 166.545 307.199C166.41 307.597 165.151 310.207 164.331 310.487C161.622 311.404 158.28 312.039 155.554 312.873Z" fill="#194484"/>
<path d="M152.948 313.612C150.785 314.163 148.516 314.075 146.495 313.308C145.704 313.004 144.9 312.679 144.095 312.328C134.189 308.01 127.602 301.76 129.39 298.368C131.179 294.976 140.662 295.728 150.569 300.052C157.196 302.94 162.327 306.691 164.467 309.878C164.665 310.178 164.497 310.588 164.125 310.695C160.427 311.755 156.687 312.665 152.948 313.612Z" fill="#06B25F"/>
<path opacity="0.33" d="M119.209 260.375C126.257 263.148 130.285 269.515 128.206 274.597C126.127 279.68 118.728 281.552 111.68 278.779C104.632 276.006 100.605 269.638 102.684 264.556C104.763 259.474 112.161 257.602 119.209 260.375Z" fill="white"/>
<path d="M123.672 272.692C125.023 269.586 122.439 265.681 117.9 263.965C113.361 262.249 108.585 263.374 107.24 266.48C105.888 269.586 108.472 273.491 113.011 275.207C117.544 276.918 122.32 275.793 123.672 272.692Z" fill="#276ED8"/>
<path opacity="0.33" d="M119.89 271.262C120.621 269.587 119.223 267.472 116.772 266.549C114.32 265.62 111.74 266.23 111.01 267.905C110.279 269.58 111.677 271.695 114.128 272.619C116.585 273.547 119.16 272.937 119.89 271.262Z" fill="white"/>
<path opacity="0.33" d="M93.5904 237.685C94.1271 236.453 93.1014 234.893 91.2918 234.212C89.4878 233.53 87.5873 233.975 87.0509 235.212C86.5142 236.445 87.5399 238.004 89.3495 238.686C91.1535 239.368 93.054 238.923 93.5904 237.685Z" fill="white"/>
<path opacity="0.33" d="M142.736 240.005C144.442 239.428 145.361 237.541 144.791 235.789C144.222 234.037 142.373 233.081 140.667 233.658C138.961 234.236 138.042 236.123 138.612 237.875C139.181 239.627 141.03 240.583 142.736 240.005Z" fill="white"/>
<path opacity="0.33" d="M80.9089 241.746C82.6815 242.442 83.7663 243.866 83.3317 244.926C82.8971 245.986 81.1077 246.281 79.3351 245.585C77.5624 244.889 76.4777 243.466 76.9123 242.406C77.3469 241.346 79.1362 241.05 80.9089 241.746Z" fill="white"/>
<path opacity="0.33" d="M82.3736 256.802C82.9121 255.681 81.9006 254.28 80.1052 253.678C78.3097 253.077 76.4168 253.497 75.8782 254.618C75.3397 255.739 76.3512 257.14 78.1466 257.742C79.9424 258.348 81.8294 257.923 82.3736 256.802Z" fill="white"/>
<path d="M153.423 313.911C152.888 313.716 152.339 313.494 151.789 313.24C147.636 311.35 144.877 308.653 145.619 307.217C146.367 305.78 150.334 306.15 154.487 308.04C157.21 309.279 159.316 310.866 160.248 312.217C157.978 312.799 155.701 313.355 153.423 313.911Z" fill="#194484"/>
<path d="M137.961 303.974L135.959 302.487L132.495 303.489L132.242 304.086L137.709 304.571L137.961 303.974Z" fill="#194484"/>
<path d="M137.723 304.635L135.718 303.109L132.254 304.107L134.259 305.632L137.723 304.635Z" fill="#194484"/>
<path d="M142.796 302.608L140.794 301.12L137.33 302.123L137.077 302.72L142.538 303.205L142.796 302.608Z" fill="#194484"/>
<path d="M142.552 303.27L140.553 301.744L137.089 302.741L139.094 304.267L142.552 303.27Z" fill="#194484"/>
<path d="M147.692 301.227L145.689 299.739L142.226 300.742L141.973 301.339L147.44 301.824L147.692 301.227Z" fill="#194484"/>
<path d="M147.454 301.888L145.449 300.362L141.986 301.36L143.99 302.885L147.454 301.888Z" fill="#194484"/>
<path d="M74.4895 254.985C74.4721 254.975 74.4551 254.971 74.4432 254.961C74.374 254.927 74.5528 255.013 74.4895 254.985Z" fill="#194484"/>
<path opacity="0.43" d="M86.5264 264.859C82.813 263.161 77.0177 259.855 73.4655 257.666C73.4877 257.361 73.5099 257.056 73.543 256.749C77.3282 259.035 84.3259 263.041 87.9485 265.1C87.7411 265.069 86.7671 264.967 86.5264 264.859Z" fill="#276ED8"/>
</g>
<g filter="url(#filter2_d_46_3218)">
<rect x="295.284" y="165.189" width="55.1695" height="54.2183" rx="6" fill="#06B25F"/>
</g>
<path d="M322.869 180.408C315.086 180.408 308.44 185.141 305.747 191.823C308.44 198.504 315.086 203.237 322.869 203.237C330.651 203.237 337.297 198.504 339.99 191.823C337.297 185.141 330.651 180.408 322.869 180.408ZM322.869 199.432C318.573 199.432 315.086 196.023 315.086 191.823C315.086 187.622 318.573 184.213 322.869 184.213C327.165 184.213 330.651 187.622 330.651 191.823C330.651 196.023 327.165 199.432 322.869 199.432ZM322.869 187.257C320.285 187.257 318.199 189.296 318.199 191.823C318.199 194.349 320.285 196.388 322.869 196.388C325.452 196.388 327.538 194.349 327.538 191.823C327.538 189.296 325.452 187.257 322.869 187.257Z" fill="white"/>
<path fill-rule="evenodd" clip-rule="evenodd" d="M310.503 173.75V170.896L302.991 170.896C302.988 170.896 302.984 170.896 302.981 170.896H300.991V172.896V173.75V180.408H303.845V173.75L310.503 173.75Z" fill="white"/>
<path fill-rule="evenodd" clip-rule="evenodd" d="M335.234 210.847L335.234 213.7L344.746 213.7L344.746 210.847L344.746 210.847L344.746 204.188L341.893 204.188L341.893 210.847L335.234 210.847Z" fill="white"/>
<path fill-rule="evenodd" clip-rule="evenodd" d="M341.893 180.408L344.746 180.408L344.746 170.896L341.893 170.896L341.893 170.896L335.234 170.896L335.234 173.75L341.893 173.75L341.893 180.408Z" fill="white"/>
<path fill-rule="evenodd" clip-rule="evenodd" d="M303.845 204.188L300.991 204.188L300.991 210.847L300.991 213.7L300.991 213.7L303.845 213.7L303.845 213.7L310.503 213.7L310.503 210.847L303.845 210.847L303.845 204.188Z" fill="white"/>
<g clip-path="url(#clip0_46_3218)">
<path d="M249.833 211.918V206.535C249.833 205.543 249.03 204.741 248.039 204.741C247.047 204.741 246.245 205.544 246.245 206.535V206.589C243.011 201.576 239.494 197.086 237.567 194.724C236.941 193.954 235.811 193.835 235.044 194.468C234.275 195.093 234.161 196.224 234.789 196.991C238.289 201.282 241.055 205.089 243.214 208.421C242.266 208.117 241.267 208.62 240.957 209.556C240.643 210.497 241.151 211.513 242.09 211.825L246.055 213.147C250.006 220.335 250.439 224.493 249.246 225.685C247.974 226.955 243.304 226.515 234.337 221.106C228.902 217.828 222.851 213.303 216.665 207.943C219.205 205.646 221.751 203.228 224.273 200.706C233.266 191.711 240.958 182.413 246.245 174.219V174.239C246.245 175.231 247.047 176.033 248.039 176.033C249.03 176.033 249.833 175.231 249.833 174.239V168.856C249.833 168.688 249.763 168.537 249.718 168.379C253.839 160.62 254.535 155.304 251.783 152.552C246.447 147.217 232.338 156.198 224.403 162.028C223.604 162.613 223.432 163.736 224.019 164.535C224.602 165.331 225.725 165.503 226.526 164.919C239.417 155.452 247.345 153.185 249.246 155.089C250.399 156.243 250.106 160.226 246.014 167.641L242.09 168.949C241.151 169.261 240.643 170.277 240.957 171.218C241.263 172.141 242.241 172.641 243.177 172.358C238.032 180.319 230.526 189.375 221.737 198.168C219.155 200.75 216.551 203.212 213.957 205.549C211.363 203.212 208.759 200.75 206.178 198.168C197.388 189.375 189.882 180.319 184.736 172.358C185.673 172.641 186.65 172.142 186.957 171.218C187.271 170.277 186.763 169.261 185.824 168.949L181.9 167.641C177.808 160.226 177.515 156.243 178.668 155.089C180.574 153.183 188.504 155.454 201.405 164.933C202.201 165.518 203.327 165.346 203.912 164.549C204.499 163.752 204.327 162.629 203.528 162.042C195.59 156.204 181.464 147.212 176.131 152.552C173.379 155.304 174.075 160.621 178.196 168.379C178.151 168.537 178.081 168.688 178.081 168.856V174.239C178.081 175.231 178.883 176.033 179.875 176.033C180.866 176.033 181.669 175.231 181.669 174.239V174.219C186.955 182.413 194.648 191.711 203.641 200.706C206.163 203.228 208.709 205.646 211.249 207.943C205.063 213.303 199.012 217.828 193.577 221.106C184.601 226.519 179.933 226.948 178.668 225.685C177.476 224.492 177.909 220.334 181.86 213.146L185.824 211.825C186.763 211.513 187.271 210.497 186.957 209.556C186.647 208.621 185.649 208.118 184.702 208.421C186.85 205.103 189.601 201.317 193.08 197.049C193.705 196.281 193.589 195.151 192.822 194.524C192.057 193.9 190.927 194.019 190.298 194.781C188.381 197.133 184.886 201.598 181.669 206.586V206.535C181.669 205.543 180.867 204.741 179.875 204.741C178.883 204.741 178.081 205.543 178.081 206.535V211.918C178.081 212.111 178.154 212.286 178.213 212.464C174.849 218.826 172.978 225.069 176.131 228.222C177.231 229.322 178.74 229.871 180.651 229.871C184.203 229.871 189.147 227.97 195.43 224.18C201.136 220.737 207.489 215.968 213.957 210.336C220.425 215.968 226.777 220.737 232.483 224.18C238.767 227.972 243.71 229.873 247.264 229.871C249.174 229.871 250.682 229.322 251.782 228.222C254.935 225.07 253.066 218.829 249.701 212.465C249.76 212.286 249.833 212.111 249.833 211.918Z" fill="#84B5FF"/>
<path d="M196.014 174.247C196.014 175.239 196.816 176.042 197.808 176.042C198.8 176.042 199.602 175.239 199.602 174.247C199.602 173.257 200.407 172.453 201.397 172.453C202.387 172.453 203.191 173.257 203.191 174.247C203.191 175.237 202.387 176.042 201.397 176.042C200.405 176.042 199.602 176.844 199.602 177.836C199.602 178.828 200.405 179.63 201.397 179.63C202.387 179.63 203.191 180.435 203.191 181.425C203.191 182.415 202.387 183.219 201.397 183.219C200.407 183.219 199.602 182.415 199.602 181.425C199.602 180.433 198.8 179.63 197.808 179.63C196.816 179.63 196.014 180.433 196.014 181.424C196.014 184.393 198.428 186.807 201.397 186.807C204.365 186.807 206.779 184.393 206.779 181.424C206.779 180.047 206.259 178.789 205.406 177.836C206.259 176.883 206.779 175.624 206.779 174.247C206.779 171.279 204.365 168.864 201.397 168.864C198.428 168.864 196.014 171.279 196.014 174.247Z" fill="#84B5FF"/>
<path d="M226.517 186.807C229.485 186.807 231.9 184.393 231.9 181.424V174.247C231.9 171.279 229.485 168.864 226.517 168.864C223.548 168.864 221.134 171.279 221.134 174.247V181.424C221.134 184.393 223.548 186.807 226.517 186.807ZM224.723 174.247C224.723 173.257 225.527 172.453 226.517 172.453C227.507 172.453 228.311 173.257 228.311 174.247V181.425C228.311 182.415 227.507 183.219 226.517 183.219C225.527 183.219 224.723 182.415 224.723 181.425V174.247Z" fill="#84B5FF"/>
<path d="M213.957 186.807C216.925 186.807 219.34 184.393 219.34 181.424C219.34 178.456 216.925 176.042 213.957 176.042C213.405 176.042 212.884 176.149 212.383 176.304C212.788 174.671 213.976 172.453 217.545 172.453C218.537 172.453 219.34 171.65 219.34 170.659C219.34 169.667 218.537 168.864 217.545 168.864C210.449 168.864 208.574 174.732 208.574 177.836V181.424C208.574 184.393 210.988 186.807 213.957 186.807ZM213.957 179.63C214.947 179.63 215.751 180.435 215.751 181.425C215.751 182.415 214.947 183.219 213.957 183.219C212.967 183.219 212.162 182.415 212.162 181.424C212.162 180.435 212.967 179.63 213.957 179.63Z" fill="#84B5FF"/>
<path d="M239.077 168.864C239.077 166.886 237.467 165.276 235.488 165.276C233.51 165.276 231.9 166.886 231.9 168.864C231.9 170.843 233.51 172.453 235.488 172.453C237.467 172.453 239.077 170.843 239.077 168.864Z" fill="#84B5FF"/>
</g>
<defs>
<filter id="filter0_d_46_3218" x="389.286" y="44.6426" width="135.645" height="101.915" filterUnits="userSpaceOnUse" color-interpolation-filters="sRGB">
<feFlood flood-opacity="0" result="BackgroundImageFix"/>
<feColorMatrix in="SourceAlpha" type="matrix" values="0 0 0 0 0 0 0 0 0 0 0 0 0 0 0 0 0 0 127 0" result="hardAlpha"/>
<feOffset dy="4"/>
<feGaussianBlur stdDeviation="4"/>
<feColorMatrix type="matrix" values="0 0 0 0 0.0223125 0 0 0 0 0.00468749 0 0 0 0 0.225 0 0 0 0.25 0"/>
<feBlend mode="normal" in2="BackgroundImageFix" result="effect1_dropShadow_46_3218"/>
<feBlend mode="normal" in="SourceGraphic" in2="effect1_dropShadow_46_3218" result="shape"/>
</filter>
<filter id="filter1_d_46_3218" x="59.4963" y="215.122" width="129.07" height="110.843" filterUnits="userSpaceOnUse" color-interpolation-filters="sRGB">
<feFlood flood-opacity="0" result="BackgroundImageFix"/>
<feColorMatrix in="SourceAlpha" type="matrix" values="0 0 0 0 0 0 0 0 0 0 0 0 0 0 0 0 0 0 127 0" result="hardAlpha"/>
<feOffset dy="4"/>
<feGaussianBlur stdDeviation="4"/>
<feColorMatrix type="matrix" values="0 0 0 0 0.0771528 0 0 0 0 0.152763 0 0 0 0 0.420833 0 0 0 0.25 0"/>
<feBlend mode="normal" in2="BackgroundImageFix" result="effect1_dropShadow_46_3218"/>
<feBlend mode="normal" in="SourceGraphic" in2="effect1_dropShadow_46_3218" result="shape"/>
</filter>
<filter id="filter2_d_46_3218" x="289.284" y="159.189" width="77.1695" height="76.2183" filterUnits="userSpaceOnUse" color-interpolation-filters="sRGB">
<feFlood flood-opacity="0" result="BackgroundImageFix"/>
<feColorMatrix in="SourceAlpha" type="matrix" values="0 0 0 0 0 0 0 0 0 0 0 0 0 0 0 0 0 0 127 0" result="hardAlpha"/>
<feMorphology radius="3" operator="dilate" in="SourceAlpha" result="effect1_dropShadow_46_3218"/>
<feOffset dx="5" dy="5"/>
<feGaussianBlur stdDeviation="4"/>
<feColorMatrix type="matrix" values="0 0 0 0 0 0 0 0 0 0 0 0 0 0 0 0 0 0 0.2 0"/>
<feBlend mode="normal" in2="BackgroundImageFix" result="effect1_dropShadow_46_3218"/>
<feBlend mode="normal" in="SourceGraphic" in2="effect1_dropShadow_46_3218" result="shape"/>
</filter>
<clipPath id="clip0_46_3218">
<rect width="78.9494" height="78.9494" fill="white" transform="translate(174.482 150.921)"/>
</clipPath>
</defs>
</svg>
