<svg width="517" height="409" viewBox="0 0 517 409" fill="none" xmlns="http://www.w3.org/2000/svg">
<path opacity="0.04" d="M102.537 308.542C66.1802 376.883 316.754 383.817 370.537 359.042C424.32 334.267 435.85 239.878 417.037 209.542C411.17 200.137 489.495 265.055 486.037 254.266C478.506 230.66 489.266 124.804 476.037 104.542C464.601 87.0033 354.49 118.603 339.537 104.542C332.988 98.4581 265.037 12.0422 184.037 25.0422C124.862 34.5394 47.5398 87.8506 31.5367 131.042C15.5335 174.234 169.036 183.542 102.537 308.542Z" fill="#276ED8"/>
<path opacity="0.2" d="M205.603 138.049L220 135.341V122.433L205.603 119.951C204.498 114.648 202.399 109.684 199.511 105.284L207.77 93.1663L198.631 84.0273L186.694 92.4667C182.293 89.5784 177.352 87.5024 172.026 86.3967L169.318 72H156.411L153.929 86.3967C148.626 87.5024 143.662 89.6009 139.261 92.4893L127.166 84.2304L118.027 93.3694L126.467 105.306C123.578 109.707 121.502 114.671 120.397 119.974L106 122.682V135.589L120.397 138.071C121.502 143.397 123.601 148.338 126.489 152.739L118.23 164.834L127.369 173.973L139.329 165.533C143.729 168.422 148.694 170.52 153.996 171.603L156.704 186H169.612L172.094 171.603C177.419 170.498 182.361 168.399 186.761 165.511L198.856 173.77L207.995 164.631L199.556 152.694C202.422 148.316 204.498 143.374 205.603 138.049ZM163 155.74C148.242 155.74 136.283 143.758 136.283 129.023C136.283 114.287 148.242 102.305 163 102.305C177.758 102.305 189.717 114.265 189.717 129.023C189.717 143.78 177.758 155.74 163 155.74Z" fill="#84B5FF"/>
<path d="M372.67 133.3V266.29C372.67 269.71 369.9 272.48 366.48 272.48H163.68C160.26 272.48 157.49 269.71 157.49 266.29V133.3C157.49 125.41 163.89 119 171.79 119H358.37C366.27 119 372.67 125.41 372.67 133.3Z" fill="white" stroke="#84B5FF" stroke-miterlimit="10"/>
<path d="M257.141 150.811H233.004V152.839H257.141V150.811Z" fill="#84B5FF"/>
<path d="M285.449 150.811H261.312V152.839H285.449V150.811Z" fill="#06B25F"/>
<path d="M277.888 161.757H240.461V163.786H277.888V161.757Z" fill="#276ED8"/>
<path d="M303.09 161.757H284.07V163.786H303.09V161.757Z" fill="#84B5FF"/>
<path d="M269.872 172.689H253.438V174.718H269.872V172.689Z" fill="#06B25F"/>
<path d="M333.901 172.689H279.375V174.718H333.901V172.689Z" fill="#06B25F"/>
<path d="M328.518 183.63H266.203V185.658H328.518V183.63Z" fill="#276ED8"/>
<path d="M269.802 194.562H250.625V196.591H269.802V194.562Z" fill="#84B5FF"/>
<path d="M297.188 194.562H278.012V196.591H297.188V194.562Z" fill="#276ED8"/>
<path d="M260.896 251.322H233.004V253.351H260.896V251.322Z" fill="#84B5FF"/>
<path d="M298.548 251.322H270.656V253.351H298.548V251.322Z" fill="#06B25F"/>
<path d="M335.208 251.322H307.316V253.351H335.208V251.322Z" fill="#84B5FF"/>
<path d="M294.987 240.372H240.461V242.401H294.987V240.372Z" fill="#276ED8"/>
<path d="M358.002 240.372H303.477V242.401H358.002V240.372Z" fill="#84B5FF"/>
<path d="M307.544 229.443H253.438V231.471H307.544V229.443Z" fill="#84B5FF"/>
<path d="M327.317 229.443H312.262V231.471H327.317V229.443Z" fill="#06B25F"/>
<path d="M270.274 218.499H249.91V220.527H270.274V218.499Z" fill="#06B25F"/>
<path d="M301.45 218.499H281.086V220.527H301.45V218.499Z" fill="#276ED8"/>
<path d="M334.931 218.499H314.566V220.527H334.931V218.499Z" fill="#84B5FF"/>
<path d="M302.079 207.571H273.523V209.599H302.079V207.571Z" fill="#06B25F"/>
<path d="M262.747 207.571H234.191V209.599H262.747V207.571Z" fill="#276ED8"/>
<path d="M226.278 148.872H223.676V151.477H226.278V148.872Z" fill="#84B5FF"/>
<path d="M226.278 244.24H223.676V238.941H226.278V244.24ZM226.278 230.985H223.676V225.687H226.278V230.985ZM226.278 217.731H223.676V212.433H226.278V217.731ZM226.278 204.477H223.676V199.179H226.278V204.477ZM226.278 191.223H223.676V185.924H226.278V191.223ZM226.278 177.968H223.676V172.67H226.278V177.968ZM226.278 164.714H223.676V159.416H226.278V164.714Z" fill="#84B5FF"/>
<path d="M226.278 252.194H223.676V254.799H226.278V252.194Z" fill="#84B5FF"/>
<path opacity="0.7" d="M157 135.49C157 132.176 159.686 129.49 163 129.49H213V272.49H163C159.686 272.49 157 269.804 157 266.49V135.49Z" fill="#84B5FF"/>
<path d="M185.615 152.813H161.479V154.842H185.615V152.813Z" fill="#06B25F"/>
<path d="M204.09 165.208H166.662V167.236H204.09V165.208Z" fill="#84B5FF"/>
<path d="M204.09 177.604H166.662V179.632H204.09V177.604Z" fill="#84B5FF"/>
<path d="M204.09 190H166.662V192.028H204.09V190Z" fill="#84B5FF"/>
<path d="M204.09 202.393H166.662V204.421H204.09V202.393Z" fill="#84B5FF"/>
<path d="M206.033 227.181H168.605V229.21H206.033V227.181Z" fill="#84B5FF"/>
<path d="M206.033 239.579H168.605V241.607H206.033V239.579Z" fill="#84B5FF"/>
<path d="M206.033 251.97H168.605V253.999H206.033V251.97Z" fill="#84B5FF"/>
<path d="M185.615 214.787H161.479V216.815H185.615V214.787Z" fill="#06B25F"/>
<path d="M372.67 133.3V133.9H157.49V133.3C157.49 125.41 163.89 119 171.79 119H358.37C366.27 119 372.67 125.41 372.67 133.3Z" fill="#84B5FF"/>
<path opacity="0.3" d="M339.99 127.14C339.99 128.17 339.16 129 338.13 129C337.1 129 336.27 128.17 336.27 127.14C336.27 126.11 337.1 125.28 338.13 125.28C339.15 125.28 339.99 126.11 339.99 127.14Z" fill="white"/>
<path opacity="0.3" d="M350.169 127.14C350.169 128.17 349.339 129 348.309 129C347.279 129 346.449 128.17 346.449 127.14C346.449 126.11 347.279 125.28 348.309 125.28C349.329 125.28 350.169 126.11 350.169 127.14Z" fill="white"/>
<path opacity="0.3" d="M359.9 127.14C359.9 128.17 359.07 129 358.04 129C357.01 129 356.18 128.17 356.18 127.14C356.18 126.11 357.01 125.28 358.04 125.28C359.07 125.28 359.9 126.11 359.9 127.14Z" fill="white"/>
<path d="M372.67 133.3V266.29C372.67 269.71 369.9 272.48 366.48 272.48H163.68C160.26 272.48 157.49 269.71 157.49 266.29V133.3C157.49 125.41 163.89 119 171.79 119H358.37C366.27 119 372.67 125.41 372.67 133.3Z" stroke="#84B5FF" stroke-miterlimit="10"/>
<path d="M282.89 314C271.903 314 263 322.903 263 333.89C263 344.876 271.903 353.779 282.89 353.779C293.876 353.779 302.779 344.876 302.779 333.89C302.779 322.903 293.876 314 282.89 314ZM282.89 348.823C274.633 348.823 267.946 342.136 267.946 333.88C267.946 325.624 274.633 318.937 282.89 318.937C291.146 318.937 297.833 325.624 297.833 333.88C297.833 342.136 291.146 348.823 282.89 348.823Z" fill="#66D6A0"/>
<path d="M74.7725 97.976H46.988C45.8941 97.976 45 97.0914 45 95.988C45 94.8941 45.8846 94 46.988 94H74.7725C75.8664 94 76.7605 94.8846 76.7605 95.988C76.7605 97.0819 75.8664 97.976 74.7725 97.976Z" fill="#66D6A0"/>
<path d="M74.7725 107.897H46.988C45.8941 107.897 45 107.013 45 105.909C45 104.815 45.8846 103.921 46.988 103.921H74.7725C75.8664 103.921 76.7605 104.806 76.7605 105.909C76.7605 107.003 75.8664 107.897 74.7725 107.897Z" fill="#66D6A0"/>
<path opacity="0.3" d="M273.575 165.627C273.575 166.465 272.9 167.141 272.061 167.141C271.223 167.141 270.547 166.465 270.547 165.627C270.547 164.788 271.223 164.113 272.061 164.113C272.892 164.113 273.575 164.788 273.575 165.627Z" fill="white"/>
<path opacity="0.3" d="M281.864 165.627C281.864 166.465 281.189 167.141 280.35 167.141C279.512 167.141 278.836 166.465 278.836 165.627C278.836 164.788 279.512 164.113 280.35 164.113C281.181 164.113 281.864 164.788 281.864 165.627Z" fill="white"/>
<path opacity="0.3" d="M289.782 165.627C289.782 166.465 289.107 167.141 288.268 167.141C287.43 167.141 286.754 166.465 286.754 165.627C286.754 164.788 287.43 164.113 288.268 164.113C289.107 164.113 289.782 164.788 289.782 165.627Z" fill="white"/>
<path d="M265.501 72.3864C265.489 72.7075 262.884 80.6011 262.695 80.4939C262.504 80.3895 244.343 75.5953 244.343 75.5953L246.999 65.2258L265.501 72.3864Z" fill="#66D6A0"/>
<path d="M244.019 111.124L246.344 112.417L247.765 110.548L250.244 112.137L251.606 110.484L253.818 111.883L255.536 109.969L257.913 110.935L257.771 113.429L244.464 115.167L244.019 111.124Z" fill="#06B25F"/>
<path d="M274.254 119.989L249.301 118.02L249.587 114.496L266.783 112.222L274.254 119.989Z" fill="#66D6A0"/>
<path d="M312.26 56.0988L310.694 70.5438L280.479 86.6512L273.24 78.1748L312.26 56.0988Z" fill="#66D6A0"/>
<path d="M283.344 100.439C283.105 100.221 275.66 96.4952 275.6 96.7042C275.54 96.9132 266.121 113.122 266.121 113.122L275.365 118.559L283.344 100.439Z" fill="#66D6A0"/>
<g filter="url(#filter0_d_193_988)">
<rect x="219.586" y="81.8918" width="58" height="57" rx="6" fill="#276ED8"/>
</g>
<path d="M239.329 119.818L226.053 112.638C225.195 112.141 224.766 111.373 224.766 110.335C224.766 109.251 225.217 108.483 226.12 108.031L239.329 100.783L239.329 103.425C239.329 103.606 239.262 103.854 239.126 104.17C238.991 104.441 238.788 104.644 238.517 104.78L229.101 109.928C228.74 110.199 228.74 110.47 229.101 110.741L239.329 116.228L239.329 119.818Z" fill="white"/>
<path d="M250.638 98.6157L253.28 98.6157L246.71 121.105C246.529 121.692 246.122 121.986 245.49 121.986L243.797 121.986L250.638 98.6157Z" fill="white"/>
<path d="M257.544 100.783L270.753 108.031C271.702 108.528 272.176 109.296 272.176 110.335C272.176 111.373 271.702 112.118 270.753 112.57L257.544 119.818L257.544 117.176C257.544 117.041 257.589 116.815 257.68 116.499C257.815 116.183 258.018 115.957 258.289 115.821L267.773 110.741C268.134 110.47 268.134 110.199 267.773 109.928L257.544 104.374L257.544 100.783Z" fill="white"/>
<path d="M265.337 71.6988C272.794 71.3434 286.9 91.4094 284.333 98.0455C281.991 104.096 278.133 104.206 275.633 102.708C271.65 100.316 277.529 95.686 275.231 92.3392C272.933 88.9923 270.101 85.0202 267.897 82.1214C265.44 78.8908 259.184 82.9952 258.162 78.4716C257.523 75.6315 258.845 72.0092 265.337 71.6988Z" fill="#06B25F"/>
<rect x="253.59" y="81.8918" width="24" height="32" rx="6" fill="#276ED8"/>
<path d="M239.154 120.094L225.877 112.914C225.019 112.417 224.59 111.649 224.59 110.611C224.59 109.527 225.041 108.759 225.945 108.308L239.154 101.059L239.154 103.701C239.154 103.882 239.086 104.13 238.95 104.446C238.815 104.717 238.612 104.921 238.341 105.056L228.925 110.204C228.564 110.475 228.564 110.746 228.925 111.017L239.154 116.504L239.154 120.094Z" fill="white"/>
<path d="M250.463 98.8918L253.104 98.8918L246.534 121.381C246.353 121.968 245.947 122.262 245.314 122.262L243.621 122.262L250.463 98.8918Z" fill="white"/>
<path d="M257.369 101.059L270.578 108.308C271.526 108.804 272 109.572 272 110.611C272 111.649 271.526 112.394 270.578 112.846L257.369 120.094L257.369 117.452C257.369 117.317 257.414 117.091 257.504 116.775C257.639 116.459 257.843 116.233 258.114 116.097L267.597 111.017C267.958 110.746 267.958 110.475 267.597 110.204L257.369 104.65L257.369 101.059Z" fill="white"/>
<path d="M260.434 75.3515C259.917 76.6416 260.545 78.1111 261.838 78.6294C263.131 79.1476 264.602 78.5232 265.119 77.2331C265.638 75.94 265.009 74.4735 263.716 73.9553C262.424 73.434 260.956 74.0595 260.434 75.3515Z" fill="#66D6A0"/>
<path d="M276.942 97.1992C276.425 98.4893 277.053 99.9588 278.346 100.477C279.639 100.995 281.11 100.371 281.627 99.0808C282.144 97.7907 281.517 96.3212 280.223 95.803C278.932 95.2817 277.46 95.906 276.942 97.1992Z" fill="#66D6A0"/>
<path d="M230.175 92.6143L230.897 90.0602L233.226 90.3762L233.846 87.5015L235.983 87.7085L236.546 85.1572L239.116 85.2961L240.105 82.9349L238.235 81.2732L227.616 89.4447L230.175 92.6143Z" fill="#06B25F"/>
<path d="M245.199 65.002L228.999 84.0119L231.708 86.3035L245.449 75.76L245.199 65.002Z" fill="#66D6A0"/>
<path d="M242.632 75.0968C240.024 73.6609 239.069 70.3883 240.501 67.7856C241.932 65.183 245.206 64.2359 247.814 65.6718C250.422 67.1076 251.377 70.3802 249.946 72.9829C248.518 75.5846 245.245 76.5316 242.632 75.0968Z" fill="#06B25F"/>
<path d="M243.89 72.8025C242.668 72.1278 242.22 70.5969 242.893 69.3772C243.561 68.1585 245.097 67.7135 246.319 68.3882C247.542 69.0629 247.989 70.5938 247.316 71.8134C246.646 73.0304 245.114 73.4744 243.89 72.8025Z" fill="#66D6A0"/>
<rect x="274.59" y="94.8918" width="3" height="6" rx="1.5" fill="#276ED8"/>
<path d="M312.99 47.5903H392.859V49.4987H312.99V47.5903Z" fill="#66D6A0"/>
<path d="M388.572 44.9199H396.352V60.0622H388.572V44.9199Z" fill="#66D6A0"/>
<path d="M307.467 43.8918H315.246V59.0341H307.467V43.8918Z" fill="#66D6A0"/>
<path d="M394.316 56.1731L385.276 71.5978L312.992 69.7387L309.436 55.6509L394.316 56.1731Z" fill="#66D6A0"/>
<path d="M479.82 152.351C477.838 154.387 435.609 134.078 435.609 134.078L415.589 150.653L478.8 202.225L479.82 152.351Z" fill="#66D6A0"/>
<path d="M435.609 134.078L397.861 57.0073L385.278 71.5977L415.589 150.653L435.609 134.078Z" fill="#66D6A0"/>
<path d="M474.381 143.312V201.424C474.381 204.114 476.567 206.295 479.263 206.295H509.051C511.748 206.295 513.934 204.114 513.934 201.424V143.312C513.934 140.621 511.748 138.44 509.051 138.44H479.263C476.567 138.44 474.381 140.621 474.381 143.312Z" fill="#66D6A0"/>
<path d="M426.409 156.115C418.754 156.115 412.549 149.924 412.549 142.287C412.549 134.65 418.754 128.458 426.409 128.458C434.064 128.458 440.27 134.65 440.27 142.287C440.27 149.924 434.064 156.115 426.409 156.115Z" fill="#06B25F"/>
<path d="M382.64 65.4391C382.64 70.8457 387.032 75.2274 392.451 75.2274C397.87 75.2274 402.262 70.8457 402.262 65.4391C402.262 60.0326 397.87 55.6509 392.451 55.6509C387.032 55.6509 382.64 60.0326 382.64 65.4391Z" fill="#06B25F"/>
<path d="M511.273 137.304V206.242C511.273 209.363 513.653 211.892 516.59 211.892V131.655C513.653 131.655 511.273 134.184 511.273 137.304Z" fill="#06B25F"/>
<path d="M427.871 135.386C427.871 134.368 395.479 65.4392 395.479 65.4392L390.886 66.9304L418.943 139.456L427.871 135.386Z" fill="#06B25F"/>
<path d="M387.707 65.4325C387.707 68.0536 389.837 70.1755 392.461 70.1755C395.085 70.1755 397.215 68.0504 397.215 65.4325C397.215 62.8113 395.085 60.6895 392.461 60.6895C389.837 60.6895 387.707 62.8113 387.707 65.4325Z" fill="#66D6A0"/>
<path d="M303.209 63.2121C303.209 67.7023 306.856 71.3449 311.36 71.3449C315.861 71.3449 319.512 67.7055 319.512 63.2121C319.512 58.722 315.864 55.0793 311.36 55.0793C306.86 55.0793 303.209 58.7187 303.209 63.2121Z" fill="#06B25F"/>
<path d="M385.277 61.3958L317.602 60.6863V63.9644L385.277 67.8632V61.3958Z" fill="#06B25F"/>
<path d="M307.714 62.6668C307.714 64.6737 309.343 66.2996 311.355 66.2996C313.366 66.2996 314.996 64.6737 314.996 62.6668C314.996 60.6598 313.366 59.0339 311.355 59.0339C309.347 59.0339 307.714 60.6598 307.714 62.6668Z" fill="#66D6A0"/>
<path d="M420.586 142.785C420.586 146.04 423.23 148.677 426.492 148.677C429.755 148.677 432.398 146.04 432.398 142.785C432.398 139.529 429.755 136.892 426.492 136.892C423.23 136.892 420.586 139.529 420.586 142.785Z" fill="#66D6A0"/>
<g filter="url(#filter1_d_193_988)">
<rect x="77" y="149" width="58" height="57" rx="6" fill="#06B25F"/>
</g>
<g clip-path="url(#clip0_193_988)">
<path d="M90 177C90 175.503 93.5318 173.555 99.5953 172.712C99.4775 174.098 99.4166 175.535 99.4166 177C99.4166 178.464 99.4775 179.902 99.5953 181.288C93.5318 180.445 90 178.497 90 177Z" fill="white"/>
<path d="M105.999 193C104.502 193 102.554 189.468 101.711 183.405C103.097 183.523 104.535 183.583 105.999 183.583C107.464 183.583 108.902 183.523 110.288 183.405C109.444 189.468 107.497 193 105.999 193Z" fill="white"/>
<path d="M112.404 181.288C112.522 179.902 112.583 178.464 112.583 177C112.583 175.538 112.522 174.103 112.405 172.719C113.665 172.895 114.86 173.123 115.959 173.399L115.544 173.577C115.069 173.782 114.849 174.333 115.054 174.809C115.258 175.285 115.81 175.504 116.285 175.299L118.864 174.19C119.339 173.985 119.559 173.434 119.354 172.958L118.245 170.379C118.092 170.025 117.746 169.812 117.383 169.812C117.259 169.812 117.134 169.837 117.013 169.889C116.537 170.094 116.318 170.645 116.522 171.121L116.758 171.668C115.37 171.302 113.832 171.011 112.202 170.801C111.914 168.554 111.468 166.488 110.881 164.727C110.424 163.355 109.901 162.225 109.322 161.348C116.556 162.882 122 169.317 122 177C122 178.497 118.468 180.445 112.404 181.288Z" fill="white"/>
<path d="M101.492 181.507C101.363 180.111 101.291 178.606 101.291 177C101.291 175.394 101.363 173.889 101.492 172.493C102.888 172.364 104.393 172.292 105.999 172.292C107.537 172.292 109.053 172.363 110.507 172.499C110.636 173.893 110.708 175.396 110.708 177C110.708 178.606 110.635 180.111 110.506 181.507C109.111 181.636 107.606 181.708 105.999 181.708C104.393 181.708 102.888 181.636 101.492 181.507Z" fill="white"/>
<path d="M105.999 170.417C104.535 170.417 103.097 170.477 101.711 170.595C102.554 164.532 104.502 161 105.999 161C107.497 161 109.445 164.533 110.288 170.597C108.896 170.478 107.456 170.417 105.999 170.417Z" fill="white"/>
<path d="M102.677 161.348C102.098 162.225 101.576 163.355 101.118 164.727C100.532 166.487 100.086 168.552 99.7981 170.798C97.5513 171.086 95.4865 171.532 93.7267 172.118C92.3544 172.576 91.2245 173.099 90.3477 173.677C91.6542 167.516 96.5163 162.654 102.677 161.348Z" fill="white"/>
<path d="M121.652 180.323C120.345 186.484 115.483 191.346 109.322 192.652C109.901 191.775 110.424 190.645 110.881 189.273C111.468 187.513 111.913 185.448 112.201 183.202C114.448 182.914 116.513 182.468 118.273 181.882C119.645 181.424 120.775 180.901 121.652 180.323Z" fill="white"/>
<path d="M93.7267 181.882C95.4865 182.468 97.5513 182.914 99.7981 183.202C100.086 185.448 100.532 187.513 101.118 189.273C101.576 190.645 102.098 191.775 102.677 192.652C96.5162 191.346 91.6541 186.484 90.3477 180.323C91.2245 180.901 92.3544 181.424 93.7267 181.882Z" fill="white"/>
</g>
<g filter="url(#filter2_d_193_988)">
<path d="M137.369 251.961C156.927 249.605 175.31 255.654 184.384 266.221C184.317 265.315 184.193 264.397 184.004 263.486C180.5 246.613 157.007 235.419 131.536 238.488C106.065 241.556 88.2529 257.725 91.7563 274.598C92.5705 278.519 94.4645 282.131 97.213 285.329C96.0396 269.48 113.277 254.863 137.369 251.961Z" fill="#043072"/>
<path d="M182.932 260.923C184.094 276.8 166.857 291.441 142.759 294.348C133.409 295.475 123.523 294.864 113.956 291.621C110.045 290.295 106.164 288.508 102.535 286.048C100.934 284.961 99.3701 283.73 97.8943 282.396C96.5204 281.156 93.8049 278.14 93.628 275.986C94.0114 280.676 96.2651 285.55 98.7001 289.521C109.784 307.59 133.313 309.687 148.593 307.844C174.076 304.77 191.887 288.574 188.384 271.673C187.57 267.745 185.676 264.127 182.932 260.923Z" fill="#84B5FF"/>
<path d="M184.31 261.553C181.26 245.72 157.88 235.966 132.097 239.771C106.313 243.576 87.8794 259.5 90.9295 275.333C91.6382 279.013 93.4453 282.362 96.1263 285.289" stroke="#84B5FF" stroke-width="2" stroke-miterlimit="10"/>
<path d="M184.261 261.042C184.963 276.461 167.101 291.348 142.652 295.06C122.805 298.073 104.396 292.844 95.5358 282.868" stroke="#84B5FF" stroke-width="2" stroke-miterlimit="10"/>
<path d="M187.692 285.428C168.745 300.486 144.07 308.827 114.968 312.258C113.09 312.478 111.259 311.049 110.854 309.024L104.39 276.666C103.988 274.659 105.127 272.8 106.969 272.483C132.371 268.081 155.827 259.703 176.98 246.617C179.042 245.342 181.835 246.779 182.359 249.4L188.861 281.886C189.135 283.254 188.693 284.629 187.692 285.428Z" fill="#276ED8"/>
<path d="M192.997 287.875C174.061 302.913 131.443 320.911 131.443 320.911L112.954 311.07C111.851 310.47 111.551 308.999 111.438 307.716L109.718 279.12C109.315 277.11 110.466 275.258 112.313 274.94C137.54 270.569 159.181 259.197 180.199 246.236C180.47 246.065 180.828 246.104 181.091 246.337C183.766 248.685 198.317 258.744 198.958 260.834L194.161 284.344C194.44 285.71 193.999 287.083 192.997 287.875Z" fill="#276ED8"/>
<path opacity="0.21" d="M160.249 264.103C161.492 264.974 162.816 265.81 164.162 266.668C164.43 266.819 164.701 266.958 164.974 267.103C161.277 264.408 157.531 261.796 153.828 259.119C153.752 259.153 153.676 259.187 153.599 259.216C155.796 260.893 158.011 262.526 160.249 264.103Z" fill="white"/>
<path opacity="0.21" d="M181.23 264.671C172.409 268.18 163.596 271.731 154.59 274.754C148.182 276.905 141.759 278.33 135.223 279.974C132.701 280.608 128.442 281.617 125.982 283.837C129.747 286.434 133.521 289.016 137.306 291.573C138.495 292.378 137.514 294.299 136.324 293.494C132.417 290.857 128.533 288.193 124.646 285.516C124.39 286 124.214 286.52 124.13 287.082C128.951 290.516 133.778 293.948 138.747 297.11C139.958 297.882 138.971 299.803 137.765 299.03C135.778 297.766 133.824 296.448 131.874 295.117C132.157 295.564 132.44 296.012 132.709 296.469C134.857 300.106 136.578 304.037 137.951 308.068C138.082 308.025 138.207 307.982 138.338 307.939C140.029 307.272 141.791 306.772 143.461 306.31C148.238 304.988 152.972 304.04 157.541 302.143C158.285 301.815 159.023 301.488 159.762 301.167C168.195 297.415 176.35 293.067 184.518 288.76C187.069 287.113 189.579 285.399 192.064 283.645C192.508 281.57 192.964 279.499 193.433 277.438C193.953 274.362 194.538 271.3 195.152 268.253C195.268 265.357 195.319 262.447 195.365 259.537C194.943 259.207 194.521 258.877 194.106 258.552C190.086 261.114 185.57 262.942 181.23 264.671Z" fill="white"/>
<path d="M122.642 315.118L116.149 284.463C115.536 281.57 116.912 278.79 119.422 277.849L186.367 252.736C187.291 252.388 188.252 252.335 189.176 252.51C187.586 250.892 185.268 250.188 183.154 250.976L116.21 276.089C113.699 277.03 112.324 279.81 112.937 282.704L119.429 313.359C119.868 315.436 121.622 316.874 123.458 316.919C123.073 316.409 122.784 315.801 122.642 315.118Z" fill="#06B25F"/>
<path d="M201.694 295.294L135.239 320.283C131.786 321.584 127.822 319.071 127.025 315.082L121.662 288.245C121.014 285.006 122.731 281.971 125.641 281.211C148.347 275.285 170.154 267.083 191.145 256.828C194.649 255.116 198.99 257.599 199.834 261.823L205.151 288.425C205.747 291.437 204.304 294.312 201.694 295.294Z" fill="#84B5FF"/>
<path d="M174.386 273.538L148.376 283.797C147.21 284.258 145.879 283.34 145.657 281.926L145.606 281.597C145.444 280.561 145.949 279.59 146.814 279.282C156.1 275.958 164.772 272.815 172.764 269.393C173.914 268.903 175.256 269.762 175.521 271.164C175.723 272.207 175.245 273.199 174.386 273.538Z" fill="#06B25F"/>
<path d="M201.227 295.21L135.583 319.891C132.171 321.174 128.257 318.69 127.471 314.754L122.173 288.245C121.534 285.047 123.23 282.051 126.103 281.297C148.53 275.446 170.066 267.337 190.799 257.21C194.263 255.522 198.548 257.97 199.381 262.141L204.632 288.415C205.229 291.403 203.801 294.24 201.227 295.21Z" stroke="#1351AC" stroke-width="3" stroke-miterlimit="10"/>
<path d="M119.842 311.387C119.44 311.723 118.862 311.755 118.379 311.463L107.277 304.805L102.35 288.185C102.154 287.526 102.422 286.856 102.985 286.59C103.37 286.405 103.825 286.407 104.241 286.582L115.76 291.535C116.301 291.768 116.709 292.272 116.832 292.866L120.335 309.833C120.464 310.433 120.278 311.028 119.842 311.387Z" fill="#194484"/>
<path d="M118.082 311.5L106.864 306.42C106.256 306.145 105.803 305.573 105.665 304.907L102.239 288.309C102.13 287.782 102.601 287.391 103.077 287.603L114.308 292.694C114.874 292.951 115.305 293.492 115.433 294.113L118.883 310.823C118.992 311.326 118.54 311.703 118.082 311.5Z" fill="#194484"/>
<path d="M112.091 304.91L108.042 302.872C107.657 302.68 107.356 302.286 107.258 301.847L105.716 294.992C105.503 294.046 106.287 293.368 107.116 293.788L111.194 295.841C111.563 296.029 111.847 296.396 111.942 296.817L113.491 303.706C113.704 304.652 112.919 305.324 112.091 304.91Z" fill="#276ED8"/>
<path d="M111.513 305.356L107.464 303.318C107.079 303.125 106.778 302.731 106.68 302.292L105.138 295.438C104.925 294.492 105.709 293.814 106.538 294.233L110.616 296.286C110.985 296.474 111.269 296.841 111.364 297.263L112.913 304.151C113.119 305.092 112.336 305.77 111.513 305.356Z" fill="#06B25F"/>
</g>
<path d="M385.778 186H332.222C328.234 186 325 189.225 325 193.205V282.111V302.394C325 306.405 328.268 309.599 332.222 309.599H385.778C389.765 309.599 393 306.375 393 302.394V213.488V193.205C393 189.189 389.728 186 385.778 186Z" fill="#276ED8"/>
<path d="M389.502 195.819H328.504V299.78H389.502V195.819Z" fill="white"/>
<path d="M371.389 229L357.91 232.938L355.915 236.777L351.867 236.744L342 247.502L351.867 258.259L355.913 258.226L357.912 262.062L371.389 266L375 251.308L372.948 247.502L375 243.697L371.389 229ZM356.24 237.394L366.551 234.505L360.632 245.685H348.792L356.24 237.394ZM356.24 257.608L348.792 249.318H360.632L366.551 260.498L356.24 257.608ZM369.436 258.68L363.515 247.502L369.436 236.32L372.295 247.502L369.436 258.68Z" fill="#06B25F"/>
<path d="M371.577 192.552H346.525C346.235 192.552 346 192.318 346 192.028V191.773C346 191.484 346.234 191.249 346.525 191.249H371.577C371.867 191.249 372.102 191.483 372.102 191.773V192.028C372.101 192.317 371.867 192.552 371.577 192.552Z" fill="white"/>
<path d="M389.502 293.631H328.504V299.781H389.502V293.631Z" fill="#84B5FF"/>
<path d="M389.502 195.819H328.504V201.336H389.502V195.819Z" fill="#84B5FF"/>
<defs>
<filter id="filter0_d_193_988" x="213.586" y="75.8918" width="80" height="79" filterUnits="userSpaceOnUse" color-interpolation-filters="sRGB">
<feFlood flood-opacity="0" result="BackgroundImageFix"/>
<feColorMatrix in="SourceAlpha" type="matrix" values="0 0 0 0 0 0 0 0 0 0 0 0 0 0 0 0 0 0 127 0" result="hardAlpha"/>
<feMorphology radius="3" operator="dilate" in="SourceAlpha" result="effect1_dropShadow_193_988"/>
<feOffset dx="5" dy="5"/>
<feGaussianBlur stdDeviation="4"/>
<feColorMatrix type="matrix" values="0 0 0 0 0 0 0 0 0 0 0 0 0 0 0 0 0 0 0.2 0"/>
<feBlend mode="normal" in2="BackgroundImageFix" result="effect1_dropShadow_193_988"/>
<feBlend mode="normal" in="SourceGraphic" in2="effect1_dropShadow_193_988" result="shape"/>
</filter>
<filter id="filter1_d_193_988" x="71" y="143" width="80" height="79" filterUnits="userSpaceOnUse" color-interpolation-filters="sRGB">
<feFlood flood-opacity="0" result="BackgroundImageFix"/>
<feColorMatrix in="SourceAlpha" type="matrix" values="0 0 0 0 0 0 0 0 0 0 0 0 0 0 0 0 0 0 127 0" result="hardAlpha"/>
<feMorphology radius="3" operator="dilate" in="SourceAlpha" result="effect1_dropShadow_193_988"/>
<feOffset dx="5" dy="5"/>
<feGaussianBlur stdDeviation="4"/>
<feColorMatrix type="matrix" values="0 0 0 0 0 0 0 0 0 0 0 0 0 0 0 0 0 0 0.2 0"/>
<feBlend mode="normal" in2="BackgroundImageFix" result="effect1_dropShadow_193_988"/>
<feBlend mode="normal" in="SourceGraphic" in2="effect1_dropShadow_193_988" result="shape"/>
</filter>
<filter id="filter2_d_193_988" x="81.5898" y="233.957" width="132.691" height="99.7659" filterUnits="userSpaceOnUse" color-interpolation-filters="sRGB">
<feFlood flood-opacity="0" result="BackgroundImageFix"/>
<feColorMatrix in="SourceAlpha" type="matrix" values="0 0 0 0 0 0 0 0 0 0 0 0 0 0 0 0 0 0 127 0" result="hardAlpha"/>
<feOffset dy="4"/>
<feGaussianBlur stdDeviation="4"/>
<feColorMatrix type="matrix" values="0 0 0 0 0.0223125 0 0 0 0 0.00468749 0 0 0 0 0.225 0 0 0 0.25 0"/>
<feBlend mode="normal" in2="BackgroundImageFix" result="effect1_dropShadow_193_988"/>
<feBlend mode="normal" in="SourceGraphic" in2="effect1_dropShadow_193_988" result="shape"/>
</filter>
<clipPath id="clip0_193_988">
<rect width="32" height="32" fill="white" transform="matrix(1 0 0 -1 90 193)"/>
</clipPath>
</defs>
</svg>
