<svg xmlns="http://www.w3.org/2000/svg" width="555" height="424" fill="none"><path fill="#276ED8" d="M455.41 335.622c-117.939 61.24-274.3 99.492-368.982 63.744C-8.255 363.618.63 222.036 70.436 140.732c12.651-11.723 16.345-25.171 24.809-38.848 18.449-29.93 49.463-21.2 90.146-36.27 24.507-21.826-30.342 17.091 0 0 13.274-7.39 31.01-28.536 54.685-38.272C292.438 5.81 443.16 7.456 475.229 41.172c32.069 33.718 141.678 210.591-19.819 294.45Z" opacity=".06"/><mask id="a" width="526" height="401" x="16" y="13" maskUnits="userSpaceOnUse" style="mask-type:alpha"><path fill="#276ED8" d="M455.41 335.622c-117.939 61.24-274.3 99.492-368.982 63.744C-8.255 363.618.63 222.036 70.436 140.732c12.651-11.723 16.345-25.171 24.809-38.848 18.449-29.93 49.463-21.2 90.146-36.27 24.507-21.826-30.342 17.091 0 0 13.274-7.39 31.01-28.536 54.685-38.272C292.438 5.81 443.16 7.456 475.229 41.172c32.069 33.718 141.678 210.591-19.819 294.45Z"/></mask><g mask="url(#a)"><path fill="url(#b)" d="M197.498 269.525c15.118 11.747 37.06 16.504 53.963 7.415 5.302-2.844 10.184-7.388 11.234-13.235 1.259-7.043-3.229-14.325-1.339-21.235 1.653-6.113 7.69-9.86 12.178-14.378 6.509-6.538 10.289-15.654 10.263-24.823-.027-9.169-3.806-18.258-10.341-24.769-5.538-5.528-12.756-9.09-19.108-13.714-5.013-3.668-9.527-8.425-11.916-14.192-2.362-5.687-.42-9.036-.079-14.617.709-11.933-2.257-25.275-10.734-34.151-10.971-11.535-27.271-11.349-41.68-8.372-7.296 1.488-15.354 3.8-21.758 7.734-2.73 1.674-4.541 3.721-6.405 6.405-.603.85-3.963 9.328-3.832 9.302-21.364 4.943-9.894 34.922-16.456 48.688-2.074 4.332-5.696 7.681-8.871 11.269-5.565 6.325-9.922 13.926-11.286 22.271-1.365 8.345.498 17.434 6.036 23.76.893 1.036 1.942 2.046 2.284 3.375.525 1.993-.578 3.987-1.391 5.873-4.856 11.296.708 24.371 7.716 34.444 4.698 6.777 10.236 13.209 17.428 17.142 11.47 6.299 25.958 5.315 37.769-.319"/><path fill="#464646" d="M190.824 107.829c-6.034-3.503-13.737.392-17.467 7.057-3.709 6.666-8.537 12.599-7.659 20.519.439 3.921 1.163 7.92.505 11.815-1.668 10.089-6.891 17.46-12.333 25.433-4.608 6.744-6.1 15.709-7.285 24.283-.702 5.123-1.273 10.769 1.009 15.186 2.897 5.594 6.21 12.808 9.327 18.219 5.134 8.861 2.128 17.513 8.338 25.354 1.844 2.3 4.433 3.503 6.979 4.47a55.8 55.8 0 0 0 15.887 3.372c4.608.287 9.282-.052 13.627-1.856 10.665-4.47 17.797-18.741 15.866-32.02-1.47-10.063-7.285-18.428-10.05-28.125-1.975-6.953-2.305-14.559-.966-21.721 1.712-9.044 6.079-18.036 4.191-27.028" opacity=".2"/><path fill="#66D6A0" d="M210.172 287.385c.745-2.957 15.716-77.951 15.716-77.951s-39.923-11.799-65.47 0l16.361 78.596 33.393-.645Z"/><path fill="#4CCC8E" d="M198.611 291.511c.455-.304 2.031-1.359 3.493-2.378 1.726-1.211 2.793-2.298 2.793-2.298s.113-2.311.203-2.949c.092-.643 3.308 18.899 9.597-19.589.837-5.119 5.683-23.543 5.733-26.94h.001s-4.196-2.528-6.19 4.717c-2 7.249-2.729 21.989-2.729 21.989s-3.563 11.496-8.246 11.049c0 0 2.801 8.307.708 11.978-.401.697-4.554 3.839-5.363 4.421Z" opacity=".83"/><path fill="#4CCC8E" d="M182.34 204.848h4.185s-1.334 3.604.322 4.507c3.541 1.931 3.863 1.931 8.691 1.931 2.867 0 4.829-5.794 4.829-5.794l3.541.644s-3.736 6.807-8.37 8.37c-3.216 1.084-5.726 1.651-8.691 0-3.439-1.915-4.507-9.658-4.507-9.658ZM212.223 244.288s-30.017 3.105-38.309-3.105c.025 0 10.353 24.866 38.309 3.105Z"/><path fill="#D1CFD7" d="M211.606 288.691s24.281 50.899 14.375 212.886c0 0-10.452 2.21-13.754 1.093 0 0-40.56-119.68-22.692-211.445l22.071-2.534Z"/><path fill="#D1CFD7" d="M175.246 288.843s-24.281 50.899-14.375 212.885c0 0 10.453 2.211 13.755 1.093 0 0 29.966-140.772 22.692-211.444l-22.072-2.534Z"/><path fill="#8F99B6" d="M213.031 294.341s-18.844 5.614-37.986-1.937l-.248-7.552s9.831 2.956 18.173 2.459c8.342-.497 19.639-1.962 19.639-1.962l.422 8.992Z"/><path fill="#D1CFD7" d="M208.725 281.958s3.178 12.296.249 13.761c-2.955 1.466-4.693.82-4.693.82l.025-13.613 4.419-.968ZM178.535 280.979s-1.986 11.501.522 13.638c3.401 2.881 3.575.546 3.575.546l.323-13.215-4.42-.969Z"/><path fill="#EAEAEA" d="m186.812 285.1.994 10.558 10.551-.249s.497-9.091.497-10.557l-12.042.248Zm2.21 2.385h7.87l-.248 5.738-7.125.423-.497-6.161Z"/><path fill="#FDA686" d="M191.879 211.268c3.799 0 9.732-1.143 9.732-4.968l-.968-12.694-.844-11.104c0-3.8-3.079-6.88-6.877-6.88-1.912 0-3.625.77-4.866 2.012a6.848 6.848 0 0 0-2.011 4.868l-.844 11.104-.82 10.657c-1.142 6.459 7.498 7.005 7.498 7.005Z"/><path fill="#FBB79E" d="M163.722 148.347s-8.218-11.253-10.601-.447c-1.887 8.595 5.785 14.93 10.527 13.315 4.742-1.59.074-12.868.074-12.868Z"/><path fill="#EF9F8A" d="M163.819 150.356s-5.835-7.105-7.324-3.751c-1.49 3.329-.596 7.253-.596 7.253s.596-4.496 4.146-2.409c0 0-2.532 7.378 3.774 4.571 0 .024 2.482-2.435 0-5.664Z"/><path fill="#FBB79E" d="M223.885 148.347s8.217-11.253 10.601-.447c1.912 8.595-5.785 14.93-10.527 13.315-4.742-1.59-.074-12.868-.074-12.868Z"/><path fill="#EF9F8A" d="M223.543 150.365s5.81-7.104 7.3-3.751c1.489 3.329.62 7.254.62 7.254s-.62-4.496-4.171-2.41c0 0 2.533 7.378-3.773 4.571 0 .025-2.458-2.435.024-5.664Z"/><path fill="#fff" d="M222.543 161.539c0 .993.794 1.788 1.763 1.788.968 0 1.762-.795 1.762-1.788a1.77 1.77 0 0 0-1.762-1.764 1.77 1.77 0 0 0-1.763 1.764ZM162.09 160.597a1.77 1.77 0 0 0 1.763 1.763 1.77 1.77 0 0 0 1.762-1.763 1.77 1.77 0 0 0-1.762-1.764 1.77 1.77 0 0 0-1.763 1.764Z"/><path fill="#FBB79E" d="M176.917 124.165c3.575-4.273 6.877-9.316 9.583-14.756 9.261 13.563 26.322 23.522 40.201 28.441.447 3.651-2.836 11.006-2.836 14.733 0 21.71-15.939 34.553-33.541 34.156-11.304-.256-26.367-12.446-26.367-34.156 0-6.31.621-12.669 2.061-18.557 4.022-2.757 7.721-6.061 10.899-9.861Z"/><path fill="#D8826C" d="M194.043 159.858s-3.749 6.359-7.82-.124l7.82.124Z"/><path fill="#99360A" d="M214.823 137.421s-7.2-9.713-18.323-1.441c0 0 8.987-3.602 18.323 1.441ZM183.467 135.806s-8.417-8.396-17.479 1.565c0 0 7.846-4.993 17.479-1.565Z"/><path fill="#712311" d="M179.914 167.597c.099.273 1.862 4.297 4.742 7.502 3.476 3.85 8.516 6.011 14.102-2.261 1.192-1.739 2.383-3.999 3.6-6.781 0 0-1.937 1.267-4.767 2.061-4.444 1.267-11.048 3.627-15.641 1.143-.72 0-1.415-1.192-2.036-1.664Z"/><path fill="#D5503B" d="M184.656 174.854c3.476 3.85 8.516 6.135 14.102-2.137-3.004-.82-10.055-2.062-14.102 2.137Z"/><path fill="#fff" d="M181.973 168.27c7.299 8.148 12.612 3.851 15.641-.67-4.444 1.266-11.048 2.533-15.641.67Z"/><path fill="url(#c)" d="M180.66 115.823c13.518 6.462 52.269 30.326 52.269 20.13 2.116-2.095 1.805-3.95 2.116-4.452.258-.437-.026-.983-.311-1.463 3.263-5.308-.617-20.81-6.536-23.626-5.92-2.817-12.091-6.245-18.553-7.861-3.283-.808-6.705-.739-10.242 0-3.538.74-16.908 8.496-18.743 10.373"/><path fill="url(#d)" d="M150.457 141.023c8.103 1.504 18.574-5.152 24.974-10.27 6.4-5.118 10.212-13.058 10.059-20.962-.027-2.196-.699-4.792-2.85-5.529-.746-.261-1.581-.224-2.384-.137-4.907.505-9.479 2.837-13.177 6.003-3.699 3.166-6.528 7.114-8.982 11.218-1.759 2.966-3.313 6.049-4.152 9.342-.513 2.078-1.845 9.211-1.845 7.926"/><path fill="#fff" d="M198.769 145.544c0 4.251 3.452 7.722 7.731 7.722a7.714 7.714 0 0 0 7.73-7.722 7.73 7.73 0 0 0-7.73-7.723c-4.279 0-7.731 3.472-7.731 7.723Z"/><path fill="#84B5FF" d="M201.084 149.798c1.371 3.236 4.468 5.03 6.927 4.015 2.459-1.039 3.334-4.487 1.986-7.723-1.371-3.259-4.468-5.03-6.903-4.015-2.483 1.016-3.381 4.464-2.01 7.723Z"/><path fill="#400404" d="M202.383 149.255c.969 2.291 3.168 3.566 4.917 2.834 1.75-.732 2.388-3.188 1.395-5.502-.969-2.315-3.168-3.59-4.917-2.858-1.75.756-2.365 3.212-1.395 5.526Z"/><path fill="#fff" d="M200.514 145.381c.26.638 1.206.827 2.104.449.899-.378 1.419-1.205 1.159-1.819-.26-.637-1.206-.826-2.104-.448-.899.378-1.419 1.204-1.159 1.818Z"/><path fill="#302725" d="M198.77 145.544s-.615-4.959 4.231-7.462c7.424-3.826 11.49 5.03 13.901 6.47 0 0-1.56 1.559-2.695 1.016 0-.024-8.794-10.533-15.437-.024Z"/><path fill="#fff" d="M184.652 146.608a7.714 7.714 0 0 1-7.73 7.722c-4.256 0-7.731-3.448-7.731-7.722 0-4.251 3.452-7.699 7.731-7.699 4.255-.024 7.73 3.448 7.73 7.699Z"/><path fill="#84B5FF" d="M171.676 150.055c.733 3.448 3.546 5.763 6.312 5.172 2.766-.59 4.398-3.849 3.665-7.274-.733-3.448-3.546-5.762-6.312-5.195-2.743.59-4.398 3.849-3.665 7.297Z"/><path fill="#400404" d="M173.117 149.747c.52 2.456 2.506 4.086 4.468 3.684 1.963-.401 3.121-2.739 2.624-5.172-.52-2.456-2.529-4.109-4.491-3.684-1.939.401-3.121 2.716-2.601 5.172Z"/><path fill="#fff" d="M172.01 145.593c.142.662 1.087 1.039 2.08.827 1.017-.213 1.702-.921 1.584-1.582-.142-.662-1.064-1.04-2.08-.827-1.017.213-1.726.921-1.584 1.582Z"/><path fill="#302725" d="M184.772 145.662s.614-4.417-4.232-6.637c-7.423-3.4-11.49 4.464-13.877 5.739 0 0 1.56 1.37 2.695.898-.024 0 7.943-9.565 15.414 0Z"/><g clip-path="url(#e)"><path fill="#FBB79E" d="M94.936 215.517s-4.94-3.625-5.557-4.495c-.867-1.22-4.957-6.261-9.199-11.122-1.61-1.844-4.02-1.039-2.462 1.669 1.285 2.231 5.573 7.177 7.089 9.665.839 1.382.04 1.531-.202 1.399-2.774-1.536-8.336-5.459-10.427-7.258-2.692-2.319-4.853-.251-2.372 2.316.616.636 3.462 2.671 5.707 4.478 1.852 1.491 3.168 2.399 3.963 3.213 1.405 1.446 1.834 2.311-.254 1.906-3.155-.609-9.868-3.538-10.774-3.76-4.468-1.08-4.106 1.325-1.515 2.736 1.258.688 7.879 3.072 11.59 4.584.584.238.839.929-.344.878l2.159 1.483 6.868 3.689 5.73-11.381Z"/><path fill="#FBB79E" d="M93.03 203.856c-.978 2.262.85 7.608.925 8.804.078 1.224-.62 1.645-1.681.85-1.93-1.447-1.094 2.978-1.96 4.516a.63.63 0 0 1-.24.245c-.16.33-.323.687-.467 1.039-.718 1.77-.255 3.379-.255 3.379s-2.584-.408-7.194-.81c-1.41-.121-4.607-.312-5.947-.405-2.849-.191-5.275-.273-6.159-.085-1.553.328-1.889 2.251.593 2.606 3.383.484 8.599.969 10.935 1.653 1.834.539 5.024 2.492 7.185 3.257 2.161.766 4.598 1.735 5.642 2.366 1.045.631 4.895 3.6 4.895 3.6l4.561-6.2.374-.508c-1.691-1.276-4.137-3.226-4.396-4.035-.403-1.249.12-4.545.102-5.049-.017-.759.009-1.683.066-2.817.069-1.392.092-2.946-1.283-4.694-1.737-2.212-2.989-5.674-2.587-9.738-.502-.268-1.873-.833-3.109 2.026Z"/><path fill="#EC8B56" fill-opacity=".3" d="M79.313 203.328s.432.071 1.146-.384c.714-.454.841-1.038.841-1.038s-.335.294-.993.711c-.66.417-.995.711-.995.711ZM74.052 208.776s.436-.059.985-.699c.55-.644.503-1.237.503-1.237s-.238.379-.744.968a8.35 8.35 0 0 0-.744.968ZM83.093 208.104s.404-.128 1.109-.595c.7-.468.797-.828.797-.828s-.306.073-.955.502c-.65.429-.951.921-.951.921ZM79.264 212.707s.338-.26.832-.945c.495-.684.46-1.053.46-1.053s-.26.174-.722.801c-.463.635-.57 1.197-.57 1.197ZM71.037 216.82s.4-.177.75-.951c.346-.77.135-1.328.135-1.328s-.12.43-.441 1.141c-.325.708-.444 1.138-.444 1.138ZM73.014 223.801s.137-.032.15-.875c.008-.845-.17-1.099-.17-1.099s-.178.267-.19 1.046c-.013.777.21.928.21.928ZM76.936 224.191s.137-.031.15-.874c.008-.845-.17-1.1-.17-1.1s-.175.27-.186 1.049c-.017.78.206.925.206.925ZM76.862 218.991s.278-.322.626-1.093c.347-.77.235-1.122.235-1.122s-.219.223-.544.932c-.325.709-.317 1.283-.317 1.283ZM80.391 217.103s1.698 1.309 2.287.799c.62-.532-.525-1.765-.525-1.765s.394 1.092-.27 1.125c-.661.035-1.492-.159-1.492-.159ZM83.47 211.984s1.398 1.482 2.01 1.003c.646-.505-.68-1.746-.68-1.746s.606.977.147 1.06c-.647.115-1.476-.317-1.476-.317ZM79.664 221.702s1.629.626 1.745.12c.115-.505-.887-.964-.887-.964s.403.434.222.631c-.178.198-1.08.213-1.08.213ZM93.59 230.408s1.377-.077 2.132-.954c.756-.878 1.192-1.322 1.192-1.322s-.187 1.41-1.3 2.016c-1.108.604-2.024.26-2.024.26ZM84.446 224.871s1.13-3.065 1.99-5.582c.858-2.515.899-5.777.899-5.777s.468 1.173.069 3.71c-.343 2.169-.653 3.342-1.393 5.243-.662 1.701-1.565 2.406-1.565 2.406ZM89.5 214.367s-.875 3.258-1.025 5.414c-.191 2.758 1.031 5.663 1.031 5.663s-.552-3.978-.431-5.702c.121-1.725.425-5.375.425-5.375Z"/><path fill="#FFD6BB" d="m96.105 204.501-.466-.013s-.086-2.38.5-2.65c.032.573-.034 2.663-.034 2.663Z"/></g><path fill="#66D6A0" d="M162.466 228.845s-25.508 42.61-30.698 43.613c-4.181.829-23.806-24.527-31.306-33.816-1.577-3.136-2.975-4.744-2.975-4.744l6.061-9.925 4.454 4.221 22.002 22.887s25.856-43.304 32.952-41.484c7.079 1.868-.49 19.248-.49 19.248Z"/><path fill="#4CCC8E" d="M132.585 267.193c.526-.145-2.476 5.406-.772 4.899 2.014-.607 2.226-1.782 2.226-1.782s1.056-.762 1.336-1.335c.283-.579 8.461-12.915 13.275-18.721 4.741-2.572 12.848-26.151 13.929-29.342l.119-.357s-3.617 2.366-7.722 8.583c-4.112 6.221-9.291 19.905-9.291 19.905s-8.771 19.583-13.1 17.705c0 0 3.112-3.287 0-.473-.595.534.948.62 0 .918Z"/><path fill="#BEC1C4" d="M376.228 367.284h13.159v43.865h-13.159v-43.865Z"/><path fill="#7F8B96" d="M374.028 404.586h19.738v37.281h-19.738v-37.281Z"/><path fill="#D0D5D9" d="M360.869 362.897h48.233v8.764h-48.233v-8.764Z"/><path fill="#6F7275" d="M376.231 332.18h15.335v21.932h-15.335V332.18Z"/><path fill="#D0D5D9" d="M422.26 351.932v6.585h17.274c3.588 0 6.722-.742 9.067-3.209 2.297-2.418 3.541-5.602 4.259-10.032.454-2.849.095-4.885.095-5.387v-25.261h-6.579v25.476c0 2.155.144 7.686-2.775 10.727-1.149 1.197-2.201 1.101-4.067 1.101H422.26Z"/><path fill="#A3886F" d="M436.112 315.876v1.388a5.531 5.531 0 0 0 5.527 5.531h16.436a5.532 5.532 0 0 0 5.527-5.531v-1.388c0-3.065-2.465-5.531-5.503-5.531h-16.771a5.421 5.421 0 0 0-2.321.646c-.096.048-.168.096-.263.144-1.555.982-2.632 2.729-2.632 4.741Z"/><path fill="#C1C7CC" d="M345.535 351.932v6.584h-16.58c-3.588 0-6.722-.742-9.067-3.208-2.297-2.418-3.9-5.603-4.594-10.033-.454-2.849-.43-4.884-.43-5.387v-25.261h6.579v25.477c0 2.155.215 7.686 3.11 10.726 1.149 1.198 2.536 1.102 4.402 1.102h16.58Z"/><path fill="#A3886F" d="M303.904 315.249c0-3.065 3.206-7.207 6.268-7.207h16.221c3.063 0 6.005 4.142 6.005 7.207v1.676c0 3.065-2.942 4.286-6.005 4.286h-16.221c-3.062 0-6.268-1.221-6.268-4.286v-1.676ZM343.359 341.996a5.53 5.53 0 0 0 5.526 5.531h72.229a5.532 5.532 0 0 0 5.527-5.531v-94.219a5.516 5.516 0 0 0-5.527-5.531h-72.229a5.53 5.53 0 0 0-5.526 5.531v94.219Z"/><path fill="url(#f)" d="M312.613 283.381s2.384-.723 3.34 1.199c.956 1.922 3.947 24.995 3.114 31.484-.842 6.489-3.227 4.092-3.227 4.092s.236 3.844 1.788 4.928l.01-.009a.863.863 0 0 0 .104-.076c.038-.019.085-.058.142-.096h.009a491.7 491.7 0 0 0 7.032-4.747c3.464-2.408 5.499-4.453 5.499-4.453s-.483-3.844-.483-4.919c0-1.085 7.656-26.689 15.18-34.615 7.022-7.393.123-49.039-.842-54.662l-.114-.628s-6.095 1.808-8.726 3.739c-2.621 1.941-12.076 25.347-12.549 37.365-.482 12.017-4.779 18.839-4.779 18.839s-1.438-.876-3.833 0l-1.665 2.559Z"/><path fill="#3E64F9" d="M317.066 324.194c.943-.605 4.209-2.703 7.223-4.716 3.558-2.391 5.649-4.422 5.649-4.422s-.496-3.818-.496-4.886c0-1.077 7.865-26.507 15.594-34.378 7.214-7.343.126-48.705-.865-54.289l-.117-.624s-5.094 6.208-7.301 18.559c-2.217 12.361.914 36.713.914 36.713s-4.414 19.693-15.283 20.052c0 0 9.119 12.975 5.522 19.486-.691 1.238-9.178 7.361-10.84 8.505Z" opacity=".83"/><path fill="url(#g)" d="m415.762 272.041 3.197-9.937s5.042.606 11.637 7.934c0 0-.239 3.512 1.763 8.173 0 0 8.025 4.877 11.335 10.603 3.309 5.726 4.737 6.433 9.206 3.947 1.187-.656 2.249-3.243 3.076-6.838 1.24-5.433 1.948-13.173 1.758-20.086-.163-5.702-.943-10.834-2.541-13.649 0 0-2.848-1.768-4.326-4.696-.092.043-.193.086-.286.138-.631.278.392.472.266.032-2.001-.585-5.841-4.323-5.841-4.323s-7.596-5.642-11.819-14.111c-4.214-8.458-4.934-9.525-4.934-9.525s-1.258-.668-3.006-1.196c-1.375-.419-3.06-.74-4.688-.581 0 0-29.454 33.497-4.797 54.115Z"/><path fill="#FF9B8B" d="M366.611 220.939s3.562-6.809 3.562-17.427l23.465-9.352s-1.206 8.187 2.852 15.287c1.075 1.875 6.076 4.846 6.076 4.846s-21.885 26.797-32.393 24.225c-10.508-2.571-8.404-13.932-8.404-13.932s1.776.687 4.842-3.647Z"/><path fill="#CEC5FF" d="M399.458 212.864s-12.533 11.527-23.317 12.174c-11.555.692-9.649-8.174-9.649-8.174s-5.224 6.761-3.733 12.083c1.501 5.321 12.908 5.585 21.707 2.041 8.799-3.536 17.214-17.286 17.214-17.286l-2.222-.838Z"/><path fill="#446EF7" d="m416.647 275.139 1.969-10.198s5.024 0 12.367 6.458c0 0 .179 3.498 2.696 7.866 0 0 8.46 3.866 12.386 9.131 3.927 5.265 5.413 5.794 9.51 2.807 1.088-.789 1.826-3.471 2.214-7.122l-.643-1.462v-18.593c-.833-5.615-2.205-10.593-4.107-13.185 0 0-2.557-1.238-4.355-3.956-.085.054-3.324 2.053 0 0-6.954 4.296-6.943 14.881-7.416 24.289-.066-2.385-1.665-11.615-2.867-11.444-1.552.224-4.182 17.221-4.182 17.221-3.104-14.575 6.907-32.155 7.711-33.555-9.15 11.983-10.701 25.742-10.701 25.742l-14.222-9.857s-8.563-8.162-5.602-22.208c2.962-14.046 8.242-15.957 8.242-15.957-1.4-.251-3.094-.367-4.674-.017 0 0-24.981 36.595 1.674 54.04Z" opacity=".83"/><path fill="url(#h)" d="M348.518 285.169s3.602 18.859-1.086 39.284c0 0-2.888 1.984-3.25 4.512 0 0 0 .019-.01.047-.343 2.519-.749 4.406-.749 4.406s-.328 1.7-1.414 3.503c-.2.343-.315.744-.353 1.183-.171 1.869.896 4.235.896 4.235s2.173 5.609 24.74 7.594c22.568 1.993 40.084 6.324 40.084 6.324s3.615-4.054 1.127-7.489c0 0 1.589-3.891 1.408-5.16-.181-1.269-8.491-15.721-6.328-25.843 2.173-10.121 6.936-15.675 11.454-35.431 0 0 1.888-6.438 2.069-7.888.181-1.44 1.287-9.925 1.287-9.925s-8.968 4.02-6.195-20.926c2.764-24.945 9.519-24.888 10.846-25.766 0 0 .457.439-5.937-1.421 0 0-3.679.887-7.472-.439-3.793-1.326-7.49-3.105-7.49-3.105s-21.711 18.635-31.746 17.443c-11.455-1.355-3.373-13.899-3.373-13.899s-7.196 1.402-11.046 2.299c-3.86.906-6.851.837-6.851.837s-4.008.89-6.577 1.931c-3.495 1.416-3.907 10.911-2.706 31.154 1.2 20.243 8.672 32.54 8.672 32.54Z"/><path fill="url(#i)" fill-opacity=".7" d="M397.227 198.923s-9.952 16.275-27.61 14.728c0 0 1.262-5.313 1.087-9.666 0 0 8.36.475 14.448-1.756 6.872-2.513 12.075-8.959 12.075-8.959v5.653Z"/><path fill="#FFADA0" d="M357.312 186.838c3.676 12.424 10.766 16.1 15 19.438 6.012 3.374 11.255 2.264 11.255 2.264 20.221-8.753 22.198-17.566 23.529-27.405.666-4.854 1.269-13.888-.769-25.054a16.95 16.95 0 0 0-1.311-4.158c-3.703-8.075-12.441-11.21-12.441-11.21-5.222-1.915-11.172-2.329-16.601-1.284-7.823 1.502-13.981 5.747-15.957 14.127-.645 2.699-.999 5.485-1.311 8.25-.686 5.681-1.04 11.427-1.227 17.152a331.583 331.583 0 0 0-.167 7.88Z"/><path fill="#38368E" d="M376.554 156.475s-10.858-2.193-14.262 5.805c0 0 12.132-3.654 14.45-1.838l-.188-3.967ZM388.103 157.656s10.691-2.861 14.596 4.907c0 0-12.341-2.882-14.534-.94l-.062-3.967Z"/><path fill="#fff" d="M400.128 170.499c-.224 3.338-3.405 5.869-7.101 5.623-3.696-.247-6.519-3.159-6.295-6.519.224-3.338 3.405-5.847 7.101-5.6 3.697.246 6.519 3.158 6.295 6.496Z"/><mask id="j" width="15" height="14" x="386" y="163" maskUnits="userSpaceOnUse" style="mask-type:alpha"><path fill="#fff" d="M400.128 170.499c-.224 3.338-3.405 5.869-7.101 5.623-3.696-.247-6.519-3.159-6.295-6.519.224-3.338 3.405-5.847 7.101-5.6 3.697.246 6.519 3.158 6.295 6.496Z"/></mask><g mask="url(#j)"><path fill="#7F9EC9" d="M388.332 171.643c-.201 2.957 1.523 5.488 3.831 5.645 2.307.157 4.346-2.128 4.547-5.085.202-2.957-1.501-5.489-3.83-5.646-2.308-.156-4.346 2.129-4.548 5.086Z"/><path fill="#38368E" d="M389.542 171.732c-.135 2.106 1.075 3.898 2.71 4.01 1.636.112 3.092-1.501 3.226-3.607.134-2.105-1.075-3.898-2.711-4.01-1.635-.134-3.091 1.501-3.225 3.607Z"/><path fill="#fff" fill-opacity=".8" d="M389.585 168.105c-.045.56.605 1.075 1.456 1.142.851.067 1.568-.358 1.613-.941.045-.582-.627-1.075-1.478-1.142-.829-.045-1.546.381-1.591.941Z"/></g><path fill="#fff" d="M376.207 169.975c-.218 3.291-3.313 5.776-6.909 5.536-3.596-.239-6.342-3.116-6.124-6.407.217-3.313 3.312-5.776 6.908-5.536 3.596.24 6.343 3.116 6.125 6.407Z"/><mask id="k" width="14" height="13" x="363" y="163" maskUnits="userSpaceOnUse" style="mask-type:alpha"><path fill="#fff" d="M376.207 169.975c-.218 3.291-3.313 5.776-6.909 5.536-3.596-.239-6.342-3.116-6.124-6.407.217-3.313 3.312-5.776 6.908-5.536 3.596.24 6.343 3.116 6.125 6.407Z"/></mask><g mask="url(#k)"><path fill="#7F9EC9" d="M365.177 171.505c-.196 2.876 1.482 5.339 3.727 5.492 2.245.152 4.228-2.071 4.424-4.948.196-2.876-1.482-5.339-3.727-5.492-2.245-.152-4.228 2.071-4.424 4.948Z"/><path fill="#38368E" d="M366.355 171.594c-.131 2.048 1.046 3.792 2.637 3.901 1.591.109 3.008-1.482 3.139-3.531.13-2.049-1.046-3.792-2.637-3.901-1.591-.109-2.986 1.482-3.139 3.531Z"/><path fill="#fff" fill-opacity=".8" d="M366.399 168.061c-.044.545.61 1.046 1.416 1.112.829.065 1.526-.349 1.57-.916.043-.566-.589-1.046-1.417-1.111-.828-.044-1.526.349-1.569.915Z"/></g><path fill="#FFADA0" d="M358.035 167.411s-3.987-12.592-7.275-2.682c-2.621 7.892 1.747 15.629 5.274 15.075 3.526-.532 2.001-12.393 2.001-12.393Z"/><path fill="#FF9B8B" d="M357.944 169.66s-3.144-8.504-4.785-5.444c-1.64 3.061-1.623 7.243-1.623 7.243s1.167-4.439 3.45-1.518c0 0-3.061 6.939 2.045 5.49.017 0 2.232-1.939.913-5.771Z"/><path fill="#FFADA0" d="M405.994 167.426s4.486-13.643 8.185-2.906c2.949 8.551-1.966 16.91-5.933 16.333-3.967-.576-2.252-13.427-2.252-13.427Z"/><path fill="#FF9B8B" d="M406.07 169.4s3.392-8.874 5.16-5.68c1.769 3.194 1.75 7.558 1.75 7.558s-1.258-4.633-3.719-1.585c0 0 3.3 7.241-2.206 5.729 0 0-2.388-2.023-.985-6.022Z"/><path fill="#712311" d="M390.695 188.87c-.077.232-1.607 3.932-4.087 6.702-2.983 3.332-7.341 5.307-12.164-1.821-1.027-1.511-2.053-3.409-3.119-5.792a54 54 0 0 0 4.107 1.337c3.835 1.085 9.53 2.305 13.481.542.659-.019 1.24-.542 1.782-.968Z"/><path fill="#D5503B" d="M386.613 195.612c-2.983 3.332-7.341 5.288-12.164-1.84 2.576-.697 8.678-1.782 12.164 1.84Z"/><path fill="#fff" d="M388.914 189.937c-6.295 7.031-10.867 3.331-13.482-.582 3.836 1.085 9.531 2.189 13.482.582Z"/><path fill="#D8826C" d="M375.299 180.315s5.609 9.099 11.872-.015l-11.872.015Z"/><path fill="#293AA1" d="M358.165 174.054c.668-1.978 1.068-6.14 1.068-6.14s.122-7.179.134-8.12c.024-2.28 1.165-12.614 6.118-12.891 1.154-.061 4.201 3.547 8.243 5.199.729.302 6.895-3.643 10.1-4.765 9.542-3.33 18.343 5.743 18.343 5.743 2.78 3.064 1.93 8.501 1.943 9.937-.085-3.68.012.953 0 0 .048 2.099.728 5.099 1.408 7.089.473-2.232 1.269-2.091 2.423-6.35 1.918-7.069 4.071-12.667 3.719-14.247l-5.086-9.242c-6.908-12.535-23.175-16.444-35.084-8.433l-4.467 3.004c-6.24-2.184-7.721.881-9.457 3.185-3.217 4.295-4.467 8.283-4.589 14.315-.048 2.244 1.781 3.661 3.493 10.116 1.081 4.077 1.254 9.562 1.691 11.6Z"/><path fill="#5A65BA" d="M422.358 139.822c-4.103 7.842-11.387 1.435-14.082-4.343-6.628-14.249-14.616-12.029-14.616-12.029-16.352-12.595-20.65.145-20.65.145-12.795-1.243-13.268 5.863-11.338 12.173 1.93 6.286 6.361 11.51 12.03 14.876.255.144.51.301.753.446 4.212-6.865 12.055-7.468 15.514-7.022 4.65.592 6.471 3.053 9.469 5.526 4.625 3.812 6.689 5.55 15.454 4.741 14.058-1.303 7.466-14.513 7.466-14.513Z"/><path fill="#293AA1" d="M422.358 139.822c-4.103 7.842-11.387 1.435-14.082-4.343-6.628-14.249-14.616-12.029-14.616-12.029-16.352-12.595-20.65.145-20.65.145-12.795-1.243-13.268 5.863-11.338 12.173 1.93 6.286 6.361 11.51 12.03 14.876.255.144.51.301.753.446 3.132-8.264 11.35-9.012 14.822-9.278 2.088-.156 5.852.206 8.753 2.45 7.891 6.104 8.085 10.87 16.862 10.061 14.058-1.291 7.466-14.501 7.466-14.501Z"/><path fill="#5A65BA" d="M421.474 138.591c-4.103 7.842-10.503 2.666-13.198-3.112-6.628-14.249-14.616-12.029-14.616-12.029-16.352-12.595-20.65.145-20.65.145-12.795-1.243-13.268 5.863-11.338 12.173 1.93 6.286 6.361 11.51 12.03 14.876.255.144.51.301.753.446 3.132-8.264 10.792-14.695 14.276-14.96 2.088-.157 5.851.205 8.753 2.461 7.891 6.105 8.643 16.541 17.408 15.732 14.595-1.369 7.2-15.822 6.582-15.732Z"/><path fill="#293AA1" d="M374.026 150.756s-10.845-34.292 8.712-33.164c0 0 7.301 2.45 13 7.195 0 0-12.747-3.938-17.07 1.739-5.435 7.14-5.832 16.319-4.642 24.23Z"/><path fill="#293AA1" d="M403.59 131.701s-3.618-4.464-11.229-4.777c-7.332-.314-17.42 2.992-18.634 23.731 0 0 5.268-18.845 19.289-21.487 2.137-.398 5.123-.254 10.574 2.533Z"/><path fill="#A3886F" d="M327.997 358.852a6.226 6.226 0 0 0 6.22 6.226h94.957c3.445 0 6.221-2.802 6.221-6.226v-5.076c0-3.448-2.8-6.225-6.221-6.225h-94.933c-3.445 0-6.221 2.801-6.221 6.225v5.076h-.023Z"/><path fill="#774E24" d="M333.192 344.92c1.077-.551 23.423-13.768 23.423-13.768l21.03.264v19.897c-6.939 12.762-19.356 12.259-23.901 15.037 3.899 17.838 8.062 62.325 10.287 79.613h-24.355c-7.919-43.386-28.47-89.813-6.484-101.043ZM433.628 344.92c-1.077-.551-23.422-13.768-23.422-13.768l-21.03.264v19.897c6.938 12.762 19.355 12.259 23.901 15.037-3.9 17.838-8.063 62.325-10.288 79.613h24.355c7.919-43.386 28.471-89.813 6.484-101.043Z"/><path fill="#774E24" d="M353.767 349.99c1.22 6.13 52.419 4.071 57.898 1.365 3.756-1.867 1.77-19.418.167-30.241-.742-4.932-1.412-8.476-1.412-8.476l-54.069.551s-.359 2.753-.79 6.776c-1.029 9.41-2.656 25.74-1.794 30.025Z"/><path fill="#4D3114" d="M361.325 322.575a52.838 52.838 0 0 1-5.766-2.777c.455-3.616.79-6.082.79-6.082l6.842-.072c-.526 2.993-1.172 5.962-1.866 8.931ZM368.502 324.419c1.986.527 3.971.934 5.933 1.197 6.412.958 12.537.742 18.087-.048a64.451 64.451 0 0 0 5.048-.91c-.382-3.95-.454-7.925-.67-11.876l-25.695.216a152.398 152.398 0 0 1-2.703 11.421ZM404.487 313.262l5.957-.048s.67 3.161 1.411 7.591a107.014 107.014 0 0 1-6.34 2.274c.12-3.089-.43-6.536-1.028-9.817Z"/><path fill="#C28C4B" d="M374.438 325.616c6.412.958 12.537.743 18.087-.048l.862-10.99-18.063-1.436-.886 12.474Z"/><path fill="#4875F5" d="M409.18 287.784c32.418-21.238 47.274-8.567 47.274-8.567 4.187 7.686 3.118 21.375-47.274 19.773v-11.206Z"/><path fill="#F5AE94" d="M420.785 300.331s-13.589-27.943-34.978-.479l34.978.479Z"/><path fill="#3B7BD7" d="M345.04 229.786s-16.354 25.306-30.902 34.153c-16.355 9.925-43.144 19.919-43.144 19.919s-10.674 10.223.166 11.622c27.241 3.507 65.418-.574 76.305-23.358 10.887-22.761 13.359-27.437-2.425-42.336Z"/><path fill="#22272E" d="M263.905 299.877c1.627-7.614 6.939-13.217 13.255-13.217 6.316 0 11.627 5.603 13.254 13.217h-26.509Z"/><path fill="#F0A98F" d="M284.361 293.579c0 1.724 1.818 3.136 4.091 3.136s4.091-1.412 4.091-3.136c0-1.748-1.842-3.137-4.091-3.137s-4.091 1.389-4.091 3.137ZM278.715 286.656c0 2.514 1.244 4.55 2.775 4.55 1.532 0 2.776-2.036 2.776-4.55s-1.244-4.549-2.776-4.549c-1.531 0-2.775 2.035-2.775 4.549ZM270.699 286.969c.862 2.347 2.728 3.831 4.163 3.329 1.436-.527 1.914-2.874 1.053-5.22-.861-2.347-2.728-3.831-4.163-3.304-1.436.503-1.89 2.849-1.053 5.195ZM264.123 293.147c1.626 1.916 3.875 2.682 5.048 1.676 1.172-.981.813-3.352-.814-5.267-1.627-1.916-3.876-2.658-5.048-1.676-1.172 1.005-.813 3.352.814 5.267ZM262.18 299.37c2.393.742 4.713.168 5.168-1.293.454-1.461-1.125-3.256-3.517-3.999-2.393-.742-4.713-.143-5.168 1.317-.454 1.437 1.125 3.233 3.517 3.975Z"/><path fill="#C1C7CC" d="m510.879 472.029-34.811-156.975 8.35-2.969 35.48 159.944h-9.019ZM233.736 472.029l34.811-156.975-8.35-2.969-35.48 159.944h9.019Z"/><path fill="#D8DDE1" d="M220.427 298.907h303.628a4 4 0 0 1 4 4v8.646a4 4 0 0 1-4 4H220.427a4 4 0 0 1-4-3.999v-8.647a4 4 0 0 1 4-4Z"/><g clip-path="url(#l)"><path fill="#F7AA88" d="M241.742 309.913s-1.329-.731-1.758-2.06c-.427-1.326-.983-4.969-.983-4.969l3.097 2.314-.356 4.715Z"/><path fill="#FBB79E" d="M233.605 308.738c-1.262.017-1.924-1.39-2.435-2.539a7.943 7.943 0 0 1-.633-2.616c-.922-1.53-2.083-3.337-3.508-4.18-1.336-.792-2.833-3.076-3.201-5.095-.154-.849-1.167-7.076-1.167-7.076l5.75-2.377s1.646 3.627 4.503 5.95a523.538 523.538 0 0 1 8.456 7.067c1.122.974 2.231 1.633 2.857 2.33.619.692 1.016 1.63 1.341 3.506.211 1.224.854 7.359.854 7.359s-1.292.161-2.048-.874c.056.685.155 2.552.155 2.552s-1.838-.063-2.623-1.458c-.786-1.396-.548-3.461-.548-3.461s-.962-3.374-3.077-4.631c-2.063-1.224-3.686-2.292-5.367-3.831-1.321-1.207-1.556-.482-1.556-.482s2.097 2.436 2.383 4.83c.358 3.021.971 5.01-.136 5.026Z"/><path fill="#F7AA88" d="M244.374 310.196s-.304-2.379-.449-3.199c-.144-.821-.596-2.815-.896-3.733-.3-.919-.792-1.489-1.883-2.239-1.934-1.334-3.089-2.933-3.089-2.933s2.224 1.561 3.597 2.412c1.552.964 1.927 2.012 2.36 3.971.435 1.957.36 5.721.36 5.721Z"/><path fill="#FFD6BB" d="M233.782 308.301c-.425.202-1.166-.093-1.457-.96-.291-.867-.1-1.147-.1-1.147l1.579-.159s.464 2.032-.022 2.266Z"/><path fill="#F7AA88" d="M231.481 299.029s-.81-1.107-.479-1.247c.464-.347 2.097.828 2.828 1.815.844 1.139 1.605 1.787 1.605 1.787s-1.31-.569-2.442-1.706c-.835-.838-1.512-.649-1.512-.649ZM241.363 307.831s.44.057.835-.056c.391-.112.623-.279.623-.279s-.234-.086-.696-.007a1.71 1.71 0 0 0-.762.342ZM239.095 303.756s.38-.202.586-.549c.207-.347.26-.569.26-.569s-.526.24-.712.422c-.351.336-.134.696-.134.696Z"/><path fill="#FFD6BB" d="M244.548 312.806s-.547-.319-.672-1.43l-.123-1.113.622-.064s.157.839.199 1.384c.023.316-.026 1.223-.026 1.223ZM246.423 311.082s-.547-.319-.672-1.431l-.123-1.112.519-.054s.175.879.207 1.424c.029.408.069 1.173.069 1.173Z"/></g><path fill="#EDE9EB" d="M312.832 288.215a4.193 4.193 0 0 0 4.186 4.191h79.311a4.194 4.194 0 0 0 4.187-4.191v-43.41a4.179 4.179 0 0 0-4.187-4.19h-79.287a4.178 4.178 0 0 0-4.186 4.19v43.41h-.024Z"/><path fill="#BFC3C6" d="M407.574 291.833c0 .096.024.192.024.288a6.604 6.604 0 0 1-6.604 6.608h-88.593a6.604 6.604 0 0 1-6.603-6.608c0-.096 0-.192.024-.288h101.752Z"/><path fill="#FFFFFE" d="M351.497 266.691a5.179 5.179 0 0 0 5.167 5.172 5.164 5.164 0 0 0 5.168-5.172 5.164 5.164 0 0 0-5.168-5.172 5.179 5.179 0 0 0-5.167 5.172Z"/></g><path fill="#66D6A0" d="M225.796 209.16s16.906 25.523 16.906 44.674c0 0-.385 11.578-12.469 33.399l-7.571 1.336s2.21-22.861 5.344-32.954c0 0-11.479-24.542-10.087-30.459 1.369-5.921 4.238-16.157 7.877-15.996ZM51.89 308C40.903 308 32 316.903 32 327.89c0 10.986 8.903 19.889 19.89 19.889 10.986 0 19.89-8.903 19.89-19.889 0-10.987-8.904-19.89-19.89-19.89Zm0 34.823c-8.257 0-14.944-6.687-14.944-14.943s6.687-14.943 14.944-14.943c8.256 0 14.943 6.687 14.943 14.943s-6.687 14.943-14.943 14.943ZM457.772 60.976h-27.784a1.987 1.987 0 1 1 0-3.976h27.784a1.987 1.987 0 1 1 0 3.976ZM457.772 70.897h-27.784a1.987 1.987 0 1 1 0-3.976h27.784a1.987 1.987 0 1 1 0 3.976Z"/><g filter="url(#m)"><path fill="#84B5FF" d="m534.687 196.322 5.857 2.053 2.737-4.726-4.758-3.961a18.096 18.096 0 0 0 .875-6.666l5.602-2.689-1.416-5.282-6.16.572a18.132 18.132 0 0 0-4.09-5.329l2.053-5.855-4.727-2.737-3.962 4.757a18.112 18.112 0 0 0-6.669-.875L517.34 160l-5.284 1.416.573 6.173a18.128 18.128 0 0 0-5.332 4.089l-5.857-2.053-2.737 4.726 4.759 3.961a18.076 18.076 0 0 0-.876 6.666L497 187.667l1.416 5.282 6.175-.572a17.886 17.886 0 0 0 4.091 5.329l-2.053 5.855 4.726 2.737 3.963-4.757a18.112 18.112 0 0 0 6.669.875l2.689 5.584 5.284-1.416-.573-6.173a17.63 17.63 0 0 0 5.3-4.089Zm-19.369-2.529c-5.411-3.119-7.257-10.04-4.138-15.449 3.12-5.409 10.043-7.255 15.454-4.137 5.411 3.119 7.257 10.04 4.138 15.449-3.119 5.409-10.043 7.255-15.454 4.137Z"/></g><defs><linearGradient id="b" x1="129.095" x2="234.8" y1="258.005" y2="102.5" gradientUnits="userSpaceOnUse"><stop stop-color="#194484"/><stop offset="1" stop-color="#84B5FF"/></linearGradient><linearGradient id="c" x1="183.036" x2="232.764" y1="116.962" y2="135.17" gradientUnits="userSpaceOnUse"><stop stop-color="#75A5EE"/><stop offset="1" stop-color="#76A6EF"/></linearGradient><linearGradient id="d" x1="151.581" x2="191.261" y1="138.453" y2="103.753" gradientUnits="userSpaceOnUse"><stop stop-color="#5785CB"/><stop offset=".901" stop-color="#76A7EF"/><stop offset="1" stop-color="#FFC63C"/></linearGradient><linearGradient id="f" x1="330.421" x2="330.421" y1="325.081" y2="220.875" gradientUnits="userSpaceOnUse"><stop stop-color="#79ADFA"/><stop offset="1" stop-color="#2C72DA"/></linearGradient><linearGradient id="g" x1="428.245" x2="436.893" y1="291.636" y2="219.663" gradientUnits="userSpaceOnUse"><stop stop-color="#7CAFFC"/><stop offset="1" stop-color="#2C72DA"/></linearGradient><linearGradient id="h" x1="381.325" x2="381.325" y1="356.254" y2="212.111" gradientUnits="userSpaceOnUse"><stop stop-color="#67A1F8"/><stop offset="1" stop-color="#1B67D9"/></linearGradient><linearGradient id="i" x1="397.044" x2="369.241" y1="204.219" y2="204.219" gradientUnits="userSpaceOnUse"><stop stop-color="#CF6074"/><stop offset="1" stop-color="#FF817F"/></linearGradient><clipPath id="e"><path fill="#fff" d="m61.453 217.728 19.765-26.866 32.743 24.088-19.765 26.866z"/></clipPath><clipPath id="l"><path fill="#fff" d="m234.008 317.529 15.144-6.784-13.127-29.301-15.144 6.784z"/></clipPath><filter id="m" width="68" height="68" x="487" y="154" color-interpolation-filters="sRGB" filterUnits="userSpaceOnUse"><feFlood flood-opacity="0" result="BackgroundImageFix"/><feColorMatrix in="SourceAlpha" result="hardAlpha" values="0 0 0 0 0 0 0 0 0 0 0 0 0 0 0 0 0 0 127 0"/><feOffset dy="4"/><feGaussianBlur stdDeviation="5"/><feColorMatrix values="0 0 0 0 0.0885677 0 0 0 0 0.0395834 0 0 0 0 0.395833 0 0 0 0.25 0"/><feBlend in2="BackgroundImageFix" result="effect1_dropShadow_196_3686"/><feBlend in="SourceGraphic" in2="effect1_dropShadow_196_3686" result="shape"/></filter></defs></svg>