<svg xmlns="http://www.w3.org/2000/svg" width="40" height="44"><path d="M38.81 28.222C41.703 15.22 30.31 3.408 16.933 5.675 9.67 1.17 0 6.261 0 14.902c0 2.009.554 3.89 1.518 5.512-2.689 13.032 8.797 24.674 22.163 22.251 9.45 4.996 19.89-4.967 15.129-14.443Zm-12.718 7.84c-3.51 1.444-9.285 1.453-12.78-.377-4.984-2.657-5.87-8.639-1.57-8.639 3.24 0 2.214 3.778 5.486 5.318 1.502.694 4.73.765 6.607-.5 1.853-1.24 1.683-3.191.676-4.123-2.67-2.464-10.307-1.485-13.798-5.799-1.517-1.871-1.804-5.172.061-7.566 3.25-4.182 12.788-4.437 16.889-1.279 3.786 2.93 2.763 6.819-.292 6.819-3.675 0-1.743-4.808-7.676-4.808-4.3 0-5.992 3.058-2.963 4.547 4.106 2.039 14.569 1.358 14.569 9.327-.009 3.317-2.042 5.789-5.209 7.08Z"/></svg>