<svg xmlns="http://www.w3.org/2000/svg" width="40" height="39" fill="none"><path fill="#fff" d="M20 0C8.95 0 0 8.815 0 19.687c0 8.7 5.73 16.078 13.675 18.679 1 .185 1.367-.424 1.367-.947 0-.467-.017-1.706-.025-3.347-5.564 1.187-6.737-2.641-6.737-2.641-.91-2.273-2.225-2.88-2.225-2.88-1.812-1.22.14-1.196.14-1.196 2.008.137 3.063 2.029 3.063 2.029 1.784 3.01 4.682 2.14 5.825 1.638.18-1.274.695-2.14 1.267-2.633-4.442-.493-9.11-2.186-9.11-9.729 0-2.148.775-3.905 2.058-5.282-.225-.498-.9-2.5.175-5.21 0 0 1.675-.528 5.5 2.018 1.6-.438 3.3-.655 5-.665 1.7.01 3.4.227 5 .665 3.8-2.546 5.475-2.019 5.475-2.019 1.075 2.712.4 4.713.2 5.211 1.275 1.377 2.05 3.134 2.05 5.282 0 7.564-4.675 9.228-9.125 9.712.7.591 1.35 1.798 1.35 3.643 0 2.635-.025 4.752-.025 5.391 0 .516.35 1.132 1.375.935C34.275 35.757 40 28.374 40 19.687 40 8.815 31.045 0 20 0Z"/></svg>