<svg xmlns="http://www.w3.org/2000/svg" width="40" height="40" fill="none"><path fill="#fff" d="M20.009.004h-.01C8.973.004.008 8.972.008 20c0 4.374 1.41 8.428 3.807 11.72L1.323 39.15l7.685-2.457a19.823 19.823 0 0 0 11 3.304C31.035 39.996 40 31.026 40 20 40 8.975 31.034.004 20.009.004Zm11.635 28.237c-.482 1.362-2.397 2.492-3.924 2.822-1.045.222-2.41.4-7.004-1.505-5.876-2.434-9.66-8.406-9.955-8.793-.283-.387-2.375-3.162-2.375-6.031 0-2.87 1.457-4.267 2.045-4.867.482-.492 1.28-.717 2.044-.717.248 0 .47.012.67.022.588.025.883.06 1.27.988.482 1.162 1.657 4.031 1.797 4.326.143.295.285.695.085 1.082-.188.4-.352.578-.647.918-.295.34-.575.6-.87.965-.27.317-.575.657-.235 1.244.34.575 1.514 2.492 3.244 4.032 2.232 1.987 4.042 2.622 4.69 2.892.482.2 1.056.152 1.409-.223.447-.482 1-1.282 1.562-2.07.4-.564.905-.634 1.435-.434.54.188 3.397 1.6 3.984 1.892.587.295.975.435 1.117.683.14.247.14 1.41-.342 2.774Z"/></svg>