<svg xmlns="http://www.w3.org/2000/svg" width="575" height="486" fill="none"><mask id="a" width="533" height="355" x="22" y="58" maskUnits="userSpaceOnUse" style="mask-type:alpha"><path fill="#276ED8" d="M222.067 401.361c98.161 28.178 257.296-1.527 310.632-58.529 53.335-57.002-2.943-124.49-41.754-149.885-12.076-7.855-25.607-13.64-35.436-24.367-21.459-23.49-28.987-60.963-55.726-77.577-23.126-14.39-50.367-1.293-76.022-9.795-11.196-3.637-29.539-19.068-48.476-22.326C233.4 51.677 35.495 157.22 23.912 196.79c-11.583 39.569 63.74 165.988 198.155 204.572Z"/></mask><g mask="url(#a)"><path fill="#84B5FF" d="m221.072 214.583 8.582-1.614v-7.693l-8.582-1.48a25.387 25.387 0 0 0-3.631-8.743l4.923-7.222-5.448-5.448-7.115 5.031a25.231 25.231 0 0 0-8.743-3.618l-1.614-8.582h-7.693l-1.48 8.582a25.39 25.39 0 0 0-8.742 3.631l-7.21-4.923-5.447 5.448 5.03 7.115a25.363 25.363 0 0 0-3.618 8.743l-8.581 1.614v7.693l8.581 1.48a25.26 25.26 0 0 0 3.632 8.742l-4.923 7.21 5.447 5.447 7.129-5.031a25.096 25.096 0 0 0 8.743 3.619l1.614 8.581h7.693l1.48-8.581a25.252 25.252 0 0 0 8.742-3.632l7.21 4.923 5.447-5.448-5.03-7.115a25.302 25.302 0 0 0 3.604-8.729Zm-25.394 10.545c-8.796 0-15.925-7.142-15.925-15.925 0-8.783 7.129-15.925 15.925-15.925 8.797 0 15.925 7.129 15.925 15.925 0 8.796-7.128 15.925-15.925 15.925Z" opacity=".2"/><path fill="url(#b)" d="M335.445 260.339c13.319 10.209 32.649 14.344 47.54 6.444 4.671-2.471 8.972-6.421 9.897-11.503 1.11-6.121-2.844-12.45-1.179-18.456 1.456-5.312 6.775-8.569 10.729-12.496 5.734-5.682 9.064-13.605 9.041-21.574-.024-7.969-3.353-15.869-9.111-21.528-4.879-4.804-11.237-7.9-16.833-11.919-4.417-3.187-8.394-7.322-10.498-12.334-2.081-4.943-.37-7.854-.069-12.705.624-10.371-1.989-21.966-9.457-29.681-9.666-10.025-24.025-9.863-36.719-7.276-6.428 1.293-13.527 3.303-19.169 6.721-2.405 1.456-4 3.234-5.642 5.567-.532.739-3.491 8.108-3.376 8.085-18.821 4.296-8.717 30.351-14.498 42.316-1.826 3.765-5.017 6.676-7.815 9.794-4.902 5.497-8.74 12.104-9.943 19.357-1.202 7.253.44 15.152 5.318 20.65.787.901 1.712 1.778 2.012 2.933.463 1.733-.509 3.465-1.225 5.105-4.278 9.817.624 21.181 6.798 29.936 4.139 5.89 9.018 11.48 15.353 14.898 10.105 5.475 22.868 4.62 33.274-.277"/><path fill="#148951" d="M332.583 131.557c-6.359-3.096-14.475.346-18.406 6.236-3.907 5.89-8.994 11.134-8.069 18.133.462 3.464 1.225 6.998.531 10.44-1.757 8.916-7.26 15.43-12.994 22.475-4.856 5.959-6.429 13.882-7.677 21.458-.74 4.528-1.341 9.517 1.063 13.421 3.053 4.943 6.544 11.318 9.828 16.099 5.41 7.831 2.242 15.476 8.786 22.406 1.942 2.033 4.671 3.095 7.353 3.95a68.712 68.712 0 0 0 16.741 2.98c4.856.254 9.781-.047 14.359-1.64 11.238-3.95 18.753-16.562 16.718-28.296-1.549-8.893-7.677-16.285-10.59-24.854-2.081-6.144-2.428-12.866-1.018-19.195 1.804-7.992 6.405-15.938 4.417-23.884" opacity=".42"/><path fill="#66D6A0" d="M142.19 117.804c-8.35 0-15.116 6.766-15.116 15.115s6.766 15.115 15.116 15.115c8.349 0 15.115-6.766 15.115-15.115s-6.766-15.115-15.115-15.115Zm0 26.464c-6.275 0-11.357-5.082-11.357-11.356 0-6.275 5.082-11.357 11.357-11.357 6.274 0 11.356 5.082 11.356 11.357 0 6.274-5.082 11.356-11.356 11.356ZM91.8 342.329H70.685a1.51 1.51 0 1 1 0-3.021H91.8a1.51 1.51 0 1 1 0 3.021ZM91.8 349.869H70.685a1.51 1.51 0 1 1 0-3.022H91.8a1.51 1.51 0 1 1 0 3.022Z"/><path fill="url(#c)" fill-opacity=".5" d="M176.625 261.558s2.217 3.851 4.289 18.263c2.072 14.413.807 16.554.807 16.554s5.636 3.587 2.305-19.726c0-21.007-5.352-16.372-5.352-16.372l-2.049 1.281Z"/><path fill="url(#d)" d="M178.094 260.494s2.32-.7 3.251 1.161c.93 1.86 3.84 24.193 3.03 30.474-.82 6.281-3.141 3.96-3.141 3.96s.23 3.72 1.741 4.77l.009-.009a.82.82 0 0 0 .101-.074c.037-.018.083-.055.138-.092h.01c.893-.589 3.987-2.634 6.842-4.595 3.371-2.33 5.351-4.31 5.351-4.31s-.47-3.721-.47-4.761c0-1.05 7.451-25.833 14.772-33.504 6.834-7.156.12-47.466-.82-52.909l-.11-.607s-5.931 1.749-8.491 3.619c-2.551 1.879-11.751 24.534-12.212 36.165-.47 11.632-4.651 18.235-4.651 18.235s-1.399-.847-3.729 0l-1.621 2.477Z"/><path fill="#3E64F9" d="M183.233 300.684c.893-.589 3.987-2.634 6.842-4.595 3.371-2.33 5.351-4.31 5.351-4.31s-.47-3.721-.47-4.761c0-1.05 7.451-25.833 14.772-33.504 6.834-7.156.12-47.466-.82-52.909l-.11-.607s-4.826 6.05-6.916 18.087c-2.1 12.046.865 35.779.865 35.779s-4.181 19.192-14.477 19.542c0 0 8.639 12.645 5.231 18.99-.654 1.206-8.694 7.174-10.268 8.288Z" opacity=".83"/><path fill="url(#e)" d="M202.924 411.777a26.942 26.942 0 0 0 1.004 5.323v.009c.745 2.57 1.685 4.494 2.201 6.705.81 3.49 1.74 17.074 1.74 17.074h24.433c-.93-5.028-2.091-8.924-3.491-21.495-1.335-12.018 5.848-53.442 6.465-56.988.028-.156.046-.239.046-.239 6.281 26.283 21.698 56.767 23.273 58.507 1.565 1.75 4.706 3.316 4.706 3.316 1.75 3.315 5.415 16.899 5.415 16.899h28.089c-1.566-7.183-8.722-17.94-10.996-21.955-2.266-4.016-10.812-31.414-13.087-49.556-.949-7.561-1.676-15.546-2.21-22.296v-.019c-.746-9.43-1.105-16.429-1.105-16.429-7.147-7.322-63.057-14.542-63.057-14.542l-1.769 5.737s-.017.84-.284 2.239c-.258 1.391-.369 2.265-.369 2.265-6.272 35.594-1.52 79.689-1.004 85.445Z"/><path fill="#220786" d="M269.562 333.414s-16.908-2.081-27.554 2.975c-10.646 5.056-9.688 13.786-9.688 13.786l3.002 11.982-10.342-10.821-21.062-25.013s3.941 2.385 9.062 3.435c0 0-7.184-4.448-8.399-7.938l1.768-5.738 63.213 13.501v3.831Z" opacity=".62"/><path fill="url(#f)" d="m281.628 252.463 1.915-10.471s4.89 0 12.037 6.631c0 0 .175 3.592 2.625 8.077 0 0 8.233 3.969 12.055 9.375 3.822 5.406 5.267 5.949 9.255 2.882 1.059-.81 1.778-3.564 2.155-7.312.562-5.664.35-13.602-.626-20.592-.811-5.765-2.146-10.876-3.997-13.538 0 0 .175-3.555-1.575-6.345-.083.055-.175.11-.258.175-.571.359-2.044 1.151-3.573.875-1.98-.35-3.638-3.38-3.638-3.38s-1.132.119-1.713.939c0 0-7.911-4.798-12.92-12.875-5.001-8.067-5.812-9.062-5.812-9.062s-1.28-.525-3.011-.847c-1.363-.258-3.012-.378-4.55-.019 0 0-24.312 37.575 1.631 55.487Z"/><path fill="#FF9B8B" d="M229.85 199.997s3.393-5.27 3.393-15.806l23.232-10.763s-1.188 8.123 2.808 15.168c1.059 1.86 5.987 4.807 5.987 4.807s-21.56 26.588-31.911 24.037c-10.352-2.551-8.279-13.823-8.279-13.823s1.749.681 4.77-3.62Z"/><path fill="#CEC5FF" d="M262.369 191.479s-11.686 11.65-21.743 12.304c-10.775.7-8.998-8.261-8.998-8.261s-4.872 6.833-3.481 12.212c1.4 5.378 12.037 5.645 20.242 2.063 8.206-3.574 16.052-17.471 16.052-17.471l-2.072-.847Z"/><path fill="#446EF7" d="m281.621 252.463 1.916-10.471s4.89 0 12.037 6.631c0 0 .175 3.592 2.624 8.077 0 0 8.234 3.969 12.056 9.375 3.821 5.406 5.267 5.949 9.255 2.882 1.059-.81 1.777-3.564 2.155-7.312l-.626-1.501v-19.091c-.811-5.765-2.146-10.876-3.997-13.538 0 0 .175-3.555-1.575-6.345-.083.055-.175.11-.258.175-6.769 4.411-9.163 17.387-9.624 27.048-.064-2.45-1.62-11.926-2.79-11.751-1.51.23-4.071 17.682-4.071 17.682-3.02-14.966 6.723-33.016 7.506-34.453-8.905 12.304-10.416 26.431-10.416 26.431l-13.842-10.121s-8.334-8.381-5.452-22.803c2.883-14.421 8.022-16.383 8.022-16.383-1.363-.258-3.012-.378-4.55-.019 0 0-24.313 37.575 1.63 55.487Z" opacity=".83"/><path fill="url(#g)" d="M212.526 262.005s3.481 18.207-1.05 37.924c0 0-2.79 1.916-3.14 4.356 0 0 0 .019-.009.046-.332 2.432-.725 4.254-.725 4.254s-.316 1.64-1.366 3.381a2.72 2.72 0 0 0-.341 1.142c-.165 1.805.866 4.089.866 4.089s2.1 5.415 23.908 7.331c21.808 1.924 38.735 6.105 38.735 6.105s3.492-3.914 1.089-7.229c0 0 1.535-3.757 1.36-4.982-.175-1.225-8.205-15.177-6.115-24.949 2.1-9.771 9.946-17.7 14.312-36.773 0 0 2.91-.976 3.085-2.376.175-1.391-1.28-3.665-1.28-3.665l-.525.994s-9.946-5.7-7.266-29.783c2.67-24.083 5.498-25.547 10.48-24.875 0 0 .441 1.796-5.738 0 0 0-3.554-.515-7.22-1.796-3.665-1.28-7.238-2.997-7.238-2.997s-20.98 17.99-30.677 16.839c-11.07-1.308-3.26-13.418-3.26-13.418s-6.953 1.354-10.674 2.22c-3.73.874-5.12 0-5.12 0s-4.946.471-7.856 2.672c-2.91 2.192-3.776 10.534-2.615 30.076 1.16 19.543 8.38 31.414 8.38 31.414Z"/><path fill="#135BC6" d="m245.811 232.072-7.234-12.528-2.605 4.662 4.341 7.866-3.762 6.701 2.894 4.661 6.366-11.362Z"/><path fill="#135BC6" d="m235.393 225.371 2.605 4.661-.868 1.166h-5.21l3.473-5.827ZM236.84 236.733l2.605-4.661h-13.312l-7.235 12.528h5.209l4.63-7.867h8.103Z"/><path fill="#135BC6" d="M229.605 237.608h4.92l4.341 6.992h8.682l2.604 4.37-14.18.291-6.367-11.653ZM227.869 239.938h2.026l2.604 4.662h-7.235l2.605-4.662Z"/><path fill="#135BC6" d="m240.892 242.269 2.604-4.37 3.762 5.535h-5.498l-.868-1.165Z"/><path fill="url(#h)" fill-opacity=".7" d="M259.715 179.083s-9.933 16.421-27.558 14.859c0 0 1.26-5.36 1.085-9.752 0 0 8.344.479 14.421-1.771 6.859-2.536 12.052-9.04 12.052-9.04v5.704Z"/><path fill="#446EF7" d="M283.543 241.992s-7.064-2.92-9.78-8.206c0 0 .414 13.096 7.57 17.866 0 0 1.777-5.304 2.21-9.66Z" opacity=".5"/><path fill="#1B0C78" d="m235.32 362.157-3.72-13.612s-6.465-9.366-16.964-13.639l10.342 15.85 10.342 11.401Z" opacity=".62"/><path fill="#281C6F" d="M258.595 420.674c1.565 1.75 4.706 3.316 4.706 3.316 1.75 3.315 5.415 16.899 5.415 16.899h28.089c-1.566-7.184-8.722-17.94-10.996-21.955-2.266-4.016-10.812-31.414-13.087-49.556-.949-7.561-1.676-15.546-2.21-22.296-.028.515-.958 5.792 1.759 31.413 2.79 26.293 4.697 37.648 4.466 39.969-.23 2.33-11.631 7.911-18.142 2.21ZM203.928 417.109c.746 2.57 1.686 4.495 2.201 6.705.811 3.49 1.741 17.074 1.741 17.074h24.433c-.93-5.028-2.091-8.924-3.491-21.495-1.335-12.018 5.848-53.442 6.465-56.988-.81 3.813-9.835 46.775-11.871 50.422-4.429 7.902-16.429 10.582-19.478 4.282Z" opacity=".62"/><path fill="url(#i)" d="M265.344 199.684c-.019.074-.047.139-.074.214.037-.103.064-.177.074-.214Z" opacity=".83"/><path fill="#281C6F" d="M269.563 356.576s2.385 18.815-1.759 39.085l1.759-39.085ZM230.498 360.996s-6.465 25.593-11.696 36.47c0 0 10.305-14.137 14.044-23.678l2.431-11.383-2.956-12.22-1.823 10.811Z" opacity=".62"/><path fill="url(#j)" d="m230.404 195.614 1.216-.101s-2.515 4.024-3.04 7.34c-.524 3.315 1.677 5.452 5.084 6.179 0 0-5.489-.322-6.189-4.098-.7-3.776 2.929-9.32 2.929-9.32Z"/><path fill="#FFADA0" d="M221.254 167.282c3.549 11.996 10.395 15.546 14.483 18.769 5.806 3.258 10.868 2.186 10.868 2.186 19.525-8.452 21.434-16.962 22.72-26.462.643-4.687 1.225-13.41-.743-24.192a16.282 16.282 0 0 0-1.266-4.015c-3.576-7.798-12.013-10.824-12.013-10.824-5.042-1.85-10.787-2.249-16.03-1.24-7.553 1.45-13.499 5.548-15.408 13.64-.623 2.607-.964 5.297-1.265 7.966-.663 5.486-1.005 11.035-1.186 16.563a319.41 319.41 0 0 0-.16 7.609Z"/><path fill="#38368E" d="M239.83 137.963s-10.485-2.117-13.772 5.605c0 0 11.716-3.528 13.954-1.774l-.182-3.831ZM250.98 139.103s10.324-2.762 14.094 4.738c0 0-11.916-2.782-14.034-.907l-.06-3.831Z"/><path fill="#fff" d="M262.597 151.505c-.216 3.223-3.288 5.667-6.857 5.429-3.569-.238-6.294-3.05-6.078-6.294.216-3.223 3.288-5.646 6.857-5.408 3.569.238 6.295 3.05 6.078 6.273Z"/><path fill="#7F9EC9" d="M251.805 150.573c-.195 2.855 1.47 5.299 3.698 5.451 2.228.151 4.197-2.055 4.392-4.91.194-2.856-1.45-5.3-3.699-5.451-2.228-.152-4.197 2.055-4.391 4.91Z"/><path fill="#38368E" d="M252.973 150.659c-.13 2.033 1.038 3.764 2.617 3.872 1.579.108 2.985-1.449 3.115-3.483.13-2.033-1.038-3.763-2.617-3.872-1.579-.129-2.985 1.45-3.115 3.483Z"/><path fill="#fff" fill-opacity=".8" d="M253.015 147.156c-.043.541.584 1.039 1.406 1.103.822.065 1.514-.346 1.557-.908.044-.562-.605-1.038-1.427-1.103-.801-.044-1.493.367-1.536.908Z"/><path fill="#fff" d="M239.496 151c-.21 3.177-3.199 5.576-6.671 5.345-3.472-.232-6.124-3.009-5.914-6.187.211-3.199 3.199-5.577 6.672-5.346 3.472.232 6.124 3.01 5.913 6.188Z"/><path fill="#7F9EC9" d="M229.876 150.155c-.189 2.778 1.431 5.156 3.599 5.304 2.167.147 4.082-2 4.272-4.777.189-2.778-1.431-5.156-3.599-5.304-2.168-.147-4.083 1.999-4.272 4.777Z"/><path fill="#38368E" d="M231.015 150.241c-.126 1.978 1.01 3.662 2.547 3.767 1.536.105 2.904-1.431 3.03-3.409.126-1.978-1.01-3.662-2.546-3.767-1.537-.105-2.884 1.431-3.031 3.409Z"/><path fill="#fff" fill-opacity=".8" d="M231.056 146.83c-.042.527.589 1.011 1.368 1.074.8.063 1.473-.337 1.515-.884.042-.547-.568-1.01-1.368-1.073-.799-.043-1.473.336-1.515.883Z"/><path fill="#FFADA0" d="M221.949 148.523s-3.85-12.159-7.025-2.59c-2.531 7.62 1.687 15.091 5.092 14.556 3.405-.514 1.933-11.966 1.933-11.966Z"/><path fill="#FF9B8B" d="M221.861 150.695s-3.037-8.212-4.62-5.257c-1.584 2.956-1.567 6.994-1.567 6.994s1.126-4.287 3.33-1.467c0 0-2.955 6.701 1.976 5.302.016 0 2.155-1.872.881-5.572Z"/><path fill="#FFADA0" d="M268.26 148.538s4.331-13.174 7.903-2.807c2.847 8.257-1.898 16.328-5.729 15.772-3.831-.557-2.174-12.965-2.174-12.965Z"/><path fill="#FF9B8B" d="M268.332 150.444s3.274-8.569 4.982-5.485c1.708 3.084 1.69 7.298 1.69 7.298s-1.215-4.473-3.592-1.531c0 0 3.187 6.992-2.13 5.533 0 0-2.306-1.954-.95-5.815Z"/><path fill="#712311" d="M253.488 169.243c-.075.225-1.552 3.797-3.946 6.472-2.881 3.217-7.089 5.125-11.746-1.758-.992-1.459-1.983-3.292-3.012-5.593 0 0 1.609.617 3.966 1.291 3.703 1.047 9.202 2.226 13.018.524.635-.019 1.197-.524 1.72-.936Z"/><path fill="#D5503B" d="M249.543 175.754c-2.88 3.217-7.089 5.106-11.746-1.777 2.488-.674 8.379-1.721 11.746 1.777Z"/><path fill="#fff" d="M251.77 170.274c-6.079 6.789-10.493 3.217-13.018-.562 3.703 1.048 9.202 2.114 13.018.562Z"/><path fill="#D8826C" d="M238.623 160.983s5.416 8.786 11.464-.015l-11.464.015Z"/><path fill="#293AA1" d="M222.073 154.938c.644-1.911 1.031-5.93 1.031-5.93s.117-6.931.129-7.84c.024-2.202 1.126-12.18 5.908-12.448 1.114-.059 4.056 3.425 7.959 5.021.704.291 6.658-3.519 9.753-4.602 9.214-3.215 17.712 5.545 17.712 5.545 2.684 2.959 1.864 8.209 1.875 9.596-.082-3.554.012.92 0 0 .047 2.027.704 4.923 1.36 6.845.457-2.155 1.226-2.019 2.34-6.131 1.852-6.827 3.932-12.232 3.592-13.758l-4.912-8.924c-6.67-12.103-22.377-15.878-33.877-8.142l-4.313 2.9c-6.025-2.108-7.455.851-9.132 3.076-3.106 4.147-4.313 7.998-4.431 13.822-.047 2.167 1.72 3.535 3.373 9.768 1.043 3.937 1.211 9.233 1.633 11.202Z"/><path fill="#5A65BA" d="M284.058 121.883c-3.962 7.572-10.996 1.386-13.598-4.194-6.4-13.758-14.113-11.615-14.113-11.615-15.79-12.162-19.939.14-19.939.14-12.355-1.2-12.813 5.662-10.949 11.755 1.864 6.069 6.143 11.113 11.617 14.363.246.14.492.292.727.431 4.067-6.628 11.64-7.211 14.98-6.78 4.49.571 6.248 2.948 9.143 5.336 4.467 3.681 6.459 5.359 14.923 4.578 13.574-1.258 7.209-14.014 7.209-14.014Z"/><path fill="#293AA1" d="M284.058 121.883c-3.962 7.572-10.996 1.386-13.598-4.194-6.4-13.758-14.113-11.615-14.113-11.615-15.79-12.162-19.939.14-19.939.14-12.355-1.2-12.813 5.662-10.949 11.755 1.864 6.069 6.143 11.113 11.617 14.363.246.14.492.292.727.431 3.024-7.98 10.96-8.702 14.312-8.958 2.016-.152 5.65.198 8.452 2.365 7.619 5.894 7.807 10.496 16.282 9.715 13.574-1.246 7.209-14.002 7.209-14.002Z"/><path fill="#5A65BA" d="M283.204 120.694c-3.962 7.573-10.142 2.575-12.744-3.005-6.4-13.758-14.113-11.615-14.113-11.615-15.79-12.162-19.939.14-19.939.14-12.355-1.2-12.813 5.662-10.949 11.755 1.864 6.069 6.143 11.113 11.617 14.363.246.14.492.292.727.431 3.024-7.98 10.42-14.189 13.785-14.445 2.016-.151 5.65.198 8.451 2.376 7.62 5.895 8.346 15.972 16.81 15.191 14.092-1.322 6.952-15.278 6.355-15.191Z"/><path fill="#293AA1" d="M237.388 132.441s-10.472-33.113 8.412-32.023c0 0 7.05 2.366 12.553 6.947 0 0-12.308-3.803-16.483 1.68-5.248 6.894-5.631 15.757-4.482 23.396Z"/><path fill="#293AA1" d="M265.934 114.042s-3.493-4.311-10.843-4.614c-7.08-.302-16.821 2.889-17.993 22.915 0 0 5.087-18.197 18.626-20.748 2.063-.384 4.947-.244 10.21 2.447Z"/><path fill="#F88A7F" d="M341.929 199.593s3.631-11.523 4.341-18.833c.709-7.31 3.412-15.222 3.412-15.222s1.901-.361 3.033.638c1.131.998 2.564 9.009-.026 14.662-8.461 7.027-4.548 20.1-4.548 20.1l2.009.422 5.655-5.069 2.262-.155s9.877 14.091 8.255 20.899l-2.303 2.712-9.7-3.634-9.628-10.573-2.762-5.947Z"/><path fill="url(#k)" d="M358.014 195.988s-1.932 7.615-5.031 13.836c0 0-.277 2.753 2.835 3.599l.964-.705s-.094 3.175 2.642 3.992l3.207-2.097-1.144 2.047s.463 2.536 2.998 2.968c0 0 4.893-2.408 6.066-6.645l-3.413-4.396.566-2.692-4.203-4.511.327-1.987c-.021.005-2.462-2.745-5.814-3.409Z"/><path fill="url(#l)" d="M346.758 178.588s.329 2.029 1.2 2.976c.87.946-2.284 7.747-2.284 7.747l2.524 11.598 1.954.411 5.539-5.117s-2.893 2.98-3.566 5.531l1.513 1.203 2.547-4.841-.083 3.851-1.664 4.464s-2.068-2.766-6.634-3.816l-.955 1.136s6.817 8.779 7.852 13.327c0 0-2.975-6.192-11.087-14.038l-.298-3.017.235-6.995c.018.004 3.18-9.481 3.207-14.42Z" opacity=".3"/><path fill="url(#m)" d="m340.937 159.176-1.537 2.587.768 17.933 1.086.025-.317-20.545Z"/><path fill="url(#n)" fill-opacity=".7" d="M317.043 227.506s-3.104 3.674-5.176 18.087 3.62 23.014 3.62 23.014-5.766-1.086-7.488-17.958c-1.722-16.872 5.379-24.368 5.379-24.368l3.665 1.225Z"/><path fill="#fff" stroke="#84B5FF" stroke-miterlimit="10" d="M187.797 231.033v68.691a3.196 3.196 0 0 1-3.197 3.197H79.852a3.196 3.196 0 0 1-3.198-3.197v-68.691a7.388 7.388 0 0 1 7.386-7.386h96.371a7.388 7.388 0 0 1 7.386 7.386Z"/><path fill="#84B5FF" d="M128.125 240.079h-12.467v1.047h12.467v-1.047Z"/><path fill="#06B25F" d="M142.748 240.078h-12.467v1.048h12.467v-1.048Z"/><path fill="#276ED8" d="M138.842 245.732H119.51v1.048h19.332v-1.048Z"/><path fill="#84B5FF" d="M151.859 245.732h-9.824v1.048h9.824v-1.048Z"/><path fill="#06B25F" d="M134.703 251.378h-8.488v1.048h8.488v-1.048ZM167.773 251.378h-28.164v1.048h28.164v-1.048Z"/><path fill="#276ED8" d="M164.995 257.03h-32.186v1.047h32.186v-1.047Z"/><path fill="#84B5FF" d="M134.665 262.676h-9.905v1.048h9.905v-1.048Z"/><path fill="#276ED8" d="M148.811 262.676h-9.905v1.048h9.905v-1.048Z"/><path fill="#84B5FF" d="M130.065 291.993h-14.407v1.048h14.407v-1.048Z"/><path fill="#06B25F" d="M149.512 291.993h-14.407v1.048h14.407v-1.048Z"/><path fill="#84B5FF" d="M168.449 291.993h-14.406v1.048h14.406v-1.048Z"/><path fill="#276ED8" d="M147.673 286.337H119.51v1.048h28.163v-1.048Z"/><path fill="#84B5FF" d="M180.222 286.337h-28.163v1.048h28.163v-1.048ZM154.162 280.693h-27.947v1.048h27.947v-1.048Z"/><path fill="#06B25F" d="M164.374 280.693h-7.776v1.048h7.776v-1.048ZM134.909 275.04h-10.518v1.047h10.518v-1.047Z"/><path fill="#276ED8" d="M151.011 275.04h-10.519v1.047h10.519v-1.047Z"/><path fill="#84B5FF" d="M168.303 275.039h-10.518v1.048h10.518v-1.048Z"/><path fill="#06B25F" d="M151.335 269.395h-14.749v1.048h14.749v-1.048Z"/><path fill="#276ED8" d="M131.023 269.395h-14.75v1.048h14.75v-1.048Z"/><path fill="#84B5FF" d="M112.186 239.077h-1.344v1.345h1.344v-1.345ZM112.184 288.335h-1.344v-2.737h1.344v2.737Zm0-6.846h-1.344v-2.737h1.344v2.737Zm0-6.846h-1.344v-2.737h1.344v2.737Zm0-6.846h-1.344v-2.737h1.344v2.737Zm0-6.846h-1.344v-2.737h1.344v2.737Zm0-6.846h-1.344v-2.737h1.344v2.737Zm0-6.846h-1.344v-2.737h1.344v2.737ZM112.184 292.444h-1.344v1.346h1.344v-1.346Z"/><path fill="#84B5FF" d="M76.4 235.065a6 6 0 0 1 6-6h22.925v73.862H82.4a6 6 0 0 1-6-6v-61.862Z" opacity=".7"/><path fill="#06B25F" d="M91.182 241.112H78.715v1.048h12.467v-1.048Z"/><path fill="#84B5FF" d="M100.722 247.514H81.391v1.048h19.331v-1.048ZM100.722 253.917H81.391v1.048h19.331v-1.048ZM100.722 260.319H81.391v1.048h19.331v-1.048ZM100.722 266.72H81.391v1.048h19.331v-1.048ZM101.726 279.524H82.394v1.048h19.332v-1.048ZM101.726 285.928H82.394v1.047h19.332v-1.047ZM101.726 292.328H82.394v1.048h19.332v-1.048Z"/><path fill="#06B25F" d="M91.182 273.123H78.715v1.047h12.467v-1.047Z"/><path fill="#84B5FF" d="M187.797 231.033v.31H76.654v-.31a7.388 7.388 0 0 1 7.386-7.386h96.371a7.388 7.388 0 0 1 7.386 7.386Z"/><path fill="#fff" d="M170.918 227.853a.96.96 0 0 1-.961.961.96.96 0 0 1-.961-.961.96.96 0 0 1 .961-.961c.527 0 .961.429.961.961ZM176.175 227.852a.96.96 0 1 1-1.921 0 .96.96 0 1 1 1.921 0ZM181.203 227.852a.96.96 0 0 1-.961.961.96.96 0 0 1-.961-.961.96.96 0 0 1 .961-.961.96.96 0 0 1 .961.961Z" opacity=".3"/><path stroke="#84B5FF" stroke-miterlimit="10" d="M187.797 231.033v68.691a3.196 3.196 0 0 1-3.197 3.197H79.852a3.196 3.196 0 0 1-3.198-3.197v-68.691a7.388 7.388 0 0 1 7.386-7.386h96.371a7.388 7.388 0 0 1 7.386 7.386Z"/><path fill="#FFA49C" d="M131.059 215.778s-2.462-.692-4.507 2.332l.228 1.09s-2.505.161-5.391 3.815c0 0 1.598 4.089 6.549 6.485 0 0 2.498-.364 3.178-2.346l-.301-1.369 1.695 1.661s2.164.972 3.594-2.241l-5.045-9.427ZM138.059 214.645s-2.462-.692-4.507 2.332l.228 1.09c.019-.011.357 1.866 4.035 6.586l1.695 1.66s2.164.972 3.594-2.241l-5.045-9.427Z"/><path fill="#FFA49C" d="M118.843 227.429s-.575-2.417 1.973-4.046l5.121 5.431s-.114 1.78-2.278 2.207c0 0-3.446-1.091-4.816-3.592Z"/><path fill="#E28183" d="M126.779 219.208s1.892 4.286 4.034 6.586l.302 1.369s-4.26-3.762-5.5-7.619c-.008-.001.608-.333 1.164-.336ZM121.343 223.244s2.104 3.013 4.078 4.447l.445 1.012s-3.795-2.226-5.342-5.011c-.006.001.402-.356.819-.448ZM131.354 215.944s2.878 3.005 5.408 7.343h-1.808s-1.387-1.951-3.07-5.816c0 0-1.086-1.524-.53-1.527Z"/><path fill="#FF9E8D" d="M138.271 214.66s4.072 4.715 6.441 8.626h-2.169s-1.303-1.035-3.563-6.476c0 0-1.465-2.142-.709-2.15Z"/><path fill="#fff" d="M348.199 139.417v11.677l10.009-6.372-10.009-5.305ZM352.716 282.188c.717-2.818 15.007-74.262 15.007-74.262s-38.106-11.226-62.478 0l15.608 74.886 31.863-.624Z"/><path fill="#CAC3CD" fill-opacity=".3" d="M346.034 284.368c.46-.406 2.05-1.815 3.518-3.167 1.733-1.606 2.751-2.971 2.751-2.971s-.242-2.564-.242-3.281c0-.724 3.83-17.805 7.594-23.092 3.513-4.932.062-32.715-.421-36.466l-.057-.419s-2.481 4.17-3.555 12.466c-1.08 8.303.445 24.66.445 24.66s-2.15 13.228-7.443 13.469c0 0 4.441 8.715 2.689 13.089-.336.831-4.469 4.944-5.279 5.712Z" opacity=".83"/><path fill="#CAC3CD" fill-opacity=".3" d="M354.59 245.855s-28.649 2.957-36.557-2.957c.023 0 9.896 23.676 36.557 2.957Z"/><path fill="#84B5FF" d="M354.567 281.929s23.168 48.507 13.711 202.852c0 0-9.989 2.102-13.133 1.039 0 0-28.58-134.133-21.643-201.465l21.065-2.426Z"/><path fill="#84B5FF" d="M341.479 313.114s.532 125.472-21.018 169.567l-16.302-.531s-8.694-149.795 16.672-200.38l19.446 2.148 1.202 29.196Z"/><path fill="#8F99B6" d="M355.93 285.028s-17.99 5.359-36.257-1.848l-.231-7.183s9.365 2.818 17.342 2.333c7.954-.462 18.729-1.871 18.729-1.871l.417 8.569Z"/><path fill="#84B5FF" d="M351.747 275.046s3.029 11.711.231 13.097c-2.821 1.409-4.463.786-4.463.786l.023-12.959 4.209-.924ZM322.842 274.125s-1.896 10.949.486 13.004c3.237 2.749 3.422.532 3.422.532l.301-12.589-4.209-.947Z"/><path fill="#EAEAEA" d="M342.379 275.997c0 1.409-.486 10.071-.486 10.071l-10.081.231-.925-10.071 11.492-.231Zm-8.902 8.569 6.798-.462.231-5.336h-7.492l.463 5.798Z"/><path fill="#F39B8D" d="M347.319 203.963c1.04 6.121-7.168 6.652-7.168 6.652-3.63 0-9.295-1.109-9.295-4.735l1.757-22.66a6.56 6.56 0 0 1 6.567-6.56 6.56 6.56 0 0 1 6.567 6.56l1.572 20.743Z"/><path fill="#FBB2A6" d="M321.059 124.043c1.023-1.453 7.05 1.012 7.948-.551 3.558 4.107 13.104-1.876 17.575 1.462 5.855 4.375 10.471 8.593 17.188 11.494 2.21.956-1.308 2.046 1.109 2.469.107 4.298 2.409 17.932 1.627 22.257-3.941 21.689-21.391 32.221-36.917 28.202-11.734-3.049-21.495-18.082-21.836-39.453-.207-12.894 11.573-21.466 11.955-23.374 6.341-4.783-3.298 4.006 1.351-2.506Z"/><path fill="#D8826C" d="M336.969 169.025s-3.746 6.306-7.769-.116l7.769.116Z"/><path fill="#fff" d="M340.831 156.23a7.56 7.56 0 0 0 7.561 7.553 7.545 7.545 0 0 0 7.561-7.553 7.56 7.56 0 0 0-7.561-7.553 7.56 7.56 0 0 0-7.561 7.553Z"/><path fill="#06B25F" d="M344.194 158.015c.162 3.014 2.14 5.368 4.422 5.266 2.289-.121 4.003-2.65 3.86-5.657-.156-3.033-2.14-5.368-4.404-5.259-2.301.095-4.034 2.617-3.878 5.65Z"/><path fill="#400404" d="M345.403 157.955c.114 2.133 1.517 3.806 3.144 3.725 1.627-.08 2.86-1.877 2.734-4.037-.107-2.152-1.511-3.825-3.137-3.744-1.634.099-2.848 1.904-2.741 4.056Z"/><path fill="#fff" d="M345.028 154.283c.024.591.732 1.019 1.568.977.836-.043 1.498-.559 1.467-1.131-.024-.591-.732-1.02-1.568-.977-.836.043-1.498.559-1.467 1.131Z" opacity=".8"/><path fill="#D5503B" d="M344.949 175.103s-12.185 5.613-17.342.462c0 0 4.694 11.711 17.342-.462Z"/><path fill="#302725" d="M340.831 156.231s-.601-4.85 4.139-7.299c7.261-3.742 11.238 4.92 13.596 6.329 0 0-1.526 1.525-2.636.993 0-.023-8.601-10.301-15.099-.023Z"/><path fill="#fff" d="M328.934 156.713a7.546 7.546 0 0 1-7.562 7.554c-4.162 0-7.561-3.373-7.561-7.554 0-4.157 3.376-7.53 7.561-7.53 4.163-.023 7.562 3.373 7.562 7.53Z"/><path fill="#06B25F" d="M317.503 157.831c.285 3.006 2.415 5.239 4.78 4.993 2.366-.246 4.037-2.871 3.75-5.857-.285-3.007-2.415-5.24-4.778-5.014-2.346.248-4.037 2.871-3.752 5.878Z"/><path fill="#400404" d="M318.918 157.739c.167 2.206 1.565 3.813 3.143 3.631 1.578-.182 2.715-2.137 2.564-4.321-.168-2.206-1.581-3.835-3.162-3.633-1.559.184-2.712 2.117-2.545 4.323Z"/><path fill="#fff" d="M317.84 153.644c.075.579.958 1.004 1.944.93 1.008-.071 1.742-.601 1.689-1.178-.075-.579-.935-1.001-1.943-.93-1.009.071-1.765.599-1.69 1.178Z" opacity=".8"/><path fill="#302725" d="M329.05 155.786s.601-4.319-4.139-6.491c-7.261-3.326-11.238 4.366-13.573 5.613 0 0 1.526 1.34 2.636.878-.024 0 7.769-9.355 15.076 0Z"/><path fill="#6F3B1E" d="M357.75 145.882s-7.677-6.86-15.03-3.903c-1.711.693-2.104 1.501-3.191 4.827 0 0 8.371-4.689 18.221-.924ZM311.339 147.78s4.37-7.923 11.029-6.329c1.55.369 2.081 1.085 3.816 4.088 0 .023-7.931-3.049-14.845 2.241Z"/><path fill="#FBB2A6" d="M364.673 151.013s8.162-11.134 10.521-.439c1.873 8.523-5.735 14.783-10.452 13.189-4.717-1.593-.069-12.75-.069-12.75Z"/><path fill="#F39B8D" d="M364.579 152.996s5.78-7.022 7.26-3.718c1.48 3.303.601 7.183.601 7.183s-.601-4.435-4.116-2.379c0 0 2.498 7.299-3.745 4.527-.024 0-2.475-2.425 0-5.613Z"/><path fill="#fff" d="M364.227 164.327c0 1.132.856 2.032 1.896 2.032 1.064 0 1.897-.924 1.897-2.032 0-1.132-.856-2.056-1.897-2.056-1.04 0-1.896.901-1.896 2.056Z"/><path fill="url(#o)" d="M297.916 143.368c6.613 1.848 14.058.508 19.677-3.534 5.619-4.043 9.272-10.718 9.642-17.625.116-1.917-.277-4.227-2.011-5.012-.602-.277-1.295-.3-1.966-.277-4.093.115-8.023 1.848-11.284 4.365-3.26 2.518-5.85 5.775-8.139 9.194-1.642 2.471-3.121 5.058-4.023 7.876a21.067 21.067 0 0 0-.948 5.475"/><path fill="url(#p)" d="M325.802 126.53c12.094 6.837 25.782 18.917 38.893 18.248.67-.023 4.046-4.158 4.324-4.689.231-.462-.023-1.04-.278-1.548-2.659-5.035-9.781-13.79-15.076-16.77-5.295-2.979-11.099-4.873-16.879-6.583-2.937-.854-5.92-1.686-8.879-1.732-2.937-.046-5.897.762-7.538 2.749"/><path fill="#fff" d="M305.128 207.744s-25.629 58.901-16.261 67.038c0 0 9.368 5.007 17.511-17.525 8.142-22.554 8.119-50.811-1.25-49.513Z"/><path fill="#CAC3CD" fill-opacity=".3" d="M291.61 275.053a253.95 253.95 0 0 0 3.947-2.612c1.952-1.331-.719 3.976-.719 3.976s-.106-1.25 0-1.959c.108-.716 6.424-17.041 10.929-21.713 4.204-4.358 4.904-32.345 4.981-36.127l.006-.423s-3.071 3.757-5.361 11.803c-2.297 8.051-3.211 24.454-3.211 24.454s-4.084 12.764-9.354 12.219c0 0 3.541 6.596 1.162 10.662-.456.772-1.466-.92-2.38-.28Z" opacity=".83"/><path fill="#fff" d="M307.624 247.242s-21.605 15.137-19.986 24.432c.255 1.507 1.249 3.129 1.249 3.129s9.369 10.663 21.258-13.769c-.023-.023 6.87-15.67-2.521-13.792Z"/><path fill="#F0A98F" d="M304.504 243.79c1.966-4.334 7.425-7.58 9.16-7.325 1.388-.672 2.776-.44 3.955 1.855 1.689 3.268 1.62 8.878.324 12.378-2.521 6.815-9.507-1.808-9.206-7.232-2.706 2.318-6.269 4.821-4.233.324Z"/><path fill="#06B25F" d="M313.87 236.903s8.12 26.31 5.621 27.562c-2.498 1.252-15.012 1.252-15.012 1.252s-8.744-28.188-6.87-28.814c1.897-.626 15.66-1.251 16.261 0Z"/><path fill="#FFBC9F" d="M329.001 268.546s-3.169-.649-4.372-2.249c-1.203-1.599-1.943-2.294-6.223-4.149-4.256-1.854-5.944-4.335-5.944-4.335s-2.984 2.921 3.539 6.027c4.002 1.901-9.137 1.924-13.093 1.53 0 0-2.29 1.345 1.481 3.176 3.77 1.831.139 2.04 7.61 5.192 7.472 3.13 16.354 4.66 18.181-.092 1.828-4.752-1.179-5.1-1.179-5.1Z"/><path fill="#fff" d="M357.521 226.005c-1.458 7.233 4.811 37.831 4.811 37.831-4.256-.278-23.201.834-30.21 1.622-2.382.255-3.909.441-3.909.441l-2.336 12.123c1.318.302 2.614.557 3.886.812 25.282 4.752 43.811-2.156 43.811-2.156 7.633-46.778-5.945-68.939-5.945-68.939-6.269-.417-10.108 18.266-10.108 18.266Z"/><path fill="url(#q)" d="M358.339 195.883s-1.933 7.615-5.032 13.836c0 0-.277 2.753 2.836 3.599l.963-.705s-.094 3.175 2.642 3.992l3.208-2.097-1.145 2.047s.463 2.536 2.998 2.968c0 0 4.893-2.408 6.066-6.645l-3.413-4.396.566-2.692-4.203-4.511.327-1.987c-.021.005-2.462-2.745-5.813-3.409Z"/><path fill="#E28183" d="M364.217 199.144s-3.117 9.642-7.174 13.685c0 0 4.924-4.099 6.839-11.655l.335-2.03ZM367.93 206.002s-2.575 7.489-8.012 10.808c0 0 4.455-1.249 7.447-8.12l.565-2.688Z"/><path fill="#CAC3CD" fill-opacity=".3" d="M326.879 203.045h4.699s-1.498 4.046.361 5.06c3.976 2.169 4.337 2.169 9.759 2.169 3.219 0 5.421-6.506 5.421-6.506l3.976.723s-4.195 7.643-9.397 9.397c-3.611 1.218-6.429 1.854-9.759 0-3.861-2.149-5.06-10.843-5.06-10.843Z"/></g><defs><linearGradient id="b" x1="282.062" x2="365.554" y1="258.345" y2="105.818" gradientUnits="userSpaceOnUse"><stop stop-color="#12844D"/><stop offset="1" stop-color="#3BE090"/></linearGradient><linearGradient id="c" x1="180.398" x2="180.398" y1="302.843" y2="260.514" gradientUnits="userSpaceOnUse"><stop stop-color="#CF6074"/><stop offset="1" stop-color="#FF817F"/></linearGradient><linearGradient id="d" x1="195.424" x2="195.424" y1="300.856" y2="199.994" gradientUnits="userSpaceOnUse"><stop stop-color="#79ADFA"/><stop offset="1" stop-color="#2C72DA"/></linearGradient><linearGradient id="e" x1="248.755" x2="248.755" y1="440.884" y2="316.087" gradientUnits="userSpaceOnUse"><stop stop-color="#000B78"/><stop offset="1" stop-color="#1B279B"/></linearGradient><linearGradient id="f" x1="295.814" x2="295.814" y1="270.821" y2="196.748" gradientUnits="userSpaceOnUse"><stop stop-color="#7CAFFC"/><stop offset="1" stop-color="#2C72DA"/></linearGradient><linearGradient id="g" x1="244.229" x2="244.229" y1="330.63" y2="191.475" gradientUnits="userSpaceOnUse"><stop stop-color="#67A1F8"/><stop offset="1" stop-color="#1B67D9"/></linearGradient><linearGradient id="h" x1="259.533" x2="231.781" y1="184.426" y2="184.426" gradientUnits="userSpaceOnUse"><stop stop-color="#CF6074"/><stop offset="1" stop-color="#FF817F"/></linearGradient><linearGradient id="i" x1="265.302" x2="265.302" y1="199.894" y2="199.681" gradientUnits="userSpaceOnUse"><stop stop-color="#9D68C2"/><stop offset="1" stop-color="#CCEDFF"/></linearGradient><linearGradient id="j" x1="230.528" x2="230.528" y1="209.038" y2="195.517" gradientUnits="userSpaceOnUse"><stop stop-color="#3D2CB0"/><stop offset="1" stop-color="#0355C7"/></linearGradient><linearGradient id="k" x1="360.21" x2="364.698" y1="218.748" y2="197.397" gradientUnits="userSpaceOnUse"><stop offset=".016" stop-color="#FFC2A9"/><stop offset="1" stop-color="#FF9595"/></linearGradient><linearGradient id="l" x1="346.954" x2="354.363" y1="215.435" y2="180.188" gradientUnits="userSpaceOnUse"><stop stop-color="#FFEADB"/><stop offset=".994" stop-color="#C27CB6"/></linearGradient><linearGradient id="m" x1="340.329" x2="340.329" y1="179.719" y2="159.172" gradientUnits="userSpaceOnUse"><stop stop-color="#A242EA"/><stop offset="1" stop-color="#FE117E"/></linearGradient><linearGradient id="n" x1="312.384" x2="312.384" y1="268.614" y2="226.286" gradientUnits="userSpaceOnUse"><stop stop-color="#CF6074"/><stop offset="1" stop-color="#FF817F"/></linearGradient><linearGradient id="o" x1="298.05" x2="323.142" y1="144.109" y2="116.842" gradientUnits="userSpaceOnUse"><stop stop-color="#25B770" stop-opacity=".6"/><stop offset="1" stop-color="#1FCF79"/></linearGradient><linearGradient id="p" x1="367.67" x2="325.319" y1="142.513" y2="117.276" gradientUnits="userSpaceOnUse"><stop stop-color="#33CF83"/><stop offset="1" stop-color="#32CE82"/></linearGradient><linearGradient id="q" x1="360.534" x2="365.022" y1="218.643" y2="197.292" gradientUnits="userSpaceOnUse"><stop offset=".016" stop-color="#FFC2A9"/><stop offset="1" stop-color="#FF9595"/></linearGradient></defs></svg>