<svg xmlns="http://www.w3.org/2000/svg" width="497" height="468" fill="none"><path fill="#276ED8" d="M65.928 374.032c-8.408 76.926 215.724 48.095 261.672 22.146 45.947-25.95 77.222-41.027 115.497-91.384-4.729-9.235 2.664 10.669 0 0 61.459-69.691-9.856-144.815-20.54-164.696-9.235-17.209-102.856 16.862-115.139 3.201-5.381-5.91-60.673-90.429-129.302-75.575-50.137 10.851-113.032 13.557-140.079 94.473-27.046 80.917 44.542 59.508 27.891 211.835Z" opacity=".04"/><mask id="a" width="439" height="380" x="31" y="44" maskUnits="userSpaceOnUse" style="mask-type:alpha"><path fill="#276ED8" d="M65.928 374.033c-8.408 76.925 215.724 48.094 261.671 22.145 45.948-25.95 77.222-41.027 115.498-91.384-4.729-9.235 2.664 10.669 0 0C504.556 235.103 454 108 357 49.5c-9.235-17.21 12.283 13.66 0 0-5.381-5.91-110.255 3.37-178.884 18.224C127.978 78.575 65.084 81.28 38.037 162.197c-27.046 80.916 44.542 59.508 27.891 211.836Z"/></mask><g mask="url(#a)"><path fill="#fff" stroke="#84B5FF" stroke-miterlimit="10" d="M311.227 168.674v127.167a5.918 5.918 0 0 1-5.919 5.919h-193.92a5.917 5.917 0 0 1-5.919-5.919V168.674c0-7.545 6.12-13.674 13.674-13.674h178.41c7.554 0 13.674 6.129 13.674 13.674Z"/><path fill="#84B5FF" d="M200.755 185.419h-23.08v1.94h23.08v-1.94Z"/><path fill="#06B25F" d="M227.827 185.419h-23.08v1.939h23.08v-1.939Z"/><path fill="#276ED8" d="M220.595 195.886h-35.789v1.94h35.789v-1.94Z"/><path fill="#84B5FF" d="M244.693 195.886h-18.186v1.94h18.186v-1.94Z"/><path fill="#06B25F" d="M212.93 206.339h-15.715v1.94h15.715v-1.94ZM274.152 206.339h-52.138v1.94h52.138v-1.94Z"/><path fill="#276ED8" d="M269.009 216.801h-59.587v1.94h59.587v-1.94Z"/><path fill="#84B5FF" d="M212.863 227.255h-18.337v1.94h18.337v-1.94Z"/><path fill="#276ED8" d="M239.048 227.255h-18.337v1.94h18.337v-1.94Z"/><path fill="#84B5FF" d="M204.346 281.529h-26.671v1.94h26.671v-1.94Z"/><path fill="#06B25F" d="M240.352 281.529h-26.671v1.94h26.671v-1.94Z"/><path fill="#84B5FF" d="M275.405 281.529h-26.671v1.94h26.671v-1.94Z"/><path fill="#276ED8" d="M236.945 271.059h-52.138v1.94h52.138v-1.94Z"/><path fill="#84B5FF" d="M297.199 271.059h-52.138v1.94h52.138v-1.94ZM248.952 260.607h-51.737v1.94h51.737v-1.94Z"/><path fill="#06B25F" d="M267.857 260.607h-14.396v1.94h14.396v-1.94ZM213.314 250.143h-19.473v1.939h19.473v-1.939Z"/><path fill="#276ED8" d="M243.123 250.143h-19.472v1.939h19.472v-1.939Z"/><path fill="#84B5FF" d="M275.138 250.143h-19.473v1.939h19.473v-1.939Z"/><path fill="#06B25F" d="M243.725 239.693H216.42v1.94h27.305v-1.94Z"/><path fill="#276ED8" d="M206.116 239.693h-27.305v1.94h27.305v-1.94Z"/><path fill="#84B5FF" d="M171.246 183.564h-2.489v2.492h2.489v-2.492ZM171.245 274.757h-2.488v-5.066h2.488v5.066Zm0-12.674h-2.488v-5.066h2.488v5.066Zm0-12.674h-2.488v-5.066h2.488v5.066Zm0-12.674h-2.488v-5.066h2.488v5.066Zm0-12.674h-2.488v-5.066h2.488v5.066Zm0-12.674h-2.488v-5.066h2.488v5.066Zm0-12.674h-2.488v-5.066h2.488v5.066ZM171.246 282.363h-2.488v2.491h2.488v-2.491Z"/><path fill="#84B5FF" d="M105 171.031a6 6 0 0 1 6-6h47.548V301.77H111a6 6 0 0 1-6-6V171.031Z" opacity=".7"/><path fill="#06B25F" d="M132.362 187.333h-23.08v1.94h23.08v-1.94Z"/><path fill="#84B5FF" d="M150.027 199.185h-35.788v1.94h35.788v-1.94ZM150.027 211.038h-35.788v1.94h35.788v-1.94ZM150.027 222.892h-35.788v1.939h35.788v-1.939ZM150.027 234.742h-35.788v1.939h35.788v-1.939ZM151.885 258.445h-35.788v1.94h35.788v-1.94ZM151.885 270.3h-35.788v1.939h35.788V270.3ZM151.885 282.149h-35.788v1.939h35.788v-1.939Z"/><path fill="#06B25F" d="M132.362 246.593h-23.08v1.94h23.08v-1.94Z"/><path fill="#84B5FF" d="M311.227 168.674v.574H105.469v-.574c0-7.545 6.12-13.674 13.674-13.674h178.41c7.554 0 13.674 6.129 13.674 13.674Z"/><path fill="#fff" d="M279.978 162.784c0 .985-.794 1.779-1.779 1.779a1.776 1.776 0 0 1-1.778-1.779c0-.984.794-1.778 1.778-1.778.976 0 1.779.794 1.779 1.778ZM289.711 162.784c0 .985-.793 1.778-1.778 1.778a1.775 1.775 0 0 1-1.779-1.778c0-.985.794-1.779 1.779-1.779.975 0 1.778.794 1.778 1.779ZM299.017 162.784c0 .985-.794 1.778-1.778 1.778a1.775 1.775 0 0 1-1.779-1.778c0-.985.794-1.779 1.779-1.779.984 0 1.778.794 1.778 1.779Z" opacity=".3"/><path stroke="#84B5FF" stroke-miterlimit="10" d="M311.227 168.674v127.167a5.918 5.918 0 0 1-5.919 5.919h-193.92a5.917 5.917 0 0 1-5.919-5.919V168.674c0-7.545 6.12-13.674 13.674-13.674h178.41c7.554 0 13.674 6.129 13.674 13.674Z"/><path fill="url(#b)" d="M301.027 224.521c-13.318 10.209-32.649 14.344-47.54 6.444-4.671-2.471-8.971-6.421-9.896-11.503-1.11-6.121 2.844-12.45 1.179-18.456-1.457-5.312-6.775-8.569-10.729-12.496-5.734-5.682-9.064-13.605-9.041-21.574.023-7.969 3.353-15.869 9.11-21.528 4.879-4.804 11.238-7.899 16.834-11.919 4.416-3.187 5.952-7.977 8.056-12.989 2.081-4.943.301-10.649 0-15.5-.624-10.371 4.499-18.516 11.968-26.231 9.665-10.025 24.024-9.863 36.719-7.276 6.428 1.293 13.527 3.303 19.168 6.722 2.405 1.455 4.001 3.233 5.642 5.566.532.74 3.492 8.108 3.376 8.085 18.822 4.296 8.718 30.351 14.498 42.316 1.827 3.765 5.018 6.676 7.816 9.794 4.902 5.498 8.74 12.104 9.942 19.357 1.203 7.253-.439 15.152-5.318 20.65-.786.901-1.711 1.778-2.011 2.933-.463 1.733.508 3.465 1.225 5.105 4.278 9.817-.624 21.181-6.798 29.936-4.139 5.89-9.018 11.48-15.353 14.898-10.105 5.475-22.869 4.62-33.274-.277"/><path fill="#148951" d="M303.888 95.739c6.358-3.096 14.474.346 18.405 6.236 3.908 5.89 8.995 11.134 8.07 18.133-.462 3.464-1.225 6.998-.532 10.44 1.758 8.916 7.261 15.43 12.995 22.475 4.856 5.959 6.428 13.882 7.677 21.459.74 4.527 1.341 9.516-1.064 13.42-3.052 4.943-6.543 11.318-9.827 16.1-5.411 7.83-2.243 15.476-8.786 22.405-1.943 2.033-4.671 3.095-7.353 3.95a68.712 68.712 0 0 1-16.741 2.98c-4.856.254-9.781-.046-14.359-1.64-11.238-3.95-18.753-16.562-16.718-28.296 1.549-8.893 7.677-16.284 10.59-24.854 2.081-6.144 2.428-12.866 1.017-19.195-1.803-7.992-6.405-15.938-4.416-23.884" opacity=".42"/><path fill="#fff" d="M283.754 246.37c-.717-2.818-15.007-74.262-15.007-74.262s38.106-11.225 62.478 0l-15.608 74.886-31.863-.624Z"/><path fill="#CAC3CD" fill-opacity=".3" d="M290.435 248.551c-.459-.407-2.05-1.816-3.517-3.168-1.733-1.606-2.751-2.97-2.751-2.97s.241-2.565.241-3.282c0-.724-3.83-17.805-7.594-23.092-3.513-4.932-.061-32.714.422-36.466l.057-.419s2.48 4.171 3.555 12.467c1.08 8.302-.445 24.659-.445 24.659s2.15 13.228 7.443 13.47c0 0-4.441 8.715-2.69 13.088.337.831 4.47 4.945 5.279 5.713Z" opacity=".83"/><path fill="#CAC3CD" fill-opacity=".3" d="M281.881 210.037s28.649 2.957 36.557-2.956c-.023 0-9.897 23.676-36.557 2.956Z"/><path fill="#276ED8" d="M281.905 246.111s-23.169 48.507-13.712 202.852c0 0 9.989 2.102 13.134 1.039 0 0 28.58-134.133 21.643-201.465l-21.065-2.426Z"/><path fill="#276ED8" d="M294.993 277.296s-.531 125.472 21.019 169.567l16.301-.531s8.694-149.794-16.671-200.38l-19.446 2.148-1.203 29.196Z"/><path fill="#8F99B6" d="M280.541 249.21s17.989 5.359 36.256-1.848l.232-7.183s-9.365 2.818-17.342 2.333c-7.955-.462-18.73-1.871-18.73-1.871l-.416 8.569Z"/><path fill="#276ED8" d="M284.726 239.229s-3.029 11.71-.231 13.096c2.821 1.409 4.463.786 4.463.786l-.024-12.959-4.208-.923ZM313.629 238.307s1.896 10.949-.485 13.005c-3.238 2.748-3.423.531-3.423.531l-.3-12.589 4.208-.947Z"/><path fill="#EAEAEA" d="M294.092 240.179c0 1.409.485 10.071.485 10.071l10.082.231.925-10.071-11.492-.231Zm8.902 8.569-6.798-.462-.231-5.335h7.491l-.462 5.797Z"/><path fill="#F39B8D" d="M289.153 168.145c-1.041 6.121 7.168 6.652 7.168 6.652 3.63 0 9.295-1.109 9.295-4.735l-1.757-22.66a6.56 6.56 0 0 0-6.567-6.56 6.56 6.56 0 0 0-6.567 6.56l-1.572 20.743Z"/><path fill="#FBB2A6" d="M315.414 88.226c-1.024-1.454-7.051 1.01-7.948-.552-3.558 4.107-13.104-1.876-17.576 1.462-5.854 4.375-10.47 8.593-17.187 11.494-2.21.956 1.308 2.046-1.109 2.469-.107 4.298-2.41 17.932-1.628 22.257 3.941 21.689 21.392 32.221 36.918 28.202 11.733-3.049 21.495-18.082 21.836-39.453.206-12.894-11.574-21.466-11.956-23.374-6.34-4.783 3.299 4.006-1.35-2.505Z"/><path fill="#D8826C" d="M299.502 133.207s3.746 6.306 7.769-.115l-7.769.115Z"/><path fill="#fff" d="M295.64 120.412a7.56 7.56 0 0 1-7.561 7.553 7.544 7.544 0 0 1-7.561-7.553 7.56 7.56 0 0 1 7.561-7.553 7.56 7.56 0 0 1 7.561 7.553Z"/><path fill="#06B25F" d="M292.277 122.197c-.163 3.014-2.14 5.369-4.422 5.266-2.29-.121-4.003-2.65-3.86-5.657.156-3.033 2.14-5.368 4.403-5.259 2.302.095 4.035 2.618 3.879 5.65Z"/><path fill="#400404" d="M291.066 122.137c-.114 2.134-1.517 3.806-3.144 3.725-1.627-.08-2.86-1.877-2.734-4.037.107-2.152 1.51-3.824 3.137-3.744 1.634.099 2.848 1.904 2.741 4.056Z"/><path fill="#fff" d="M291.445 118.465c-.024.591-.733 1.019-1.569.977-.836-.043-1.497-.559-1.466-1.131.023-.591.732-1.02 1.568-.977.836.043 1.498.559 1.467 1.131Z" opacity=".8"/><path fill="#D5503B" d="M291.523 139.285s12.186 5.613 17.342.462c0 0-4.693 11.711-17.342-.462Z"/><path fill="#302725" d="M295.641 120.414s.602-4.851-4.139-7.299c-7.26-3.742-11.237 4.92-13.596 6.329 0 0 1.526 1.524 2.636.993 0-.023 8.602-10.302 15.099-.023Z"/><path fill="#fff" d="M307.538 120.895a7.546 7.546 0 0 0 7.561 7.554c4.162 0 7.561-3.373 7.561-7.554 0-4.157-3.376-7.53-7.561-7.53-4.162-.023-7.561 3.373-7.561 7.53Z"/><path fill="#06B25F" d="M318.968 122.013c-.285 3.006-2.414 5.24-4.779 4.994-2.366-.247-4.037-2.872-3.75-5.858.285-3.006 2.415-5.24 4.778-5.014 2.346.248 4.036 2.872 3.751 5.878Z"/><path fill="#400404" d="M317.553 121.921c-.168 2.206-1.565 3.813-3.143 3.631-1.578-.182-2.715-2.137-2.564-4.321.167-2.206 1.581-3.835 3.161-3.632 1.56.184 2.713 2.116 2.546 4.322Z"/><path fill="#fff" d="M318.632 117.826c-.075.579-.959 1.004-1.944.93-1.008-.071-1.742-.601-1.69-1.178.075-.579.936-1.001 1.944-.93 1.008.072 1.765.599 1.69 1.178Z" opacity=".8"/><path fill="#302725" d="M307.422 119.968s-.601-4.319 4.139-6.491c7.261-3.326 11.238 4.366 13.573 5.613 0 0-1.526 1.34-2.636.878.023 0-7.769-9.355-15.076 0Z"/><path fill="#6F3B1E" d="M278.722 110.064s7.676-6.86 15.029-3.903c1.712.693 2.105 1.501 3.191 4.827 0 0-8.37-4.689-18.22-.924ZM325.134 111.962s-4.37-7.923-11.03-6.329c-1.549.369-2.081 1.085-3.815 4.088 0 .023 7.931-3.049 14.845 2.241Z"/><path fill="#FBB2A6" d="M271.799 115.195s-8.162-11.133-10.521-.439c-1.873 8.524 5.734 14.783 10.452 13.19 4.717-1.594.069-12.751.069-12.751Z"/><path fill="#F39B8D" d="M271.892 117.179s-5.781-7.022-7.26-3.719c-1.48 3.303-.602 7.183-.602 7.183s.602-4.435 4.116-2.379c0 0-2.497 7.299 3.746 4.528.023 0 2.474-2.426 0-5.613Z"/><path fill="#fff" d="M272.245 128.509c0 1.132-.855 2.033-1.896 2.033-1.063 0-1.896-.924-1.896-2.033 0-1.132.856-2.056 1.896-2.056 1.041 0 1.896.901 1.896 2.056Z"/><path fill="url(#c)" d="M339 107.073c-7.889 2.1-16.772.577-23.475-4.018-6.703-4.595-11.061-12.183-11.503-20.034-.138-2.18.331-4.805 2.4-5.698.717-.315 1.545-.342 2.345-.315 4.882.131 9.572 2.1 13.461 4.962 3.89 2.862 6.979 6.565 9.71 10.451 1.959 2.81 3.724 5.75 4.8 8.954a22.951 22.951 0 0 1 1.131 6.223"/><path fill="url(#d)" d="M309.314 90.93c-12.653 6.76-26.976 18.706-40.695 18.044-.701-.023-4.234-4.112-4.524-4.637-.242-.457.024-1.028.29-1.53 2.783-4.98 10.234-13.636 15.775-16.583 5.541-2.946 11.613-4.819 17.662-6.51 3.073-.844 6.194-1.666 9.291-1.712 3.072-.046 6.169.754 7.887 2.718"/><path fill="#fff" d="M331.345 171.926s25.63 58.901 16.262 67.038c0 0-9.369 5.007-17.511-17.525-8.142-22.554-8.119-50.811 1.249-49.513Z"/><path fill="#CAC3CD" fill-opacity=".3" d="M344.863 239.235a257.624 257.624 0 0 1-3.948-2.612c-1.951-1.331.719 3.976.719 3.976s.106-1.25 0-1.959c-.107-.716-6.423-17.041-10.928-21.713-4.205-4.358-4.904-32.345-4.982-36.127l-.006-.422s3.071 3.757 5.362 11.802c2.297 8.051 3.21 24.454 3.21 24.454s4.084 12.764 9.355 12.219c0 0-3.542 6.596-1.162 10.662.456.773 1.466-.92 2.38-.28Z" opacity=".83"/><path fill="#fff" d="M328.848 211.424s21.605 15.137 19.985 24.432c-.254 1.507-1.249 3.129-1.249 3.129s-9.368 10.663-21.258-13.769c.024-.023-6.87-15.67 2.522-13.792Z"/><path fill="#F0A98F" d="M331.969 207.972c-1.966-4.334-7.425-7.58-9.16-7.325-1.388-.672-2.776-.44-3.956 1.855-1.688 3.268-1.619 8.878-.324 12.378 2.522 6.815 9.507-1.808 9.207-7.232 2.706 2.318 6.268 4.821 4.233.324Z"/><path fill="#06B25F" d="M322.601 201.085s-8.119 26.31-5.621 27.562c2.499 1.252 15.013 1.252 15.013 1.252s8.743-28.188 6.87-28.814c-1.897-.625-15.66-1.251-16.262 0Z"/><path fill="#FFBC9F" d="M307.473 232.728s3.169-.649 4.372-2.248c1.203-1.6 1.943-2.295 6.222-4.15 4.256-1.854 5.945-4.334 5.945-4.334s2.984 2.92-3.539 6.027c-4.002 1.9 9.137 1.923 13.092 1.529 0 0 2.29 1.345-1.48 3.176-3.771 1.831-.139 2.04-7.61 5.193-7.472 3.129-16.354 4.659-18.182-.093-1.827-4.752 1.18-5.1 1.18-5.1Z"/><path fill="#fff" d="M278.951 190.187c1.457 7.232-4.811 37.83-4.811 37.83 4.256-.278 23.201.835 30.209 1.623a298.4 298.4 0 0 1 3.91.441l2.336 12.123c-1.319.301-2.614.556-3.886.811-25.283 4.752-43.811-2.156-43.811-2.156-7.633-46.778 5.945-68.938 5.945-68.938 6.268-.417 10.108 18.266 10.108 18.266Z"/><path fill="#CAC3CD" fill-opacity=".3" d="M309.592 167.227h-4.699s1.497 4.046-.361 5.06c-3.976 2.169-4.338 2.169-9.759 2.169-3.219 0-5.422-6.506-5.422-6.506l-3.976.723s4.195 7.643 9.398 9.397c3.611 1.218 6.429 1.854 9.759 0 3.86-2.149 5.06-10.843 5.06-10.843Z"/></g><path fill="#66D6A0" d="M177.448 97.532h-24.681a1.765 1.765 0 1 1 0-3.532h24.681a1.765 1.765 0 1 1 0 3.532ZM177.447 106.345h-24.681a1.765 1.765 0 1 1 0-3.532h24.681a1.765 1.765 0 1 1 0 3.532ZM403.668 302c-9.759 0-17.668 7.909-17.668 17.668s7.909 17.668 17.668 17.668 17.668-7.909 17.668-17.668S413.427 302 403.668 302Zm0 30.934c-7.334 0-13.274-5.94-13.274-13.275 0-7.334 5.94-13.274 13.274-13.274 7.334 0 13.274 5.94 13.274 13.274 0 7.335-5.94 13.275-13.274 13.275Z"/><g filter="url(#e)"><path fill="#84B5FF" d="m190.418 392.011 10.901-2.05v-9.773l-10.901-1.88a32.234 32.234 0 0 0-4.613-11.106l6.253-9.175-6.919-6.92-9.039 6.39a32.066 32.066 0 0 0-11.106-4.596L162.944 342h-9.774l-1.879 10.901a32.234 32.234 0 0 0-11.106 4.613l-9.158-6.253-6.92 6.92 6.39 9.038a32.202 32.202 0 0 0-4.596 11.106L115 380.375v9.774l10.901 1.879a32.09 32.09 0 0 0 4.613 11.106l-6.253 9.158 6.92 6.92 9.055-6.39a31.877 31.877 0 0 0 11.106 4.596l2.051 10.901h9.773l1.879-10.901a32.09 32.09 0 0 0 11.106-4.613l9.158 6.254 6.92-6.92-6.39-9.039a32.142 32.142 0 0 0 4.579-11.089Zm-32.258 13.396c-11.175 0-20.23-9.073-20.23-20.23 0-11.158 9.055-20.23 20.23-20.23 11.174 0 20.23 9.055 20.23 20.23 0 11.174-9.056 20.23-20.23 20.23Z"/></g><g filter="url(#f)"><path fill="#84B5FF" d="m76.24 333.326 6.828-1.285v-6.121l-6.828-1.178a20.189 20.189 0 0 0-2.89-6.956l3.917-5.747-4.334-4.335-5.662 4.003a20.075 20.075 0 0 0-6.956-2.879L59.03 302h-6.122l-1.177 6.828a20.182 20.182 0 0 0-6.957 2.89l-5.736-3.917-4.335 4.334 4.003 5.662a20.169 20.169 0 0 0-2.879 6.956L29 326.037v6.122l6.828 1.177a20.105 20.105 0 0 0 2.89 6.957l-3.917 5.736 4.334 4.335 5.672-4.003a19.97 19.97 0 0 0 6.957 2.879l1.284 6.828h6.122l1.177-6.828a20.096 20.096 0 0 0 6.957-2.89l5.736 3.917 4.334-4.334-4.002-5.662a20.133 20.133 0 0 0 2.868-6.945Zm-20.206 8.39c-7 0-12.672-5.683-12.672-12.671 0-6.989 5.673-12.672 12.672-12.672 7 0 12.672 5.672 12.672 12.672 0 6.999-5.673 12.671-12.672 12.671Z"/></g><g filter="url(#g)"><rect width="65.68" height="64.547" x="404" y="103" fill="#276ED8" rx="6"/></g><path fill="#fff" d="m426.357 145.948-15.034-8.131c-.972-.563-1.458-1.432-1.458-2.609 0-1.227.512-2.096 1.534-2.608l14.958-8.207v2.991c0 .205-.076.486-.23.844a1.498 1.498 0 0 1-.69.69l-10.662 5.83c-.41.307-.41.614 0 .921l11.582 6.213v4.066ZM439.164 121.938h2.991l-7.44 25.467c-.205.665-.665.997-1.381.997h-1.918l7.748-26.464ZM446.984 124.393l14.958 8.207c1.074.563 1.611 1.432 1.611 2.608 0 1.177-.537 2.02-1.611 2.532l-14.958 8.208v-2.992c0-.153.051-.409.154-.767.153-.358.383-.614.69-.767l10.739-5.753c.409-.307.409-.614 0-.921l-11.583-6.29v-4.065Z"/><defs><linearGradient id="b" x1="354.411" x2="270.918" y1="222.527" y2="70" gradientUnits="userSpaceOnUse"><stop stop-color="#12844D"/><stop offset="1" stop-color="#3BE090"/></linearGradient><linearGradient id="c" x1="338.839" x2="310.462" y1="107.916" y2="75.553" gradientUnits="userSpaceOnUse"><stop stop-color="#25B770" stop-opacity=".6"/><stop offset="1" stop-color="#1FCF79"/></linearGradient><linearGradient id="d" x1="265.506" x2="308.472" y1="106.734" y2="79.641" gradientUnits="userSpaceOnUse"><stop stop-color="#33CF83"/><stop offset="1" stop-color="#32CE82"/></linearGradient><filter id="e" width="106.319" height="106.319" x="105" y="336" color-interpolation-filters="sRGB" filterUnits="userSpaceOnUse"><feFlood flood-opacity="0" result="BackgroundImageFix"/><feColorMatrix in="SourceAlpha" result="hardAlpha" values="0 0 0 0 0 0 0 0 0 0 0 0 0 0 0 0 0 0 127 0"/><feOffset dy="4"/><feGaussianBlur stdDeviation="5"/><feColorMatrix values="0 0 0 0 0.0885677 0 0 0 0 0.0395834 0 0 0 0 0.395833 0 0 0 0.25 0"/><feBlend in2="BackgroundImageFix" result="effect1_dropShadow_673_172"/><feBlend in="SourceGraphic" in2="effect1_dropShadow_673_172" result="shape"/></filter><filter id="f" width="74.068" height="74.068" x="19" y="296" color-interpolation-filters="sRGB" filterUnits="userSpaceOnUse"><feFlood flood-opacity="0" result="BackgroundImageFix"/><feColorMatrix in="SourceAlpha" result="hardAlpha" values="0 0 0 0 0 0 0 0 0 0 0 0 0 0 0 0 0 0 127 0"/><feOffset dy="4"/><feGaussianBlur stdDeviation="5"/><feColorMatrix values="0 0 0 0 0.0885677 0 0 0 0 0.0395834 0 0 0 0 0.395833 0 0 0 0.25 0"/><feBlend in2="BackgroundImageFix" result="effect1_dropShadow_673_172"/><feBlend in="SourceGraphic" in2="effect1_dropShadow_673_172" result="shape"/></filter><filter id="g" width="87.68" height="86.547" x="398" y="97" color-interpolation-filters="sRGB" filterUnits="userSpaceOnUse"><feFlood flood-opacity="0" result="BackgroundImageFix"/><feColorMatrix in="SourceAlpha" result="hardAlpha" values="0 0 0 0 0 0 0 0 0 0 0 0 0 0 0 0 0 0 127 0"/><feMorphology in="SourceAlpha" operator="dilate" radius="3" result="effect1_dropShadow_673_172"/><feOffset dx="5" dy="5"/><feGaussianBlur stdDeviation="4"/><feColorMatrix values="0 0 0 0 0 0 0 0 0 0 0 0 0 0 0 0 0 0 0.2 0"/><feBlend in2="BackgroundImageFix" result="effect1_dropShadow_673_172"/><feBlend in="SourceGraphic" in2="effect1_dropShadow_673_172" result="shape"/></filter></defs></svg>