<svg xmlns="http://www.w3.org/2000/svg" width="517" height="409" fill="none"><path fill="#276ED8" d="M102.537 308.542c-36.357 68.341 214.217 75.275 268 50.5 53.783-24.775 65.313-119.164 46.5-149.5-5.867-9.405 72.458 55.513 69 44.724-7.531-23.606 3.229-129.462-10-149.724-11.436-17.539-121.547 14.061-136.5 0-6.549-6.084-74.5-92.5-155.5-79.5-59.175 9.497-136.497 62.809-152.5 106-16.003 43.192 137.499 52.5 71 177.5Z" opacity=".04"/><path fill="#84B5FF" d="M205.603 138.049 220 135.341v-12.908l-14.397-2.482a42.558 42.558 0 0 0-6.092-14.667l8.259-12.118-9.139-9.139-11.937 8.44a42.354 42.354 0 0 0-14.668-6.07L169.318 72h-12.907l-2.482 14.397a42.578 42.578 0 0 0-14.668 6.092l-12.095-8.259-9.139 9.14 8.44 11.936a42.511 42.511 0 0 0-6.07 14.668L106 122.682v12.907l14.397 2.482a42.387 42.387 0 0 0 6.092 14.668l-8.259 12.095 9.139 9.139 11.96-8.44a42.085 42.085 0 0 0 14.667 6.07L156.704 186h12.908l2.482-14.397a42.382 42.382 0 0 0 14.667-6.092l12.095 8.259 9.139-9.139-8.439-11.937a42.438 42.438 0 0 0 6.047-14.645ZM163 155.74c-14.758 0-26.717-11.982-26.717-26.717 0-14.736 11.959-26.718 26.717-26.718s26.717 11.96 26.717 26.718c0 14.757-11.959 26.717-26.717 26.717Z" opacity=".2"/><path fill="#fff" stroke="#84B5FF" stroke-miterlimit="10" d="M372.67 133.3v132.99c0 3.42-2.77 6.19-6.19 6.19h-202.8c-3.42 0-6.19-2.77-6.19-6.19V133.3c0-7.89 6.4-14.3 14.3-14.3h186.58c7.9 0 14.3 6.41 14.3 14.3Z"/><path fill="#84B5FF" d="M257.141 150.812h-24.137v2.028h24.137v-2.028Z"/><path fill="#06B25F" d="M285.451 150.812h-24.137v2.028h24.137v-2.028Z"/><path fill="#276ED8" d="M277.888 161.758h-37.427v2.028h37.427v-2.028Z"/><path fill="#84B5FF" d="M303.092 161.758h-19.02v2.028h19.02v-2.028Z"/><path fill="#06B25F" d="M269.872 172.69h-16.434v2.028h16.434v-2.028ZM333.899 172.69h-54.526v2.028h54.526v-2.028Z"/><path fill="#276ED8" d="M328.52 183.631h-62.315v2.028h62.315v-2.028Z"/><path fill="#84B5FF" d="M269.802 194.563h-19.177v2.029h19.177v-2.029Z"/><path fill="#276ED8" d="M297.186 194.563H278.01v2.029h19.176v-2.029Z"/><path fill="#84B5FF" d="M260.896 251.323h-27.892v2.028h27.892v-2.028Z"/><path fill="#06B25F" d="M298.55 251.323h-27.892v2.028h27.892v-2.028Z"/><path fill="#84B5FF" d="M335.208 251.323h-27.892v2.028h27.892v-2.028Z"/><path fill="#276ED8" d="M294.989 240.373h-54.526v2.028h54.526v-2.028Z"/><path fill="#84B5FF" d="M358 240.373h-54.525v2.028H358v-2.028ZM307.544 229.443h-54.106v2.029h54.106v-2.029Z"/><path fill="#06B25F" d="M327.315 229.443H312.26v2.029h15.055v-2.029ZM270.274 218.499H249.91v2.028h20.364v-2.028Z"/><path fill="#276ED8" d="M301.448 218.499h-20.364v2.028h20.364v-2.028Z"/><path fill="#84B5FF" d="M334.931 218.499h-20.365v2.028h20.365v-2.028Z"/><path fill="#06B25F" d="M302.079 207.571h-28.556v2.029h28.556v-2.029Z"/><path fill="#276ED8" d="M262.747 207.571h-28.556v2.029h28.556v-2.029Z"/><path fill="#84B5FF" d="M226.278 148.872h-2.602v2.605h2.602v-2.605ZM226.278 244.24h-2.602v-5.298h2.602v5.298Zm0-13.254h-2.602v-5.299h2.602v5.299Zm0-13.255h-2.602v-5.298h2.602v5.298Zm0-13.254h-2.602v-5.298h2.602v5.298Zm0-13.254h-2.602v-5.298h2.602v5.298Zm0-13.254h-2.602v-5.299h2.602v5.299Zm0-13.255h-2.602v-5.298h2.602v5.298ZM226.278 252.194h-2.602v2.606h2.602v-2.606Z"/><path fill="#84B5FF" d="M157 135.49a6 6 0 0 1 6-6h50v143h-50a6 6 0 0 1-6-6v-131Z" opacity=".7"/><path fill="#06B25F" d="M185.615 152.813h-24.136v2.029h24.136v-2.029Z"/><path fill="#84B5FF" d="M204.09 165.208h-37.428v2.028h37.428v-2.028ZM204.09 177.604h-37.428v2.028h37.428v-2.028ZM204.09 190h-37.428v2.028h37.428V190ZM204.09 202.393h-37.428v2.028h37.428v-2.028ZM206.033 227.182h-37.428v2.028h37.428v-2.028ZM206.033 239.579h-37.428v2.028h37.428v-2.028ZM206.033 251.971h-37.428v2.028h37.428v-2.028Z"/><path fill="#06B25F" d="M185.615 214.787h-24.136v2.028h24.136v-2.028Z"/><path fill="#84B5FF" d="M372.67 133.3v.6H157.49v-.6c0-7.89 6.4-14.3 14.3-14.3h186.58c7.9 0 14.3 6.41 14.3 14.3Z"/><path fill="#fff" d="M339.99 127.14c0 1.03-.83 1.86-1.86 1.86-1.03 0-1.86-.83-1.86-1.86 0-1.03.83-1.86 1.86-1.86 1.02 0 1.86.83 1.86 1.86ZM350.169 127.14c0 1.03-.83 1.86-1.86 1.86-1.03 0-1.86-.83-1.86-1.86 0-1.03.83-1.86 1.86-1.86 1.02 0 1.86.83 1.86 1.86ZM359.9 127.14c0 1.03-.83 1.86-1.86 1.86-1.03 0-1.86-.83-1.86-1.86 0-1.03.83-1.86 1.86-1.86 1.03 0 1.86.83 1.86 1.86Z" opacity=".3"/><path stroke="#84B5FF" stroke-miterlimit="10" d="M372.67 133.3v132.99c0 3.42-2.77 6.19-6.19 6.19h-202.8c-3.42 0-6.19-2.77-6.19-6.19V133.3c0-7.89 6.4-14.3 14.3-14.3h186.58c7.9 0 14.3 6.41 14.3 14.3Z"/><path fill="#66D6A0" d="M282.89 314c-10.987 0-19.89 8.903-19.89 19.89 0 10.986 8.903 19.889 19.89 19.889 10.986 0 19.889-8.903 19.889-19.889 0-10.987-8.903-19.89-19.889-19.89Zm0 34.823c-8.257 0-14.944-6.687-14.944-14.943s6.687-14.943 14.944-14.943c8.256 0 14.943 6.687 14.943 14.943s-6.687 14.943-14.943 14.943ZM74.772 97.976H46.988a1.987 1.987 0 1 1 0-3.976h27.784a1.987 1.987 0 1 1 0 3.976ZM74.772 107.897H46.988a1.987 1.987 0 1 1 0-3.976h27.784a1.987 1.987 0 1 1 0 3.976Z"/><path fill="#fff" d="M273.575 165.627c0 .838-.675 1.514-1.514 1.514a1.512 1.512 0 0 1-1.514-1.514c0-.839.676-1.515 1.514-1.515.831 0 1.514.676 1.514 1.515ZM281.862 165.627c0 .838-.675 1.514-1.514 1.514a1.512 1.512 0 0 1-1.514-1.514c0-.839.676-1.515 1.514-1.515.831 0 1.514.676 1.514 1.515ZM289.784 165.627c0 .838-.675 1.514-1.514 1.514a1.512 1.512 0 0 1-1.514-1.514c0-.839.676-1.515 1.514-1.515.839 0 1.514.676 1.514 1.515Z" opacity=".3"/><path fill="#66D6A0" d="M265.499 72.386c-.012.322-2.617 8.215-2.806 8.108-.191-.105-18.352-4.899-18.352-4.899l2.656-10.37 18.502 7.161Z"/><path fill="#06B25F" d="m244.017 111.124 2.326 1.293 1.42-1.869 2.479 1.589 1.362-1.653 2.213 1.399 1.717-1.914 2.377.966-.142 2.494-13.307 1.738-.445-4.043Z"/><path fill="#66D6A0" d="m274.254 119.989-24.953-1.969.286-3.524 17.196-2.274 7.471 7.767ZM312.258 56.099l-1.566 14.445-30.215 16.107-7.239-8.476 39.02-22.076Z"/><path fill="#66D6A0" d="M283.344 100.439c-.239-.218-7.684-3.944-7.744-3.735-.06.21-9.479 16.418-9.479 16.418l9.244 5.437 7.979-18.12Z"/><g filter="url(#a)"><rect width="58" height="57" x="219.586" y="81.892" fill="#276ED8" rx="6"/></g><path fill="#fff" d="m239.329 119.818-13.276-7.18c-.858-.497-1.287-1.265-1.287-2.303 0-1.084.451-1.852 1.354-2.304l13.209-7.248v2.642c0 .181-.067.429-.203.745a1.328 1.328 0 0 1-.609.61l-9.416 5.148c-.361.271-.361.542 0 .813l10.228 5.487v3.59ZM250.638 98.616h2.642l-6.57 22.489c-.181.587-.588.881-1.22.881h-1.693l6.841-23.37ZM257.544 100.783l13.209 7.248c.949.497 1.423 1.265 1.423 2.304 0 1.038-.474 1.783-1.423 2.235l-13.209 7.248v-2.642c0-.135.045-.361.136-.677.135-.316.338-.542.609-.678l9.484-5.08c.361-.271.361-.542 0-.813l-10.229-5.554v-3.591Z"/><path fill="#06B25F" d="M265.337 71.699c7.457-.356 21.563 19.71 18.996 26.346-2.342 6.05-6.2 6.161-8.7 4.663-3.983-2.392 1.896-7.022-.402-10.37-2.298-3.346-5.13-7.318-7.334-10.217-2.457-3.23-8.713.874-9.735-3.65-.639-2.84.683-6.462 7.175-6.772Z"/><rect width="24" height="32" x="253.588" y="81.892" fill="#276ED8" rx="6"/><path fill="#fff" d="m239.152 120.094-13.277-7.18c-.858-.497-1.287-1.265-1.287-2.304 0-1.083.451-1.851 1.355-2.303l13.209-7.248v2.642c0 .181-.068.429-.204.745a1.328 1.328 0 0 1-.609.61l-9.416 5.148c-.361.271-.361.542 0 .813l10.229 5.487v3.59ZM250.461 98.892h2.641l-6.57 22.489c-.181.587-.587.88-1.219.88h-1.694l6.842-23.37ZM257.367 101.059l13.209 7.248c.948.497 1.422 1.265 1.422 2.303 0 1.039-.474 1.784-1.422 2.236l-13.209 7.248v-2.642c0-.135.045-.361.135-.677.136-.317.339-.542.61-.678l9.483-5.08c.361-.271.361-.542 0-.813l-10.228-5.555v-3.59Z"/><path fill="#66D6A0" d="M260.434 75.351a2.523 2.523 0 0 0 1.404 3.278 2.523 2.523 0 0 0 3.281-1.396 2.52 2.52 0 0 0-1.403-3.278 2.522 2.522 0 0 0-3.282 1.396ZM276.944 97.2a2.522 2.522 0 0 0 1.404 3.277 2.523 2.523 0 0 0 3.281-1.396 2.522 2.522 0 0 0-1.404-3.278 2.518 2.518 0 0 0-3.281 1.396Z"/><path fill="#06B25F" d="m230.173 92.615.722-2.554 2.33.315.619-2.874 2.137.207.563-2.552 2.57.14.989-2.362-1.87-1.662-10.619 8.172 2.559 3.17Z"/><path fill="#66D6A0" d="m245.199 65.002-16.2 19.01 2.709 2.291 13.741-10.543-.25-10.758Z"/><path fill="#06B25F" d="M242.63 75.097c-2.608-1.436-3.563-4.709-2.131-7.312a5.38 5.38 0 0 1 7.313-2.114c2.608 1.436 3.563 4.709 2.132 7.312-1.428 2.601-4.701 3.548-7.314 2.114Z"/><path fill="#66D6A0" d="M243.89 72.802a2.518 2.518 0 1 1 2.429-4.414 2.52 2.52 0 0 1 .997 3.425 2.522 2.522 0 0 1-3.426.99Z"/><rect width="3" height="6" x="274.588" y="94.892" fill="#276ED8" rx="1.5"/><path fill="#66D6A0" d="M312.99 47.59h79.869V49.5H312.99V47.59Z"/><path fill="#66D6A0" d="M388.572 44.92h7.78v15.142h-7.78V44.92ZM307.468 43.892h7.78v15.142h-7.78V43.892Z"/><path fill="#66D6A0" d="m394.316 56.173-9.04 15.425-72.284-1.86-3.556-14.087 84.88.522ZM479.82 152.351c-1.982 2.036-44.211-18.273-44.211-18.273l-20.02 16.574 63.211 51.573 1.02-49.874ZM435.607 134.078l-37.748-77.07-12.583 14.59 30.311 79.055 20.02-16.575Z"/><path fill="#66D6A0" d="M474.379 143.312v58.112a4.877 4.877 0 0 0 4.882 4.871h29.788a4.877 4.877 0 0 0 4.883-4.871v-58.112a4.877 4.877 0 0 0-4.883-4.872h-29.788a4.877 4.877 0 0 0-4.882 4.872Z"/><path fill="#06B25F" d="M426.409 156.115c-7.655 0-13.86-6.191-13.86-13.828s6.205-13.829 13.86-13.829c7.655 0 13.861 6.192 13.861 13.829 0 7.637-6.206 13.828-13.861 13.828ZM382.64 65.44c0 5.406 4.392 9.787 9.811 9.787s9.811-4.381 9.811-9.788c0-5.406-4.392-9.788-9.811-9.788s-9.811 4.382-9.811 9.788ZM511.271 137.304v68.938c0 3.121 2.38 5.65 5.317 5.65v-80.238c-2.937 0-5.317 2.529-5.317 5.65Z"/><path fill="#06B25F" d="M427.871 135.386c0-1.019-32.392-69.947-32.392-69.947l-4.593 1.491 28.057 72.525 8.928-4.069Z"/><path fill="#66D6A0" d="M387.707 65.433a4.748 4.748 0 0 0 4.754 4.742 4.75 4.75 0 0 0 4.754-4.742 4.748 4.748 0 0 0-4.754-4.744 4.748 4.748 0 0 0-4.754 4.744Z"/><path fill="#06B25F" d="M303.209 63.212c0 4.49 3.647 8.133 8.151 8.133 4.501 0 8.152-3.64 8.152-8.133 0-4.49-3.648-8.133-8.152-8.133-4.5 0-8.151 3.64-8.151 8.133Z"/><path fill="#06B25F" d="m385.277 61.395-67.675-.709v3.278l67.675 3.899v-6.468Z"/><path fill="#66D6A0" d="M307.716 62.667a3.636 3.636 0 0 0 3.641 3.633 3.636 3.636 0 0 0 3.641-3.633 3.636 3.636 0 0 0-3.641-3.633 3.638 3.638 0 0 0-3.641 3.633ZM420.588 142.784c0 3.255 2.644 5.893 5.906 5.893 3.263 0 5.906-2.638 5.906-5.893s-2.643-5.892-5.906-5.892c-3.262 0-5.906 2.637-5.906 5.892Z"/><g filter="url(#b)"><rect width="58" height="57" x="77" y="149" fill="#06B25F" rx="6"/></g><path fill="#fff" d="M97.13 165.525a.912.912 0 0 0-1.3.03c-5.399 5.81-2.462 18.373-2.154 19.615l-5.413 5.292a.868.868 0 0 0 0 1.243l3.261 3.188a.913.913 0 0 0 1.271 0l5.411-5.29c2.635.661 5.93 1.056 8.839 1.056 3.494 0 8.278-.549 11.225-3.163a.864.864 0 0 0 .032-1.271l-21.172-20.7ZM104.948 170.756a.907.907 0 0 0 .635.257c.23 0 .46-.086.636-.258l6.708-6.558a2.416 2.416 0 0 0 0-3.477 2.524 2.524 0 0 0-1.778-.72 2.53 2.53 0 0 0-1.779.72l-6.708 6.558a.865.865 0 0 0 0 1.243l2.286 2.235ZM123.307 170.868a2.53 2.53 0 0 0-1.779-.72c-.672 0-1.304.255-1.778.72l-6.709 6.559a.866.866 0 0 0 0 1.242l2.286 2.235a.907.907 0 0 0 .636.257c.229 0 .46-.085.635-.257l6.709-6.559a2.422 2.422 0 0 0 0-3.477Z"/><g filter="url(#c)"><path fill="#043072" d="M137.954 252.808c20.178-3.677 38.524.037 47.014 8.45a14.85 14.85 0 0 0-.185-2.342c-2.321-14.349-25.509-22.102-51.787-17.313-26.277 4.788-45.702 20.307-43.382 34.656.54 3.335 2.206 6.311 4.777 8.857-.014-13.656 18.708-27.779 43.563-32.308Z"/><path fill="#84B5FF" d="M185.758 261.134c.002 13.66-18.713 27.784-43.565 32.314-9.642 1.758-19.702 2.053-29.241.042-3.899-.822-7.732-2.047-11.259-3.876a34.486 34.486 0 0 1-4.471-2.777c-1.312-.96-3.863-3.345-3.883-5.197.042 4.031 1.982 8.067 4.174 11.304 9.982 14.731 33.878 14.584 49.636 11.711 26.28-4.79 45.699-20.31 43.379-34.661-.538-3.335-2.205-6.312-4.77-8.86Z"/><path stroke="#84B5FF" stroke-miterlimit="10" stroke-width="2" d="M184.746 258.742c-2.388-14.281-25.597-21.918-51.832-17.055-26.235 4.863-45.571 20.387-43.183 34.668.555 3.319 2.235 6.277 4.817 8.803M185.375 261.042c.052 13.635-18.548 27.801-43.298 32.412-20.093 3.744-38.388.101-46.877-8.267"/><path fill="#276ED8" d="M188.304 282.85c-20.048 15.233-45.641 24.441-75.533 29.257-1.929.31-3.734-.94-4.055-2.828l-5.128-30.177c-.318-1.871.93-3.687 2.827-4.086 26.156-5.531 50.506-14.707 72.717-28.2 2.165-1.315 4.953-.111 5.369 2.333l5.159 30.296a3.55 3.55 0 0 1-1.356 3.405Z"/><path fill="#276ED8" d="M193.651 285.581c-20.046 15.231-64.438 34.544-64.438 34.544l-18.452-8.292c-1.1-.507-1.34-1.88-1.397-3.085l-.45-26.917c-.32-1.877.941-3.689 2.844-4.089 25.99-5.498 48.634-17.414 70.714-30.796a.792.792 0 0 1 .908.047c2.627 2.072 17.042 10.784 17.602 12.723l-5.98 22.466a3.516 3.516 0 0 1-1.351 3.399Z"/><path fill="#fff" d="M160.235 264.011c1.243.769 2.571 1.5 3.921 2.25.269.131.543.25.818.374-3.691-2.387-7.437-4.692-11.137-7.061-.08.037-.16.075-.241.106a193.862 193.862 0 0 0 6.639 4.331ZM182.405 264.981c-9.12 3.738-18.234 7.515-27.52 10.811-6.607 2.345-13.197 4.018-19.911 5.899-2.591.726-6.964 1.893-9.564 4.09 3.71 2.21 7.428 4.406 11.159 6.577 1.172.685.089 2.523-1.083 1.839-3.852-2.24-7.679-4.506-11.508-6.783a4.697 4.697 0 0 0-.595 1.483c4.745 2.931 9.495 5.86 14.402 8.53 1.195.652.106 2.491-1.084 1.838a198.893 198.893 0 0 1-5.81-3.319c.268.401.535.802.787 1.211 2.019 3.265 3.592 6.826 4.806 10.498l.399-.141c1.747-.711 3.561-1.271 5.278-1.791 4.913-1.487 9.765-2.624 14.493-4.634.77-.345 1.535-.689 2.3-1.027 8.737-3.944 17.217-8.426 25.71-12.87a261.562 261.562 0 0 0 7.897-5.162 445.853 445.853 0 0 1 1.67-5.843 267.913 267.913 0 0 1 2.159-8.63c.247-2.698.43-5.406.607-8.113l-1.234-.847c-4.2 2.599-8.87 4.542-13.358 6.384Z" opacity=".21"/><path fill="#06B25F" d="m120.5 315.097-5.235-28.604c-.495-2.699 1.039-5.4 3.648-6.425l69.589-27.354a5.866 5.866 0 0 1 2.882-.366c-1.552-1.443-3.889-1.981-6.086-1.122l-69.589 27.354c-2.609 1.025-4.143 3.726-3.648 6.426l5.235 28.603c.353 1.938 2.081 3.202 3.956 3.145a3.664 3.664 0 0 1-.752-1.657Z"/><path fill="#84B5FF" d="m202.193 292.823-69.003 27.148c-3.585 1.413-7.518-.74-8.151-4.455l-4.252-24.994c-.514-3.017 1.378-5.97 4.384-6.843 23.457-6.815 46.1-15.725 68.003-26.525 3.656-1.803 7.977.301 8.646 4.234l4.216 24.776c.471 2.805-1.133 5.593-3.843 6.659Z"/><path fill="#06B25F" d="m174.623 273.107-26.651 10.606c-1.195.476-2.497-.275-2.66-1.532l-.037-.292a2.022 2.022 0 0 1 1.317-2.141c9.501-3.483 18.374-6.77 26.575-10.271 1.18-.501 2.496.197 2.702 1.44a2.005 2.005 0 0 1-1.246 2.19Z"/><path stroke="#1351AC" stroke-miterlimit="10" stroke-width="3" d="m201.72 292.769-68.161 26.813c-3.542 1.394-7.426-.734-8.05-4.4l-4.2-24.689c-.507-2.978 1.362-5.893 4.329-6.759 23.169-6.729 45.531-15.537 67.165-26.203 3.615-1.778 7.879.297 8.54 4.181l4.163 24.47c.474 2.783-1.114 5.534-3.786 6.587Z"/><path fill="#194484" d="M119.793 310.717a1.443 1.443 0 0 1-1.559.158l-11.488-5.928-4.449-16.086a1.383 1.383 0 0 1 .752-1.607 1.763 1.763 0 0 1 1.335-.079l12.012 4.226c.565.198.974.671 1.076 1.249l2.919 16.51a1.607 1.607 0 0 1-.598 1.557Z"/><path fill="#194484" d="m118.018 310.91-11.728-4.373a1.874 1.874 0 0 1-1.207-1.425l-2.867-16.178c-.091-.513.43-.925.928-.743l11.741 4.382a1.772 1.772 0 0 1 1.133 1.337l2.887 16.287c.092.49-.408.888-.887.713Z"/><path fill="#276ED8" d="m111.904 304.565-4.332-1.631a1.233 1.233 0 0 1-.786-.933l-1.141-6.565c-.157-.906.771-1.64 1.658-1.303l4.363 1.642c.394.152.679.485.749.889l1.147 6.598c.157.906-.772 1.634-1.658 1.303Z"/><path fill="#06B25F" d="m111.326 305.011-4.332-1.632a1.23 1.23 0 0 1-.786-.932l-1.141-6.566c-.157-.906.771-1.639 1.658-1.303l4.363 1.643c.394.151.679.484.749.888l1.147 6.599c.151.901-.778 1.635-1.658 1.303Z"/></g><path fill="#276ED8" d="M385.778 186h-53.556c-3.988 0-7.222 3.225-7.222 7.205V302.394c0 4.011 3.268 7.205 7.222 7.205h53.556c3.987 0 7.222-3.224 7.222-7.205V193.205c0-4.016-3.272-7.205-7.222-7.205Z"/><path fill="#fff" d="M389.5 195.819h-60.998V299.78H389.5V195.819Z"/><path fill="#06B25F" d="m371.389 229-13.479 3.938-1.995 3.839-4.048-.033L342 247.502l9.867 10.757 4.046-.033 1.999 3.836L371.389 266 375 251.308l-2.052-3.806 2.052-3.805L371.389 229Zm-15.149 8.394 10.311-2.889-5.919 11.18h-11.84l7.448-8.291Zm0 20.214-7.448-8.29h11.84l5.919 11.18-10.311-2.89Zm13.196 1.072-5.921-11.178 5.921-11.182 2.859 11.182-2.859 11.178Z"/><path fill="#fff" d="M371.575 192.552h-25.052a.524.524 0 0 1-.525-.524v-.255c0-.289.234-.524.525-.524h25.052c.29 0 .525.234.525.524v.255a.525.525 0 0 1-.525.524Z"/><path fill="#84B5FF" d="M389.5 293.631h-60.998v6.15H389.5v-6.15ZM389.5 195.819h-60.998v5.517H389.5v-5.517Z"/><defs><filter id="a" width="80" height="79" x="213.586" y="75.892" color-interpolation-filters="sRGB" filterUnits="userSpaceOnUse"><feFlood flood-opacity="0" result="BackgroundImageFix"/><feColorMatrix in="SourceAlpha" result="hardAlpha" values="0 0 0 0 0 0 0 0 0 0 0 0 0 0 0 0 0 0 127 0"/><feMorphology in="SourceAlpha" operator="dilate" radius="3" result="effect1_dropShadow_198_599"/><feOffset dx="5" dy="5"/><feGaussianBlur stdDeviation="4"/><feColorMatrix values="0 0 0 0 0 0 0 0 0 0 0 0 0 0 0 0 0 0 0.2 0"/><feBlend in2="BackgroundImageFix" result="effect1_dropShadow_198_599"/><feBlend in="SourceGraphic" in2="effect1_dropShadow_198_599" result="shape"/></filter><filter id="b" width="80" height="79" x="71" y="143" color-interpolation-filters="sRGB" filterUnits="userSpaceOnUse"><feFlood flood-opacity="0" result="BackgroundImageFix"/><feColorMatrix in="SourceAlpha" result="hardAlpha" values="0 0 0 0 0 0 0 0 0 0 0 0 0 0 0 0 0 0 127 0"/><feMorphology in="SourceAlpha" operator="dilate" radius="3" result="effect1_dropShadow_198_599"/><feOffset dx="5" dy="5"/><feGaussianBlur stdDeviation="4"/><feColorMatrix values="0 0 0 0 0 0 0 0 0 0 0 0 0 0 0 0 0 0 0.2 0"/><feBlend in2="BackgroundImageFix" result="effect1_dropShadow_198_599"/><feBlend in="SourceGraphic" in2="effect1_dropShadow_198_599" result="shape"/></filter><filter id="c" width="134.549" height="98.296" x="80.535" y="235.219" color-interpolation-filters="sRGB" filterUnits="userSpaceOnUse"><feFlood flood-opacity="0" result="BackgroundImageFix"/><feColorMatrix in="SourceAlpha" result="hardAlpha" values="0 0 0 0 0 0 0 0 0 0 0 0 0 0 0 0 0 0 127 0"/><feOffset dy="4"/><feGaussianBlur stdDeviation="4"/><feColorMatrix values="0 0 0 0 0.0223125 0 0 0 0 0.00468749 0 0 0 0 0.225 0 0 0 0.25 0"/><feBlend in2="BackgroundImageFix" result="effect1_dropShadow_198_599"/><feBlend in="SourceGraphic" in2="effect1_dropShadow_198_599" result="shape"/></filter></defs></svg>