<svg xmlns="http://www.w3.org/2000/svg" width="550" height="395" fill="none"><mask id="a" width="550" height="395" x="0" y="0" maskUnits="userSpaceOnUse" style="mask-type:alpha"><path fill="#C4C4C4" d="M0 0h550v395H0z"/></mask><g mask="url(#a)"><path fill="#276ED8" d="M76.537 319.542c-36.357 68.341 214.217 75.275 268 50.5 53.783-24.775 65.313-119.164 46.5-149.5-5.867-9.405 72.458 55.513 69 44.724-7.531-23.606 3.229-129.462-10-149.724-11.436-17.539-121.547 14.061-136.5 0-6.549-6.084-74.5-92.5-155.5-79.5-59.175 9.497-136.497 62.809-152.5 106-16.003 43.192 137.499 52.5 71 177.5Z" opacity=".04"/></g><path fill="#84B5FF" d="M191.876 178.62 204 176.34v-10.87l-12.124-2.09a35.842 35.842 0 0 0-5.13-12.351l6.955-10.205-7.696-7.696-10.053 7.107a35.663 35.663 0 0 0-12.351-5.111L161.321 123h-10.87l-2.09 12.124a35.842 35.842 0 0 0-12.351 5.13l-10.186-6.955-7.696 7.696 7.107 10.053a35.828 35.828 0 0 0-5.112 12.351L108 165.679v10.87l12.123 2.09a35.723 35.723 0 0 0 5.131 12.352l-6.955 10.185 7.696 7.696 10.072-7.107a35.443 35.443 0 0 0 12.351 5.111l2.28 12.124h10.87l2.09-12.124a35.697 35.697 0 0 0 12.351-5.13l10.186 6.955 7.696-7.696-7.107-10.053a35.74 35.74 0 0 0 5.092-12.332ZM156 193.518c-12.428 0-22.499-10.09-22.499-22.499 0-12.409 10.071-22.499 22.499-22.499 12.428 0 22.499 10.071 22.499 22.499 0 12.428-10.071 22.499-22.499 22.499Z" opacity=".2"/><path fill="#fff" stroke="#84B5FF" stroke-miterlimit="10" d="M338.18 161.642V269.91a5.038 5.038 0 0 1-5.039 5.039H168.039A5.038 5.038 0 0 1 163 269.91V161.642c0-6.424 5.21-11.642 11.642-11.642h151.896c6.432 0 11.642 5.218 11.642 11.642Z"/><path fill="#66D6A0" d="M334.89 295c-10.987 0-19.89 8.903-19.89 19.89 0 10.986 8.903 19.889 19.89 19.889 10.986 0 19.889-8.903 19.889-19.889 0-10.987-8.903-19.89-19.889-19.89Zm0 34.823c-8.257 0-14.944-6.687-14.944-14.943s6.687-14.943 14.944-14.943c8.256 0 14.943 6.687 14.943 14.943s-6.687 14.943-14.943 14.943ZM211.772 92.976h-27.784a1.987 1.987 0 1 1 0-3.976h27.784a1.987 1.987 0 1 1 0 3.976ZM211.772 102.897h-27.784a1.987 1.987 0 1 1 0-3.976h27.784a1.987 1.987 0 1 1 0 3.976Z"/><path fill="#84B5FF" d="M338.18 161.642v.488H163v-.488c0-6.424 5.21-11.642 11.642-11.642h151.896c6.432 0 11.642 5.218 11.642 11.642Z"/><path fill="#fff" d="M311.575 156.627c0 .838-.675 1.514-1.514 1.514a1.512 1.512 0 0 1-1.514-1.514c0-.839.676-1.514 1.514-1.514.831 0 1.514.675 1.514 1.514ZM319.862 156.627c0 .838-.675 1.514-1.514 1.514a1.512 1.512 0 0 1-1.514-1.514c0-.839.676-1.514 1.514-1.514.831 0 1.514.675 1.514 1.514ZM327.784 156.627c0 .838-.675 1.514-1.514 1.514a1.512 1.512 0 0 1-1.514-1.514c0-.839.676-1.514 1.514-1.514a1.51 1.51 0 0 1 1.514 1.514Z" opacity=".3"/><path stroke="#84B5FF" stroke-miterlimit="10" d="M338.18 161.642V269.91a5.038 5.038 0 0 1-5.039 5.039H168.039A5.038 5.038 0 0 1 163 269.91V161.642c0-6.424 5.21-11.642 11.642-11.642h151.896c6.432 0 11.642 5.218 11.642 11.642Z"/><path fill="url(#b)" d="M250.341 315.219c15.652.051 28.349-2.576 28.36-5.868.011-3.292-12.669-6.002-28.321-6.054-15.652-.051-28.35 2.576-28.36 5.868-.011 3.292 12.669 6.003 28.321 6.054Z" opacity=".5"/><path fill="#84B5FF" d="M250.828 289.047c.01 3.54-1.235 11.939-3.751 11.511-.544-.09-1.195-.639-1.891-1.494-2.125-2.59-4.707-7.956-6.165-11.632-.793-2.006-1.261-3.51-1.129-3.792.783-1.73 12 3.254 12.727 3.898.132.126.209.684.209 1.509Z"/><path fill="#276ED8" d="M237.888 283.64c-.859 1.63 9.336 6.568 12.854 4.215 0 0-11.716-6.377-12.854-4.215Z"/><path fill="#84B5FF" d="M262.98 285.234c-.086.312-.188.639-.284.976-1.546 5.125-4.239 12.588-6.267 15.138-.483.613-.93.94-1.312.89a.952.952 0 0 1-.3-.091c-.34-.156-.67-.503-.986-.991v-.005c-1.972-3.037-3.395-11.541-3.105-13.965.036-.302.097-.508.188-.599 1.657-1.624 12.549-6.341 12.981-5.512.112.222-.259 1.871-.915 4.159Z"/><path fill="#276ED8" d="M250.727 287.186c-.417.689 10.328.633 13.169-6.111 0 0-9.23-.362-13.169 6.111Z"/><path fill="#fff" d="M233.354 213.123c.59.311.539.94-.676.784-1.214-.156-1.875-1.101-1.743-1.282.127-.181 1.759.146 2.419.498Z"/><path fill="#84B5FF" d="M263.753 277.776c-.966 5.653-6.084 9.425-13.418 9.425-6.384 0-11.797-2.354-13.225-7.544-1.428-5.18-.874-14.765 1.032-20.735.284-.89.63-1.75 1.026-2.564l.005-.01c.361-.74.763-1.444 1.205-2.103.005-.005.005-.01.005-.01 2.328-3.47 5.738-5.738 9.596-5.738 4.015 0 7.085 1.635 9.174 4.049a13.255 13.255 0 0 1 2.277 3.791 36.944 36.944 0 0 1 1.586 5.045c1.322 5.426 1.601 11.34.737 16.394Z"/><path fill="#0D6EB7" d="M263.753 277.776c-.966 5.653-6.084 9.425-13.418 9.425-6.384 0-11.797-2.354-13.225-7.544-1.428-5.18-.874-14.765 1.032-20.735.284-.89.63-1.75 1.026-2.564l.005-.01s-3.862 12.673-.777 20.744c3.09 8.072 17.474 7.901 22.343 2.54 4.635-5.104 2.491-17.094 2.277-18.24 1.322 5.416 1.601 11.33.737 16.384Z" opacity=".3"/><path fill="#84B5FF" d="M237.385 274.417c1.092-7.589 7.242-12.734 14.079-12.095 7.364.689 11.324 7.644 11.222 13.614-.107 5.969-4.513 10.631-12.422 10.631-7.909 0-13.901-5.049-12.879-12.15Z"/><path fill="url(#c)" d="M237.456 275.046c1.093-7.589 7.243-12.734 14.079-12.095 7.365.689 11.324 7.644 11.222 13.613-.106 5.97-4.513 10.632-12.422 10.632-7.903.005-13.901-5.049-12.879-12.15Z"/><path fill="#276ED8" d="M259.154 252.546c-1.561 2.424-10.166 3.837-15.136 3.389-4.331-.392-3.67-1.549-3.64-1.695.006-.005.006-.01.006-.01 2.327-3.47 5.738-5.738 9.596-5.738 4.015.005 7.085 1.64 9.174 4.054Z" opacity=".5"/><path fill="#84B5FF" d="M227.666 244.036c4.869 11.115 41.317 7.649 45.673-1.483 4.762-9.988-6.191-34.666-23.655-33.514-14.755.976-28.274 20.71-22.018 34.997Z"/><path fill="#276ED8" d="M229.678 242.467c4.656 9.118 36.473 7.609 41.119-.769 3.944-7.116-5.373-28.787-21.357-28.017-15.985.774-24.235 20.036-19.762 28.786Z"/><path fill="#66D6A0" d="M264.221 231.725c-.625 1.66-9.016 1.469-9.006.87.051-3.314 1.845-7.669 5.194-7.639 3.457.03 4.981 3.676 3.812 6.769ZM235.946 231.946c.722 1.625 9.088.966 9.042.368-.239-3.31-2.272-7.554-5.616-7.338-3.451.221-4.768 3.948-3.426 6.97Z"/><path fill="#84B5FF" d="M245.135 238.082c-1.26.302 1.377 4.471 5.611 4.471 3.756 0 5.876-4.285 5.398-4.471-.478-.186-2.729.966-5.865.966s-4.615-1.092-5.144-.966Z"/><path fill="#276ED8" d="M239.926 256.815c-.01 3.033-.442 7.413-1.83 10.953-2.302 5.864-5.758 13.242-5.86 13.473l-.005.005c-2.109 1.273-4.641 1.207-6.247.976-.976-.141-1.611-.342-1.611-.342s.717-6.714 4.447-14.323c1.871-3.822 4.26-7.378 6.318-9.998.01-.01.02-.025.031-.035.02-.035.05-.065.076-.1.015-.021.03-.036.041-.056a.152.152 0 0 0 .035-.05c.02-.025.036-.045.056-.065l.01-.01a.185.185 0 0 1 .01-.011c2.089-2.625 3.787-4.214 4.143-4.023.208.111.396 1.544.386 3.606Z"/><path fill="#84B5FF" d="M224.403 281.613s2.72-4.44 5.525-3.862c2.806.578 2.303 3.495 2.303 3.495s-3.589 2.57-7.828.367Z"/><path fill="#84B5FF" d="M239.926 256.815c-.01 3.033-.442 7.413-1.83 10.953-2.302 5.864-5.758 13.242-5.86 13.473l-.005.005-6.247.976c-.976-.141-1.611-.342-1.611-.342s.717-6.714 4.447-14.323c1.871-3.822 4.26-7.378 6.318-9.998-1.179 1.539-6.104 8.233-7.431 13.921-1.509 6.472 4.575 3.978 7.065 0 2.486-3.978 5.083-14.66 5.083-14.66h.071v-.005Z"/><path fill="#84B5FF" d="M224.367 281.875s1.678-2.349 4.102-2.665c2.424-.312 3.294.352 3.756 2.031.468 1.685-2.973 7.816-7.243 12.437-1.845.151-2.399-2.087-2.668-3.525.005-1.257 1.225-6.302 2.053-8.278Z"/><path fill="#276ED8" d="M230.259 279.194s-4.549 6.252-5.992 9.847c-.778 1.942-1.225 3.214-1.225 3.214s1.184 2.962 3.141.483c2.775-3.511 6.496-8.791 5.82-11.331-.57-2.147-.951-2.555-1.744-2.213Z"/><path fill="#84B5FF" d="M226.426 284.953s.635 3.334 2.673 3.832l.32-8.001c0-.005-2.383 3.138-2.993 4.169Z" opacity=".5"/><path fill="#84B5FF" d="M228.419 282.685c-.305.769.285 5.808.839 6.382.554.568 1.835-.393 2.191-1.414.355-1.02 1.956-6.583-.102-8.368 0-.005-1.657.176-2.928 3.4Z"/><path fill="#276ED8" d="M260.727 257.145c.01 3.033.442 7.413 1.83 10.953 2.302 5.864 5.758 13.242 5.86 13.473l.005.005c2.109 1.273 4.64 1.207 6.247.976a11.218 11.218 0 0 0 1.611-.342s-.717-6.714-4.448-14.323c-1.87-3.822-4.259-7.378-6.317-9.998l-.031-.035c-.02-.035-.051-.065-.076-.1-.015-.021-.031-.036-.041-.056a.152.152 0 0 1-.035-.05c-.021-.025-.036-.045-.056-.065l-.01-.01-.01-.011c-2.089-2.625-3.787-4.214-4.143-4.023-.208.111-.396 1.544-.386 3.606Z"/><path fill="#84B5FF" d="M276.25 281.943s-2.72-4.44-5.525-3.862c-2.806.578-2.303 3.495-2.303 3.495s3.589 2.57 7.828.367Z"/><path fill="#84B5FF" d="M260.727 257.145c.01 3.033.442 7.413 1.83 10.953 2.302 5.864 5.758 13.242 5.86 13.473l.005.005 6.247.976a11.218 11.218 0 0 0 1.611-.342s-.717-6.714-4.448-14.323c-1.87-3.822-4.259-7.378-6.317-9.998 1.179 1.539 6.104 8.233 7.431 13.921 1.509 6.472-4.575 3.978-7.065 0-2.486-3.978-5.083-14.66-5.083-14.66h-.071v-.005Z"/><path fill="#84B5FF" d="M276.285 282.205s-1.677-2.349-4.101-2.665c-2.425-.312-3.294.352-3.756 2.031-.468 1.685 2.973 7.815 7.242 12.437 1.845.151 2.399-2.087 2.669-3.525-.005-1.257-1.225-6.302-2.054-8.278Z"/><path fill="#276ED8" d="M270.393 279.524s4.549 6.252 5.993 9.847a88.39 88.39 0 0 1 1.225 3.214s-1.184 2.962-3.141.483c-2.775-3.511-6.496-8.791-5.82-11.331.569-2.147.951-2.555 1.743-2.213Z"/><path fill="#84B5FF" d="M274.227 285.283s-.635 3.334-2.673 3.832l-.321-8.001c0-.005 2.384 3.138 2.994 4.169Z" opacity=".5"/><path fill="#84B5FF" d="M272.234 283.015c.305.769-.285 5.808-.839 6.382-.554.568-1.835-.393-2.191-1.414-.355-1.02-1.957-6.583.102-8.368 0-.005 1.657.176 2.928 3.4Z"/><path fill="#06B25F" d="m241.55 199.7-2.183-1.509 1.052-2.102-2.519-1.516.887-1.956-2.232-1.358.963-2.386-1.914-1.7-2.177 1.231 4.296 12.692 3.827-1.396Z"/><path fill="#66D6A0" d="m220.283 176.551 12.746 21.479 3.045-1.821-5.531-16.414-10.26-3.244Z"/><path fill="#66D6A0" d="M233.84 159.729c.3.115 6.926 5.134 6.763 5.279-.16.147-10.572 15.779-10.572 15.779l-8.953-5.868 12.762-15.19Z"/><path fill="#06B25F" d="M229.004 182.246c-2.202 2.003-5.608 1.848-7.607-.349a5.38 5.38 0 0 1 .366-7.604c2.202-2.003 5.608-1.848 7.607.349 2 2.192 1.837 5.596-.366 7.604Z"/><path fill="#66D6A0" d="M227.242 180.31a2.519 2.519 0 1 1-3.391-3.727 2.521 2.521 0 0 1 3.564.164 2.524 2.524 0 0 1-.173 3.563Z"/><path fill="#06B25F" d="m256.497 197.127 2.318-1.308-.853-2.187 2.65-1.286-.699-2.024 2.348-1.157-.735-2.463 2.065-1.524 2.053 1.424-5.465 12.256-3.682-1.731Z"/><path fill="#66D6A0" d="m279.844 175.968-14.707 20.254-2.856-2.083 7.038-15.854 10.525-2.317ZM245.194 110.198l11.503 8.877-2.037 34.179-11.009 1.749 1.543-44.805Z"/><path fill="#66D6A0" d="M267.916 158.007c-.311.09-7.375 4.495-7.228 4.656.147.16 9.054 16.656 9.054 16.656l9.463-5.047-11.289-16.265Z"/><path fill="#06B25F" d="M234.003 158.36c3.59-6.545 28.069-8.1 32.388-2.446 3.937 5.156 2.017 8.504-.565 9.854-4.12 2.148-4.999-5.283-9.054-5.07-4.054.213-8.92.554-12.543.921-4.038.408-3.804 7.887-8.196 6.397-2.756-.938-5.155-3.957-2.03-9.656ZM270.623 180.861c2.005 2.193 5.412 2.339 7.61.33a5.383 5.383 0 0 0 .348-7.606 5.388 5.388 0 0 0-7.61-.33 5.385 5.385 0 0 0-.348 7.606Z"/><path fill="#66D6A0" d="M234.558 164.45a2.522 2.522 0 0 0 3.528.515 2.523 2.523 0 0 0 .522-3.528 2.52 2.52 0 0 0-3.528-.514 2.52 2.52 0 0 0-.522 3.527ZM272.561 179.091a2.528 2.528 0 0 0 3.565.156 2.527 2.527 0 0 0 .163-3.564 2.528 2.528 0 0 0-3.565-.155 2.518 2.518 0 0 0-.163 3.563ZM261.812 161.775a2.521 2.521 0 0 0 3.528.514 2.522 2.522 0 0 0 .522-3.527 2.522 2.522 0 0 0-3.528-.515 2.519 2.519 0 0 0-.522 3.528ZM252.402 101.698h79.869v1.909h-79.869v-1.909Z"/><path fill="#66D6A0" d="M327.985 99.028h7.78v15.142h-7.78V99.028ZM246.881 98h7.779v15.142h-7.779V98Z"/><path fill="#66D6A0" d="m333.729 110.281-9.04 15.425-72.284-1.859-3.556-14.088 84.88.522ZM419.232 206.459c-1.982 2.037-44.211-18.272-44.211-18.272l-20.02 16.574 63.211 51.572 1.02-49.874ZM375.021 188.187l-37.749-77.071-12.583 14.59L355 204.761l20.021-16.574Z"/><path fill="#66D6A0" d="M413.791 197.42v58.112a4.877 4.877 0 0 0 4.882 4.871h29.788a4.877 4.877 0 0 0 4.883-4.871V197.42a4.877 4.877 0 0 0-4.883-4.871h-29.788a4.877 4.877 0 0 0-4.882 4.871Z"/><path fill="#06B25F" d="M365.822 210.223c-7.655 0-13.86-6.191-13.86-13.828s6.205-13.828 13.86-13.828c7.655 0 13.861 6.191 13.861 13.828s-6.206 13.828-13.861 13.828ZM322.052 119.547c0 5.407 4.392 9.789 9.811 9.789s9.811-4.382 9.811-9.789c0-5.406-4.392-9.788-9.811-9.788s-9.811 4.382-9.811 9.788ZM450.683 191.412v68.939c0 3.12 2.38 5.649 5.317 5.649v-80.237c-2.937 0-5.317 2.529-5.317 5.649Z"/><path fill="#06B25F" d="M367.284 189.494c0-1.018-32.392-69.947-32.392-69.947l-4.593 1.492 28.057 72.525 8.928-4.07Z"/><path fill="#66D6A0" d="M327.119 119.541a4.749 4.749 0 0 0 4.754 4.743 4.75 4.75 0 0 0 4.754-4.743 4.749 4.749 0 0 0-4.754-4.743 4.749 4.749 0 0 0-4.754 4.743Z"/><path fill="#06B25F" d="M242.621 117.32c0 4.49 3.647 8.133 8.151 8.133 4.501 0 8.152-3.639 8.152-8.133 0-4.49-3.648-8.132-8.152-8.132-4.5 0-8.151 3.639-8.151 8.132Z"/><path fill="#06B25F" d="m324.689 115.504-67.675-.71v3.279l67.675 3.898v-6.467Z"/><path fill="#66D6A0" d="M247.128 116.775a3.636 3.636 0 0 0 3.641 3.633 3.636 3.636 0 0 0 3.641-3.633 3.636 3.636 0 0 0-3.641-3.633 3.638 3.638 0 0 0-3.641 3.633ZM360 196.893c0 3.255 2.644 5.892 5.906 5.892 3.263 0 5.906-2.637 5.906-5.892 0-3.255-2.643-5.893-5.906-5.893-3.262 0-5.906 2.638-5.906 5.893Z"/><g filter="url(#d)"><rect width="58" height="57" x="127" y="239" fill="#276ED8" rx="6"/></g><g fill="#fff" clip-path="url(#e)"><path d="M140 267c0-1.497 3.532-3.445 9.595-4.288a50.681 50.681 0 0 0-.178 4.288c0 1.464.06 2.902.178 4.288-6.063-.843-9.595-2.791-9.595-4.288ZM156 283c-1.497 0-3.445-3.532-4.288-9.595 1.386.118 2.824.178 4.288.178 1.465 0 2.903-.06 4.289-.178-.844 6.063-2.791 9.595-4.289 9.595ZM162.404 271.288c.118-1.386.179-2.824.179-4.288 0-1.462-.061-2.897-.178-4.281 1.26.176 2.455.404 3.554.68l-.415.178a.938.938 0 0 0 .741 1.722l2.579-1.109a.938.938 0 0 0 .49-1.232l-1.109-2.579a.94.94 0 0 0-1.232-.49.938.938 0 0 0-.491 1.232l.236.547a36.117 36.117 0 0 0-4.556-.867c-.288-2.247-.734-4.313-1.321-6.074-.457-1.372-.98-2.502-1.559-3.379C166.556 252.882 172 259.317 172 267c0 1.497-3.532 3.445-9.596 4.288ZM151.493 271.507a49.051 49.051 0 0 1-.201-4.507c0-1.606.072-3.111.201-4.507a49.051 49.051 0 0 1 4.507-.201c1.538 0 3.054.071 4.508.207.128 1.394.201 2.897.201 4.501 0 1.606-.073 3.111-.202 4.507a49.035 49.035 0 0 1-4.507.201c-1.606 0-3.111-.072-4.507-.201ZM156 260.417a51.12 51.12 0 0 0-4.288.178c.843-6.063 2.791-9.595 4.288-9.595 1.498 0 3.446 3.533 4.289 9.598a50.125 50.125 0 0 0-4.289-.181ZM152.677 251.348c-.579.877-1.101 2.007-1.559 3.379-.586 1.76-1.032 3.825-1.32 6.071-2.247.288-4.311.734-6.071 1.32-1.373.458-2.503.981-3.379 1.559 1.306-6.161 6.168-11.023 12.329-12.329ZM171.652 270.323c-1.306 6.161-6.168 11.023-12.329 12.329.578-.877 1.101-2.007 1.559-3.379.586-1.76 1.032-3.825 1.32-6.071 2.246-.288 4.311-.734 6.071-1.32 1.372-.458 2.502-.981 3.379-1.559ZM143.727 271.882c1.76.586 3.824 1.032 6.071 1.32.288 2.246.734 4.311 1.32 6.071.458 1.372.98 2.502 1.559 3.379-6.161-1.306-11.023-6.168-12.329-12.329.876.578 2.006 1.101 3.379 1.559Z"/></g><defs><radialGradient id="b" cx="0" cy="0" r="1" gradientTransform="matrix(28.34595 .09289 -.01952 5.95768 250.361 309.26)" gradientUnits="userSpaceOnUse"><stop stop-color="#7B7EC9"/><stop offset=".388" stop-color="#BFD8F5"/><stop offset="1" stop-color="#fff"/></radialGradient><radialGradient id="c" cx="0" cy="0" r="1" gradientTransform="matrix(18.7404 0 0 18.5428 250.471 283.427)" gradientUnits="userSpaceOnUse"><stop stop-color="#81D884"/><stop offset="1" stop-color="#2DA531"/></radialGradient><clipPath id="e"><path fill="#fff" d="M140 283h32v-32h-32z"/></clipPath><filter id="d" width="80" height="79" x="121" y="233" color-interpolation-filters="sRGB" filterUnits="userSpaceOnUse"><feFlood flood-opacity="0" result="BackgroundImageFix"/><feColorMatrix in="SourceAlpha" result="hardAlpha" values="0 0 0 0 0 0 0 0 0 0 0 0 0 0 0 0 0 0 127 0"/><feMorphology in="SourceAlpha" operator="dilate" radius="3" result="effect1_dropShadow_620_6749"/><feOffset dx="5" dy="5"/><feGaussianBlur stdDeviation="4"/><feColorMatrix values="0 0 0 0 0 0 0 0 0 0 0 0 0 0 0 0 0 0 0.2 0"/><feBlend in2="BackgroundImageFix" result="effect1_dropShadow_620_6749"/><feBlend in="SourceGraphic" in2="effect1_dropShadow_620_6749" result="shape"/></filter></defs></svg>