<svg xmlns="http://www.w3.org/2000/svg" width="24" height="24" fill="none"><path fill="#276ED8" d="M21.405 14.11c1.447-6.5-4.25-12.406-10.938-11.272C6.835.584 2 3.13 2 7.45c0 1.005.277 1.945.76 2.756-1.345 6.516 4.397 12.337 11.08 11.126 4.725 2.498 9.946-2.484 7.565-7.222Zm-6.359 3.921c-1.755.722-4.643.726-6.39-.188-2.492-1.33-2.935-4.32-.785-4.32 1.62 0 1.107 1.889 2.743 2.659.75.347 2.365.383 3.303-.25.927-.62.842-1.596.338-2.062-1.334-1.232-5.153-.742-6.899-2.899-.758-.936-.901-2.586.031-3.783 1.625-2.091 6.394-2.219 8.444-.64 1.893 1.466 1.382 3.41-.145 3.41-1.838 0-.872-2.404-3.838-2.404-2.15 0-2.996 1.53-1.482 2.273 2.053 1.02 7.284.68 7.284 4.664-.004 1.658-1.02 2.895-2.604 3.54Z"/></svg>