<svg xmlns="http://www.w3.org/2000/svg" width="33" height="40" fill="none"><path fill="#fff" d="m6.56 13.333.002 15.74c0 1.435 1.141 2.594 2.553 2.594h.725v5.903C9.84 38.91 11 40 12.316 40c1.322 0 2.444-1.09 2.444-2.432v-5.901h3.28v5.903c0 1.34 1.16 2.43 2.478 2.43 1.322 0 2.442-1.09 2.442-2.432v-5.901l.728-.002c1.407 0 2.552-1.16 2.552-2.595V13.333H6.56Zm26.24 2.452c0-1.342-1.14-2.452-2.46-2.452-1.32-.001-2.46 1.112-2.46 2.454v10.176c0 1.344 1.138 2.37 2.46 2.37 1.32 0 2.46-1.025 2.46-2.37V15.785Zm-27.88 0c0-1.342-1.14-2.452-2.46-2.452C1.14 13.332 0 14.445 0 15.787v10.176c0 1.344 1.138 2.37 2.46 2.37 1.32 0 2.46-1.025 2.46-2.37V15.785ZM21.24 3.598 22.78.5c.112-.22-.03-.5-.267-.5a.303.303 0 0 0-.269.175l-1.556 3.13c-2.511-1.228-5.813-1.353-8.576 0L10.555.175A.3.3 0 0 0 10.286 0c-.236 0-.379.28-.267.5l1.541 3.098c-3.025 1.724-5 4.307-5 8.067h19.68c0-3.76-1.975-6.343-5-8.067Zm-8.938 4.735a.828.828 0 0 1-.822-.833.83.83 0 0 1 .822-.833c.452 0 .818.376.818.833 0 .46-.366.833-.818.833Zm8.196 0a.826.826 0 0 1-.818-.833c0-.457.366-.833.818-.833a.83.83 0 0 1 .822.833c0 .46-.369.833-.822.833Z"/></svg>