<svg xmlns="http://www.w3.org/2000/svg" width="550" height="395" fill="none"><path fill="#66D6A0" d="M216.249 68.167c-10.986 0-19.89 8.903-19.89 19.89 0 10.986 8.904 19.889 19.89 19.889s19.89-8.903 19.89-19.89c0-10.986-8.904-19.889-19.89-19.889Zm0 34.823c-8.256 0-14.943-6.687-14.943-14.943s6.687-14.943 14.943-14.943 14.943 6.687 14.943 14.943-6.687 14.943-14.943 14.943Z"/><mask id="a" width="550" height="395" x="0" y="0" maskUnits="userSpaceOnUse" style="mask-type:alpha"><path fill="#C4C4C4" d="M0 0h550v395H0z"/></mask><g mask="url(#a)"><path fill="#276ED8" d="M305.557 377.307C208.766 395.507 35.128 414.5 9 295.5c-26.128-119 37.019-159.869 82-163 13.973-.935 51.583 28.534 94.321 8.937 51.896-23.797 52.455-90.972 83.006-92.382 26.434-1.236 50.005 62.488 75.622 67.437 11.144 2.222 57.908-81.706 112.058-42.347 34.558 25.118 63.569 121.665 48.35 65.068-15.22-56.596-87.51 217.168-198.8 238.094Z" opacity=".04"/></g><path fill="#66D6A0" d="M295.569 296.626h-27.784a1.987 1.987 0 1 1 0-3.976h27.784c1.094 0 1.988.884 1.988 1.988a1.993 1.993 0 0 1-1.988 1.988ZM295.569 306.547h-27.784a1.987 1.987 0 1 1 0-3.976h27.784c1.094 0 1.988.884 1.988 1.988a1.993 1.993 0 0 1-1.988 1.988Z"/><path fill="#84B5FF" d="m156.402 141.101 12.373-2.327v-11.093l-12.373-2.133a36.588 36.588 0 0 0-5.236-12.606l7.098-10.414-7.854-7.854-10.259 7.253a36.396 36.396 0 0 0-12.606-5.217l-2.327-12.373h-11.093l-2.133 12.373a36.59 36.59 0 0 0-12.605 5.236l-10.395-7.098-7.854 7.855 7.253 10.258a36.56 36.56 0 0 0-5.217 12.606l-12.373 2.327v11.093l12.373 2.133a36.435 36.435 0 0 0 5.236 12.606l-7.098 10.394 7.855 7.854 10.278-7.253a36.167 36.167 0 0 0 12.605 5.217l2.327 12.373h11.093l2.133-12.373a36.435 36.435 0 0 0 12.606-5.236l10.395 7.098 7.854-7.854-7.253-10.259a36.487 36.487 0 0 0 5.197-12.586Zm-36.614 15.204c-12.683 0-22.961-10.298-22.961-22.962 0-12.663 10.278-22.961 22.961-22.961 12.683 0 22.961 10.278 22.961 22.961 0 12.684-10.278 22.962-22.961 22.962Z" opacity=".2"/><path fill="#66D6A0" d="M89.825 181.711v141.026c0 7.019 3.226 10.717 7.2 10.717h98.794c3.973 0 7.199-3.698 7.199-10.717V181.711c0-7.019-3.226-10.717-7.199-10.717H97.017c-3.974.014-7.192 3.698-7.192 10.717ZM195.92 328.93H96.923c-1.472 0-2.664-2.106-2.664-4.707V180.224c0-2.601 1.192-4.707 2.664-4.707h98.997c1.473 0 2.665 2.106 2.665 4.707v143.999c0 2.601-1.192 4.707-2.665 4.707Z"/><path fill="#fff" stroke="#84B5FF" stroke-miterlimit="10" d="M316.382 137.89v126.5a5.886 5.886 0 0 1-5.888 5.887H117.591a5.886 5.886 0 0 1-5.888-5.887v-126.5c0-7.505 6.088-13.602 13.602-13.602H302.78c7.514 0 13.602 6.097 13.602 13.602Z"/><path fill="#84B5FF" d="M316.382 137.89v.57H111.703v-.57c0-7.505 6.088-13.602 13.602-13.602H302.78c7.514 0 13.602 6.097 13.602 13.602Z"/><path fill="#EDF1FF" d="M316.382 243.026v21.364a5.886 5.886 0 0 1-5.888 5.887H117.591a5.886 5.886 0 0 1-5.888-5.887v-21.364h204.679Z"/><path fill="#84B5FF" d="M285.297 132.031c0 .979-.79 1.769-1.77 1.769-.979 0-1.769-.79-1.769-1.769 0-.98.79-1.77 1.769-1.77.971 0 1.77.79 1.77 1.77ZM294.98 132.031c0 .979-.79 1.769-1.769 1.769-.98 0-1.77-.79-1.77-1.769 0-.98.79-1.77 1.77-1.77.97 0 1.769.79 1.769 1.77ZM304.235 132.031c0 .979-.789 1.769-1.769 1.769-.98 0-1.769-.79-1.769-1.769 0-.98.789-1.77 1.769-1.77.98 0 1.769.79 1.769 1.77Z"/><path stroke="#84B5FF" stroke-miterlimit="10" d="M316.382 137.89v126.5a5.886 5.886 0 0 1-5.888 5.887H117.591a5.886 5.886 0 0 1-5.888-5.887v-126.5c0-7.505 6.088-13.602 13.602-13.602H302.78c7.514 0 13.602 6.097 13.602 13.602Z"/><g filter="url(#b)"><path fill="#043072" d="M472.409 66.044c-19.043-8.253-37.711-9.116-47.633-3.218.151-.734.359-1.46.63-2.16 5.022-12.95 29.203-14.736 54.003-3.987 24.801 10.748 40.838 29.964 35.816 42.915-1.167 3.01-3.369 5.414-6.374 7.199 2.632-12.846-12.984-30.583-36.442-40.75Z"/><path fill="#84B5FF" d="M423.381 63.687c-2.62 12.849 12.988 30.58 36.44 40.744 9.099 3.943 18.888 6.611 28.609 6.984 3.973.153 7.959-.088 11.761-.971a33.448 33.448 0 0 0 4.908-1.55c1.468-.592 4.421-2.23 4.796-3.967-.814 3.782-3.486 7.117-6.252 9.642-12.592 11.486-35.949 5.671-50.82-.773-24.8-10.749-40.829-29.96-35.808-42.909 1.166-3.009 3.368-5.413 6.366-7.2Z"/><path stroke="#84B5FF" stroke-miterlimit="10" stroke-width="2" d="M425.499 60.792c5.163-13.02 29.381-14.9 54.085-4.199s40.548 29.936 35.385 42.955c-1.2 3.026-3.429 5.448-6.455 7.251M424.108 63.652c-2.74 12.872 12.631 30.55 35.894 40.619 18.885 8.173 37.471 8.953 47.412 3.006"/><path fill="#276ED8" d="M416.768 83.538c16.65 19.27 39.942 34.059 68.328 45.643 1.833.746 3.853-.03 4.545-1.763L500.679 99.7c.685-1.718-.179-3.75-1.962-4.574-24.577-11.397-46.655-25.867-65.774-43.973-1.864-1.764-4.84-1.261-5.735.983L416.115 79.96c-.468 1.173-.226 2.558.653 3.58Z"/><path fill="#276ED8" d="M410.939 85.134c16.651 19.273 56.394 48.136 56.394 48.136l19.767-3.644c1.182-.229 1.691-1.489 1.986-2.631l5.799-25.692c.688-1.724-.189-3.755-1.978-4.582-24.424-11.33-44.286-28.032-63.302-46.008a.816.816 0 0 0-.901-.166c-2.992 1.373-18.88 6.36-19.815 8.089l1.4 22.926c-.473 1.17-.231 2.556.65 3.572Z"/><path fill="#fff" d="M448.404 71.961c-1.378.45-2.832.843-4.311 1.249-.292.062-.585.113-.88.168 4.112-1.434 8.262-2.776 12.379-4.19.071.054.142.108.216.158a189.763 189.763 0 0 1-7.404 2.615ZM426.143 68.228c8.195 5.688 16.376 11.411 24.821 16.716 6.009 3.775 12.135 6.903 18.341 10.259 2.395 1.295 6.448 3.426 8.56 6.127a1230.737 1230.737 0 0 1-12.24 3.684c-1.285.381-.588 2.388.697 2.007 4.218-1.242 8.418-2.516 12.622-3.8.184.508.285 1.026.289 1.555-5.231 1.694-10.468 3.386-15.805 4.793-1.301.345-.599 2.353.697 2.007a192.262 192.262 0 0 0 6.352-1.818c-.342.321-.684.641-1.012.974-2.627 2.646-4.874 5.679-6.793 8.902l-.362-.227c-1.572-1.085-3.238-2.041-4.818-2.937-4.519-2.561-9.048-4.775-13.282-7.792-.686-.508-1.367-1.014-2.05-1.515-7.779-5.795-15.199-12.044-22.639-18.26a274.795 274.795 0 0 1-6.714-6.764c-.146-1.99-.304-3.98-.477-5.965-.08-2.91-.225-5.826-.402-8.739.293-2.632.651-5.259 1.015-7.884l1.378-.522c3.599 3.457 7.79 6.397 11.822 9.199Z" opacity=".21"/><path fill="#06B25F" d="m476.884 130.472 10.833-26.193c1.023-2.472.055-5.418-2.303-7.009l-62.882-42.446a6.16 6.16 0 0 0-2.758-1.023c1.811-1.02 4.214-.992 6.2.344l62.882 42.446c2.358 1.591 3.326 4.537 2.303 7.01l-10.833 26.193c-.733 1.775-2.681 2.583-4.51 2.09a3.422 3.422 0 0 0 1.068-1.412Z"/><path fill="#84B5FF" d="m401.09 90.319 62.327 42.085c3.237 2.189 7.526 1.045 8.886-2.367l9.146-22.947c1.104-2.77-.165-6.038-2.942-7.576-21.668-11.995-42.119-25.806-61.469-41.256-3.23-2.579-7.889-1.57-9.328 2.04l-9.067 22.747c-1.021 2.577-.001 5.62 2.447 7.274Z"/><path fill="#06B25F" d="m432.313 77.656 23.949 16.204c1.074.727 2.494.316 2.902-.836l.094-.268c.297-.845-.063-1.823-.864-2.333-8.597-5.494-16.619-10.657-23.942-15.868-1.054-.748-2.477-.39-2.924.739-.338.838-.006 1.827.785 2.362Z"/><path stroke="#1351AC" stroke-miterlimit="10" stroke-width="3" d="m401.565 90.377 61.567 41.569c3.199 2.161 7.434 1.028 8.776-2.338l9.034-22.667c1.091-2.735-.164-5.962-2.904-7.483-21.402-11.845-41.599-25.494-60.711-40.752-3.194-2.546-7.792-1.553-9.213 2.014l-8.955 22.466c-1.018 2.555-.007 5.56 2.406 7.191Z"/><path fill="#194484" d="M477.84 126.082c.369.449.968.657 1.517.522l12.601-3.042 7.658-14.564c.304-.577.125-1.308-.423-1.737a1.852 1.852 0 0 0-1.31-.392l-12.78 1.266c-.6.059-1.102.422-1.32.959l-6.223 15.335c-.225.54-.121 1.173.28 1.653Z"/><path fill="#194484" d="m479.533 126.681 12.539-1.477c.68-.08 1.242-.495 1.487-1.098l6.111-15.036c.194-.477-.241-1.001-.773-.942l-12.553 1.483c-.634.076-1.167.467-1.396 1.03l-6.152 15.138c-.191.454.226.958.737.902Z"/><path fill="#276ED8" d="m486.895 121.909 4.643-.525c.441-.048.812-.322.968-.711l2.427-6.079c.335-.839-.448-1.775-1.399-1.665l-4.676.528c-.423.051-.773.303-.923.677l-2.439 6.11c-.335.839.45 1.77 1.399 1.665Z"/><path fill="#06B25F" d="m487.364 122.469 4.643-.525c.441-.048.812-.322.968-.711l2.427-6.079c.335-.839-.448-1.775-1.399-1.666l-4.677.529c-.422.05-.772.303-.922.677l-2.439 6.11c-.327.836.455 1.772 1.399 1.665Z"/></g><g filter="url(#c)"><path fill="#84B5FF" d="M172.57 299.77c-.39.473-.781.941-1.172 1.408-4.042 4.814-10.392 7.273-16.088 4.875-8.216-3.46-16.677-7.914-24.353-12.479-6.38-3.796-12.045-9.101-19.008-11.673-8.131-3.003-15.732-7.158-22.78-12.026-2.976-2.054-6.103-4.182-8.899-6.45-1.404-1.141-2.893-2.198-4.254-3.382-.806-.698-2.462-2.073-1.934-3.368.04-.097.09-.2.068-.296-.017-.086-.083-.146-.149-.205-1.311-1.205-2.696-2.403-3.77-3.815-.898-1.182.138-2.512.943-3.537.457-.583 2.524-3.309 4.496-3.181-2.634-2.676-5.58-5.094-8.161-7.852-.006-.005-.012-.009-.013-.015 1.532-3.169 4.01-5.916 7.2-7.666 4.606 4.056 9.213 8.117 13.813 12.173 2.444 2.157 5.062 4.391 8.347 4.995a40.91 40.91 0 0 1-11.084-11.299c-2.435-3.722-4.309-7.884-7.295-11.163.082-.144.176-.284.263-.428.17-.202.344-.398.526-.584 1.012-1.044 2.127-1.9 3.362-2.739a31.197 31.197 0 0 1 2.336-1.449c1.087-.274 2.244-.423 3.428-.492 4.041 5.584 8.186 11.098 13.069 15.993 6.123 6.138 13.49 11.311 22.094 13.608 1.743.465 3.604.542 5.389.101 9.605-2.355 2.618-17.976.527-23.606.184-.153.379-.296.592-.431 2.339-1.481 5.592-1.596 8.309-1.504 1.389.049 2.773.186 4.147.351.045.187.09.38.142.583.928 3.394 2.996 9.743 4.278 13.012 2.478 6.322 7.029 11.537 8.339 18.392 1.795 9.397 1.062 17.105 10.346 22.437l3.546 2.035c7.033 4.032 8.672 13.28 3.4 19.677Z"/><path fill="#06B25F" d="M119.129 249.558c-11.201-2.748-22.124-10.74-28.18-19.758-1.6-2.387-3.08-4.851-4.812-7.15-1.59-2.109.036-2.977-.161-2.713 1.449-2.387 6.838 1.044 9.385 4.297 3.655 4.672 5.665 7.689 9.383 11.71 2.599 2.809 7.595 6.031 10.73 8.332 3.123 2.298 4.103 2.053 7.954 3.156 6.877 1.971 5.129.184 9.313-1.034 0 0 .227-7.669.255-8.532.093-3.309-5.525-9.15-3.338-11.873.253-.313.539-.545.891-.816 2.205.072 1.613-.19 2.216.26-.338-.659.604.451 0 0 1.432 2.786 2.273 5.712 3.012 8.744 1.159 4.763.953 13.181-4.396 16.407-3.939 2.379-8.015.009-12.252-1.03Z"/><path fill="#276ED8" d="M75.22 230.915c.134.128.261.26.395.388 3.83 3.689 7.046 5.052 11.618 8.25 2.268 1.586 4.622 3.136 7.15 4.499 1.493.805 3.018 1.569 4.662 2.183.628.363 1.25.722 1.878 1.081.711 1.403-.873 2.196-2.672 2.38a7.788 7.788 0 0 1-2.196-.082c-1.611-.321-2.93-1.092-4.188-1.855-6.301-3.832-13.624-7.947-18.124-13-1.248-1.401-2.355-2.3.754-3.65.233-.104.472-.159.724-.194ZM92.219 258.255c-.073.321-.357.635-.959.936-.614.302-1.33.298-1.975.157-1.719-.377-3.056-1.598-4.308-2.775-2.714-2.553-5.815-4.692-8.44-7.224-.73-.704-2.95-2.879-.089-3.177 1.408-.146 3.146 1.301 4.039 2.058 2.007 1.7 4.049 3.364 6.125 4.983 1.053.82 2.094 1.685 3.176 2.461.746.537 2.655 1.572 2.43 2.581ZM134.523 297.11c-3.131-1.88-6.074-3.734-9.412-6.151.1-.02.466-.129.572-.149 13.44-1.979 25.811-10.061 32.241-21.902.036-.068.077-.126.113-.189 2.078 2.758 3.42 5.865 5.973 7.988-6.821 10.017-17.814 16.704-29.487 20.403ZM158.676 310.735c-3.923-2.171-6.397-3.645-10.264-5.904.196-.039.397-.074.605-.093 11.907-1.145 21.025-9.686 22.275-21.303.041-.358.111-.692.212-1.002 3.121 1.148 6.119 3.24 9.062 4.72-2.025 11.239-8.13 20.14-21.89 23.582Z"/><path fill="#fff" d="M134.679 297.138a224.882 224.882 0 0 1-2.653-1.615 103.11 103.11 0 0 1-5.721-4.721 45.705 45.705 0 0 0 19.222-7.768c1.659 1.482 3.42 2.864 5.201 4.222.485.481.981.96 1.476 1.429-5.297 3.69-11.312 6.5-17.525 8.453ZM156.707 285.064c-.387.348-.775.691-1.175 1.029-1.958-2.187-3.907-4.425-6.053-6.436.221-.201.435-.413.65-.619a554.381 554.381 0 0 0 6.578 6.026ZM170.238 297.334c1.506 1.227 3.057 2.438 4.717 3.492-.352.464-.71.918-1.097 1.364-2.518-2.142-5.115-4.194-7.697-6.264.316-.391.615-.79.902-1.205 1.06.873 2.115 1.746 3.175 2.613ZM163.4 298.985c2.53 2.009 5.076 4.001 7.575 6.046-3.144 2.527-7.126 4.487-12.121 5.721-3.907-2.151-6.37-3.611-10.22-5.848.194-.039.395-.073.602-.092 5.482-.521 10.364-2.604 14.164-5.827Z" opacity=".33"/><path fill="#194484" d="M155.554 312.873c-3.118-.563-6.599-1.634-10.122-3.219-7.579-3.41-14.786-6.548-16.068-10.296-.388-1.135 1.288-3.776 1.744-4.665 1.963-3.823 11.559-3.317 21.43 1.123 6.053 2.725 10.639 6.056 13.263 9.183.419.498.976 1.52.744 2.2-.135.398-1.394 3.008-2.214 3.288-2.709.917-6.051 1.552-8.777 2.386Z"/><path fill="#06B25F" d="M152.948 313.612c-2.163.551-4.432.463-6.453-.304a58.614 58.614 0 0 1-2.4-.98c-9.906-4.318-16.493-10.568-14.705-13.96 1.789-3.392 11.272-2.64 21.179 1.684 6.627 2.888 11.758 6.639 13.898 9.826.198.3.03.71-.342.817-3.698 1.06-7.438 1.97-11.177 2.917Z"/><path fill="#fff" d="M119.209 260.375c7.048 2.773 11.076 9.14 8.997 14.222-2.079 5.083-9.478 6.955-16.526 4.182-7.048-2.773-11.075-9.141-8.996-14.223 2.079-5.082 9.477-6.954 16.525-4.181Z" opacity=".33"/><path fill="#276ED8" d="M123.672 272.692c1.351-3.106-1.233-7.011-5.772-8.727-4.539-1.716-9.315-.591-10.66 2.515-1.352 3.106 1.232 7.011 5.771 8.727 4.533 1.711 9.309.586 10.661-2.515Z"/><path fill="#fff" d="M119.89 271.262c.731-1.675-.667-3.79-3.118-4.713-2.452-.929-5.032-.319-5.762 1.356-.731 1.675.667 3.79 3.118 4.714 2.457.928 5.032.318 5.762-1.357ZM93.59 237.685c.537-1.232-.489-2.792-2.298-3.473-1.804-.682-3.705-.237-4.241 1-.537 1.233.489 2.792 2.299 3.474 1.803.682 3.704.237 4.24-1.001ZM142.736 240.005c1.706-.577 2.625-2.464 2.055-4.216-.569-1.752-2.418-2.708-4.124-2.131-1.706.578-2.625 2.465-2.055 4.217.569 1.752 2.418 2.708 4.124 2.13ZM80.909 241.746c1.772.696 2.857 2.12 2.423 3.18-.435 1.06-2.224 1.355-3.997.659-1.773-.696-2.857-2.119-2.423-3.179.435-1.06 2.224-1.356 3.997-.66ZM82.374 256.802c.538-1.121-.473-2.522-2.269-3.124-1.795-.601-3.688-.181-4.227.94-.538 1.121.473 2.522 2.269 3.124 1.795.606 3.682.181 4.227-.94Z" opacity=".33"/><path fill="#194484" d="M153.423 313.911a21.282 21.282 0 0 1-1.634-.671c-4.153-1.89-6.912-4.587-6.17-6.023.748-1.437 4.715-1.067 8.868.823 2.723 1.239 4.829 2.826 5.761 4.177-2.27.582-4.547 1.138-6.825 1.694ZM137.961 303.974l-2.002-1.487-3.464 1.002-.253.597 5.467.485.252-.597Z"/><path fill="#194484" d="m137.723 304.635-2.005-1.526-3.464.998 2.005 1.525 3.464-.997ZM142.796 302.608l-2.002-1.488-3.464 1.003-.253.597 5.461.485.258-.597Z"/><path fill="#194484" d="m142.552 303.27-1.999-1.526-3.464.997 2.005 1.526 3.458-.997ZM147.692 301.227l-2.003-1.488-3.463 1.003-.253.597 5.467.485.252-.597Z"/><path fill="#194484" d="m147.454 301.888-2.005-1.526-3.463.998 2.004 1.525 3.464-.997ZM74.49 254.985c-.018-.01-.035-.014-.047-.024-.069-.034.11.052.047.024Z"/><path fill="#276ED8" d="M86.526 264.859c-3.713-1.698-9.508-5.004-13.06-7.193.022-.305.044-.61.077-.917 3.785 2.286 10.783 6.292 14.405 8.351-.207-.031-1.18-.133-1.422-.241Z" opacity=".43"/></g><g filter="url(#d)"><rect width="55.169" height="54.218" x="295.284" y="165.189" fill="#06B25F" rx="6"/></g><path fill="#fff" d="M322.869 180.408c-7.783 0-14.429 4.733-17.122 11.415 2.693 6.681 9.339 11.414 17.122 11.414 7.782 0 14.428-4.733 17.121-11.414-2.693-6.682-9.339-11.415-17.121-11.415Zm0 19.024c-4.296 0-7.783-3.409-7.783-7.609 0-4.201 3.487-7.61 7.783-7.61s7.782 3.409 7.782 7.61c0 4.2-3.486 7.609-7.782 7.609Zm0-12.175c-2.584 0-4.67 2.039-4.67 4.566 0 2.526 2.086 4.565 4.67 4.565 2.583 0 4.669-2.039 4.669-4.565 0-2.527-2.086-4.566-4.669-4.566Z"/><path fill="#fff" fill-rule="evenodd" d="M310.503 173.75v-2.854H300.991v9.512h2.854v-6.658h6.658ZM335.234 210.847v2.853h9.512v-9.512h-2.853v6.659h-6.659ZM341.893 180.408h2.853v-9.512h-9.512v2.854h6.659v6.658ZM303.845 204.188h-2.854v9.512h9.512v-2.853h-6.658v-6.659Z" clip-rule="evenodd"/><g fill="#84B5FF" clip-path="url(#e)"><path d="M249.833 211.918v-5.383a1.793 1.793 0 1 0-3.588 0v.054c-3.234-5.013-6.751-9.503-8.678-11.865a1.785 1.785 0 0 0-2.523-.256 1.79 1.79 0 0 0-.255 2.523c3.5 4.291 6.266 8.098 8.425 11.43a1.787 1.787 0 0 0-2.257 1.135 1.792 1.792 0 0 0 1.133 2.269l3.965 1.322c3.951 7.188 4.384 11.346 3.191 12.538-1.272 1.27-5.942.83-14.909-4.579-5.435-3.278-11.486-7.803-17.672-13.163a209.507 209.507 0 0 0 7.608-7.237c8.993-8.995 16.685-18.293 21.972-26.487v.02a1.793 1.793 0 1 0 3.588 0v-5.383c0-.168-.07-.319-.115-.477 4.121-7.759 4.817-13.075 2.065-15.827-5.336-5.335-19.445 3.646-27.38 9.476a1.792 1.792 0 0 0-.384 2.507 1.797 1.797 0 0 0 2.507.384c12.891-9.467 20.819-11.734 22.72-9.83 1.153 1.154.86 5.137-3.232 12.552l-3.924 1.308a1.792 1.792 0 0 0-1.133 2.269 1.78 1.78 0 0 0 2.22 1.14c-5.145 7.961-12.651 17.017-21.44 25.81a206.118 206.118 0 0 1-7.78 7.381 205.342 205.342 0 0 1-7.779-7.381c-8.79-8.793-16.296-17.849-21.442-25.81a1.781 1.781 0 0 0 2.221-1.14 1.792 1.792 0 0 0-1.133-2.269l-3.924-1.308c-4.092-7.415-4.385-11.398-3.232-12.552 1.906-1.906 9.836.365 22.737 9.844a1.792 1.792 0 1 0 2.123-2.891c-7.938-5.838-22.064-14.83-27.397-9.49-2.752 2.752-2.056 8.069 2.065 15.827-.045.158-.115.309-.115.477v5.383a1.793 1.793 0 1 0 3.588 0v-.02c5.286 8.194 12.979 17.492 21.972 26.487a209.507 209.507 0 0 0 7.608 7.237c-6.186 5.36-12.237 9.885-17.672 13.163-8.976 5.413-13.644 5.842-14.909 4.579-1.192-1.193-.759-5.351 3.192-12.539l3.964-1.321a1.792 1.792 0 0 0 1.133-2.269 1.787 1.787 0 0 0-2.255-1.135c2.148-3.318 4.899-7.104 8.378-11.372a1.797 1.797 0 0 0-.258-2.525 1.802 1.802 0 0 0-2.524.257c-1.917 2.352-5.412 6.817-8.629 11.805v-.051c0-.992-.802-1.794-1.794-1.794s-1.794.802-1.794 1.794v5.383c0 .193.073.368.132.546-3.364 6.362-5.235 12.605-2.082 15.758 1.1 1.1 2.609 1.649 4.52 1.649 3.552 0 8.496-1.901 14.779-5.691 5.706-3.443 12.059-8.212 18.527-13.844 6.468 5.632 12.82 10.401 18.526 13.844 6.284 3.792 11.227 5.693 14.781 5.691 1.91 0 3.418-.549 4.518-1.649 3.153-3.152 1.284-9.393-2.081-15.757.059-.179.132-.354.132-.547Z"/><path d="M196.014 174.247a1.793 1.793 0 1 0 3.588 0 1.795 1.795 0 1 1 1.795 1.795 1.793 1.793 0 1 0 0 3.588 1.795 1.795 0 1 1-1.795 1.795 1.793 1.793 0 1 0-3.588-.001 5.388 5.388 0 0 0 5.383 5.383 5.388 5.388 0 0 0 5.382-5.383c0-1.377-.52-2.635-1.373-3.588a5.367 5.367 0 0 0 1.373-3.589 5.388 5.388 0 0 0-5.382-5.383 5.389 5.389 0 0 0-5.383 5.383ZM226.517 186.807a5.389 5.389 0 0 0 5.383-5.383v-7.177a5.39 5.39 0 0 0-5.383-5.383 5.389 5.389 0 0 0-5.383 5.383v7.177a5.388 5.388 0 0 0 5.383 5.383Zm-1.794-12.56a1.795 1.795 0 0 1 3.588 0v7.178a1.795 1.795 0 0 1-3.588 0v-7.178ZM213.957 186.807a5.389 5.389 0 0 0 5.383-5.383 5.388 5.388 0 0 0-5.383-5.382c-.552 0-1.073.107-1.574.262.405-1.633 1.593-3.851 5.162-3.851a1.794 1.794 0 1 0 0-3.589c-7.096 0-8.971 5.868-8.971 8.972v3.588a5.388 5.388 0 0 0 5.383 5.383Zm0-7.177a1.795 1.795 0 1 1-.002 3.588 1.795 1.795 0 0 1 .002-3.588ZM239.077 168.864a3.593 3.593 0 0 0-3.589-3.588 3.593 3.593 0 0 0-3.588 3.588 3.593 3.593 0 0 0 3.588 3.589 3.593 3.593 0 0 0 3.589-3.589Z"/></g><defs><filter id="b" width="135.645" height="101.915" x="389.286" y="44.643" color-interpolation-filters="sRGB" filterUnits="userSpaceOnUse"><feFlood flood-opacity="0" result="BackgroundImageFix"/><feColorMatrix in="SourceAlpha" result="hardAlpha" values="0 0 0 0 0 0 0 0 0 0 0 0 0 0 0 0 0 0 127 0"/><feOffset dy="4"/><feGaussianBlur stdDeviation="4"/><feColorMatrix values="0 0 0 0 0.0223125 0 0 0 0 0.00468749 0 0 0 0 0.225 0 0 0 0.25 0"/><feBlend in2="BackgroundImageFix" result="effect1_dropShadow_46_3219"/><feBlend in="SourceGraphic" in2="effect1_dropShadow_46_3219" result="shape"/></filter><filter id="c" width="129.07" height="110.843" x="59.496" y="215.122" color-interpolation-filters="sRGB" filterUnits="userSpaceOnUse"><feFlood flood-opacity="0" result="BackgroundImageFix"/><feColorMatrix in="SourceAlpha" result="hardAlpha" values="0 0 0 0 0 0 0 0 0 0 0 0 0 0 0 0 0 0 127 0"/><feOffset dy="4"/><feGaussianBlur stdDeviation="4"/><feColorMatrix values="0 0 0 0 0.0771528 0 0 0 0 0.152763 0 0 0 0 0.420833 0 0 0 0.25 0"/><feBlend in2="BackgroundImageFix" result="effect1_dropShadow_46_3219"/><feBlend in="SourceGraphic" in2="effect1_dropShadow_46_3219" result="shape"/></filter><filter id="d" width="77.169" height="76.218" x="289.284" y="159.189" color-interpolation-filters="sRGB" filterUnits="userSpaceOnUse"><feFlood flood-opacity="0" result="BackgroundImageFix"/><feColorMatrix in="SourceAlpha" result="hardAlpha" values="0 0 0 0 0 0 0 0 0 0 0 0 0 0 0 0 0 0 127 0"/><feMorphology in="SourceAlpha" operator="dilate" radius="3" result="effect1_dropShadow_46_3219"/><feOffset dx="5" dy="5"/><feGaussianBlur stdDeviation="4"/><feColorMatrix values="0 0 0 0 0 0 0 0 0 0 0 0 0 0 0 0 0 0 0.2 0"/><feBlend in2="BackgroundImageFix" result="effect1_dropShadow_46_3219"/><feBlend in="SourceGraphic" in2="effect1_dropShadow_46_3219" result="shape"/></filter><clipPath id="e"><path fill="#fff" d="M174.482 150.921h78.949v78.949h-78.949z"/></clipPath></defs></svg>