<svg xmlns="http://www.w3.org/2000/svg" width="550" height="395" fill="none"><mask id="a" width="550" height="395" x="0" y="0" maskUnits="userSpaceOnUse" style="mask-type:alpha"><path fill="#C4C4C4" d="M0 0h550v395H0z"/></mask><g mask="url(#a)"><path fill="#276ED8" d="M188.318 364.822c99.164 29.786 259.394.234 312.766-58.249 53.372-58.483-3.842-128.566-43.15-155.06-12.23-8.197-25.913-14.265-35.898-25.41-21.801-24.406-29.653-63.153-56.728-80.496-23.418-15.02-50.789-1.689-76.714-10.648-11.314-3.835-29.915-19.897-49.031-23.394C197.284 3.83 95.249 43.305 83.849 84.082c-11.4 40.777-31.32 239.953 104.469 280.74Z" opacity=".04"/><path fill="#84B5FF" d="m329.75 173.199 12.25-2.304v-10.982l-12.25-2.112a36.232 36.232 0 0 0-5.184-12.481l7.027-10.31-7.776-7.776-10.157 7.181a36.031 36.031 0 0 0-12.48-5.165L298.876 117h-10.983l-2.112 12.25a36.219 36.219 0 0 0-12.48 5.184l-10.291-7.027-7.776 7.776 7.181 10.157a36.184 36.184 0 0 0-5.165 12.48L245 160.124v10.982l12.25 2.113a36.066 36.066 0 0 0 5.184 12.48l-7.027 10.291 7.776 7.776 10.176-7.181a35.8 35.8 0 0 0 12.48 5.165l2.304 12.25h10.983l2.112-12.25a36.066 36.066 0 0 0 12.48-5.184l10.291 7.027 7.776-7.776-7.18-10.157a36.126 36.126 0 0 0 5.145-12.461Zm-36.25 15.053c-12.557 0-22.733-10.195-22.733-22.733s10.176-22.733 22.733-22.733 22.733 10.176 22.733 22.733-10.176 22.733-22.733 22.733Z" opacity=".2"/><path fill="#66D6A0" d="M65.56 125.32v102.47c0 5.1 4.14 9.24 9.24 9.24h126.8c5.1 0 9.24-4.14 9.24-9.24V125.32c0-5.1-4.14-9.24-9.24-9.24H74.79c-5.1.01-9.23 4.14-9.23 9.24Zm136.17 106.97H138.2L75 232c-1.89 0-3.75-1.24-3.75-3.13V124.24c0-1.89 1.53-3.42 3.42-3.42h127.06c1.89 0 3.42 1.53 3.42 3.42v104.63c0 1.89-1.53 3.42-3.42 3.42ZM343.91 235c-11.55 0-20.91 9.36-20.91 20.91s9.36 20.91 20.91 20.91 20.91-9.36 20.91-20.91S355.46 235 343.91 235Zm0 36.61c-8.68 0-15.71-7.03-15.71-15.71s7.03-15.71 15.71-15.71 15.71 7.03 15.71 15.71-7.03 15.71-15.71 15.71Z"/><path fill="#fff" stroke="#84B5FF" stroke-miterlimit="10" d="M298.67 173.81V306.8c0 3.42-2.77 6.19-6.19 6.19H89.68c-3.42 0-6.19-2.77-6.19-6.19V173.81c0-7.89 6.4-14.3 14.3-14.3h186.58c7.9 0 14.3 6.41 14.3 14.3Z"/><path fill="#84B5FF" d="M298.67 173.81v.6H83.49v-.6c0-7.89 6.4-14.3 14.3-14.3h186.58c7.9 0 14.3 6.41 14.3 14.3Z"/><path fill="#276ED8" d="M216.55 185.04h-11.38a1.83 1.83 0 0 1 0-3.66h11.38a1.83 1.83 0 0 1 0 3.66ZM238.06 185.04h-11.38a1.83 1.83 0 0 1 0-3.66h11.38c1.01 0 1.83.82 1.83 1.83.01 1.01-.81 1.83-1.83 1.83ZM259.91 185.04h-11.38a1.83 1.83 0 0 1 0-3.66h11.38a1.83 1.83 0 0 1 0 3.66ZM281.42 185.04h-11.38a1.83 1.83 0 0 1 0-3.66h11.38c1.01 0 1.83.82 1.83 1.83.01 1.01-.81 1.83-1.83 1.83ZM258.72 213.58H210.9c-.93 0-1.68-.75-1.68-1.68v-5.77c0-.93.75-1.68 1.68-1.68h47.82c.93 0 1.68.75 1.68 1.68v5.77c0 .92-.75 1.68-1.68 1.68ZM245.07 224.6h-34.23a1.62 1.62 0 1 1 0-3.24h34.23a1.62 1.62 0 1 1 0 3.24ZM279.32 232.44h-68.48a1.62 1.62 0 1 1 0-3.24h68.48a1.62 1.62 0 1 1 0 3.24ZM279.32 240.28h-68.48a1.62 1.62 0 1 1 0-3.24h68.48a1.62 1.62 0 1 1 0 3.24ZM279.099 248.24h-68.48a1.62 1.62 0 1 1 0-3.24h68.48a1.62 1.62 0 1 1 0 3.24Z" opacity=".2"/><path fill="#84B5FF" d="M298.67 284.34v22.46c0 3.42-2.77 6.19-6.19 6.19H89.68c-3.42 0-6.19-2.77-6.19-6.19v-22.46h215.18Z" opacity=".1"/><path fill="#84B5FF" d="M265.99 167.65c0 1.03-.83 1.86-1.86 1.86-1.03 0-1.86-.83-1.86-1.86 0-1.03.83-1.86 1.86-1.86 1.02 0 1.86.83 1.86 1.86ZM276.17 167.65c0 1.03-.83 1.86-1.86 1.86-1.03 0-1.86-.83-1.86-1.86 0-1.03.83-1.86 1.86-1.86 1.02 0 1.86.83 1.86 1.86ZM285.9 167.65c0 1.03-.83 1.86-1.86 1.86-1.03 0-1.86-.83-1.86-1.86 0-1.03.83-1.86 1.86-1.86 1.03 0 1.86.83 1.86 1.86Z"/><path stroke="#276ED8" stroke-miterlimit="10" d="M299 174.255v132.574c0 3.41-2.768 6.171-6.185 6.171H90.185c-3.417 0-6.185-2.761-6.185-6.171V174.255C84 166.39 90.395 160 98.288 160h186.424c7.893 0 14.288 6.39 14.288 14.255Z" opacity=".1"/><g filter="url(#b)"><path fill="#06B25F" d="M190.63 191.58v61.85a2.58 2.58 0 0 1-2.58 2.58h-82.47a2.58 2.58 0 0 1-2.58-2.58v-61.85a2.58 2.58 0 0 1 2.58-2.58h82.47c1.43.01 2.58 1.16 2.58 2.58Z"/></g><path fill="#66D6A0" d="M190.63 230.99v22.44a2.58 2.58 0 0 1-2.58 2.58h-82.47a2.58 2.58 0 0 1-2.58-2.58v-21.59s14.07-24.26 24.05-24.26c12.44 0 19.51 28.31 25.69 28.31s14.23-19.47 22.41-19.47c4.92-.01 11.22 8.08 15.48 14.57ZM179.38 202.87c0 3.15-2.56 5.71-5.71 5.71s-5.71-2.56-5.71-5.71 2.56-5.71 5.71-5.71c3.16.01 5.71 2.56 5.71 5.71Z"/><g filter="url(#c)"><path fill="#84B5FF" d="M246.88 104.01v42.37c0 2.22-1.8 4.01-4.01 4.01h-62a4.01 4.01 0 0 1-4.01-4.01v-42.37c0-2.22 1.8-4.01 4.01-4.01h62c2.21 0 4.01 1.8 4.01 4.01Z"/></g><path fill="#276ED8" d="M246.88 140.72v5.67c0 2.22-1.8 4.01-4.01 4.01h-62a4.01 4.01 0 0 1-4.01-4.01v-5.67h70.02Z"/><path fill="#84B5FF" d="M214.03 146.03c0 .47.14.9.39 1.27H183.1c-.7 0-1.27-.56-1.27-1.27 0-.7.57-1.27 1.27-1.27h31.32c-.24.37-.39.8-.39 1.27Z" opacity=".8"/><path fill="#84B5FF" d="M224.86 146.03c0 .7-.57 1.27-1.27 1.27h-9.16c-.25-.37-.39-.8-.39-1.27s.14-.9.39-1.27h9.16c.69.01 1.27.58 1.27 1.27Z"/><path fill="#fff" d="M218.53 146.03a2.242 2.242 0 0 1-2.25 2.25 2.242 2.242 0 0 1-2.24-2.25 2.242 2.242 0 0 1 2.24-2.25c.78 0 1.46.39 1.86.98.24.37.39.8.39 1.27Z"/><path fill="#84B5FF" d="M217.38 146.03c0 .61-.49 1.1-1.1 1.1-.61 0-1.1-.49-1.1-1.1 0-.61.49-1.1 1.1-1.1.61 0 1.1.49 1.1 1.1ZM234.3 147.15v-2.11c0-.28.29-.46.54-.33l2.11 1.06c.27.14.27.53 0 .66l-2.11 1.06a.376.376 0 0 1-.54-.34ZM239.99 146.74v-1.29c0-.17.14-.28.26-.2l1.02.65c.13.08.13.32 0 .41l-1.02.65c-.12.06-.26-.05-.26-.22Z"/><path fill="#84B5FF" d="M241.37 146.74v-1.29c0-.17.14-.28.26-.2l1.02.65c.13.08.13.32 0 .41l-1.02.65c-.12.06-.26-.05-.26-.22ZM231.7 146.74v-1.29c0-.17-.14-.28-.26-.2l-1.02.65c-.13.08-.13.32 0 .41l1.02.65c.12.06.26-.05.26-.22Z"/><path fill="#84B5FF" d="M230.32 146.74v-1.29c0-.17-.14-.28-.26-.2l-1.02.65c-.13.08-.13.32 0 .41l1.02.65c.12.06.26-.05.26-.22Z"/><path fill="#FBF8FF" d="M224.009 123.875c1.593-6.706-2.553-13.434-9.26-15.026-6.706-1.592-13.434 2.554-15.026 9.26-1.592 6.707 2.554 13.434 9.26 15.026 6.707 1.592 13.434-2.553 15.026-9.26Z"/><path fill="#276ED8" d="M208.57 124.84v-7.68c0-.85.94-1.36 1.65-.9l5.9 3.84c.65.42.65 1.37 0 1.79l-5.9 3.84c-.71.47-1.65-.04-1.65-.89Z"/><g filter="url(#d)"><path fill="#84B5FF" d="m116.918 312.08 8.082-1.52v-7.246l-8.082-1.394a23.893 23.893 0 0 0-3.421-8.234l4.637-6.803-5.131-5.131-6.701 4.738a23.798 23.798 0 0 0-8.235-3.408L96.547 275h-7.246l-1.394 8.082a23.896 23.896 0 0 0-8.234 3.421l-6.79-4.637-5.13 5.131 4.737 6.701a23.887 23.887 0 0 0-3.408 8.235L61 303.453v7.246l8.082 1.394a23.8 23.8 0 0 0 3.42 8.234l-4.636 6.79 5.13 5.131 6.715-4.738a23.642 23.642 0 0 0 8.234 3.408l1.52 8.082h7.247l1.393-8.082a23.802 23.802 0 0 0 8.235-3.421l6.79 4.637 5.13-5.131-4.737-6.701a23.855 23.855 0 0 0 3.395-8.222ZM93 322.012c-8.285 0-15-6.727-15-14.999 0-8.273 6.715-15 15-15s14.999 6.715 14.999 15-6.714 14.999-14.999 14.999Z"/></g><g filter="url(#e)"><path fill="#84B5FF" d="m50.687 273.322 5.857 2.053 2.737-4.726-4.758-3.961a18.084 18.084 0 0 0 .875-6.666L61 257.333l-1.416-5.282-6.16.572a18.147 18.147 0 0 0-4.09-5.329l2.053-5.855-4.727-2.737-3.962 4.757a18.106 18.106 0 0 0-6.669-.875L33.34 237l-5.283 1.416.573 6.173a18.132 18.132 0 0 0-5.332 4.089l-5.857-2.053-2.737 4.726 4.759 3.961a18.088 18.088 0 0 0-.876 6.666L13 264.667l1.416 5.282 6.175-.572a17.88 17.88 0 0 0 4.09 5.329l-2.052 5.855 4.726 2.737 3.963-4.757a18.107 18.107 0 0 0 6.669.875l2.69 5.584 5.283-1.416-.573-6.173a17.633 17.633 0 0 0 5.3-4.089Zm-19.369-2.529c-5.41-3.119-7.257-10.04-4.138-15.449 3.12-5.409 10.043-7.255 15.454-4.137 5.411 3.119 7.257 10.04 4.138 15.449-3.12 5.409-10.042 7.255-15.454 4.137Z"/></g><path fill="#66D6A0" d="M82 232h21v5H82z"/><g clip-path="url(#f)"><path fill="url(#g)" d="m168.365 327.007 10.25-50.04c2.035-9.934 11.51-16.043 20.894-13.315l4.241 1.232c1.523.443 3.099.669 4.686.672l9.469.02 38.963.085 10.262.022a19.661 19.661 0 0 0 5.202-.689l4.781-1.299c10.839-2.944 22.155 3.75 24.637 14.757l12.783 56.704c2.138 9.483-3.237 18.547-12.467 21.149-10.267 2.895-21.359-3.544-24.185-13.871l-4.389-16.037c-.911-3.327-3.904-5.737-7.3-5.894l-56.903-2.626c-3.077-.142-5.761 1.881-6.573 4.94l-3.881 14.624c-2.471 9.313-11.967 13.82-20.477 9.858-7.433-3.459-11.67-12.106-9.993-20.292Z"/><path fill="url(#h)" d="m218.231 291.952 31.697.887c2.822.079 5.12-2.535 5.12-5.838v-21.33l-41.592-.103v20.502c0 3.175 2.133 5.808 4.775 5.882Z" opacity=".3"/><path fill="url(#i)" d="M260.699 286.868c0 9.271 7.565 17.033 17.024 17.341 9.604.313 17.497-7.153 17.497-16.68 0-9.528-7.893-17.295-17.497-17.35-9.46-.054-17.024 7.418-17.024 16.689Z"/><path fill="#68A4FF" d="M241.39 308.931c0 7.494 6.01 13.86 13.508 14.223 7.589.369 13.809-5.539 13.809-13.199 0-7.661-6.22-14.034-13.809-14.235-7.497-.198-13.508 5.718-13.508 13.211Z"/><path fill="#4389F2" d="M243.994 309.029c0 6.049 4.858 11.178 10.904 11.458 6.106.284 11.1-4.477 11.1-10.634s-4.994-11.291-11.1-11.466c-6.046-.172-10.904 4.592-10.904 10.642Z"/><path fill="#276ED8" d="M247.616 309.205c0 3.402 2.732 6.286 6.132 6.444 3.434.159 6.242-2.517 6.242-5.979 0-3.463-2.808-6.35-6.242-6.448-3.4-.098-6.132 2.582-6.132 5.983Z"/><path fill="#68A4FF" d="M201.16 307.257c0 7.221 5.579 13.344 12.536 13.682 7.039.341 12.805-5.357 12.805-12.733 0-7.375-5.766-13.505-12.805-13.691-6.957-.184-12.536 5.522-12.536 12.742Z"/><path fill="#4389F2" d="M203.576 307.347c0 5.828 4.51 10.762 10.12 11.022 5.664.262 10.294-4.329 10.294-10.258 0-5.928-4.631-10.866-10.294-11.028-5.61-.16-10.12 4.436-10.12 10.264Z"/><path fill="#276ED8" d="M205.913 307.499c0 3.401 2.732 6.285 6.132 6.444 3.434.159 6.242-2.518 6.242-5.98 0-3.462-2.808-6.349-6.242-6.447-3.4-.098-6.132 2.582-6.132 5.983Z"/><path fill="#5483FC" d="M260.694 276.729a2.082 2.082 0 0 0 2.109-2.086v-3.705a2.12 2.12 0 0 0-2.109-2.118 2.088 2.088 0 0 0-2.101 2.091v3.694c0 1.16.94 2.111 2.101 2.124Z"/><path fill="url(#j)" d="M209.548 276.108c1.062.012 1.922-.88 1.922-1.991v-3.539c0-1.112-.861-2.018-1.922-2.023-1.058-.005-1.916.89-1.916 1.998v3.526c0 1.109.858 2.018 1.916 2.029Z"/><path fill="url(#k)" d="m275.913 274.867 3.625.034c1.069.01 1.936.872 1.936 1.924v4.138c0 .375-.112.74-.323 1.049l-1.64 2.404a1.901 1.901 0 0 1-1.608.822l-.36-.007a1.97 1.97 0 0 1-1.604-.876l-1.626-2.447a1.907 1.907 0 0 1-.32-1.052v-4.113a1.886 1.886 0 0 1 1.92-1.876Z"/><path fill="url(#l)" d="m275.913 299.451 3.625.105c1.069.031 1.936-.797 1.936-1.85v-4.137c0-.375-.112-.744-.323-1.061l-1.64-2.468a1.984 1.984 0 0 0-1.608-.884l-.36-.007a1.884 1.884 0 0 0-1.604.815l-1.626 2.384c-.208.305-.32.667-.32 1.04v4.113c.001 1.046.859 1.919 1.92 1.95Z"/><path fill="url(#m)" d="M290.332 285.63v3.609c0 1.06-.88 1.9-1.963 1.877l-4.241-.093a2.011 2.011 0 0 1-1.076-.343l-2.477-1.667a1.942 1.942 0 0 1-.865-1.604v-.355c0-.638.325-1.228.865-1.571l2.477-1.572a1.937 1.937 0 0 1 1.076-.301l4.241.069c1.084.018 1.963.891 1.963 1.951Z"/><path fill="url(#n)" d="M265.361 285.187v3.54c0 1.039.846 1.901 1.892 1.924l4.129.091c.376.008.743-.094 1.056-.293l2.444-1.553c.536-.341.859-.927.859-1.563v-.354c0-.636-.323-1.235-.859-1.597l-2.444-1.646a1.955 1.955 0 0 0-1.056-.334l-4.129-.066a1.85 1.85 0 0 0-1.892 1.851Z"/><path fill="#5483FC" d="m275.103 275.047 3.626.035c1.068.01 1.936.871 1.936 1.924v4.137c0 .375-.112.74-.323 1.049l-1.64 2.404a1.899 1.899 0 0 1-1.608.822l-.36-.006a1.974 1.974 0 0 1-1.604-.877l-1.626-2.446a1.903 1.903 0 0 1-.32-1.053v-4.112a1.886 1.886 0 0 1 1.919-1.877ZM275.103 299.631l3.626.105c1.068.031 1.936-.797 1.936-1.85v-4.137c0-.375-.112-.744-.323-1.061l-1.64-2.468a1.987 1.987 0 0 0-1.608-.884l-.36-.007a1.884 1.884 0 0 0-1.604.815l-1.626 2.384a1.84 1.84 0 0 0-.32 1.04v4.113c.001 1.046.859 1.919 1.919 1.95ZM289.523 285.81v3.61c0 1.06-.88 1.9-1.963 1.876l-4.241-.093a2.011 2.011 0 0 1-1.076-.343l-2.477-1.667a1.942 1.942 0 0 1-.865-1.604v-.355c0-.637.325-1.227.865-1.571l2.477-1.572a1.937 1.937 0 0 1 1.076-.301l4.241.069c1.084.018 1.963.891 1.963 1.951ZM264.551 285.367v3.54c0 1.039.847 1.901 1.893 1.924l4.129.091c.376.008.743-.093 1.056-.293l2.444-1.553c.536-.341.858-.927.858-1.563v-.354c0-.636-.322-1.235-.858-1.597l-2.444-1.646a1.946 1.946 0 0 0-1.056-.333l-4.129-.067a1.85 1.85 0 0 0-1.893 1.851Z"/><path fill="url(#o)" d="M207.986 285.765c0 8.842-6.801 15.788-15.086 15.518-8.168-.267-14.706-7.468-14.706-16.089 0-8.62 6.538-15.571 14.706-15.525 8.285.047 15.086 7.253 15.086 16.096Z"/><path fill="url(#p)" d="M189.119 275.506c0 2.217 1.69 4.038 3.782 4.068 2.099.03 3.807-1.755 3.807-3.987 0-2.231-1.708-4.052-3.807-4.067-2.092-.015-3.782 1.77-3.782 3.986Z"/><path fill="url(#q)" d="M189.119 295.3c0 2.216 1.69 4.066 3.782 4.131 2.099.065 3.807-1.69 3.807-3.921 0-2.232-1.708-4.081-3.807-4.132-2.092-.051-3.782 1.705-3.782 3.922Z"/><path fill="url(#r)" d="M202.331 281.597c-2.125-.033-3.843 1.751-3.843 3.985 0 2.235 1.718 4.085 3.843 4.133 2.133.049 3.868-1.735 3.868-3.985 0-2.249-1.735-4.099-3.868-4.133Z"/><path fill="url(#s)" d="M183.62 281.303c-2.059-.033-3.723 1.724-3.723 3.924 0 2.199 1.664 4.019 3.723 4.066 2.066.047 3.747-1.71 3.747-3.923 0-2.214-1.681-4.035-3.747-4.067Z"/><path fill="#5483FC" d="M188.31 275.687c0 2.216 1.69 4.038 3.781 4.067 2.099.03 3.807-1.755 3.807-3.987 0-2.231-1.708-4.052-3.807-4.067-2.091-.015-3.781 1.77-3.781 3.987ZM188.31 295.48c0 2.217 1.69 4.067 3.781 4.132 2.099.064 3.807-1.691 3.807-3.922s-1.708-4.081-3.807-4.132c-2.091-.051-3.781 1.706-3.781 3.922ZM201.522 281.777c-2.125-.033-3.843 1.751-3.843 3.986 0 2.234 1.718 4.084 3.843 4.133 2.133.048 3.868-1.736 3.868-3.985 0-2.25-1.735-4.1-3.868-4.134ZM182.811 281.483c-2.059-.033-3.723 1.724-3.723 3.924 0 2.199 1.664 4.019 3.723 4.066 2.066.047 3.746-1.71 3.746-3.923s-1.681-4.035-3.746-4.067Z"/><path fill="#66D6A0" d="M245.3 346.18h-29.21a2.09 2.09 0 1 1 0-4.18h29.21a2.09 2.09 0 1 1 0 4.18ZM245.3 356.61h-29.21a2.09 2.09 0 1 1 0-4.18h29.21a2.09 2.09 0 1 1 0 4.18Z"/></g></g><defs><linearGradient id="g" x1="272.642" x2="214.608" y1="261.445" y2="368.92" gradientUnits="userSpaceOnUse"><stop stop-color="#276ED8"/><stop offset=".996" stop-color="#84B5FF"/></linearGradient><linearGradient id="h" x1="221.999" x2="245.499" y1="293" y2="266" gradientUnits="userSpaceOnUse"><stop stop-color="#84B5FF"/><stop offset=".996" stop-color="#276ED8"/></linearGradient><linearGradient id="i" x1="268.257" x2="292.094" y1="303.04" y2="264.36" gradientUnits="userSpaceOnUse"><stop stop-color="#84B5FF"/><stop offset=".805" stop-color="#276ED8"/></linearGradient><linearGradient id="j" x1="217.753" x2="212.547" y1="248.434" y2="263.52" gradientUnits="userSpaceOnUse"><stop stop-color="#AA80F9"/><stop offset=".996" stop-color="#6165D7"/></linearGradient><linearGradient id="k" x1="260.397" x2="264.563" y1="295.973" y2="291.981" gradientUnits="userSpaceOnUse"><stop stop-color="#AA80F9"/><stop offset=".996" stop-color="#6165D7"/></linearGradient><linearGradient id="l" x1="268.305" x2="272.471" y1="304.225" y2="300.233" gradientUnits="userSpaceOnUse"><stop stop-color="#AA80F9"/><stop offset=".996" stop-color="#6165D7"/></linearGradient><linearGradient id="m" x1="268.322" x2="272.487" y1="304.242" y2="300.25" gradientUnits="userSpaceOnUse"><stop stop-color="#AA80F9"/><stop offset=".996" stop-color="#6165D7"/></linearGradient><linearGradient id="n" x1="260.433" x2="264.599" y1="296.01" y2="292.018" gradientUnits="userSpaceOnUse"><stop stop-color="#AA80F9"/><stop offset=".996" stop-color="#6165D7"/></linearGradient><linearGradient id="o" x1="183.999" x2="200.565" y1="300.37" y2="274.041" gradientUnits="userSpaceOnUse"><stop stop-color="#84B5FF"/><stop offset=".996" stop-color="#276ED8"/></linearGradient><linearGradient id="p" x1="172.405" x2="178.086" y1="296.113" y2="290.448" gradientUnits="userSpaceOnUse"><stop stop-color="#AA80F9"/><stop offset=".996" stop-color="#6165D7"/></linearGradient><linearGradient id="q" x1="182.306" x2="187.987" y1="306.042" y2="300.377" gradientUnits="userSpaceOnUse"><stop stop-color="#AA80F9"/><stop offset=".996" stop-color="#6165D7"/></linearGradient><linearGradient id="r" x1="182.161" x2="187.842" y1="305.897" y2="300.232" gradientUnits="userSpaceOnUse"><stop stop-color="#AA80F9"/><stop offset=".996" stop-color="#6165D7"/></linearGradient><linearGradient id="s" x1="172.626" x2="178.307" y1="296.335" y2="290.67" gradientUnits="userSpaceOnUse"><stop stop-color="#AA80F9"/><stop offset=".996" stop-color="#6165D7"/></linearGradient><filter id="b" width="107.63" height="87.01" x="93" y="183" color-interpolation-filters="sRGB" filterUnits="userSpaceOnUse"><feFlood flood-opacity="0" result="BackgroundImageFix"/><feColorMatrix in="SourceAlpha" result="hardAlpha" values="0 0 0 0 0 0 0 0 0 0 0 0 0 0 0 0 0 0 127 0"/><feOffset dy="4"/><feGaussianBlur stdDeviation="5"/><feColorMatrix values="0 0 0 0 0.0901961 0 0 0 0 0.0392157 0 0 0 0 0.396078 0 0 0 0.25 0"/><feBlend in2="BackgroundImageFix" result="effect1_dropShadow_480_5451"/><feBlend in="SourceGraphic" in2="effect1_dropShadow_480_5451" result="shape"/></filter><filter id="c" width="90.02" height="70.39" x="166.86" y="94" color-interpolation-filters="sRGB" filterUnits="userSpaceOnUse"><feFlood flood-opacity="0" result="BackgroundImageFix"/><feColorMatrix in="SourceAlpha" result="hardAlpha" values="0 0 0 0 0 0 0 0 0 0 0 0 0 0 0 0 0 0 127 0"/><feOffset dy="4"/><feGaussianBlur stdDeviation="5"/><feColorMatrix values="0 0 0 0 0.0901961 0 0 0 0 0.0392157 0 0 0 0 0.396078 0 0 0 0.25 0"/><feBlend in2="BackgroundImageFix" result="effect1_dropShadow_480_5451"/><feBlend in="SourceGraphic" in2="effect1_dropShadow_480_5451" result="shape"/></filter><filter id="d" width="84" height="84" x="51" y="269" color-interpolation-filters="sRGB" filterUnits="userSpaceOnUse"><feFlood flood-opacity="0" result="BackgroundImageFix"/><feColorMatrix in="SourceAlpha" result="hardAlpha" values="0 0 0 0 0 0 0 0 0 0 0 0 0 0 0 0 0 0 127 0"/><feOffset dy="4"/><feGaussianBlur stdDeviation="5"/><feColorMatrix values="0 0 0 0 0.0885677 0 0 0 0 0.0395834 0 0 0 0 0.395833 0 0 0 0.25 0"/><feBlend in2="BackgroundImageFix" result="effect1_dropShadow_480_5451"/><feBlend in="SourceGraphic" in2="effect1_dropShadow_480_5451" result="shape"/></filter><filter id="e" width="68" height="68" x="3" y="231" color-interpolation-filters="sRGB" filterUnits="userSpaceOnUse"><feFlood flood-opacity="0" result="BackgroundImageFix"/><feColorMatrix in="SourceAlpha" result="hardAlpha" values="0 0 0 0 0 0 0 0 0 0 0 0 0 0 0 0 0 0 127 0"/><feOffset dy="4"/><feGaussianBlur stdDeviation="5"/><feColorMatrix values="0 0 0 0 0.0885677 0 0 0 0 0.0395834 0 0 0 0 0.395833 0 0 0 0.25 0"/><feBlend in2="BackgroundImageFix" result="effect1_dropShadow_480_5451"/><feBlend in="SourceGraphic" in2="effect1_dropShadow_480_5451" result="shape"/></filter><clipPath id="f"><path fill="#fff" d="M315 263H168v94h147z"/></clipPath></defs></svg>