<svg xmlns="http://www.w3.org/2000/svg" width="358" height="436" fill="none"><g filter="url(#a)"><rect width="322" height="400" x="18" y="15" fill="#fff" rx="16"/></g><rect width="320" height="400" x="19" y="15" fill="#276ED8" opacity=".05" rx="16"/><g fill="#84B5FF" opacity=".2"><path d="m127.107 145.253-14.811-8.892a.532.532 0 0 0-.485-.037.456.456 0 0 0-.277.367l-1.129 9.297-13.95-8.376a.532.532 0 0 0-.486-.037.463.463 0 0 0-.276.367l-2.682 22.111c-.023.177-.015.21.139.321.154.112.28-.013.445-.087l15.713-6.821 8.063-3.5 9.556-4.15c.169-.073.352-.082.358-.262.007-.179-.015-.203-.178-.301ZM114.405 124.683c1.298 2.534.268 5.494-2.303 6.609-2.57 1.115-5.708-.035-7.006-2.569s-.267-5.493 2.303-6.608c2.571-1.117 5.708.034 7.006 2.568ZM191.17 85.079l7.83 1.473v7.02l-7.83 1.35a23.16 23.16 0 0 1-3.313 7.976l4.491 6.591-4.97 4.97-6.492-4.59a23.023 23.023 0 0 1-7.977 3.301l-1.473 7.83h-7.02l-1.35-7.83a23.142 23.142 0 0 1-7.977-3.313l-6.578 4.491-4.97-4.97 4.59-6.492a23.119 23.119 0 0 1-3.301-7.977L137 93.436v-7.02l7.83-1.35a23.044 23.044 0 0 1 3.313-7.977l-4.492-6.578 4.971-4.97 6.504 4.59a22.894 22.894 0 0 1 7.977-3.301l1.473-7.83h7.02l1.35 7.83a23.054 23.054 0 0 1 7.977 3.313l6.578-4.491 4.97 4.97-4.59 6.492a23.073 23.073 0 0 1 3.289 7.965ZM168 75.457c-8.026 0-14.531 6.517-14.531 14.53 0 8.015 6.505 14.531 14.531 14.531s14.53-6.504 14.53-14.53-6.504-14.53-14.53-14.53ZM237.145 217.754 217.869 207c-1.246-.744-1.869-1.894-1.869-3.449 0-1.623.656-2.773 1.967-3.45l19.178-10.855v3.957c0 .27-.098.642-.295 1.116-.197.406-.492.71-.885.913l-13.67 7.71c-.525.406-.525.812 0 1.217l14.85 8.218v5.377ZM253.564 186h3.836l-9.54 33.681c-.262.879-.852 1.319-1.77 1.319h-2.459l9.933-35ZM263.591 189.246l19.177 10.855c1.377.744 2.066 1.894 2.066 3.45 0 1.555-.689 2.671-2.066 3.348l-19.177 10.855v-3.957c0-.203.065-.541.196-1.014.197-.474.492-.812.885-1.015l13.769-7.609c.525-.405.525-.811 0-1.217l-14.85-8.319v-5.377Z"/></g><path fill="#276ED8" d="m200.876 78.077-62.965 26.126c-2.052.852-3.125 2.882-2.393 4.531l21.174 47.673c.733 1.65 2.967 2.235 4.986 1.308l61.939-28.436c1.843-.846 2.768-2.804 2.07-4.375l-20.16-45.389c-.697-1.57-2.778-2.215-4.651-1.438Z"/><g filter="url(#b)" opacity=".5"><path fill="#fff" d="m204.44 79.97 20.174 45.422c.476 1.071-.151 2.402-1.407 2.979l-28.452 13.038-33.529 15.366c-1.373.63-2.92.243-3.419-.88l-21.155-47.633c-.499-1.121.258-2.515 1.655-3.095l62.958-26.174c1.059-.44 2.217-.215 2.852.485.129.145.242.309.323.491Z"/></g><path fill="#fff" d="m201.194 89.926.65 1.461 3.596-1.527-.648-1.457-3.598 1.523ZM150.528 114.44l-6.831 2.922-.697-1.569 6.835-2.915.693 1.562ZM187.741 98.522l-32.829 14.043-.692-1.557L187.066 97l.675 1.522ZM163.596 114.947l-6.721 2.89-.691-1.557 6.724-2.883.688 1.55ZM200.216 99.202l-32.307 13.891-.686-1.546 32.323-13.856.67 1.511ZM157.084 127.444l-6.815 2.961-.697-1.57 6.818-2.952.694 1.561ZM194.205 111.32l-32.749 14.226-.692-1.558 32.765-14.19.676 1.522ZM170.124 126.891l-6.704 2.927-.691-1.557 6.707-2.92.688 1.55ZM206.653 110.942l-32.228 14.071-.686-1.546 32.244-14.036.67 1.511ZM213.197 112.131l-26.305 11.66-.681-1.534 26.317-11.631.669 1.505ZM163.565 143.791l-6.77 3.061-.697-1.57 6.773-3.053.694 1.562ZM200.441 127.117l-32.533 14.71-.692-1.557 32.549-14.676.676 1.523ZM176.531 143.073l-6.66 3.026-.691-1.557 6.663-3.019.688 1.55ZM212.82 126.583l-32.016 14.548-.686-1.545 32.031-14.513.671 1.51Z"/><path fill="#fff" d="m204.439 79.97 20.175 45.422c.475 1.071-.152 2.402-1.407 2.979l-28.451 13.038-21.43-48.25 30.801-13.686c.131.145.231.314.312.496Z"/><path fill="#276ED8" d="m200.876 78.076-62.965 26.127c-2.052.851-3.125 2.881-2.393 4.531l.952 2.143 69.964-29.321-.907-2.04c-.697-1.572-2.778-2.218-4.651-1.44Z"/><path fill="#fff" d="M141.747 105.799c.239.538-.05 1.174-.647 1.421-.596.248-1.275.012-1.514-.526-.24-.539.052-1.175.649-1.422.597-.247 1.274-.01 1.512.527ZM145.525 104.236c.238.536-.049 1.17-.642 1.415-.594.246-1.268.011-1.506-.526-.239-.537.049-1.171.644-1.416.592-.244 1.265-.008 1.504.527ZM149.279 102.683c.237.534-.048 1.166-.637 1.41-.59.244-1.261.009-1.499-.526-.237-.535.048-1.167.638-1.41.591-.244 1.261-.009 1.498.526Z"/><path fill="#84B5FF" d="m180.741 105.691 26.404-11.226a.361.361 0 0 0 .196-.202.37.37 0 0 0-.006-.283l-3.7-8.33a.369.369 0 0 0-.478-.192l-26.499 11.013a.356.356 0 0 0-.194.199.366.366 0 0 0 .007.281l3.797 8.55a.364.364 0 0 0 .473.19ZM208.961 98.165l-26.64 11.434a.354.354 0 0 0-.191.198.367.367 0 0 0 .008.278l11.861 26.706a.366.366 0 0 0 .489.189l26.355-12.075a.36.36 0 0 0 .179-.475l-11.577-26.065a.372.372 0 0 0-.484-.19Z" opacity=".35"/><path fill="#195BBE" d="M127.307 156 118 177l14-1.012L127.307 156Z"/><path fill="#276ED8" d="M237.884 154.919v70.523l-60.662 3.555-.131.002-3.939-40.109 3.93-41.682.141.008 60.661 7.703Z"/><path fill="#3E85EE" d="M176.994 147.208v81.791l-49.656-5.595v-67.522l10.113-1.774 17.826-3.111 21.717-3.789Z"/><path fill="#195BBE" d="m176.961 147.209 27.161 25.342 52.876 2.971-19.378-20.603-60.659-7.71Z"/><path fill="#2DA531" d="M253.057 141.763a2.702 2.702 0 0 1-1.624.237l-51.396-9.055a2.41 2.41 0 0 1-1.671-1.128c-.386-.636-.476-1.448-.246-2.227l8.701-29.431 56.165 11.493-8.193 28.071a3.326 3.326 0 0 1-1.736 2.04Z"/><path fill="#fff" d="m207.658 101.541-8.359 28.279c-.278.939.206 1.825 1.079 1.979l51.388 9.054c.787.139 1.638-.469 1.901-1.359l7.918-26.788-53.927-11.165Z"/><path fill="#06B25F" d="m263.103 108.093-53.064-11.158c-.896-.19-1.849.417-2.124 1.353l-.854 2.891 56.221 11.567.809-2.738c.261-.889-.181-1.745-.988-1.915Z"/><path fill="#A7CFFF" d="m213.156 129.096-3.887-.657 6.206-20.491 3.864.736-6.183 20.412Z" opacity=".2"/><path fill="#84B5FF" d="m213.116 128.873-3.878-.656 2.586-8.857 3.873.676-2.581 8.837Z"/><path fill="#A7CFFF" d="m223.651 131.29-3.806-.642 6.14-20.274 3.782.721-6.116 20.195Z" opacity=".2"/><path fill="#84B5FF" d="m223.532 131.29-3.802-.642 3.844-13.065 3.783.704-3.825 13.003Z"/><path fill="#A7CFFF" d="m233.92 133.438-3.726-.629 6.076-20.059 3.702.705-6.052 19.983Z" opacity=".2"/><path fill="#84B5FF" d="m233.966 133.108-3.724-.629 5.19-17.139 3.704.695-5.17 17.073Z"/><path fill="#A7CFFF" d="m243.978 135.542-3.648-.617 6.012-19.849 3.626.691-5.99 19.775Z" opacity=".2"/><path fill="#84B5FF" d="m243.74 135.201-3.634-.616 2.08-6.879 3.627.642-2.073 6.853Z"/><defs><filter id="a" width="358" height="436" x="0" y="0" color-interpolation-filters="sRGB" filterUnits="userSpaceOnUse"><feFlood flood-opacity="0" result="BackgroundImageFix"/><feColorMatrix in="SourceAlpha" result="hardAlpha" values="0 0 0 0 0 0 0 0 0 0 0 0 0 0 0 0 0 0 127 0"/><feMorphology in="SourceAlpha" operator="dilate" radius="2" result="effect1_dropShadow_52_124"/><feOffset dy="3"/><feGaussianBlur stdDeviation="8"/><feColorMatrix values="0 0 0 0 0.113976 0 0 0 0 0.199896 0 0 0 0 0.420833 0 0 0 0.15 0"/><feBlend in2="BackgroundImageFix" result="effect1_dropShadow_52_124"/><feBlend in="SourceGraphic" in2="effect1_dropShadow_52_124" result="shape"/></filter><filter id="b" width="112.275" height="102.31" x="124.498" y="70.767" color-interpolation-filters="sRGB" filterUnits="userSpaceOnUse"><feFlood flood-opacity="0" result="BackgroundImageFix"/><feColorMatrix in="SourceAlpha" result="hardAlpha" values="0 0 0 0 0 0 0 0 0 0 0 0 0 0 0 0 0 0 127 0"/><feOffset dy="4"/><feGaussianBlur stdDeviation="6"/><feColorMatrix values="0 0 0 0 0.160784 0 0 0 0 0.0941176 0 0 0 0 0.435294 0 0 0 0.15 0"/><feBlend in2="BackgroundImageFix" result="effect1_dropShadow_52_124"/><feBlend in="SourceGraphic" in2="effect1_dropShadow_52_124" result="shape"/></filter></defs></svg>