<svg xmlns="http://www.w3.org/2000/svg" width="24" height="24" fill="none"><path fill="#0D6EB7" d="M23.286 14.533c1.736-7.801-5.1-14.888-13.126-13.528C5.802-1.699 0 1.357 0 6.541c0 1.206.333 2.334.911 3.307C-.702 17.668 6.19 24.653 14.21 23.2c5.67 2.998 11.934-2.98 9.077-8.666Zm-7.63 4.705c-2.107.866-5.572.87-7.669-.227-2.99-1.594-3.521-5.183-.942-5.183 1.944 0 1.329 2.266 3.292 3.19.9.417 2.838.46 3.964-.3 1.112-.744 1.01-1.914.405-2.474-1.601-1.478-6.183-.89-8.278-3.479-.91-1.123-1.082-3.103.037-4.54 1.95-2.509 7.672-2.662 10.133-.767 2.271 1.758 1.658 4.092-.175 4.092-2.205 0-1.046-2.885-4.606-2.885-2.58 0-3.595 1.835-1.778 2.728 2.464 1.223 8.741.815 8.741 5.596-.005 1.99-1.225 3.474-3.125 4.249Z"/></svg>