<svg width="424" height="374" viewBox="0 0 424 374" fill="none" xmlns="http://www.w3.org/2000/svg">
<path opacity="0.04" d="M87.58 299.689C146.117 350.342 219.616 358.052 273.398 333.277C327.181 308.501 320.923 272.528 302.111 242.193C296.244 232.787 405.344 209.678 401.885 198.89C394.355 175.283 389.163 171.115 375.933 150.853C364.498 133.314 268.049 119.265 253.096 105.204C246.547 99.1202 224.44 40.2377 158.748 15.6793C102.611 -5.30735 56.1099 34.1926 40.1067 77.3842C24.1035 120.576 7.42305 230.329 87.58 299.689Z" fill="#276ED8"/>
<path opacity="0.2" d="M406.397 165.669L415.111 164.03V156.218L406.397 154.716C405.728 151.506 404.457 148.501 402.709 145.838L407.708 138.504L402.177 132.972L394.952 138.08C392.288 136.332 389.297 135.075 386.074 134.406L384.435 125.692H376.623L375.12 134.406C371.911 135.075 368.906 136.346 366.243 138.094L358.922 133.095L353.39 138.626L358.498 145.852C356.75 148.515 355.494 151.52 354.824 154.729L346.111 156.368V164.181L354.824 165.683C355.494 168.906 356.764 171.897 358.512 174.561L353.513 181.881L359.045 187.413L366.284 182.305C368.947 184.053 371.952 185.323 375.161 185.979L376.8 194.692H384.612L386.115 185.979C389.338 185.309 392.329 184.039 394.993 182.291L402.313 187.29L407.845 181.758L402.737 174.533C404.471 171.884 405.728 168.893 406.397 165.669ZM380.611 176.377C371.678 176.377 364.44 169.125 364.44 160.206C364.44 151.287 371.678 144.035 380.611 144.035C389.543 144.035 396.782 151.274 396.782 160.206C396.782 169.138 389.543 176.377 380.611 176.377Z" fill="#84B5FF"/>
<path d="M232.111 178.561V265.824C232.111 270.167 235.644 273.692 239.997 273.692H348.224C352.577 273.692 356.111 270.167 356.111 265.824V178.561C356.111 174.218 352.577 170.692 348.224 170.692H239.989C235.636 170.701 232.111 174.218 232.111 178.561ZM348.335 269.656H294.111H239.886C238.273 269.656 236.967 268.353 236.967 266.743V177.641C236.967 176.032 238.273 174.729 239.886 174.729H348.335C349.948 174.729 351.254 176.032 351.254 177.641V266.743C351.254 268.353 349.948 269.656 348.335 269.656Z" fill="#66D6A0"/>
<path d="M346.021 71.6924C334.471 71.6924 325.111 81.0524 325.111 92.6024C325.111 104.152 334.471 113.512 346.021 113.512C357.571 113.512 366.931 104.152 366.931 92.6024C366.931 81.0524 357.571 71.6924 346.021 71.6924ZM346.021 108.302C337.341 108.302 330.311 101.272 330.311 92.5924C330.311 83.9124 337.341 76.8824 346.021 76.8824C354.701 76.8824 361.731 83.9124 361.731 92.5924C361.731 101.272 354.701 108.302 346.021 108.302Z" fill="#66D6A0"/>
<path d="M313.781 106.503V239.493C313.781 242.913 311.011 245.683 307.591 245.683H104.791C101.371 245.683 98.601 242.913 98.601 239.493V106.503C98.601 98.6126 105.001 92.2026 112.901 92.2026H299.481C307.381 92.2026 313.781 98.6126 313.781 106.503Z" fill="white" stroke="#84B5FF" stroke-miterlimit="10"/>
<path d="M198.252 124.013H174.115V126.042H198.252V124.013Z" fill="#84B5FF"/>
<path d="M226.562 124.013H202.425V126.042H226.562V124.013Z" fill="#06B25F"/>
<path d="M218.999 134.96H181.572V136.988H218.999V134.96Z" fill="#276ED8"/>
<path d="M244.202 134.96H225.183V136.988H244.202V134.96Z" fill="#84B5FF"/>
<path d="M210.983 145.892H194.549V147.92H210.983V145.892Z" fill="#06B25F"/>
<path d="M275.01 145.892H220.484V147.92H275.01V145.892Z" fill="#06B25F"/>
<path d="M269.631 156.833H207.315V158.861H269.631V156.833Z" fill="#276ED8"/>
<path d="M210.914 167.765H191.737V169.793H210.914V167.765Z" fill="#84B5FF"/>
<path d="M238.298 167.765H219.121V169.793H238.298V167.765Z" fill="#276ED8"/>
<path d="M202.006 224.525H174.115V226.553H202.006V224.525Z" fill="#84B5FF"/>
<path d="M239.66 224.525H211.769V226.553H239.66V224.525Z" fill="#06B25F"/>
<path d="M276.319 224.525H248.428V226.553H276.319V224.525Z" fill="#84B5FF"/>
<path d="M236.099 213.575H181.573V215.603H236.099V213.575Z" fill="#276ED8"/>
<path d="M299.111 213.575H244.586V215.603H299.111V213.575Z" fill="#84B5FF"/>
<path d="M248.656 202.646H194.549V204.674H248.656V202.646Z" fill="#84B5FF"/>
<path d="M268.426 202.646H253.371V204.674H268.426V202.646Z" fill="#06B25F"/>
<path d="M211.385 191.701H191.021V193.73H211.385V191.701Z" fill="#06B25F"/>
<path d="M242.56 191.701H222.195V193.73H242.56V191.701Z" fill="#276ED8"/>
<path d="M276.041 191.701H255.677V193.73H276.041V191.701Z" fill="#84B5FF"/>
<path d="M243.189 180.773H214.633V182.802H243.189V180.773Z" fill="#06B25F"/>
<path d="M203.857 180.773H175.302V182.802H203.857V180.773Z" fill="#276ED8"/>
<path d="M167.39 122.074H164.788V124.68H167.39V122.074Z" fill="#84B5FF"/>
<path d="M167.39 217.442H164.787V212.144H167.39V217.442ZM167.39 204.188H164.787V198.89H167.39V204.188ZM167.39 190.934H164.787V185.635H167.39V190.934ZM167.39 177.679H164.787V172.381H167.39V177.679ZM167.39 164.425H164.787V159.127H167.39V164.425ZM167.39 151.171H164.787V145.872H167.39V151.171ZM167.39 137.916H164.787V132.618H167.39V137.916Z" fill="#84B5FF"/>
<path d="M167.39 225.396H164.788V228.002H167.39V225.396Z" fill="#84B5FF"/>
<path opacity="0.7" d="M98.1107 108.692C98.1107 105.379 100.797 102.692 104.111 102.692H154.111V245.692H104.111C100.797 245.692 98.1107 243.006 98.1107 239.692V108.692Z" fill="#84B5FF"/>
<path d="M126.726 126.016H102.59V128.044H126.726V126.016Z" fill="#06B25F"/>
<path d="M145.2 138.41H107.773V140.438H145.2V138.41Z" fill="#84B5FF"/>
<path d="M145.2 150.806H107.773V152.835H145.2V150.806Z" fill="#84B5FF"/>
<path d="M145.2 163.202H107.773V165.231H145.2V163.202Z" fill="#84B5FF"/>
<path d="M145.2 175.595H107.773V177.623H145.2V175.595Z" fill="#84B5FF"/>
<path d="M147.144 200.384H109.716V202.412H147.144V200.384Z" fill="#84B5FF"/>
<path d="M147.144 212.781H109.716V214.81H147.144V212.781Z" fill="#84B5FF"/>
<path d="M147.144 225.173H109.716V227.201H147.144V225.173Z" fill="#84B5FF"/>
<path d="M126.726 187.989H102.59V190.018H126.726V187.989Z" fill="#06B25F"/>
<path d="M313.781 106.503V107.103H98.601V106.503C98.601 98.6126 105.001 92.2026 112.901 92.2026H299.481C307.381 92.2026 313.781 98.6126 313.781 106.503Z" fill="#84B5FF"/>
<path opacity="0.3" d="M281.101 100.342C281.101 101.372 280.271 102.202 279.241 102.202C278.211 102.202 277.381 101.372 277.381 100.342C277.381 99.3124 278.211 98.4824 279.241 98.4824C280.261 98.4824 281.101 99.3124 281.101 100.342Z" fill="white"/>
<path opacity="0.3" d="M291.281 100.342C291.281 101.372 290.451 102.202 289.421 102.202C288.391 102.202 287.561 101.372 287.561 100.342C287.561 99.3124 288.391 98.4824 289.421 98.4824C290.441 98.4824 291.281 99.3124 291.281 100.342Z" fill="white"/>
<path opacity="0.3" d="M301.011 100.342C301.011 101.372 300.181 102.202 299.151 102.202C298.121 102.202 297.291 101.372 297.291 100.342C297.291 99.3124 298.121 98.4824 299.151 98.4824C300.181 98.4824 301.011 99.3124 301.011 100.342Z" fill="white"/>
<path d="M313.781 106.503V239.493C313.781 242.913 311.011 245.683 307.591 245.683H104.791C101.371 245.683 98.601 242.913 98.601 239.493V106.503C98.601 98.6126 105.001 92.2026 112.901 92.2026H299.481C307.381 92.2026 313.781 98.6126 313.781 106.503Z" stroke="#84B5FF" stroke-miterlimit="10"/>
<g filter="url(#filter0_d_46_3036)">
<rect x="281.111" y="157.692" width="106" height="47.3467" rx="6" fill="#84B5FF"/>
</g>
<path d="M317.517 190.521L312.097 181.352L317.517 172.182L320.13 181.352L317.517 190.521ZM305.454 189.626L298.643 182.833H309.484L314.904 192.002L305.454 189.626ZM305.454 173.049L314.876 170.673L309.456 179.842H298.616L305.454 173.049ZM319.296 166.172L306.982 169.387L305.148 172.546L301.451 172.518L292.417 181.352L301.451 190.185L305.148 190.157L306.982 193.316L319.296 196.559L322.603 184.51L320.741 181.38L322.603 178.249L319.296 166.172ZM347.258 175.09C345.618 175.09 344.506 175.789 343.672 177.075H343.617V175.425H340.726V187.558H343.672V180.681C343.672 179.032 344.701 177.885 346.118 177.885C347.453 177.885 348.453 178.696 348.453 180.122V187.586H351.4V179.646C351.427 176.991 349.76 175.09 347.258 175.09ZM336.251 182.442C336.251 184.063 335.334 185.181 333.833 185.181C332.471 185.181 331.609 184.399 331.609 182.973V175.425H328.663V183.532C328.663 186.188 330.164 187.921 332.86 187.921C334.556 187.921 335.5 187.278 336.307 186.16H336.39V187.586H339.225V175.425H336.279V182.442H336.251ZM352.984 175.425H355.93V187.558H352.984V175.425ZM352.984 171.652H355.93V174.084H352.984V171.652ZM372.635 175.425L370.884 180.904C370.495 182.023 370.189 183.56 370.189 183.56H370.106C370.106 183.56 369.717 182.023 369.328 180.904L367.354 175.425H364.185L367.437 184.063C368.132 185.908 368.355 186.691 368.355 187.362C368.355 188.368 367.827 189.011 366.576 189.011H365.436V191.555H367.327C369.772 191.555 370.634 190.577 371.551 187.893L375.804 175.453H372.635V175.425ZM361.434 184.007V177.578H363.324V175.453H361.434V171.652H358.488V175.425H356.82V177.55H358.488V184.678C358.488 186.971 360.211 187.586 361.767 187.586C363.046 187.586 363.379 187.53 363.379 187.53V185.181H362.629C361.934 185.209 361.434 184.902 361.434 184.007Z" fill="white"/>
<g filter="url(#filter1_d_46_3036)">
<path d="M186.871 254.257L198.111 252.143V242.066L186.871 240.128C186.008 235.988 184.37 232.112 182.115 228.677L188.562 219.217L181.428 212.082L172.108 218.671C168.673 216.416 164.815 214.795 160.657 213.932L158.543 202.692H148.467L146.529 213.932C142.389 214.795 138.513 216.433 135.078 218.688L125.635 212.241L118.5 219.375L125.089 228.695C122.834 232.13 121.213 236.006 120.35 240.146L109.111 242.26V252.336L120.35 254.274C121.213 258.432 122.852 262.29 125.107 265.725L118.659 275.168L125.794 282.303L135.131 275.714C138.566 277.969 142.442 279.607 146.582 280.453L148.696 291.692H158.772L160.71 280.453C164.868 279.59 168.726 277.951 172.161 275.696L181.604 282.144L188.739 275.009L182.15 265.69C184.387 262.272 186.008 258.414 186.871 254.257ZM153.611 268.068C142.089 268.068 132.752 258.714 132.752 247.21C132.752 235.706 142.089 226.352 153.611 226.352C165.132 226.352 174.469 235.689 174.469 247.21C174.469 258.731 165.132 268.068 153.611 268.068Z" fill="#276ED8"/>
</g>
<g filter="url(#filter2_d_46_3036)">
<path d="M234.798 315.015L240.654 317.067L243.392 312.342L238.633 308.38C239.349 306.2 239.636 303.925 239.509 301.714L245.111 299.025L243.694 293.743L237.535 294.316C236.532 292.327 235.148 290.513 233.445 288.986L235.498 283.131L230.771 280.395L226.808 285.152C224.628 284.436 222.352 284.149 220.14 284.277L217.45 278.692L212.166 280.108L212.739 286.281C210.75 287.284 208.936 288.668 207.408 290.37L201.551 288.318L198.814 293.043L203.572 297.005C202.856 299.2 202.57 301.443 202.697 303.671L197.111 306.36L198.527 311.642L204.702 311.069C205.705 313.058 207.074 314.871 208.792 316.399L206.739 322.254L211.466 324.99L215.429 320.233C217.625 320.949 219.869 321.235 222.097 321.108L224.787 326.692L230.071 325.276L229.498 319.103C231.456 318.117 233.27 316.749 234.798 315.015ZM215.429 312.485C210.018 309.367 208.172 302.446 211.291 297.036C214.41 291.627 221.334 289.782 226.745 292.9C232.156 296.018 234.002 302.939 230.883 308.348C227.763 313.758 220.84 315.603 215.429 312.485Z" fill="#84B5FF"/>
</g>
<g filter="url(#filter3_d_46_3036)">
<rect x="77.1107" y="75.6924" width="58" height="57" rx="6" fill="#06B25F"/>
</g>
<path d="M96.8538 113.618L83.577 106.438C82.719 105.941 82.29 105.174 82.29 104.135C82.29 103.051 82.7416 102.284 83.6448 101.832L96.8538 94.5839V97.2257C96.8538 97.4063 96.7861 97.6547 96.6506 97.9708C96.5151 98.2418 96.3119 98.445 96.0409 98.5805L86.6253 103.729C86.264 104 86.264 104.271 86.6253 104.541L96.8538 110.028V113.618Z" fill="white"/>
<path d="M108.163 92.4163H110.805L104.234 114.905C104.053 115.493 103.647 115.786 103.015 115.786H101.321L108.163 92.4163Z" fill="white"/>
<path d="M115.069 94.5839L128.278 101.832C129.226 102.329 129.7 103.096 129.7 104.135C129.7 105.174 129.226 105.919 128.278 106.37L115.069 113.618V110.977C115.069 110.841 115.114 110.615 115.204 110.299C115.34 109.983 115.543 109.757 115.814 109.622L125.297 104.541C125.658 104.271 125.658 104 125.297 103.729L115.069 98.174V94.5839Z" fill="white"/>
<defs>
<filter id="filter0_d_46_3036" x="275.111" y="151.692" width="128" height="69.3467" filterUnits="userSpaceOnUse" color-interpolation-filters="sRGB">
<feFlood flood-opacity="0" result="BackgroundImageFix"/>
<feColorMatrix in="SourceAlpha" type="matrix" values="0 0 0 0 0 0 0 0 0 0 0 0 0 0 0 0 0 0 127 0" result="hardAlpha"/>
<feMorphology radius="3" operator="dilate" in="SourceAlpha" result="effect1_dropShadow_46_3036"/>
<feOffset dx="5" dy="5"/>
<feGaussianBlur stdDeviation="4"/>
<feColorMatrix type="matrix" values="0 0 0 0 0 0 0 0 0 0 0 0 0 0 0 0 0 0 0.2 0"/>
<feBlend mode="normal" in2="BackgroundImageFix" result="effect1_dropShadow_46_3036"/>
<feBlend mode="normal" in="SourceGraphic" in2="effect1_dropShadow_46_3036" result="shape"/>
</filter>
<filter id="filter1_d_46_3036" x="99.1107" y="196.692" width="109" height="109" filterUnits="userSpaceOnUse" color-interpolation-filters="sRGB">
<feFlood flood-opacity="0" result="BackgroundImageFix"/>
<feColorMatrix in="SourceAlpha" type="matrix" values="0 0 0 0 0 0 0 0 0 0 0 0 0 0 0 0 0 0 127 0" result="hardAlpha"/>
<feOffset dy="4"/>
<feGaussianBlur stdDeviation="5"/>
<feColorMatrix type="matrix" values="0 0 0 0 0.0885677 0 0 0 0 0.0395834 0 0 0 0 0.395833 0 0 0 0.25 0"/>
<feBlend mode="normal" in2="BackgroundImageFix" result="effect1_dropShadow_46_3036"/>
<feBlend mode="normal" in="SourceGraphic" in2="effect1_dropShadow_46_3036" result="shape"/>
</filter>
<filter id="filter2_d_46_3036" x="187.111" y="272.692" width="68" height="68" filterUnits="userSpaceOnUse" color-interpolation-filters="sRGB">
<feFlood flood-opacity="0" result="BackgroundImageFix"/>
<feColorMatrix in="SourceAlpha" type="matrix" values="0 0 0 0 0 0 0 0 0 0 0 0 0 0 0 0 0 0 127 0" result="hardAlpha"/>
<feOffset dy="4"/>
<feGaussianBlur stdDeviation="5"/>
<feColorMatrix type="matrix" values="0 0 0 0 0.0885677 0 0 0 0 0.0395834 0 0 0 0 0.395833 0 0 0 0.25 0"/>
<feBlend mode="normal" in2="BackgroundImageFix" result="effect1_dropShadow_46_3036"/>
<feBlend mode="normal" in="SourceGraphic" in2="effect1_dropShadow_46_3036" result="shape"/>
</filter>
<filter id="filter3_d_46_3036" x="71.1107" y="69.6924" width="80" height="79" filterUnits="userSpaceOnUse" color-interpolation-filters="sRGB">
<feFlood flood-opacity="0" result="BackgroundImageFix"/>
<feColorMatrix in="SourceAlpha" type="matrix" values="0 0 0 0 0 0 0 0 0 0 0 0 0 0 0 0 0 0 127 0" result="hardAlpha"/>
<feMorphology radius="3" operator="dilate" in="SourceAlpha" result="effect1_dropShadow_46_3036"/>
<feOffset dx="5" dy="5"/>
<feGaussianBlur stdDeviation="4"/>
<feColorMatrix type="matrix" values="0 0 0 0 0 0 0 0 0 0 0 0 0 0 0 0 0 0 0.2 0"/>
<feBlend mode="normal" in2="BackgroundImageFix" result="effect1_dropShadow_46_3036"/>
<feBlend mode="normal" in="SourceGraphic" in2="effect1_dropShadow_46_3036" result="shape"/>
</filter>
</defs>
</svg>
