<svg width="437" height="410" viewBox="0 0 437 410" fill="none" xmlns="http://www.w3.org/2000/svg">
<path opacity="0.3" d="M331.769 324.443C385.082 272.781 436.879 225.321 402.321 161.2C379.221 118.339 333.446 115.678 290.538 85.2183C259.269 63.0213 257.409 45.6685 211.508 27.3265C169.184 10.4139 131.707 23.616 98.2452 48.6592C59.4589 77.6875 91.1755 108.687 64.908 158.84C45.2441 196.383 44.3582 180.372 19.2432 239.383C-2.2192 289.812 46.9111 344.583 93.6676 360.534C140.424 376.485 258.765 395.186 331.769 324.443Z" fill="#276ED8"/>
<mask id="mask0_168_554" style="mask-type:alpha" maskUnits="userSpaceOnUse" x="21" y="19" width="393" height="357">
<path d="M331.768 324.442C385.082 272.78 436.879 225.321 402.321 161.2C379.221 118.338 333.446 115.678 290.537 85.218C259.269 63.021 257.409 45.6681 211.508 27.3262C169.184 10.4136 131.707 23.6157 98.2451 48.6589C59.4587 77.6872 107.463 121.499 64.9077 158.839C29.5707 189.846 52.3576 171.372 27.2425 230.383C5.78016 280.811 46.9108 344.582 93.6673 360.534C140.424 376.485 258.764 395.185 331.768 324.442Z" fill="#276ED8"/>
</mask>
<g mask="url(#mask0_168_554)">
<path d="M387.46 89.1122C304.61 8.61524 257.47 -45.2574 136.628 -16.0612C110.59 -9.77034 76.4198 22.0498 76.4198 22.0498C76.4198 22.0498 124.913 137.211 195.766 127.76C313.117 112.107 328.103 221.274 414.275 209.781C441.917 206.094 494.005 157.295 494.005 157.295C494.005 157.295 437.241 137.479 387.46 89.1122Z" fill="#87ABE2" fill-opacity="0.7"/>
<path fill-rule="evenodd" clip-rule="evenodd" d="M134.738 287.99L131.212 288.169L130.307 293.233L135.823 293.591L134.738 287.99Z" fill="#AFD600"/>
<path fill-rule="evenodd" clip-rule="evenodd" d="M104.717 291.232L146.083 291.995V292.269L104.764 292.448L104.717 291.232Z" fill="#D99292"/>
<path fill-rule="evenodd" clip-rule="evenodd" d="M94.9648 295.694L96.1718 284.388L95.012 275.015L160.131 275.411L159.933 279.805L160.31 282.908L157.528 284.105L160.621 284.662L160.433 285.944L160.376 287.49L143.582 287.67L160.338 288.622L160.084 296.099L94.9648 295.694Z" fill="#B3B3B3"/>
<path fill-rule="evenodd" clip-rule="evenodd" d="M133.409 280.579L99.9628 278.769L158.095 278.137L158.113 275.402L96.0402 274.931L97.3415 284.483L95.9082 295.609L158.095 294.864L157.915 290.706L100.859 291.244L129.439 289.075L102.763 288.981L111.891 285.643L145.799 284.917L153.304 283.021L101.047 283.464L132.777 281.927L133.409 280.579Z" fill="#999999"/>
<path fill-rule="evenodd" clip-rule="evenodd" d="M142.186 287.038L138.659 287.217L136.49 288.169L134.793 294.515L139.178 294.477L142.827 289.319L142.186 287.038Z" fill="#868686"/>
<path fill-rule="evenodd" clip-rule="evenodd" d="M95.01 275.016L160.129 275.412L161.081 273.526L93.8125 273.611L95.01 275.016Z" fill="#84B5FF"/>
<path fill-rule="evenodd" clip-rule="evenodd" d="M117.858 280.843L114.067 281.022L113.162 287.17L119.131 287.085L117.858 280.843Z" fill="#06B25F"/>
<path fill-rule="evenodd" clip-rule="evenodd" d="M142.187 287.038L138.66 287.217L138.924 291.29L143.629 292.186L142.187 287.038Z" fill="#66D6A0"/>
<path fill-rule="evenodd" clip-rule="evenodd" d="M93.3321 274.223C93.5584 273.629 94.2184 273.328 94.8219 273.554C95.416 273.78 95.7177 274.44 95.4914 275.044C94.0959 278.759 93.3887 282.229 93.3792 285.454C93.3698 288.65 94.0298 291.621 95.3688 294.355C95.6517 294.93 95.416 295.619 94.8408 295.892C94.2656 296.175 93.5772 295.939 93.3038 295.364C91.8045 292.299 91.0596 288.99 91.0785 285.444C91.0879 281.927 91.8328 278.184 93.3321 274.223Z" fill="#276ED8"/>
<path fill-rule="evenodd" clip-rule="evenodd" d="M111.975 246.803H135.661V259.457L130.239 273.563H117.764L111.975 260.362V246.803Z" fill="#06B25F"/>
<path d="M135.661 246.803H111.975V248.217H135.661V246.803Z" fill="#66D6A0"/>
<path fill-rule="evenodd" clip-rule="evenodd" d="M132.352 253.677L131.767 251.367L132.663 249.698L134.521 249.311L141.602 249.754C143.714 249.886 143.384 249.462 143.894 251.385C145.214 256.421 146.647 259.646 138.736 263.615C138.274 263.842 132.899 265.699 132.314 265.699L131.654 263.304L132.409 260.824C132.729 260.824 134.181 260.428 134.577 260.428C137.859 260.485 142.243 260.919 142.8 256.93C142.517 255.798 142.206 254.884 141.763 253.884C141.14 252.479 141.036 252.715 139.584 252.932L134.936 253.611L132.352 253.677Z" fill="#66D6A0"/>
<path fill-rule="evenodd" clip-rule="evenodd" d="M117.378 211.783C121.555 206.823 121.536 200.967 123.347 195.687C125.044 196.611 126.675 198.591 126.779 200.392C126.374 201.957 118.811 210.538 117.378 211.783ZM130.805 206.71C126.166 211.726 125.44 219.269 131.739 224.097C129.429 215.281 129.41 215.733 130.805 206.71ZM131.06 232.659C122.828 223.013 120.207 221.268 122.922 211.141C113.889 227.388 112.107 223.324 125.902 234.743L120.028 241.343L131.06 232.659Z" fill="white"/>
<path d="M244.797 348.958H234.557V383.205H244.797V348.958Z" fill="#1C1336"/>
<path d="M240.036 356.417C269.334 356.417 293.085 353.187 293.085 349.203C293.085 345.219 269.334 341.99 240.036 341.99C210.737 341.99 186.986 345.219 186.986 349.203C186.986 353.187 210.737 356.417 240.036 356.417Z" fill="#1C1336"/>
<path fill-rule="evenodd" clip-rule="evenodd" d="M216.152 321.641L222.762 346.176L261.404 346.337L273.03 321.198L273.869 310.703L277.377 299.19L216.398 300.086L216.152 321.641Z" fill="#194484"/>
<path fill-rule="evenodd" clip-rule="evenodd" d="M220.272 317.785L226.873 344.988L224.204 346.186L196.029 345.78L199.773 364.912L195.511 403.959L196.972 404.912L195.548 411.71L178.868 411.267L180.584 403.544L173.833 353.786C173.682 351.909 170.891 334.871 171.362 331.504C171.824 328.166 204.487 318.86 216.123 315.437C217.085 315.154 220.017 316.672 220.272 317.785Z" fill="#194484"/>
<path opacity="0.4" fill-rule="evenodd" clip-rule="evenodd" d="M199.35 368.797L187.045 341.678L193.711 344.036L195.324 342.565L226.874 344.988L221.641 322.245L178.936 335.163L172.863 332.787L182.189 403.516L189.063 403.412L193.617 403.686L199.35 368.797Z" fill="#0D6EB7"/>
<path fill-rule="evenodd" clip-rule="evenodd" d="M182.697 348.779L180.01 352.758L189.25 375.162L182.697 348.779Z" fill="#194484"/>
<path fill-rule="evenodd" clip-rule="evenodd" d="M289.84 357.737L291.905 401.111L294.234 405.081L294.046 410.758L290.161 409.06L278.431 413.709L275.932 407.429L277.554 403.808L265.305 363.451L266.257 346.525C264.758 346.337 246.352 344.658 245.768 344.639C246.899 326.224 255.8 318.058 272.603 316.549L287.879 332.296L287.785 344.177L289.84 357.737Z" fill="#194484"/>
<path fill-rule="evenodd" clip-rule="evenodd" d="M245.41 343.961L246.136 341.151L256.48 324.97L262.543 324.197L275.603 337.426C279.129 338.162 281.76 338.284 285.466 335.823L284.532 348.081L289.464 401.395L279.205 405.129L265.315 363.432L272.369 346.705L271.973 343.753C271.841 343.678 269.153 345.771 268.201 346.365C267.041 347.091 266.636 345.243 267.258 344.366C268.823 342.15 270.803 337.86 263.863 342.216C263.599 342.386 262.147 340.726 261.808 340.811C259.818 341.273 247.503 343.706 245.41 343.961Z" fill="#145598"/>
<path fill-rule="evenodd" clip-rule="evenodd" d="M275.197 369.08L277.064 350.684L278.13 380.273L275.197 369.08Z" fill="#194484"/>
<path fill-rule="evenodd" clip-rule="evenodd" d="M242.099 316.266C241.929 324.102 239.977 327.968 239.977 327.968C239.977 327.968 240.062 322.141 239.619 315.191C239.619 315.191 237.525 315.719 233.348 317.624C233.358 317.624 233.056 318.661 233.047 315.191C233.386 314.833 227.776 314.494 216.225 314.164C216.225 314.164 216.234 313.683 216.243 312.721C216.243 312.721 235.357 312.523 273.574 312.127C273.875 311.948 273.885 312.495 273.611 313.786C273.611 313.786 268.124 313.673 257.157 313.438C257.167 313.447 253.386 314.428 242.099 316.266Z" fill="#194484"/>
<path fill-rule="evenodd" clip-rule="evenodd" d="M215.358 308.572L274.782 307.365L274.697 312.108L215.273 313.315L215.358 308.572Z" fill="#0D6EB7"/>
<path fill-rule="evenodd" clip-rule="evenodd" d="M198.385 345.809C225.173 343.612 247.794 343.838 266.257 346.507C248.813 348.213 226.192 347.987 198.385 345.809Z" fill="black"/>
<path fill-rule="evenodd" clip-rule="evenodd" d="M234.557 356.379C234.557 359.915 234.557 361.678 234.557 361.678C237.48 360.471 240.893 360.471 244.797 361.678C244.797 361.678 244.797 359.915 244.797 356.388C244.787 356.388 241.374 356.388 234.557 356.379Z" fill="black"/>
<path fill-rule="evenodd" clip-rule="evenodd" d="M220.941 327.261C220.941 327.261 203.138 334.05 195.463 335.983C196.481 338.558 197.386 339.887 197.368 342.386C200.187 343.329 223.515 341.603 226.24 342.244C230.427 343.225 239.535 343.301 245.759 342.037C252.991 340.566 259.799 344.932 265.476 344.696C265.353 344.243 265.306 340.142 269.464 339.133C269.464 339.133 254.651 331.863 248.786 333.871C248.786 333.871 251.596 329.147 255.537 320.142C255.556 320.123 246.127 325.309 243.722 334.003C242.449 334.965 240.356 335.455 237.452 335.446C237.452 335.446 234.84 335.248 229.616 334.842C229.616 334.842 229.041 333.202 225.024 321.707C224.797 323.235 224.005 325.055 222.657 326.686C221.724 326.422 221.874 327.016 220.941 327.261Z" fill="#145598"/>
<path fill-rule="evenodd" clip-rule="evenodd" d="M186.591 335.21C193.107 337.879 195.983 341.547 195.681 344.159C195.681 344.159 191.343 340.896 182.188 336.417C185.129 335.616 186.591 335.21 186.591 335.21Z" fill="#194484"/>
<path fill-rule="evenodd" clip-rule="evenodd" d="M239.499 312.25C239.82 312.212 240.103 312.448 240.131 312.759C240.159 313.07 239.933 313.362 239.622 313.391L233.512 314.06L233.314 313.768C232.616 312.702 232.258 311.627 232.229 310.543C232.182 310.458 232.145 310.355 232.145 310.251C232.145 310.128 232.182 310.015 232.248 309.921C232.324 309.1 232.578 308.28 233.031 307.441L233.21 307.111L238.83 307.507C239.151 307.526 239.386 307.809 239.367 308.12C239.349 308.44 239.066 308.676 238.754 308.657L233.889 308.308C233.682 308.761 233.54 309.214 233.465 309.657H237.255C237.576 309.657 237.83 309.911 237.83 310.232C237.83 310.553 237.576 310.807 237.255 310.807H233.427C233.493 311.486 233.719 312.156 234.106 312.816L239.499 312.25Z" fill="#0D6EB7"/>
<path opacity="0.4" fill-rule="evenodd" clip-rule="evenodd" d="M218.952 318.388C212.314 318.002 204.233 319.482 194.719 322.848C201.225 323.094 204.488 323.207 204.488 323.207C213.21 321.462 218.028 319.859 218.952 318.388Z" fill="#276ED8"/>
<path opacity="0.4" fill-rule="evenodd" clip-rule="evenodd" d="M272.944 319.869C251.379 318.813 271.501 324.612 276.282 326.979C279.007 325.234 277.093 321.34 272.944 319.869Z" fill="#276ED8"/>
<path fill-rule="evenodd" clip-rule="evenodd" d="M208.27 353.663C230.683 354.955 246.958 355.436 257.095 355.106C248.099 348.373 231.824 347.892 208.27 353.663Z" fill="#271A4D"/>
<path fill-rule="evenodd" clip-rule="evenodd" d="M240.386 308.94C240.339 311.297 240.311 312.476 240.311 312.476C240.311 312.476 243.347 312.174 255.454 312.052C258.726 310.279 258.707 309.798 255.237 308.318C255.237 308.308 252.295 308.686 240.386 308.94Z" fill="#0D6EB7"/>
<path fill-rule="evenodd" clip-rule="evenodd" d="M226.289 307.686C227.977 307.564 228.816 307.507 228.816 307.507C228.816 307.507 228.675 310.242 228.392 315.701C228.392 315.701 227.949 315.682 227.062 315.645C227.072 315.635 226.808 312.985 226.289 307.686Z" fill="#194484"/>
<path fill-rule="evenodd" clip-rule="evenodd" d="M216.586 307.498C218.274 307.375 219.113 307.318 219.113 307.318C219.113 307.318 218.972 310.053 218.689 315.512C218.689 315.512 218.246 315.494 217.359 315.456C217.369 315.456 217.105 312.806 216.586 307.498Z" fill="#194484"/>
<path fill-rule="evenodd" clip-rule="evenodd" d="M249.74 307.479C251.428 307.356 252.267 307.3 252.267 307.3C252.267 307.3 252.126 310.034 251.843 315.494C251.843 315.494 251.4 315.475 250.513 315.437C250.523 315.437 250.268 312.787 249.74 307.479Z" fill="#194484"/>
<path fill-rule="evenodd" clip-rule="evenodd" d="M262.695 307.073C264.383 306.951 265.222 306.894 265.222 306.894C265.222 306.894 265.081 309.629 264.798 315.088C264.798 315.088 264.355 315.069 263.469 315.032C263.478 315.032 263.214 312.382 262.695 307.073Z" fill="#194484"/>
<path fill-rule="evenodd" clip-rule="evenodd" d="M273.443 306.903C275.15 306.781 275.923 307.101 275.923 307.101C275.923 307.101 275.461 309.449 274.377 314.918C274.377 314.918 273.273 315.201 272.396 315.163C272.406 315.163 273.189 312.203 273.443 306.903Z" fill="#194484"/>
<path fill-rule="evenodd" clip-rule="evenodd" d="M214.814 250.299L212.824 306.347L215.342 309.817L275.689 308.299L279.093 306.856L272.776 248.762L214.814 250.299Z" fill="#3C6F8C"/>
<path fill-rule="evenodd" clip-rule="evenodd" d="M220.906 222.417L201.076 232.459L186.14 263.859L179.521 267.97L173.363 281.982L176.484 295.852L238.935 294.919L259.293 293.976L306.467 292.788L312.068 282.425L308.919 269.017L297.849 249.074L291.145 234.581L276.548 223.992L256.388 234.43L233.277 234.666L220.906 222.417Z" fill="#0D6EB7"/>
<path fill-rule="evenodd" clip-rule="evenodd" d="M282.158 287.724C281.658 280.945 281.403 277.55 281.403 277.55C281.63 277.343 281.045 276.287 281.3 276.173C284.892 274.552 286.222 273.024 286.222 273.024C283.025 270.007 281.432 268.507 281.432 268.507C236.69 268.027 213.663 268.027 212.352 268.507C203.555 276.701 199.151 280.803 199.151 280.803C198.265 285.914 197.812 288.46 197.812 288.46C253.445 287.979 281.554 287.734 282.158 287.724Z" fill="#0D6EB7"/>
<path fill-rule="evenodd" clip-rule="evenodd" d="M211.089 274.485C198.124 278.653 191.636 280.737 191.636 280.737C185.413 276.852 192.296 272.175 196.464 270.685C208.93 266.244 213.484 268.394 211.089 274.485Z" fill="#3C6F8C"/>
<path fill-rule="evenodd" clip-rule="evenodd" d="M263.525 283.283C265.072 280.775 265.902 279.021 265.883 278.003C268.249 277.512 269.928 277.295 270.899 277.371C274.85 277.635 277.594 278.078 279.131 278.682C270.484 283.604 265.326 285.15 263.525 283.283Z" fill="#ED7557"/>
<path fill-rule="evenodd" clip-rule="evenodd" d="M258.783 288.007C277.453 290.167 288.118 289.705 290.786 286.64C290.23 284.085 288.448 280.747 281.404 277.56C269.948 281.416 267.911 280.105 266.006 280.737C263.724 283.528 258.783 288.007 258.783 288.007Z" fill="#F08165"/>
<path fill-rule="evenodd" clip-rule="evenodd" d="M258.521 289.931C262.887 285.622 265.659 282.812 266.838 281.52C267.998 282.5 269.035 282.972 269.959 282.925C271.091 284.556 272.119 285.339 273.033 285.273C274.259 286.536 275.428 287.281 276.56 287.536C268.394 290.61 262.378 291.411 258.521 289.931Z" fill="#D96346"/>
<path fill-rule="evenodd" clip-rule="evenodd" d="M197.824 288.459C203.576 287.997 208.602 286.517 210.487 285.197C210.487 285.197 211.412 286.319 212.298 287.601C212.449 288.61 212.138 288.921 217.022 288.29C215.862 283.151 213.844 277.493 208.686 271.326C208.686 271.326 198.456 269.054 192.657 275.541C189.969 277.455 192.119 288.129 197.824 288.459Z" fill="#F08165"/>
<path fill-rule="evenodd" clip-rule="evenodd" d="M197.945 284.773C198.624 286.659 198.973 287.602 198.973 287.602C201.613 288.413 205.451 287.611 210.486 285.197C210.571 284.631 210.59 283.123 210.543 280.671C209.383 281.388 208.629 282.576 206.488 282.491C205.187 282.434 204.838 284.339 202.283 283.971C201.104 283.792 200.152 285.084 197.945 284.773Z" fill="#D96346"/>
<path fill-rule="evenodd" clip-rule="evenodd" d="M217.02 288.29C216.275 285.565 215.907 284.207 215.907 284.207C215.907 284.207 214.983 284.302 213.145 284.5C213.588 287.244 213.814 288.62 213.814 288.62C215.945 288.403 217.02 288.29 217.02 288.29Z" fill="#D96346"/>
<path fill-rule="evenodd" clip-rule="evenodd" d="M201.699 285.386C201.953 285.933 202.076 286.197 202.076 286.197C201.52 287.017 200.388 287.224 198.7 286.828C198.7 286.828 198.596 286.546 198.398 285.989C199.935 286.31 201.039 286.112 201.699 285.386Z" fill="#FF9100"/>
<path fill-rule="evenodd" clip-rule="evenodd" d="M158.898 294.994C175.767 294.739 184.207 294.617 184.207 294.617C178.389 275.362 169.95 275.484 158.898 294.994Z" fill="#E6BDBD"/>
<path fill-rule="evenodd" clip-rule="evenodd" d="M182.34 294.645L160.275 294.975L165.603 287.375C166.631 286.715 169.224 286.366 171.939 286.281L171.751 292.985L173.646 286.262L171.939 286.281C174.353 286.206 176.862 286.338 178.446 286.658L182.34 294.645Z" fill="#D1AAAA"/>
<path fill-rule="evenodd" clip-rule="evenodd" d="M173.24 286.969L171.93 286.78L172.269 282.669L173.457 282.405L173.778 282.556L174.051 282.943L173.24 286.969Z" fill="#333333"/>
<path d="M224.827 210.558C227.648 220.095 233.09 222.916 236.341 225.479C240.956 228.069 244.98 227.216 244.98 227.216C260.502 220.498 262.02 213.732 263.042 206.18C263.553 202.454 264.016 195.52 262.451 186.948C262.243 185.778 261.892 184.726 261.445 183.757C258.602 177.558 251.895 175.152 251.895 175.152C247.887 173.681 243.319 173.364 239.151 174.166C233.147 175.319 228.42 178.577 226.903 185.01C226.408 187.082 226.136 189.22 225.897 191.342C225.37 195.703 225.098 200.115 224.954 204.509C224.89 206.514 224.843 208.536 224.827 210.558Z" fill="#FFADA0"/>
<path d="M239.596 187.251C239.596 187.251 231.261 185.568 228.648 191.707C228.648 191.707 237.961 188.902 239.74 190.296L239.596 187.251Z" fill="#38368E"/>
<path d="M248.458 188.157C248.458 188.157 256.665 185.961 259.662 191.924C259.662 191.924 250.189 189.712 248.506 191.202L248.458 188.157Z" fill="#38368E"/>
<path d="M257.694 198.016C257.522 200.578 255.08 202.521 252.242 202.332C249.405 202.143 247.238 199.907 247.41 197.328C247.582 194.766 250.024 192.84 252.862 193.029C255.699 193.218 257.866 195.454 257.694 198.016Z" fill="white"/>
<path d="M249.115 197.275C248.96 199.544 250.284 201.488 252.055 201.608C253.827 201.728 255.391 199.974 255.546 197.704C255.701 195.435 254.394 193.491 252.606 193.371C250.834 193.251 249.27 195.005 249.115 197.275Z" fill="#7F9EC9"/>
<path d="M250.045 197.343C249.941 198.96 250.87 200.335 252.125 200.421C253.381 200.507 254.498 199.269 254.602 197.653C254.705 196.036 253.776 194.661 252.521 194.575C251.266 194.472 250.148 195.727 250.045 197.343Z" fill="#38368E"/>
<path d="M250.076 194.558C250.042 194.988 250.54 195.383 251.194 195.435C251.847 195.486 252.398 195.16 252.432 194.712C252.466 194.265 251.95 193.887 251.297 193.835C250.661 193.801 250.111 194.128 250.076 194.558Z" fill="white" fill-opacity="0.8"/>
<path d="M239.329 197.614C239.161 200.14 236.786 202.047 234.025 201.863C231.265 201.679 229.157 199.471 229.324 196.945C229.491 194.402 231.867 192.511 234.628 192.695C237.388 192.88 239.496 195.088 239.329 197.614Z" fill="white"/>
<path d="M231.682 196.943C231.532 199.151 232.82 201.042 234.543 201.159C236.266 201.276 237.789 199.57 237.939 197.361C238.09 195.153 236.802 193.262 235.078 193.145C233.355 193.028 231.833 194.735 231.682 196.943Z" fill="#7F9EC9"/>
<path d="M232.588 197.011C232.488 198.584 233.391 199.922 234.613 200.006C235.834 200.089 236.921 198.868 237.022 197.296C237.122 195.723 236.219 194.385 234.997 194.301C233.776 194.217 232.705 195.439 232.588 197.011Z" fill="#38368E"/>
<path d="M232.618 194.3C232.585 194.719 233.087 195.103 233.706 195.154C234.342 195.204 234.877 194.886 234.91 194.451C234.944 194.016 234.459 193.648 233.823 193.598C233.187 193.564 232.652 193.865 232.618 194.3Z" fill="white" fill-opacity="0.8"/>
<path d="M225.375 195.646C225.375 195.646 222.315 185.98 219.791 193.587C217.779 199.645 221.132 205.584 223.839 205.159C226.546 204.751 225.375 195.646 225.375 195.646Z" fill="#FFADA0"/>
<path d="M225.307 197.373C225.307 197.373 222.893 190.844 221.634 193.194C220.375 195.543 220.388 198.754 220.388 198.754C220.388 198.754 221.284 195.346 223.036 197.588C223.036 197.588 220.687 202.915 224.606 201.803C224.619 201.803 226.32 200.314 225.307 197.373Z" fill="#FF9B8B"/>
<path d="M262.195 195.657C262.195 195.657 265.638 185.184 268.478 193.426C270.741 199.99 266.969 206.406 263.924 205.964C260.878 205.521 262.195 195.657 262.195 195.657Z" fill="#FFADA0"/>
<path d="M262.252 197.172C262.252 197.172 264.856 190.359 266.213 192.811C267.571 195.263 267.557 198.613 267.557 198.613C267.557 198.613 266.591 195.057 264.702 197.396C264.702 197.396 267.235 202.955 263.008 201.794C263.008 201.794 261.175 200.241 262.252 197.172Z" fill="#FF9B8B"/>
<path d="M250.451 212.118C250.392 212.296 249.217 215.136 247.314 217.262C245.024 219.82 241.679 221.336 237.976 215.865C237.188 214.705 236.4 213.248 235.582 211.419C235.582 211.419 236.861 211.91 238.735 212.445C241.679 213.278 246.05 214.214 249.083 212.861C249.589 212.846 250.035 212.445 250.451 212.118Z" fill="#0D6EB7"/>
<path d="M247.316 217.293C245.027 219.851 241.681 221.352 237.979 215.881C239.956 215.345 244.64 214.513 247.316 217.293Z" fill="#D5503B"/>
<path d="M249.086 212.937C244.254 218.334 240.744 215.494 238.737 212.49C241.681 213.323 246.053 214.171 249.086 212.937Z" fill="white"/>
<path d="M238.637 205.551C238.637 205.551 242.943 212.535 247.75 205.539L238.637 205.551Z" fill="#D8826C"/>
<path d="M225.478 200.745C225.99 199.226 226.298 196.031 226.298 196.031C226.298 196.031 226.391 190.521 226.4 189.798C226.419 188.048 227.295 180.116 231.097 179.903C231.982 179.856 234.321 182.625 237.424 183.894C237.983 184.125 242.717 181.097 245.177 180.236C252.502 177.68 259.258 184.644 259.258 184.644C261.392 186.996 260.739 191.17 260.749 192.272C260.684 189.447 260.758 193.004 260.749 192.272C260.786 193.883 261.308 196.186 261.83 197.714C262.193 196.001 262.804 196.109 263.689 192.84C265.162 187.413 266.815 183.116 266.545 181.903L262.64 174.809C257.338 165.187 244.851 162.186 235.71 168.336L232.28 170.642C227.491 168.965 226.354 171.318 225.021 173.086C222.552 176.383 221.592 179.445 221.499 184.075C221.461 185.798 222.866 186.885 224.18 191.84C225.009 194.97 225.142 199.18 225.478 200.745Z" fill="#293AA1"/>
<path d="M274.755 174.467C271.605 180.487 266.014 175.569 263.945 171.133C258.857 160.196 252.726 161.9 252.726 161.9C240.173 152.232 236.875 162.011 236.875 162.011C227.053 161.058 226.689 166.512 228.171 171.356C229.653 176.181 233.054 180.191 237.406 182.774C237.602 182.886 237.797 183.006 237.984 183.117C241.217 177.848 247.237 177.385 249.893 177.727C253.462 178.181 254.86 180.07 257.161 181.969C260.712 184.895 262.296 186.229 269.024 185.608C279.815 184.608 274.755 174.467 274.755 174.467Z" fill="#5A65BA"/>
<path d="M274.755 174.467C271.605 180.487 266.014 175.569 263.945 171.133C258.857 160.196 252.726 161.9 252.726 161.9C240.173 152.232 236.875 162.011 236.875 162.011C227.053 161.058 226.689 166.512 228.171 171.356C229.653 176.181 233.054 180.191 237.406 182.774C237.602 182.886 237.797 183.006 237.984 183.117C240.388 176.773 246.696 176.199 249.362 175.995C250.964 175.875 253.853 176.153 256.08 177.875C262.137 182.561 262.286 186.219 269.024 185.599C279.815 184.608 274.755 174.467 274.755 174.467Z" fill="#293AA1"/>
<path d="M274.076 173.523C270.927 179.542 266.014 175.569 263.945 171.133C258.857 160.196 252.726 161.9 252.726 161.9C240.173 152.232 236.875 162.011 236.875 162.011C227.053 161.058 226.689 166.512 228.171 171.356C229.653 176.181 233.054 180.191 237.406 182.774C237.602 182.886 237.797 183.006 237.984 183.117C240.388 176.773 246.268 171.837 248.942 171.633C250.545 171.513 253.434 171.791 255.661 173.523C261.718 178.209 262.296 186.219 269.024 185.599C280.227 184.548 274.551 173.453 274.076 173.523Z" fill="#5A65BA"/>
<path d="M237.656 182.861C237.656 182.861 229.331 156.537 244.343 157.403C244.343 157.403 249.947 159.284 254.322 162.926C254.322 162.926 244.537 159.903 241.218 164.261C237.047 169.742 236.742 176.787 237.656 182.861Z" fill="#293AA1"/>
<path d="M260.344 168.234C260.344 168.234 257.567 164.807 251.724 164.567C246.096 164.326 238.352 166.863 237.42 182.783C237.42 182.783 241.464 168.317 252.227 166.289C253.867 165.984 256.16 166.095 260.344 168.234Z" fill="#293AA1"/>
<path fill-rule="evenodd" clip-rule="evenodd" d="M186.988 288.553L300.847 287.563V293.617L186.988 294.607V288.553Z" fill="#276ED8"/>
<path fill-rule="evenodd" clip-rule="evenodd" d="M186.988 288.553L300.847 287.563V288.647L186.988 289.647V288.553Z" fill="#E6C6C6"/>
<path d="M396.244 293.382H75.2441V302.382H396.244V293.382Z" fill="#84B5FF"/>
<g clip-path="url(#clip0_168_554)">
<path opacity="0.7" d="M330.395 184.737C330.282 184.853 237.244 292.382 237.244 292.382H345.092L360.838 211.912L330.395 184.737Z" fill="#FEF4EA"/>
<path d="M377.66 287.928H375.786V255.74L394.948 206.945L360.736 180.484L361.883 179.006L397.204 206.324L377.66 256.095V287.928Z" fill="#163560"/>
<path d="M356.869 183.855C356.008 183.246 355.804 182.055 356.415 181.196L359.263 177.186C359.874 176.327 361.067 176.125 361.927 176.732C362.788 177.342 362.99 178.532 362.381 179.391L359.533 183.402C358.922 184.263 357.729 184.464 356.869 183.855Z" fill="#163560"/>
<path d="M393.17 206.383C393.17 205.015 394.28 203.907 395.651 203.907C397.021 203.907 398.131 205.015 398.131 206.383C398.131 207.75 397.021 208.859 395.651 208.859C394.279 208.857 393.17 207.75 393.17 206.383Z" fill="#163560"/>
<path d="M385.816 292.355H366.969V290.457C366.969 288.548 368.518 287.002 370.43 287.002H382.213C384.202 287.002 385.814 288.611 385.814 290.596V292.355H385.816Z" fill="#163560"/>
<path d="M378.692 258.02H374.734V287.928H378.692V258.02Z" fill="#163560"/>
<path d="M361.11 211.616C361.02 211.715 360.931 211.816 360.839 211.91L360.82 211.93C360.732 212.028 360.646 212.121 360.555 212.212C357.996 214.427 349.514 210.456 341.309 203.132C333.105 195.811 328.205 187.837 330.125 185.053C330.205 184.954 330.287 184.857 330.375 184.76L330.394 184.739C330.476 184.638 330.565 184.537 330.655 184.438C338.177 176.045 351.09 175.327 359.5 182.83C367.911 190.336 368.632 203.221 361.11 211.616Z" fill="#06B25F"/>
<path d="M360.841 211.911L360.822 211.93C360.793 211.969 360.766 212.001 360.738 212.033C360.682 212.098 360.621 212.155 360.555 212.21C357.998 214.425 349.514 210.458 341.31 203.13C333.107 195.811 328.205 187.839 330.125 185.055C330.176 184.984 330.228 184.914 330.283 184.853C330.312 184.821 330.338 184.788 330.376 184.76L330.395 184.737C332.138 183.091 336.866 184.56 342.392 188.129C344.743 189.647 347.239 191.549 349.71 193.754C351.649 195.487 353.405 197.255 354.931 198.978C359.908 204.621 362.419 209.826 360.841 211.911Z" fill="#66D6A0"/>
<path d="M354.932 198.98C353.486 200.172 351.627 200.883 349.599 200.883C344.948 200.883 341.18 197.122 341.18 192.48C341.18 190.886 341.624 189.395 342.393 188.131C344.744 189.648 347.24 191.551 349.711 193.756C351.65 195.489 353.406 197.257 354.932 198.98Z" fill="#FFEDDC"/>
</g>
<path d="M389.244 302.382H81.2441V306.382H389.244V302.382Z" fill="#276ED8"/>
<path d="M85.377 305.54L93.3239 466.259L99.6814 466.195L104.45 305.54H85.377Z" fill="#276ED8"/>
<path d="M87.9583 314.139L93.6006 428.177C93.6642 429.488 94.7529 430.513 96.0721 430.505C97.3834 430.49 98.4562 429.441 98.4959 428.129L101.881 314.091C101.921 312.708 100.816 311.572 99.4337 311.572H90.398C88.9994 311.572 87.8868 312.74 87.9583 314.139Z" fill="#84B5FF"/>
<path d="M273.019 293.362H221.189C221.189 290.607 223.426 288.379 226.172 288.379H268.027C270.791 288.379 273.019 290.607 273.019 293.362Z" fill="#F2F2FC"/>
<g opacity="0.4" filter="url(#filter0_f_168_554)">
<path d="M302.141 281.49H190.244C182.513 281.49 176.187 275.141 176.187 267.382L160.244 185.49C160.244 177.731 166.57 171.382 174.301 171.382H316.187C323.918 171.382 330.244 177.731 330.244 185.49L316.187 267.382C316.199 275.141 309.873 281.49 302.141 281.49Z" fill="#F2F2FC"/>
</g>
<path d="M299.223 273.304H189.081C183.08 273.304 178.17 268.394 178.17 262.392V196.042C178.17 190.041 183.08 185.13 189.081 185.13H299.214C305.215 185.13 310.126 190.041 310.126 196.042V262.392C310.135 268.394 305.224 273.304 299.223 273.304Z" fill="#F2F2FC"/>
<path d="M254.721 266.057H239.49V290.871H254.721V266.057Z" fill="#F2F2FC"/>
<path d="M184.451 231.495L184.806 234.823C186.525 251.163 200.3 263.565 216.731 263.565H271.888C294.175 263.565 309.687 241.406 302.049 220.465C297.667 208.453 286.573 200.188 273.816 199.415L218.304 196.087C198.509 194.896 182.378 211.763 184.451 231.495Z" fill="#E6E6F4"/>
<path d="M247.104 243.552C251.794 243.552 255.597 239.749 255.597 235.059C255.597 230.368 251.794 226.566 247.104 226.566C242.414 226.566 238.611 230.368 238.611 235.059C238.611 239.749 242.414 243.552 247.104 243.552Z" fill="#D4D4D4"/>
</g>
<g opacity="0.5">
<circle cx="125.244" cy="96.3831" r="2" fill="white"/>
<circle cx="104.244" cy="126.383" r="2" fill="white"/>
<circle cx="111.244" cy="65.3831" r="2" fill="white"/>
<circle cx="269.244" cy="122.383" r="2" fill="white"/>
<circle cx="170.244" cy="89.3831" r="2" fill="white"/>
<circle cx="213.244" cy="80.3831" r="2" fill="white"/>
<circle cx="180.244" cy="54.3831" r="2" fill="white"/>
<circle cx="170.244" cy="115.383" r="2" fill="white"/>
<circle cx="203.244" cy="117.383" r="2" fill="white"/>
<circle cx="220.244" cy="139.383" r="2" fill="white"/>
<circle cx="147.244" cy="143.383" r="2" fill="white"/>
</g>
<defs>
<filter id="filter0_f_168_554" x="156.244" y="167.382" width="178" height="118.107" filterUnits="userSpaceOnUse" color-interpolation-filters="sRGB">
<feFlood flood-opacity="0" result="BackgroundImageFix"/>
<feBlend mode="normal" in="SourceGraphic" in2="BackgroundImageFix" result="shape"/>
<feGaussianBlur stdDeviation="2" result="effect1_foregroundBlur_168_554"/>
</filter>
<clipPath id="clip0_168_554">
<rect width="160.884" height="116" fill="white" transform="translate(237.244 176.382)"/>
</clipPath>
</defs>
</svg>
