<svg xmlns="http://www.w3.org/2000/svg" width="356" height="436" fill="none"><g filter="url(#a)"><rect width="320" height="400" x="18" y="15" fill="#fff" rx="16"/></g><rect width="320" height="400" x="18" y="15" fill="#276ED8" opacity=".05" rx="16"/><g fill="#84B5FF" clip-path="url(#b)" opacity=".2"><path d="M205.763 89.472c-9.018-9.018-9.018-23.691 0-32.709 9.018-9.018 23.691-9.018 32.708 0 7.651 7.65 8.81 19.029 3.48 27.914 0 0-.383.642.134 1.159l11.8 11.8c2.349 2.349 2.908 5.633.825 7.716l-.359.358c-2.083 2.083-5.367 1.524-7.715-.824L234.86 93.11c-.542-.542-1.184-.159-1.184-.159-8.885 5.33-20.263 4.172-27.913-3.479Zm28.438-4.27c6.664-6.663 6.664-17.505 0-24.168-6.663-6.663-17.505-6.664-24.168 0-6.663 6.663-6.663 17.505 0 24.168s17.505 6.663 24.168 0Z"/><path d="M232.726 71.745a2.387 2.387 0 0 0 2.197-3.318c-3.229-7.63-12.064-11.212-19.695-7.983a2.387 2.387 0 1 0 1.861 4.397c5.206-2.203 11.235.24 13.438 5.447a2.387 2.387 0 0 0 2.199 1.457Z"/></g><g fill="#84B5FF" clip-path="url(#c)" opacity=".2"><path d="M141.604 171.917H77.396c-.838 0-1.396.558-1.396 1.396v19.541c0 3.909 3.07 6.979 6.98 6.979h53.041c3.908 0 6.979-3.071 6.979-6.979v-19.541c0-.838-.558-1.396-1.396-1.396Zm-55.833 11.166h11.166c.838 0 1.396.559 1.396 1.396 0 .838-.558 1.396-1.395 1.396H85.77c-.838 0-1.396-.558-1.396-1.396 0-.837.558-1.396 1.396-1.396Zm19.541 8.375H85.771c-.838 0-1.396-.558-1.396-1.395 0-.838.558-1.396 1.396-1.396h19.541c.838 0 1.396.558 1.396 1.396 0 .837-.558 1.395-1.396 1.395Zm23.73 0c-1.117 0-1.954-.279-2.792-.837-.838.558-1.675.837-2.792.837-3.07 0-5.583-2.512-5.583-5.583s2.513-5.583 5.583-5.583c1.117 0 1.954.279 2.792.837.838-.558 1.675-.837 2.792-.837 3.07 0 5.583 2.512 5.583 5.583s-2.513 5.583-5.583 5.583ZM136.021 155.167H82.979c-3.908 0-6.979 3.071-6.979 6.979v2.792c0 .837.558 1.395 1.396 1.395h64.208c.838 0 1.396-.558 1.396-1.395v-2.792c0-3.908-3.071-6.979-6.979-6.979Z"/></g><g fill="#84B5FF" clip-path="url(#d)" opacity=".2"><path d="M258.602 228.668h-34.935a1.928 1.928 0 0 1-1.858-1.402l-7.734-27.071a1.93 1.93 0 0 1 1.858-2.465h47.132l1.383-6.219a1.933 1.933 0 0 1 1.888-1.515h11.73a1.933 1.933 0 1 1 0 3.867h-10.178l-6.983 31.421a5.803 5.803 0 0 1 3.497 5.318 5.807 5.807 0 0 1-5.8 5.801h-34.935a1.932 1.932 0 0 1-1.933-1.934c0-1.068.864-1.933 1.933-1.933h34.935a1.936 1.936 0 0 0 1.933-1.934 1.936 1.936 0 0 0-1.933-1.934Z"/><path d="M260.535 242.204a5.807 5.807 0 0 1-5.801 5.801 5.807 5.807 0 0 1-5.801-5.801 5.807 5.807 0 0 1 5.801-5.801 5.807 5.807 0 0 1 5.801 5.801ZM233.336 242.204a5.808 5.808 0 0 1-5.801 5.801 5.807 5.807 0 0 1-5.801-5.801 5.807 5.807 0 0 1 5.801-5.801 5.808 5.808 0 0 1 5.801 5.801Z"/></g><g filter="url(#e)"><path fill="#276ED8" d="M212.654 76h-69.308c-5.161 0-9.346 4.173-9.346 9.324v141.304c0 5.191 4.229 9.324 9.346 9.324h69.308c5.16 0 9.346-4.172 9.346-9.324V85.323c0-5.195-4.235-9.323-9.346-9.323Z"/><path fill="#F0F6FF" d="M217.471 88.707h-78.938v134.537h78.938V88.707Z"/><path fill="#06B25F" d="m193.61 123.323-21.263 6.246-3.147 6.088-6.386-.052-15.564 17.062 15.564 17.06 6.383-.053 3.154 6.084 21.259 6.246 5.696-23.301-3.236-6.036 3.236-6.035-5.696-23.309Zm-23.898 13.313 16.265-4.583-9.336 17.732h-18.676l11.747-13.149Zm0 32.058-11.747-13.148h18.676l9.336 17.731-16.265-4.583Zm20.817 1.701-9.34-17.728 9.34-17.735 4.51 17.735-4.51 17.728Z"/><path fill="#fff" d="M194.276 84.48h-32.421a.678.678 0 0 1-.679-.679v-.33c0-.374.303-.678.679-.678h32.421c.374 0 .679.302.679.677v.331a.68.68 0 0 1-.679.678Z"/><path fill="#84B5FF" d="M217.471 215.287h-78.938v7.958h78.938v-7.958ZM217.471 88.707h-78.938v7.14h78.938v-7.14Z" opacity=".2"/></g><defs><clipPath id="b"><path fill="#fff" d="M256 50h-57v57h57z"/></clipPath><clipPath id="c"><path fill="#fff" d="M76 144h67v67H76z"/></clipPath><clipPath id="d"><path fill="#fff" d="M280 186h-66v66h66z"/></clipPath><filter id="a" width="356" height="436" x="0" y="0" color-interpolation-filters="sRGB" filterUnits="userSpaceOnUse"><feFlood flood-opacity="0" result="BackgroundImageFix"/><feColorMatrix in="SourceAlpha" result="hardAlpha" values="0 0 0 0 0 0 0 0 0 0 0 0 0 0 0 0 0 0 127 0"/><feMorphology in="SourceAlpha" operator="dilate" radius="2" result="effect1_dropShadow_52_96"/><feOffset dy="3"/><feGaussianBlur stdDeviation="8"/><feColorMatrix values="0 0 0 0 0.113976 0 0 0 0 0.199896 0 0 0 0 0.420833 0 0 0 0.15 0"/><feBlend in2="BackgroundImageFix" result="effect1_dropShadow_52_96"/><feBlend in="SourceGraphic" in2="effect1_dropShadow_52_96" result="shape"/></filter><filter id="e" width="112" height="183.952" x="122" y="68" color-interpolation-filters="sRGB" filterUnits="userSpaceOnUse"><feFlood flood-opacity="0" result="BackgroundImageFix"/><feColorMatrix in="SourceAlpha" result="hardAlpha" values="0 0 0 0 0 0 0 0 0 0 0 0 0 0 0 0 0 0 127 0"/><feOffset dy="4"/><feGaussianBlur stdDeviation="6"/><feColorMatrix values="0 0 0 0 0.160784 0 0 0 0 0.0941176 0 0 0 0 0.435294 0 0 0 0.25 0"/><feBlend in2="BackgroundImageFix" result="effect1_dropShadow_52_96"/><feBlend in="SourceGraphic" in2="effect1_dropShadow_52_96" result="shape"/></filter></defs></svg>