<svg xmlns="http://www.w3.org/2000/svg" width="481" height="428" fill="none"><path fill="#276ED8" d="M99.587 343.146c66.287 57.359 149.518 66.09 210.422 38.035 60.904-28.056 53.818-68.792 32.514-103.145-6.644-10.65 108.585-7.414 112.986-49.036 4.401-41.622-29.388-54.397-29.388-54.397s-122.17-35.771-139.103-51.694c-7.415-6.889-32.45-73.568-106.84-101.378C116.607-2.235 63.95 42.495 45.828 91.406c-18.123 48.91-37.012 173.196 53.759 251.74Z" opacity=".04"/><path fill="#84B5FF" d="m450.152 146.487 11.441-2.152v-10.257l-11.441-1.972a33.827 33.827 0 0 0-4.842-11.656l6.564-9.63-7.263-7.262-9.486 6.706a33.648 33.648 0 0 0-11.656-4.823L421.317 94H411.06l-1.972 11.441a33.825 33.825 0 0 0-11.656 4.841l-9.612-6.563-7.262 7.263 6.706 9.486a33.784 33.784 0 0 0-4.823 11.656L371 134.275v10.258l11.441 1.972a33.68 33.68 0 0 0 4.841 11.656l-6.563 9.611 7.263 7.263 9.504-6.707a33.436 33.436 0 0 0 11.655 4.824l2.152 11.441h10.257l1.973-11.441a33.682 33.682 0 0 0 11.656-4.842l9.611 6.564 7.263-7.263-6.707-9.486a33.73 33.73 0 0 0 4.806-11.638Zm-33.856 14.059c-11.727 0-21.231-9.522-21.231-21.232 0-11.709 9.504-21.231 21.231-21.231 11.728 0 21.232 9.504 21.232 21.231 0 11.728-9.504 21.232-21.232 21.232Z" opacity=".2"/><path fill="#66D6A0" d="M262.845 210.602v98.817c0 4.918 4.001 8.91 8.931 8.91h122.557c4.929 0 8.931-3.992 8.931-8.91v-98.817c0-4.919-4.002-8.911-8.931-8.911H271.766c-4.929.01-8.921 3.992-8.921 8.911Zm131.613 103.156H271.65a3.3 3.3 0 0 1-3.306-3.298v-100.9a3.3 3.3 0 0 1 3.306-3.298h122.808a3.3 3.3 0 0 1 3.306 3.298v100.9a3.3 3.3 0 0 1-3.306 3.298ZM326.033 36.708c-13.079 0-23.679 10.599-23.679 23.678 0 13.08 10.6 23.679 23.679 23.679 13.08 0 23.679-10.6 23.679-23.679 0-13.08-10.599-23.678-23.679-23.678Zm0 41.457c-9.829 0-17.79-7.96-17.79-17.79 0-9.83 7.961-17.79 17.79-17.79 9.829 0 17.79 7.96 17.79 17.79 0 9.83-7.961 17.79-17.79 17.79Z"/><path fill="#fff" stroke="#84B5FF" stroke-miterlimit="10" d="M355.328 129.001V279.6a7.008 7.008 0 0 1-7.009 7.01H118.666a7.008 7.008 0 0 1-7.01-7.01V129.001c0-8.935 7.248-16.193 16.194-16.193h211.285c8.946 0 16.193 7.258 16.193 16.193Z"/><path fill="#84B5FF" d="M224.501 148.832h-27.332v2.296h27.332v-2.296Z"/><path fill="#06B25F" d="M256.56 148.832h-27.332v2.296h27.332v-2.296Z"/><path fill="#276ED8" d="M247.997 161.227h-42.384v2.297h42.384v-2.297Z"/><path fill="#84B5FF" d="M276.536 161.227h-21.538v2.297h21.538v-2.297Z"/><path fill="#06B25F" d="M238.918 173.607h-18.61v2.297h18.61v-2.297ZM311.423 173.607h-61.745v2.297h61.745v-2.297Z"/><path fill="#276ED8" d="M305.331 185.997h-70.566v2.297h70.566v-2.297Z"/><path fill="#84B5FF" d="M238.84 198.376h-21.716v2.297h21.716v-2.297Z"/><path fill="#276ED8" d="M269.85 198.376h-21.716v2.297h21.716v-2.297Z"/><path fill="#84B5FF" d="M228.753 262.651h-31.585v2.297h31.585v-2.297Z"/><path fill="#06B25F" d="M271.392 262.651h-31.584v2.297h31.584v-2.297Z"/><path fill="#84B5FF" d="M312.906 262.651h-31.585v2.297h31.585v-2.297Z"/><path fill="#276ED8" d="M267.359 250.252h-61.746v2.297h61.746v-2.297Z"/><path fill="#84B5FF" d="M338.715 250.252H276.97v2.297h61.745v-2.297ZM281.579 237.875h-61.27v2.297h61.27v-2.297Z"/><path fill="#06B25F" d="M303.966 237.875h-17.048v2.297h17.048v-2.297ZM239.373 225.481h-23.061v2.297h23.061v-2.297Z"/><path fill="#276ED8" d="M274.676 225.481h-23.061v2.297h23.061v-2.297Z"/><path fill="#84B5FF" d="M312.59 225.481h-23.061v2.297h23.061v-2.297Z"/><path fill="#06B25F" d="M275.388 213.107h-32.336v2.297h32.336v-2.297Z"/><path fill="#276ED8" d="M230.849 213.107h-32.336v2.297h32.336v-2.297Z"/><path fill="#84B5FF" d="M189.553 146.635h-2.947v2.951h2.947v-2.951ZM189.553 254.631h-2.947v-6h2.947v6Zm0-15.01h-2.947v-5.999h2.947v5.999Zm0-15.009h-2.947v-6h2.947v6Zm0-15.009h-2.947v-6h2.947v6Zm0-15.01h-2.947v-5.999h2.947v5.999Zm0-15.009h-2.947v-6h2.947v6Zm0-15.009h-2.947v-6h2.947v6ZM189.554 263.639h-2.947v2.95h2.947v-2.95Z"/><path fill="#84B5FF" d="M111.102 130.687a6 6 0 0 1 6-6h57.414v161.935h-57.414a6 6 0 0 1-6-6V130.687Z" opacity=".7"/><path fill="#06B25F" d="M143.505 151.099h-27.332v2.297h27.332v-2.297Z"/><path fill="#84B5FF" d="M164.426 165.134h-42.383v2.297h42.383v-2.297ZM164.426 179.172h-42.383v2.297h42.383v-2.297ZM164.426 193.209h-42.383v2.297h42.383v-2.297ZM164.426 207.243h-42.383v2.297h42.383v-2.297ZM166.626 235.314h-42.383v2.297h42.383v-2.297ZM166.626 249.353h-42.383v2.297h42.383v-2.297ZM166.626 263.385h-42.383v2.297h42.383v-2.297Z"/><path fill="#06B25F" d="M143.505 221.278h-27.332v2.297h27.332v-2.297Z"/><path fill="#84B5FF" d="M355.328 129.001v.68H111.656v-.68c0-8.935 7.248-16.193 16.194-16.193h211.285c8.946 0 16.193 7.258 16.193 16.193Z"/><path fill="#fff" d="M318.322 122.026c0 1.167-.94 2.106-2.106 2.106a2.102 2.102 0 0 1-2.107-2.106c0-1.166.94-2.106 2.107-2.106a2.11 2.11 0 0 1 2.106 2.106ZM329.849 122.026c0 1.166-.94 2.106-2.106 2.106a2.102 2.102 0 0 1-2.106-2.106c0-1.167.94-2.107 2.106-2.107a2.11 2.11 0 0 1 2.106 2.107ZM340.869 122.026c0 1.166-.94 2.106-2.106 2.106a2.103 2.103 0 0 1-2.107-2.106c0-1.167.94-2.107 2.107-2.107 1.166 0 2.106.94 2.106 2.107Z" opacity=".3"/><path stroke="#84B5FF" stroke-miterlimit="10" d="M355.328 129.001V279.6a7.008 7.008 0 0 1-7.009 7.01H118.666a7.008 7.008 0 0 1-7.01-7.01V129.001c0-8.935 7.248-16.193 16.194-16.193h211.285c8.946 0 16.193 7.258 16.193 16.193Z"/><g filter="url(#a)"><path fill="#276ED8" d="m211.615 296.32 12.728-2.394v-11.411l-12.728-2.194a37.635 37.635 0 0 0-5.386-12.967l7.301-10.713-8.079-8.08-10.553 7.461a37.438 37.438 0 0 0-12.967-5.366l-2.394-12.728h-11.411l-2.195 12.728a37.635 37.635 0 0 0-12.967 5.386l-10.693-7.301-8.079 8.079 7.461 10.554a37.6 37.6 0 0 0-5.367 12.967l-12.727 2.394v11.411l12.727 2.194a37.476 37.476 0 0 0 5.387 12.967L134.371 320l8.08 8.08 10.573-7.461a37.234 37.234 0 0 0 12.967 5.366l2.394 12.728h11.411l2.194-12.728a37.506 37.506 0 0 0 12.968-5.386l10.692 7.301 8.08-8.079-7.461-10.554a37.527 37.527 0 0 0 5.346-12.947Zm-37.664 15.641c-13.047 0-23.62-10.594-23.62-23.621s10.573-23.62 23.62-23.62 23.62 10.573 23.62 23.62-10.573 23.621-23.62 23.621Z"/></g><g filter="url(#b)"><path fill="#84B5FF" d="m265.887 365.123 6.632 2.324 3.1-5.351-5.389-4.486a20.485 20.485 0 0 0 .992-7.549l6.344-3.045-1.604-5.981-6.975.648a20.521 20.521 0 0 0-4.632-6.035l2.325-6.63-5.353-3.099-4.487 5.387a20.497 20.497 0 0 0-7.552-.991l-3.045-6.324-5.984 1.604.649 6.99a20.573 20.573 0 0 0-6.038 4.63l-6.632-2.324-3.1 5.351 5.389 4.486a20.484 20.484 0 0 0-.991 7.549l-6.326 3.045 1.604 5.981 6.993-.648a20.235 20.235 0 0 0 4.631 6.035l-2.324 6.63 5.352 3.099 4.488-5.387a20.494 20.494 0 0 0 7.551.991l3.046 6.324 5.983-1.604-.648-6.99a19.971 19.971 0 0 0 6.001-4.63Zm-21.933-2.865c-6.128-3.531-8.218-11.368-4.686-17.494 3.532-6.125 11.372-8.215 17.5-4.684 6.127 3.531 8.218 11.368 4.686 17.494-3.533 6.125-11.373 8.215-17.5 4.684Z"/></g><g filter="url(#c)"><rect width="65.68" height="64.547" x="87.321" y="94.112" fill="#06B25F" rx="6"/></g><path fill="#fff" d="m109.679 137.059-15.035-8.131c-.972-.562-1.458-1.432-1.458-2.608 0-1.227.512-2.096 1.535-2.608l14.958-8.208v2.992c0 .205-.077.486-.23.844a1.505 1.505 0 0 1-.691.69l-10.662 5.83c-.41.307-.41.614 0 .921l11.583 6.213v4.065ZM122.485 113.05h2.992l-7.441 25.467c-.205.665-.665.997-1.381.997h-1.917l7.747-26.464ZM130.305 115.504l14.958 8.208c1.074.563 1.611 1.432 1.611 2.608 0 1.176-.537 2.02-1.611 2.532l-14.958 8.207v-2.991c0-.154.052-.409.154-.767.153-.358.383-.614.69-.767l10.739-5.753c.409-.307.409-.614 0-.921l-11.583-6.29v-4.066Z"/><g filter="url(#d)"><rect width="113.241" height="113.241" x="308" y="135" fill="#fff" rx="6"/></g><path fill="#06B25F" d="m343.558 177.13.003 33.692c0 3.071 2.443 5.551 5.466 5.551h1.551v12.636c0 2.868 2.482 5.202 5.301 5.202 2.83 0 5.231-2.334 5.231-5.205v-12.633h7.021v12.636c0 2.868 2.482 5.202 5.304 5.202 2.83 0 5.227-2.334 5.227-5.205v-12.633l1.559-.004c3.012 0 5.462-2.483 5.462-5.554V177.13h-42.125Zm56.167 5.248c0-2.872-2.44-5.248-5.266-5.248-2.826-.004-5.265 2.379-5.265 5.251v21.784c0 2.875 2.436 5.073 5.265 5.073 2.826 0 5.266-2.194 5.266-5.073v-21.787Zm-59.678 0c0-2.872-2.44-5.248-5.266-5.248-2.826-.004-5.265 2.379-5.265 5.251v21.784c0 2.875 2.436 5.073 5.265 5.073 2.826 0 5.266-2.194 5.266-5.073v-21.787Zm34.933-26.086 3.3-6.632c.238-.471-.067-1.071-.573-1.071a.65.65 0 0 0-.575.375l-3.332 6.7c-5.374-2.629-12.441-2.897-18.356 0l-3.335-6.7a.643.643 0 0 0-.576-.375c-.505 0-.811.6-.572 1.071l3.3 6.632c-6.477 3.689-10.703 9.218-10.703 17.267h42.125c0-8.049-4.226-13.578-10.703-17.267Zm-19.132 10.135c-.969 0-1.759-.799-1.759-1.784 0-.977.79-1.783 1.759-1.783.969 0 1.751.806 1.751 1.783 0 .985-.782 1.784-1.751 1.784Zm17.545 0c-.969 0-1.752-.799-1.752-1.784 0-.977.783-1.783 1.752-1.783s1.759.806 1.759 1.783c0 .985-.79 1.784-1.759 1.784Z"/><defs><filter id="a" width="120.784" height="120.785" x="113.559" y="231.928" color-interpolation-filters="sRGB" filterUnits="userSpaceOnUse"><feFlood flood-opacity="0" result="BackgroundImageFix"/><feColorMatrix in="SourceAlpha" result="hardAlpha" values="0 0 0 0 0 0 0 0 0 0 0 0 0 0 0 0 0 0 127 0"/><feOffset dy="4"/><feGaussianBlur stdDeviation="5"/><feColorMatrix values="0 0 0 0 0.0885677 0 0 0 0 0.0395834 0 0 0 0 0.395833 0 0 0 0.25 0"/><feBlend in2="BackgroundImageFix" result="effect1_dropShadow_88_1570"/><feBlend in="SourceGraphic" in2="effect1_dropShadow_88_1570" result="shape"/></filter><filter id="b" width="74.356" height="74.356" x="213.21" y="317.991" color-interpolation-filters="sRGB" filterUnits="userSpaceOnUse"><feFlood flood-opacity="0" result="BackgroundImageFix"/><feColorMatrix in="SourceAlpha" result="hardAlpha" values="0 0 0 0 0 0 0 0 0 0 0 0 0 0 0 0 0 0 127 0"/><feOffset dy="4"/><feGaussianBlur stdDeviation="5"/><feColorMatrix values="0 0 0 0 0.0885677 0 0 0 0 0.0395834 0 0 0 0 0.395833 0 0 0 0.25 0"/><feBlend in2="BackgroundImageFix" result="effect1_dropShadow_88_1570"/><feBlend in="SourceGraphic" in2="effect1_dropShadow_88_1570" result="shape"/></filter><filter id="c" width="87.68" height="86.547" x="81.321" y="88.112" color-interpolation-filters="sRGB" filterUnits="userSpaceOnUse"><feFlood flood-opacity="0" result="BackgroundImageFix"/><feColorMatrix in="SourceAlpha" result="hardAlpha" values="0 0 0 0 0 0 0 0 0 0 0 0 0 0 0 0 0 0 127 0"/><feMorphology in="SourceAlpha" operator="dilate" radius="3" result="effect1_dropShadow_88_1570"/><feOffset dx="5" dy="5"/><feGaussianBlur stdDeviation="4"/><feColorMatrix values="0 0 0 0 0 0 0 0 0 0 0 0 0 0 0 0 0 0 0.2 0"/><feBlend in2="BackgroundImageFix" result="effect1_dropShadow_88_1570"/><feBlend in="SourceGraphic" in2="effect1_dropShadow_88_1570" result="shape"/></filter><filter id="d" width="135.241" height="135.241" x="302" y="129" color-interpolation-filters="sRGB" filterUnits="userSpaceOnUse"><feFlood flood-opacity="0" result="BackgroundImageFix"/><feColorMatrix in="SourceAlpha" result="hardAlpha" values="0 0 0 0 0 0 0 0 0 0 0 0 0 0 0 0 0 0 127 0"/><feMorphology in="SourceAlpha" operator="dilate" radius="3" result="effect1_dropShadow_88_1570"/><feOffset dx="5" dy="5"/><feGaussianBlur stdDeviation="4"/><feColorMatrix values="0 0 0 0 0 0 0 0 0 0 0 0 0 0 0 0 0 0 0.2 0"/><feBlend in2="BackgroundImageFix" result="effect1_dropShadow_88_1570"/><feBlend in="SourceGraphic" in2="effect1_dropShadow_88_1570" result="shape"/></filter></defs></svg>