<svg xmlns="http://www.w3.org/2000/svg" width="126" height="230" fill="none"><g opacity=".12"><path fill="#276ED8" d="M112.618 0H13.382C5.992 0 0 5.975 0 13.35v202.322c0 7.432 6.055 13.35 13.382 13.35h99.236c7.388 0 13.382-5.973 13.382-13.35V13.35C126 5.91 119.937 0 112.618 0Z"/><path fill="#fff" d="M119.514 18.194H6.488v192.633h113.026V18.194ZM86.303 12.14h-46.42a.971.971 0 0 1-.973-.97v-.474c0-.535.434-.97.973-.97h46.42c.537 0 .973.433.973.97v.474a.974.974 0 0 1-.973.97Z"/><path fill="#84B5FF" d="M119.514 199.434H6.488v11.395h113.026v-11.395ZM119.514 18.194H6.488v10.222h113.026V18.194Z"/></g></svg>