<svg xmlns="http://www.w3.org/2000/svg" width="479" height="456" fill="none"><mask id="a" width="406" height="355" x="53" y="51" maskUnits="userSpaceOnUse" style="mask-type:alpha"><path fill="#84B5FF" d="M145.166 394.917c92.42 26.53 242.249-1.437 292.465-55.106 50.217-53.668-2.77-117.21-39.312-141.119-11.369-7.396 2.07-18.156-7.184-28.255-20.204-22.116 32.36-86.041 7.184-101.684-21.774-13.547-78.403-8.527-102.557-16.532-10.542-3.425-107.758 10.656-125.588 7.589-39.435-6.784-91.776 115.866-102.682 153.122-10.906 37.256-48.88 145.657 77.674 181.985Z"/></mask><g mask="url(#a)"><path fill="#969391" d="M268.387 379.543h13.258v33.534h-13.258v-33.534Z"/><path fill="#435467" d="M330.751 369.052c0 6.411-6.057 18.8-13.064 18.8h-80.696c-7.007 0-9.452-12.416-9.452-18.8v-.489c0-6.412 2.445-13.313 9.452-13.313h80.696c7.007 0 13.064 6.901 13.064 13.313v.489Z"/><path fill="#C1C7CC" d="M365.57 356.019c-.489 6.819-7.062 11.954-14.721 11.492-2.227-.136-85.367 1.63-88.789 1.331-14.939-1.249 6.98-7.335 0-15.214-11.815.054-14.205-.109-16.84-1.168-4.02-1.603-38.732-9.564-41.312-18.665-2.58-9.129-12.602-124.298-12.602-124.298 4.155-6.982 48.536-2.527 69.314 0 11.028 1.359 17.438 11.33 17.438 19.018 0 2.663.326 5.353.489 8.015.841 13.476 1.575 26.952 2.39 40.427.461 7.336.815 14.699 1.168 22.061.19 3.994.407 8.015.679 12.009.271 4.374-.218 9.618.95 13.856 3.423 12.77 28.845 14.047 39.682 14.182 17.383.218 13.445.815 21.892 1.821 7.442.896 12.793 2.173 16.487 5.732 2.634 2.554 3.992 5.977 3.775 9.401Z"/><path fill="#979B9E" d="M232.753 368.218c20.425 2.092 33.327.707 35.011.788 5.731.299 9.479-3.097 10.022-10.079.272-3.505-.679-6.955-2.608-9.509-2.716-3.559-6.708-4.755-12.276-5.488-6.329-.843-16.188-1.196-29.28-1.006a67.813 67.813 0 0 1-12.847-1.086c-4.862-.897-8.746-3.043-12.738-6.222-4.889-3.885-4.238-12.226-4.156-18.638.054-3.994.027-7.933-.082-11.9-.461-18.692-.488-37.411-.706-56.104-.108-10.46-.244-20.892-.353-31.352-.081-6.956-4.834-12.254-10.593-11.765-5.785.462-10.375 6.494-10.294 13.449l1.358 113.403c0 .435.028.842.055 1.277.163 1.739 1.385 10.84 8.827 19.344 7.497 8.558 18.415 13.449 32.566 14.644 2.58.19 5.324-.054 8.094.244Z"/><path fill="url(#b)" d="M260.063 260.432c-15.344 11.762-37.614 16.525-54.77 7.424-5.381-2.847-10.336-7.398-11.401-13.252-1.279-7.052 3.276-14.344 1.358-21.263-1.678-6.12-7.805-9.872-12.36-14.396-6.607-6.547-10.443-15.674-10.416-24.855.026-9.181 3.862-18.282 10.496-24.802 5.62-5.535 12.946-9.101 19.393-13.731 5.088-3.673 9.67-8.436 12.094-14.211 2.397-5.695.426-9.048.08-14.636-.719-11.948 2.291-25.307 10.895-34.195 11.135-11.55 27.678-11.364 42.303-8.383 7.406 1.49 15.584 3.805 22.084 7.744 2.77 1.676 4.608 3.725 6.5 6.413.612.852 4.022 9.341 3.889 9.314 21.684 4.95 10.043 34.967 16.703 48.752 2.104 4.338 5.78 7.691 9.004 11.283 5.647 6.334 10.069 13.944 11.454 22.3 1.386 8.356-.506 17.457-6.127 23.791-.905 1.038-1.971 2.049-2.317 3.38-.533 1.995.586 3.991 1.412 5.881 4.928 11.309-.719 24.402-7.832 34.488-4.769 6.786-10.389 13.226-17.688 17.164-11.642 6.307-26.346 5.322-38.334-.319"/><path fill="#113356" d="M270.453 111.651c7.326-3.566 16.676.399 21.205 7.185 4.502 6.786 10.363 12.827 9.297 20.89-.533 3.992-1.412 8.063-.613 12.028 2.025 10.272 8.365 17.777 14.972 25.893 5.594 6.866 7.405 15.993 8.844 24.722.852 5.216 1.545 10.964-1.226 15.461-3.516 5.695-7.539 13.039-11.321 18.548-6.234 9.021-2.584 17.83-10.123 25.813-2.238 2.342-5.381 3.566-8.471 4.55a79.094 79.094 0 0 1-19.287 3.433c-5.594.293-11.268-.053-16.543-1.889-12.946-4.551-21.604-19.08-19.26-32.599 1.785-10.245 8.844-18.761 12.201-28.634 2.397-7.078 2.797-14.822 1.172-22.114-2.078-9.207-7.379-18.361-5.088-27.516" opacity=".42"/><path fill="#D8826C" d="M244.325 198.045c-1.195 7.037 8.257 7.635 8.257 7.635 4.156 0 10.647-1.277 10.647-5.434l-2.01-26.055c0-4.157-3.395-7.553-7.551-7.553a7.553 7.553 0 0 0-7.55 7.553l-1.793 23.854Z"/><path fill="#F0A98F" d="M281.242 106.001c-.959-1.81-8.205.133-9.004-1.783-4.662 4.178-14.705-4.045-20.299-.878-7.326 4.151-13.213 8.303-21.312 10.644-2.663.772 1.199 2.529-1.625 2.662-.745 4.896-5.354 20.144-5.088 25.2 1.359 25.361 20.006 41.328 38.334 38.986 13.852-1.783 26.959-18.947 30.448-43.323.32-2.289 1.998-13.306 1.839-15.541-6.554-6.387-8.925-7.85-13.293-15.967Z"/><path fill="#D8826C" d="M258.307 155.235s4.316 7.265 8.951-.133l-8.951.133Z"/><path fill="#fff" d="M253.857 140.492c0 4.79-3.89 8.702-8.711 8.702a8.693 8.693 0 0 1-8.711-8.702c0-4.79 3.889-8.702 8.711-8.702 4.821 0 8.711 3.912 8.711 8.702Z"/><path fill="#84B5FF" d="M251.244 145.283c-1.545 3.646-5.035 5.668-7.805 4.524-2.77-1.171-3.756-5.056-2.238-8.702 1.545-3.672 5.035-5.668 7.779-4.524 2.797 1.145 3.809 5.03 2.264 8.702Z"/><path fill="#400404" d="M249.78 144.671c-1.092 2.581-3.57 4.018-5.541 3.193-1.971-.825-2.691-3.592-1.572-6.2 1.093-2.608 3.57-4.045 5.541-3.22 1.972.851 2.664 3.619 1.572 6.227Z"/><path fill="#fff" d="M251.883 140.308c-.293.718-1.359.931-2.371.505-1.012-.425-1.598-1.357-1.305-2.049.293-.718 1.358-.931 2.371-.505 1.012.425 1.598 1.357 1.305 2.049Z"/><path fill="#D5503B" d="M249.115 162.235s14.039 6.467 19.98.533c0 0-5.408 13.491-19.98-.533Z"/><path fill="#302725" d="M253.856 140.493s.693-5.588-4.768-8.409c-8.365-4.311-12.947 5.668-15.664 7.291 0 0 1.758 1.757 3.037 1.145 0-.027 9.91-11.869 17.395-.027Z"/><path fill="#fff" d="M269.759 141.693a8.693 8.693 0 0 0 8.711 8.702c4.795 0 8.711-3.885 8.711-8.702 0-4.79-3.889-8.675-8.711-8.675-4.795-.027-8.711 3.885-8.711 8.675Z"/><path fill="#84B5FF" d="M284.381 145.578c-.826 3.885-3.996 6.493-7.113 5.828-3.117-.666-4.955-4.338-4.129-8.197.826-3.885 3.996-6.493 7.113-5.854 3.09.665 4.954 4.338 4.129 8.223Z"/><path fill="#400404" d="M282.757 145.231c-.586 2.767-2.824 4.604-5.035 4.151-2.211-.452-3.516-3.087-2.957-5.828.586-2.767 2.85-4.63 5.061-4.151 2.185.452 3.517 3.06 2.931 5.828Z"/><path fill="#fff" d="M284.01 140.549c-.16.745-1.225 1.171-2.344.931-1.146-.239-1.918-1.038-1.785-1.783.16-.745 1.199-1.171 2.344-.931 1.146.239 1.945 1.038 1.785 1.783Z"/><path fill="#302725" d="M269.626 140.625s-.693-4.977 4.768-7.478c8.365-3.832 12.947 5.03 15.638 6.467 0 0-1.759 1.543-3.037 1.011.026 0-8.951-10.778-17.369 0Z"/><path fill="#6F3B1E" d="M237.977 128.142s8.844-7.903 17.315-4.497c1.972.798 2.425 1.73 3.677 5.562 0 0-9.644-5.402-20.992-1.065ZM289.925 131.444s-5.035-9.128-12.707-7.292c-1.785.426-2.397 1.251-4.395 4.711 0 .026 9.137-3.513 17.102 2.581Z"/><path fill="#F0A98F" d="M226.389 134.476s-9.404-12.826-12.121-.505c-2.158 9.819 6.607 17.031 12.041 15.195 5.434-1.836.08-14.69.08-14.69Z"/><path fill="#D8826C" d="M226.497 136.765s-6.66-8.089-8.364-4.284c-1.705 3.805-.693 8.276-.693 8.276s.693-5.109 4.742-2.741c0 0-2.877 8.409 4.315 5.216.027 0 2.851-2.794 0-6.467Z"/><path fill="#fff" d="M226.905 149.823c0 1.304-.985 2.342-2.184 2.342-1.225 0-2.184-1.064-2.184-2.342 0-1.303.985-2.368 2.184-2.368 1.199 0 2.184 1.038 2.184 2.368Z"/><path fill="url(#c)" d="M303.298 125.669c-7.618 2.129-16.196.586-22.67-4.071-6.473-4.657-10.682-12.348-11.108-20.305-.133-2.208.32-4.87 2.318-5.774.692-.32 1.491-.346 2.264-.32 4.715.133 9.244 2.13 13 5.03 3.756 2.901 6.739 6.653 9.377 10.591 1.891 2.848 3.596 5.828 4.635 9.075a24.3 24.3 0 0 1 1.092 6.307"/><path fill="url(#d)" d="M271.171 106.271c-13.932 7.877-29.702 21.795-44.807 21.023-.772-.026-4.662-4.79-4.981-5.402-.267-.532.026-1.197.319-1.783 3.064-5.801 11.269-15.887 17.369-19.32 6.1-3.432 12.787-5.615 19.447-7.584 3.383-.984 6.819-1.942 10.229-1.996 3.383-.053 6.793.879 8.684 3.167"/><path fill="#DE947A" d="M343.58 348.953s3.205-13.802-28.057-26.571c-31.235-12.769-44.001-14.155-45.766-5.162-1.766 8.993 5.894 27.767 50.546 39.83 18.171 4.89 23.277-8.097 23.277-8.097Z"/><path fill="#DE947A" d="M323.451 346.075v-.081c1.114-8.586 11.951-10.08 18.144-5.38 5.079 3.858 9.968 27.821 11.543 36.896 2.445 14.155 4.346 35.455 6.763 49.637.706 4.13 1.386 8.232 1.983 12.362 3.205 7.145 3.884 8.314 6.6 13.313 2.716 4.972 5.297 4.591 2.771 5.705-4.075 1.82-15.672-1.793-18.388-9.781-1.494-4.347-2.336-6.194-2.879-11.003-24.038-46.323-27.406-84.658-26.537-91.668Z"/><path fill="#F0A98F" d="M321.302 346.649s1.304-14.101-31.343-22.577c-32.675-8.45-45.495-8.124-46.065 1.005-.571 9.156 9.56 26.707 55.408 32.684 18.687 2.445 22-11.112 22-11.112Z"/><path fill="#C2C2C2" d="M345.234 342.647c-11.924-25.131-60.895-32.793-60.895-32.793l-7.66-17.877-17.872-.408c-29.361 55.778 28.085 48.959 35.337 51.512 7.225 2.554 26.808 17.035 26.808 17.035 3.829 22.143 20.425 77.078 24.689 77.486 4.264.435 16.595-4.673 16.595-4.673s-5.106-65.178-17.002-90.282Z"/><path fill="#F0A98F" d="M305.605 346.103c2.608-6.548 12.141-7.662 15.564-.707 2.824 5.706 0 35.13-2.662 43.932-4.156 13.775-8.366 27.522-12.521 41.27-1.223 3.994-2.445 7.988-3.776 11.954-.326 7.825-.217 9.183-.027 14.862.19 5.651-.054 14.399-2.825 14.29-4.454-.163-12.195-13.014-11.054-21.382.625-4.564 2.39-10.106 4.047-14.671.489-88.679 12.331-87.212 13.254-89.548Z"/><path fill="#D4D4D4" d="M233.279 279.621s-26.265 49.882-12.494 62.189c13.77 12.335 73.796 19.562 73.796 19.562s-6.383 54.066-4.264 71.535l16.595 2.554s25.966-75.801 14.042-94.52c-11.924-18.72-42.996-25.131-56.196-23.827 0 0 6.383-17.877 1.711-24.289-4.671-6.385-33.19-14.889-33.19-13.204Z"/><path fill="#194484" d="M229.773 287.826c3.613-30.973-13.417-90.391-13.417-90.391s45.44-13.422 74.502 0l-14.857 96.042s-8.039 2.01-19.311.407c-11.218-1.63-26.917-6.058-26.917-6.058Z"/><path fill="#0E3979" d="M236.482 243.836s34.169 3.532 43.594-3.532c0 0-11.788 28.282-43.594 3.532Z"/><path fill="#8F99B6" d="M278.552 294.238s-19.094 9.101-49.08-4.999c.299-1.413.897-9.102.897-9.102l46.798 5.923 1.385 8.178Z"/><path fill="#D4D4D4" d="m248.132 281.981-2.282 14.535-5.894-.461 2.255-15.46 5.921 1.386Z"/><path fill="#EAEAEA" d="m271.301 283.805 1.82 13.177-14.993 1.358-.897-16.356 14.07 1.821Zm-9.561 10.433 6.573-1.359v-6.14l-7.714-.679 1.141 8.178Z"/><path fill="#194484" d="M368.668 278.809s-12.25.489-26.726-2.337c-12.956-2.527-27.705-7.662-36.966-18.176-10.756-12.226-20.507-34.233-20.507-34.233s2.77-24.343 6.41-26.598c3.612-2.255 28.791 48.279 35.309 52.273 3.748 2.282 16.704 6.847 27.895 11.085 8.338 3.151 15.699 6.113 17.464 7.797 4.156 3.913-2.879 10.189-2.879 10.189Z"/><path fill="#22272E" d="M375.783 278.836c-1.548-7.58-6.6-13.15-12.602-13.15-6.003 0-11.055 5.57-12.603 13.15h25.205Z"/><path fill="#F0A98F" d="M356.311 272.584c0 1.738-1.739 3.124-3.884 3.124-2.146 0-3.884-1.413-3.884-3.124 0-1.739 1.738-3.125 3.884-3.125 2.145-.027 3.884 1.386 3.884 3.125ZM361.689 265.687c0 2.499-1.167 4.537-2.634 4.537-1.467 0-2.635-2.038-2.635-4.537 0-2.5 1.168-4.51 2.635-4.51 1.467 0 2.634 2.01 2.634 4.51ZM369.32 266.011c-.815 2.337-2.58 3.831-3.966 3.315-1.358-.516-1.819-2.853-1.005-5.189.815-2.337 2.581-3.831 3.966-3.315 1.385.516 1.82 2.853 1.005 5.189ZM375.595 272.156c-1.548 1.902-3.694 2.663-4.808 1.685-1.113-.978-.76-3.342.761-5.244 1.548-1.902 3.694-2.662 4.807-1.684 1.114 1.005.761 3.341-.76 5.243ZM377.415 278.347c-2.282.733-4.482.163-4.889-1.304-.435-1.467 1.059-3.233 3.341-3.994 2.281-.734 4.481-.163 4.916 1.304.407 1.467-1.087 3.26-3.368 3.994ZM220.86 277.476s14.585-25.375 37.047 1.142l-37.047-1.142Z"/><path fill="#194484" d="M216.382 197.439c-1.766.136-33.191 40.781-37.129 74.796 0 0-.217 13.394 19.04-6.14 7.659-7.771 10.43-27.359 24.499-43.606 0-.027.869-25.62-6.41-25.05Z"/><path fill="#4676A0" d="M231.482 266.094c-5.106-2.391-19.311-4.13-22.869-5.026-22.517-5.76-27.215 13.965-27.215 13.965-3.884 6.52 27.161 5.705 45.549 4.211.787-4.429 3.992-8.694 4.535-13.15Z"/><path fill="#06B25F" d="M192.615 214.852c19.04 5.271-8.529 35.292-11.245 40.183v-3.07c-2.716-5.815-6.057-41.895 11.245-37.113Z"/><path fill="#06B25F" d="M160.295 206.862c16.677 4.13 18.007 36.271 10.212 47.845l-6.138-3.07c-5.84-11.031-15.183-18.122-15.618-31.462-.244-7.879 1.874-15.703 11.544-13.313Z"/><path fill="#06B25F" d="M134.139 205.749c7.904-9.808 17.383 1.385 17.383 10.46v2.038c-8.175 5.162-26.916-.68-17.383-12.498Z"/><path fill="#66D6A0" d="m195.737 245.851-5.106 36.814-37.835 1.032-3.069-36.814 46.01-1.032Z"/><path fill="#C1C7CC" d="m432.254 485.125-40.986-187.004 9.859-3.314 41.72 190.318h-10.593ZM128.731 485.123l40.958-187.003-9.832-3.315-41.746 190.318h10.62Z"/><path fill="#D8DDE1" d="M110.857 278.698h339.241v20.133H110.857v-20.133Z"/><path fill="#E7E9ED" d="M398.821 270.196c0 .109.027.245.027.353.054 4.565-3.83 8.314-8.664 8.368l-117.634 1.549c-4.862.054-8.828-3.586-8.909-8.151 0-.136 0-.244.027-.353l135.153-1.766Z"/><path fill="#E2E4E8" d="M289.683 266.364c-.489 3.369 1.494 6.086 4.373 6.032l99.11-1.331c2.907-.027 5.514-2.391 5.867-5.298l6.41-54.202c.353-2.907-1.657-5.461-4.481-5.706l-96.34-8.449c-2.825-.245-5.487 2.309-5.976 5.678l-8.963 63.276Z"/><path fill="#F2F2F2" d="M341.781 236.697c-.517 3.912 1.928 7.145 5.459 7.226 3.531.082 6.79-2.934 7.306-6.792.489-3.831-1.955-7.064-5.459-7.254-3.504-.109-6.763 2.907-7.306 6.82Z"/></g><defs><linearGradient id="b" x1="197.819" x2="307.39" y1="260.221" y2="110.097" gradientUnits="userSpaceOnUse"><stop stop-color="#0D6EB7"/><stop offset="1" stop-color="#00A4E8"/></linearGradient><linearGradient id="c" x1="303.491" x2="263.328" y1="126.864" y2="83.972" gradientUnits="userSpaceOnUse"><stop stop-color="#00A2E7"/><stop offset="0" stop-color="#09A4E6"/><stop offset="1" stop-color="#01A0E4"/></linearGradient><linearGradient id="d" x1="221.098" x2="277.755" y1="124.292" y2="90.991" gradientUnits="userSpaceOnUse"><stop stop-color="#0491D7"/><stop offset="0" stop-color="#098CCD"/><stop offset="1" stop-color="#00A3E7"/></linearGradient></defs></svg>