<svg width="575" height="488" viewBox="0 0 575 488" fill="none" xmlns="http://www.w3.org/2000/svg">
<path opacity="0.08" d="M221.537 400.5C319.698 428.678 478.833 398.973 532.169 341.971C585.505 284.969 529.227 217.481 490.415 192.086C478.34 184.231 464.808 178.446 454.98 167.72C433.52 144.23 425.993 106.756 399.254 90.1419C376.127 75.7529 348.887 88.8496 323.232 80.3475C312.035 76.7098 293.693 61.2791 274.755 58.0213C232.871 50.8161 104.682 147.492 93.099 187.062C81.5157 226.632 87.122 361.916 221.537 400.5Z" fill="#84B5FF"/>
<path d="M434.234 322.369H411.841C410.959 322.369 410.238 321.656 410.238 320.766C410.238 319.885 410.951 319.164 411.841 319.164H434.234C435.116 319.164 435.836 319.877 435.836 320.766C435.836 321.648 435.116 322.369 434.234 322.369Z" fill="#66D6A0"/>
<path d="M434.234 330.365H411.841C410.959 330.365 410.238 329.652 410.238 328.762C410.238 327.881 410.951 327.16 411.841 327.16H434.234C435.116 327.16 435.836 327.873 435.836 328.762C435.836 329.644 435.116 330.365 434.234 330.365Z" fill="#66D6A0"/>
<mask id="mask0_167_239" style="mask-type:alpha" maskUnits="userSpaceOnUse" x="22" y="60" width="533" height="355">
<path d="M222.067 403.361C320.228 431.539 479.363 401.834 532.699 344.832C586.034 287.83 529.756 220.342 490.945 194.947C478.869 187.092 465.338 181.307 455.509 170.58C434.05 147.09 426.522 109.617 399.783 93.0027C376.657 78.6138 349.416 91.7105 323.761 83.2084C312.565 79.5707 294.223 64.14 275.285 60.8822C233.4 53.677 35.4954 159.219 23.9121 198.789C12.3288 238.358 87.6516 364.777 222.067 403.361Z" fill="#276ED8"/>
</mask>
<g mask="url(#mask0_167_239)">
<path opacity="0.2" d="M221.072 216.583L229.654 214.969V207.276L221.072 205.796C220.413 202.635 219.162 199.676 217.441 197.053L222.364 189.831L216.916 184.383L209.801 189.414C207.178 187.692 204.233 186.455 201.058 185.796L199.444 177.214H191.751L190.271 185.796C187.111 186.455 184.152 187.706 181.529 189.427L174.319 184.504L168.872 189.952L173.902 197.067C172.181 199.69 170.943 202.649 170.284 205.81L161.703 207.424V215.117L170.284 216.597C170.943 219.771 172.194 222.716 173.916 225.339L168.993 232.549L174.44 237.996L181.569 232.965C184.192 234.687 187.151 235.938 190.312 236.584L191.926 245.165H199.619L201.099 236.584C204.273 235.925 207.219 234.674 209.841 232.952L217.051 237.875L222.498 232.427L217.468 225.312C219.176 222.703 220.413 219.757 221.072 216.583ZM195.678 227.128C186.882 227.128 179.753 219.986 179.753 211.203C179.753 202.42 186.882 195.278 195.678 195.278C204.475 195.278 211.603 202.407 211.603 211.203C211.603 219.999 204.475 227.128 195.678 227.128Z" fill="#84B5FF"/>
<path d="M335.445 262.339C348.764 272.548 368.094 276.683 382.985 268.783C387.656 266.312 391.957 262.362 392.882 257.28C393.992 251.159 390.038 244.83 391.703 238.824C393.159 233.512 398.478 230.255 402.432 226.328C408.166 220.646 411.496 212.723 411.473 204.754C411.449 196.785 408.12 188.885 402.362 183.226C397.483 178.422 391.125 175.326 385.529 171.307C381.112 168.12 377.135 163.985 375.031 158.973C372.95 154.03 374.661 151.119 374.962 146.268C375.586 135.897 372.973 124.302 365.505 116.587C355.839 106.562 341.48 106.724 328.786 109.311C322.358 110.604 315.259 112.614 309.617 116.032C307.212 117.488 305.617 119.266 303.975 121.599C303.443 122.338 300.484 129.707 300.599 129.684C281.778 133.98 291.882 160.035 286.101 172C284.275 175.765 281.084 178.676 278.286 181.794C273.384 187.291 269.546 193.898 268.343 201.151C267.141 208.404 268.783 216.303 273.661 221.801C274.448 222.702 275.373 223.579 275.673 224.734C276.136 226.467 275.164 228.199 274.448 229.839C270.17 239.656 275.072 251.02 281.246 259.775C285.385 265.665 290.264 271.255 296.599 274.673C306.704 280.148 319.467 279.293 329.873 274.396" fill="url(#paint0_linear_167_239)"/>
<path opacity="0.42" d="M332.583 133.557C326.224 130.461 318.108 133.903 314.177 139.793C310.27 145.683 305.183 150.927 306.108 157.926C306.57 161.39 307.333 164.924 306.639 168.366C304.882 177.282 299.379 183.796 293.645 190.841C288.789 196.8 287.216 204.723 285.968 212.299C285.228 216.827 284.627 221.816 287.031 225.72C290.084 230.663 293.575 237.038 296.859 241.819C302.269 249.65 299.101 257.295 305.645 264.225C307.587 266.258 310.316 267.32 312.998 268.175C318.432 269.861 324.051 270.854 329.739 271.155C334.595 271.409 339.52 271.108 344.098 269.515C355.336 265.565 362.851 252.953 360.816 241.219C359.267 232.326 353.139 224.934 350.226 216.365C348.145 210.221 347.798 203.499 349.208 197.17C351.012 189.178 355.613 181.232 353.625 173.286" fill="#148951"/>
<path d="M142.19 119.804C133.84 119.804 127.074 126.57 127.074 134.919C127.074 143.268 133.84 150.034 142.19 150.034C150.539 150.034 157.305 143.268 157.305 134.919C157.305 126.57 150.539 119.804 142.19 119.804ZM142.19 146.268C135.915 146.268 130.833 141.186 130.833 134.912C130.833 128.637 135.915 123.555 142.19 123.555C148.464 123.555 153.546 128.637 153.546 134.912C153.546 141.186 148.464 146.268 142.19 146.268Z" fill="#66D6A0"/>
<path d="M91.7999 344.329H70.6846C69.8533 344.329 69.1738 343.657 69.1738 342.818C69.1738 341.987 69.8461 341.308 70.6846 341.308H91.7999C92.6312 341.308 93.3107 341.98 93.3107 342.818C93.3107 343.65 92.6312 344.329 91.7999 344.329Z" fill="#66D6A0"/>
<path d="M91.7999 351.869H70.6846C69.8533 351.869 69.1738 351.197 69.1738 350.358C69.1738 349.527 69.8461 348.847 70.6846 348.847H91.7999C92.6312 348.847 93.3107 349.519 93.3107 350.358C93.3107 351.189 92.6312 351.869 91.7999 351.869Z" fill="#66D6A0"/>
<path d="M176.625 263.558C176.625 263.558 178.842 267.409 180.914 281.821C182.986 296.234 181.721 298.375 181.721 298.375C181.721 298.375 187.357 301.962 184.026 278.649C184.026 257.642 178.674 262.277 178.674 262.277L176.625 263.558Z" fill="url(#paint1_linear_167_239)" fill-opacity="0.5"/>
<path d="M178.094 262.494C178.094 262.494 180.414 261.794 181.345 263.655C182.275 265.515 185.185 287.848 184.375 294.129C183.555 300.41 181.234 298.089 181.234 298.089C181.234 298.089 181.464 301.809 182.975 302.859L182.984 302.85C183.002 302.841 183.039 302.813 183.085 302.776C183.122 302.758 183.168 302.721 183.223 302.684H183.233C184.126 302.095 187.22 300.05 190.075 298.089C193.446 295.759 195.426 293.779 195.426 293.779C195.426 293.779 194.956 290.058 194.956 289.018C194.956 287.968 202.407 263.185 209.728 255.514C216.562 248.358 209.848 208.048 208.908 202.605L208.798 201.998C208.798 201.998 202.867 203.747 200.307 205.617C197.756 207.496 188.556 230.151 188.095 241.782C187.625 253.414 183.444 260.017 183.444 260.017C183.444 260.017 182.045 259.17 179.715 260.017L178.094 262.494Z" fill="url(#paint2_linear_167_239)"/>
<path opacity="0.83" d="M183.233 302.684C184.126 302.095 187.22 300.05 190.075 298.089C193.446 295.759 195.426 293.779 195.426 293.779C195.426 293.779 194.956 290.058 194.956 289.018C194.956 287.968 202.407 263.185 209.728 255.514C216.562 248.358 209.848 208.048 208.908 202.605L208.798 201.998C208.798 201.998 203.972 208.048 201.882 220.085C199.782 232.131 202.747 255.864 202.747 255.864C202.747 255.864 198.566 275.056 188.27 275.406C188.27 275.406 196.909 288.051 193.501 294.396C192.847 295.602 184.807 301.57 183.233 302.684Z" fill="#3E64F9"/>
<path d="M202.924 413.777C203.117 415.895 203.485 417.608 203.928 419.1V419.109C204.673 421.679 205.613 423.603 206.129 425.814C206.939 429.304 207.869 442.888 207.869 442.888H232.302C231.372 437.86 230.211 433.964 228.811 421.393C227.476 409.375 234.659 367.951 235.276 364.405C235.304 364.249 235.322 364.166 235.322 364.166C241.603 390.449 257.02 420.933 258.595 422.673C260.16 424.423 263.301 425.989 263.301 425.989C265.051 429.304 268.716 442.888 268.716 442.888H296.805C295.239 435.705 288.083 424.948 285.809 420.933C283.543 416.917 274.997 389.519 272.722 371.377C271.773 363.816 271.046 355.831 270.512 349.081V349.062C269.766 339.632 269.407 332.633 269.407 332.633C262.26 325.311 206.35 318.091 206.35 318.091L204.581 323.828C204.581 323.828 204.564 324.668 204.297 326.067C204.039 327.458 203.928 328.332 203.928 328.332C197.656 363.926 202.408 408.021 202.924 413.777Z" fill="url(#paint3_linear_167_239)"/>
<path opacity="0.62" d="M269.562 335.414C269.562 335.414 252.654 333.333 242.008 338.389C231.362 343.445 232.32 352.175 232.32 352.175L235.322 364.157L224.98 353.336L203.918 328.323C203.918 328.323 207.859 330.708 212.98 331.758C212.98 331.758 205.796 327.31 204.581 323.82L206.349 318.082L269.562 331.583V335.414V335.414Z" fill="#220786"/>
<path d="M281.628 254.463L283.543 243.992C283.543 243.992 288.433 243.992 295.58 250.623C295.58 250.623 295.755 254.215 298.205 258.7C298.205 258.7 306.438 262.669 310.26 268.075C314.082 273.481 315.527 274.024 319.515 270.957C320.574 270.147 321.293 267.393 321.67 263.645C322.232 257.981 322.02 250.043 321.044 243.053C320.233 237.288 318.898 232.177 317.047 229.515C317.047 229.515 317.222 225.96 315.472 223.17C315.389 223.225 315.297 223.28 315.214 223.345C314.643 223.704 313.17 224.496 311.641 224.22C309.661 223.87 308.003 220.84 308.003 220.84C308.003 220.84 306.871 220.959 306.29 221.779C306.29 221.779 298.379 216.981 293.37 208.904C288.369 200.837 287.558 199.842 287.558 199.842C287.558 199.842 286.278 199.317 284.547 198.995C283.184 198.737 281.535 198.617 279.997 198.976C279.997 198.976 255.685 236.551 281.628 254.463Z" fill="url(#paint4_linear_167_239)"/>
<path d="M229.85 201.997C229.85 201.997 233.243 196.727 233.243 186.191L256.475 175.428C256.475 175.428 255.287 183.551 259.283 190.596C260.342 192.456 265.27 195.403 265.27 195.403C265.27 195.403 243.71 221.991 233.359 219.44C223.007 216.889 225.08 205.617 225.08 205.617C225.08 205.617 226.829 206.298 229.85 201.997Z" fill="#FF9B8B"/>
<path d="M262.369 193.479C262.369 193.479 250.683 205.129 240.626 205.783C229.851 206.483 231.628 197.522 231.628 197.522C231.628 197.522 226.756 204.355 228.147 209.734C229.547 215.112 240.184 215.379 248.389 211.797C256.595 208.223 264.441 194.326 264.441 194.326L262.369 193.479Z" fill="#CEC5FF"/>
<path opacity="0.83" d="M281.621 254.463L283.537 243.992C283.537 243.992 288.427 243.992 295.574 250.623C295.574 250.623 295.749 254.215 298.198 258.7C298.198 258.7 306.432 262.669 310.254 268.075C314.075 273.481 315.521 274.024 319.509 270.957C320.568 270.147 321.286 267.393 321.664 263.645L321.038 262.144V243.053C320.227 237.288 318.892 232.177 317.041 229.515C317.041 229.515 317.216 225.96 315.466 223.17C315.383 223.225 315.291 223.28 315.208 223.345C308.439 227.756 306.045 240.732 305.584 250.393C305.52 247.943 303.964 238.467 302.794 238.642C301.284 238.872 298.723 256.324 298.723 256.324C295.703 241.358 305.446 223.308 306.229 221.871C297.324 234.175 295.813 248.302 295.813 248.302L281.971 238.181C281.971 238.181 273.637 229.8 276.519 215.378C279.402 200.957 284.541 198.995 284.541 198.995C283.178 198.737 281.529 198.617 279.991 198.976C279.991 198.976 255.678 236.551 281.621 254.463Z" fill="#446EF7"/>
<path d="M212.526 264.005C212.526 264.005 216.007 282.212 211.476 301.929C211.476 301.929 208.686 303.845 208.336 306.285C208.336 306.285 208.336 306.304 208.327 306.331C207.995 308.763 207.602 310.585 207.602 310.585C207.602 310.585 207.286 312.225 206.236 313.966C206.043 314.297 205.932 314.684 205.895 315.108C205.73 316.913 206.761 319.197 206.761 319.197C206.761 319.197 208.861 324.612 230.669 326.528C252.477 328.452 269.404 332.633 269.404 332.633C269.404 332.633 272.896 328.719 270.493 325.404C270.493 325.404 272.028 321.647 271.853 320.422C271.678 319.197 263.648 305.245 265.738 295.473C267.838 285.702 275.684 277.773 280.05 258.7C280.05 258.7 282.96 257.724 283.135 256.324C283.31 254.933 281.855 252.659 281.855 252.659L281.33 253.653C281.33 253.653 271.384 247.953 274.064 223.87C276.734 199.787 279.562 198.323 284.544 198.995C284.544 198.995 284.985 200.791 278.806 198.995C278.806 198.995 275.252 198.48 271.586 197.199C267.921 195.919 264.348 194.202 264.348 194.202C264.348 194.202 243.368 212.192 233.671 211.041C222.601 209.733 230.411 197.623 230.411 197.623C230.411 197.623 223.458 198.977 219.737 199.843C216.007 200.717 214.617 199.843 214.617 199.843C214.617 199.843 209.671 200.314 206.761 202.515C203.851 204.707 202.985 213.049 204.146 232.591C205.306 252.134 212.526 264.005 212.526 264.005Z" fill="url(#paint5_linear_167_239)"/>
<path d="M245.811 234.072L238.577 221.544L235.972 226.206L240.313 234.072L236.551 240.773L239.445 245.434L245.811 234.072Z" fill="#135BC6"/>
<path d="M235.393 227.371L237.998 232.032L237.13 233.198H231.92L235.393 227.371Z" fill="#135BC6"/>
<path d="M236.84 238.733L239.445 234.072H226.133L218.898 246.6H224.107L228.737 238.733H236.84Z" fill="#135BC6"/>
<path d="M229.605 239.608H234.525L238.866 246.6H247.548L250.152 250.97L235.972 251.261L229.605 239.608Z" fill="#135BC6"/>
<path d="M227.869 241.938H229.895L232.499 246.6H225.264L227.869 241.938Z" fill="#135BC6"/>
<path d="M240.892 244.269L243.496 239.899L247.258 245.434H241.76L240.892 244.269Z" fill="#135BC6"/>
<path d="M259.715 181.083C259.715 181.083 249.782 197.504 232.157 195.942C232.157 195.942 233.417 190.582 233.242 186.19C233.242 186.19 241.586 186.669 247.663 184.419C254.522 181.883 259.715 175.379 259.715 175.379L259.715 181.083Z" fill="url(#paint6_linear_167_239)" fill-opacity="0.7"/>
<path opacity="0.5" d="M283.543 243.992C283.543 243.992 276.479 241.072 273.763 235.786C273.763 235.786 274.177 248.882 281.333 253.652C281.333 253.652 283.11 248.348 283.543 243.992Z" fill="#446EF7"/>
<path opacity="0.62" d="M235.32 364.157L231.6 350.545C231.6 350.545 225.135 341.179 214.636 336.906L224.978 352.756L235.32 364.157Z" fill="#1B0C78"/>
<path opacity="0.62" d="M258.595 422.674C260.16 424.424 263.301 425.99 263.301 425.99C265.051 429.305 268.716 442.889 268.716 442.889H296.805C295.239 435.705 288.083 424.949 285.809 420.934C283.543 416.918 274.997 389.52 272.722 371.378C271.773 363.817 271.046 355.832 270.512 349.082C270.484 349.597 269.554 354.874 272.271 380.495C275.061 406.788 276.968 418.143 276.737 420.464C276.507 422.794 265.106 428.375 258.595 422.674Z" fill="#281C6F"/>
<path opacity="0.62" d="M203.928 419.109C204.674 421.679 205.614 423.604 206.129 425.814C206.94 429.304 207.87 442.888 207.87 442.888H232.303C231.373 437.86 230.212 433.964 228.812 421.393C227.477 409.375 234.66 367.951 235.277 364.405C234.467 368.218 225.442 411.18 223.406 414.827C218.977 422.729 206.977 425.409 203.928 419.109Z" fill="#281C6F"/>
<path opacity="0.83" d="M265.344 201.684C265.325 201.758 265.297 201.823 265.27 201.898C265.307 201.795 265.334 201.721 265.344 201.684Z" fill="url(#paint7_linear_167_239)"/>
<path opacity="0.62" d="M269.563 358.576C269.563 358.576 271.948 377.391 267.804 397.661L269.563 358.576Z" fill="#281C6F"/>
<path opacity="0.62" d="M230.498 362.996C230.498 362.996 224.033 388.589 218.802 399.466C218.802 399.466 229.107 385.329 232.846 375.788L235.277 364.405L232.321 352.185L230.498 362.996Z" fill="#281C6F"/>
<path d="M230.404 197.614L231.62 197.513C231.62 197.513 229.105 201.537 228.58 204.853C228.056 208.168 230.257 210.305 233.664 211.032C233.664 211.032 228.175 210.71 227.475 206.934C226.775 203.158 230.404 197.614 230.404 197.614Z" fill="url(#paint8_linear_167_239)"/>
<path d="M221.254 169.282C224.803 181.278 231.649 184.828 235.737 188.051C241.543 191.309 246.605 190.237 246.605 190.237C266.13 181.785 268.039 173.275 269.325 163.775C269.968 159.088 270.55 150.365 268.582 139.583C268.321 138.111 267.879 136.787 267.316 135.568C263.74 127.77 255.303 124.744 255.303 124.744C250.261 122.894 244.516 122.495 239.273 123.504C231.72 124.954 225.774 129.052 223.865 137.144C223.242 139.751 222.901 142.441 222.6 145.11C221.937 150.596 221.595 156.145 221.414 161.673C221.334 164.195 221.274 166.738 221.254 169.282Z" fill="#FFADA0"/>
<path d="M239.83 139.963C239.83 139.963 229.345 137.846 226.058 145.568C226.058 145.568 237.774 142.04 240.012 143.794L239.83 139.963Z" fill="#38368E"/>
<path d="M250.98 141.103C250.98 141.103 261.304 138.341 265.074 145.841C265.074 145.841 253.158 143.059 251.04 144.934L250.98 141.103Z" fill="#38368E"/>
<path d="M262.597 153.505C262.381 156.728 259.309 159.172 255.74 158.934C252.171 158.696 249.446 155.884 249.662 152.64C249.878 149.417 252.95 146.994 256.519 147.232C260.088 147.47 262.814 150.282 262.597 153.505Z" fill="white"/>
<path d="M251.805 152.573C251.61 155.428 253.275 157.872 255.503 158.024C257.731 158.175 259.7 155.969 259.895 153.114C260.089 150.258 258.445 147.814 256.196 147.663C253.968 147.511 251.999 149.718 251.805 152.573Z" fill="#7F9EC9"/>
<path d="M252.973 152.659C252.843 154.692 254.011 156.423 255.59 156.531C257.169 156.639 258.575 155.082 258.705 153.048C258.835 151.015 257.667 149.285 256.088 149.176C254.509 149.047 253.103 150.626 252.973 152.659Z" fill="#38368E"/>
<path d="M253.015 149.156C252.972 149.697 253.599 150.195 254.421 150.259C255.243 150.324 255.935 149.913 255.978 149.351C256.022 148.789 255.373 148.313 254.551 148.248C253.75 148.204 253.058 148.615 253.015 149.156Z" fill="white" fill-opacity="0.8"/>
<path d="M239.496 153C239.286 156.177 236.297 158.576 232.825 158.345C229.353 158.113 226.701 155.336 226.911 152.158C227.122 148.959 230.11 146.581 233.583 146.812C237.055 147.044 239.707 149.822 239.496 153Z" fill="white"/>
<path d="M229.876 152.155C229.687 154.933 231.307 157.311 233.475 157.459C235.642 157.606 237.557 155.459 237.747 152.682C237.936 149.904 236.316 147.526 234.148 147.378C231.98 147.231 230.065 149.377 229.876 152.155Z" fill="#7F9EC9"/>
<path d="M231.015 152.241C230.889 154.219 232.025 155.903 233.562 156.008C235.098 156.113 236.466 154.577 236.592 152.599C236.718 150.621 235.582 148.937 234.046 148.832C232.509 148.727 231.162 150.263 231.015 152.241Z" fill="#38368E"/>
<path d="M231.056 148.83C231.014 149.357 231.645 149.841 232.424 149.904C233.224 149.967 233.897 149.567 233.939 149.02C233.981 148.473 233.371 148.01 232.571 147.947C231.772 147.904 231.098 148.283 231.056 148.83Z" fill="white" fill-opacity="0.8"/>
<path d="M221.949 150.523C221.949 150.523 218.099 138.364 214.924 147.933C212.393 155.553 216.611 163.024 220.016 162.489C223.421 161.975 221.949 150.523 221.949 150.523Z" fill="#FFADA0"/>
<path d="M221.861 152.695C221.861 152.695 218.824 144.483 217.241 147.438C215.657 150.394 215.674 154.432 215.674 154.432C215.674 154.432 216.8 150.145 219.004 152.965C219.004 152.965 216.049 159.666 220.98 158.267C220.996 158.267 223.135 156.395 221.861 152.695Z" fill="#FF9B8B"/>
<path d="M268.26 150.538C268.26 150.538 272.591 137.364 276.163 147.731C279.01 155.988 274.265 164.059 270.434 163.503C266.603 162.946 268.26 150.538 268.26 150.538Z" fill="#FFADA0"/>
<path d="M268.332 152.444C268.332 152.444 271.606 143.875 273.314 146.959C275.022 150.043 275.004 154.257 275.004 154.257C275.004 154.257 273.789 149.784 271.412 152.726C271.412 152.726 274.599 159.718 269.282 158.259C269.282 158.259 266.976 156.305 268.332 152.444Z" fill="#FF9B8B"/>
<path d="M253.488 171.243C253.413 171.468 251.936 175.04 249.542 177.715C246.661 180.932 242.453 182.84 237.796 175.957C236.804 174.498 235.813 172.665 234.784 170.364C234.784 170.364 236.393 170.981 238.75 171.655C242.453 172.702 247.952 173.881 251.768 172.179C252.403 172.16 252.965 171.655 253.488 171.243Z" fill="#712311"/>
<path d="M249.543 177.754C246.663 180.971 242.454 182.86 237.797 175.977C240.285 175.303 246.176 174.256 249.543 177.754Z" fill="#D5503B"/>
<path d="M251.77 172.274C245.691 179.063 241.277 175.491 238.752 171.712C242.455 172.76 247.954 173.826 251.77 172.274Z" fill="white"/>
<path d="M238.623 162.983C238.623 162.983 244.039 171.769 250.087 162.968L238.623 162.983Z" fill="#D8826C"/>
<path d="M222.073 156.938C222.717 155.027 223.104 151.008 223.104 151.008C223.104 151.008 223.221 144.077 223.233 143.168C223.257 140.966 224.359 130.988 229.141 130.72C230.255 130.661 233.197 134.145 237.1 135.741C237.804 136.032 243.758 132.222 246.853 131.139C256.067 127.924 264.565 136.684 264.565 136.684C267.249 139.643 266.429 144.893 266.44 146.28C266.358 142.726 266.452 147.2 266.44 146.28C266.487 148.307 267.144 151.203 267.8 153.125C268.257 150.97 269.026 151.106 270.14 146.994C271.992 140.167 274.072 134.762 273.732 133.236L268.82 124.312C262.15 112.209 246.443 108.434 234.943 116.17L230.63 119.07C224.605 116.962 223.175 119.921 221.498 122.146C218.392 126.293 217.185 130.144 217.067 135.968C217.02 138.135 218.787 139.503 220.44 145.736C221.483 149.673 221.651 154.969 222.073 156.938Z" fill="#293AA1"/>
<path d="M284.058 123.883C280.096 131.455 273.062 125.269 270.46 119.689C264.06 105.931 256.347 108.074 256.347 108.074C240.557 95.9124 236.408 108.214 236.408 108.214C224.053 107.014 223.595 113.876 225.459 119.969C227.323 126.038 231.602 131.082 237.076 134.332C237.322 134.472 237.568 134.624 237.803 134.763C241.87 128.135 249.443 127.552 252.783 127.983C257.273 128.554 259.031 130.931 261.926 133.319C266.393 137 268.385 138.678 276.849 137.897C290.423 136.639 284.058 123.883 284.058 123.883Z" fill="#5A65BA"/>
<path d="M284.058 123.883C280.096 131.455 273.062 125.269 270.46 119.689C264.06 105.931 256.347 108.074 256.347 108.074C240.557 95.9124 236.408 108.214 236.408 108.214C224.053 107.014 223.595 113.876 225.459 119.969C227.323 126.038 231.602 131.082 237.076 134.332C237.322 134.472 237.568 134.624 237.803 134.763C240.827 126.783 248.763 126.061 252.115 125.805C254.131 125.653 257.765 126.003 260.567 128.17C268.186 134.064 268.374 138.666 276.849 137.885C290.423 136.639 284.058 123.883 284.058 123.883Z" fill="#293AA1"/>
<path d="M283.204 122.694C279.242 130.267 273.062 125.269 270.46 119.689C264.06 105.931 256.347 108.074 256.347 108.074C240.557 95.9124 236.408 108.214 236.408 108.214C224.053 107.014 223.595 113.876 225.459 119.969C227.323 126.038 231.602 131.082 237.076 134.332C237.322 134.472 237.568 134.624 237.803 134.763C240.827 126.783 248.223 120.574 251.588 120.318C253.604 120.167 257.238 120.516 260.039 122.694C267.659 128.589 268.385 138.666 276.849 137.885C290.941 136.563 283.801 122.607 283.204 122.694Z" fill="#5A65BA"/>
<path d="M237.388 134.441C237.388 134.441 226.916 101.328 245.8 102.418C245.8 102.418 252.85 104.784 258.353 109.365C258.353 109.365 246.045 105.562 241.87 111.045C236.622 117.939 236.239 126.802 237.388 134.441Z" fill="#293AA1"/>
<path d="M265.934 116.042C265.934 116.042 262.441 111.731 255.091 111.428C248.011 111.126 238.27 114.317 237.098 134.343C237.098 134.343 242.185 116.146 255.724 113.595C257.787 113.211 260.671 113.351 265.934 116.042Z" fill="#293AA1"/>
<path d="M341.929 201.593C341.929 201.593 345.56 190.07 346.27 182.76C346.979 175.45 349.682 167.538 349.682 167.538C349.682 167.538 351.583 167.177 352.715 168.176C353.846 169.174 355.279 177.185 352.689 182.838C344.228 189.865 348.141 202.938 348.141 202.938L350.15 203.36L355.805 198.291L358.067 198.136C358.067 198.136 367.944 212.227 366.322 219.035L364.019 221.747L354.319 218.113L344.691 207.54L341.929 201.593Z" fill="#F88A7F"/>
<path d="M358.014 197.988C358.014 197.988 356.082 205.603 352.983 211.824C352.983 211.824 352.706 214.577 355.818 215.423L356.782 214.718C356.782 214.718 356.688 217.893 359.424 218.71L362.631 216.613L361.487 218.66C361.487 218.66 361.95 221.196 364.485 221.628C364.485 221.628 369.378 219.22 370.551 214.983L367.138 210.587L367.704 207.895L363.501 203.384L363.828 201.397C363.807 201.402 361.366 198.652 358.014 197.988Z" fill="url(#paint9_linear_167_239)"/>
<path opacity="0.3" d="M346.758 180.588C346.758 180.588 347.087 182.617 347.958 183.564C348.828 184.51 345.674 191.311 345.674 191.311L348.198 202.909L350.152 203.32L355.691 198.203C355.691 198.203 352.798 201.183 352.125 203.734L353.638 204.937L356.185 200.096L356.102 203.947L354.438 208.411C354.438 208.411 352.37 205.645 347.804 204.595L346.849 205.731C346.849 205.731 353.666 214.51 354.701 219.058C354.701 219.058 351.726 212.866 343.614 205.02L343.316 202.003L343.551 195.008C343.569 195.012 346.731 185.527 346.758 180.588Z" fill="url(#paint10_linear_167_239)"/>
<path d="M340.937 161.176L339.4 163.763L340.168 181.696L341.254 181.721L340.937 161.176Z" fill="url(#paint11_linear_167_239)"/>
<path d="M317.043 229.506C317.043 229.506 313.939 233.18 311.867 247.593C309.795 262.006 315.487 270.607 315.487 270.607C315.487 270.607 309.721 269.521 307.999 252.649C306.277 235.777 313.378 228.281 313.378 228.281L317.043 229.506Z" fill="url(#paint12_linear_167_239)" fill-opacity="0.7"/>
<path d="M187.797 233.033V301.724C187.797 303.49 186.367 304.921 184.6 304.921H79.8515C78.085 304.921 76.6543 303.49 76.6543 301.724V233.033C76.6543 228.958 79.96 225.647 84.0404 225.647H180.411C184.492 225.647 187.797 228.958 187.797 233.033Z" fill="white" stroke="#84B5FF" stroke-miterlimit="10"/>
<path d="M128.125 242.079H115.658V243.126H128.125V242.079Z" fill="#84B5FF"/>
<path d="M142.748 242.078H130.281V243.126H142.748V242.078Z" fill="#06B25F"/>
<path d="M138.842 247.732H119.51V248.78H138.842V247.732Z" fill="#276ED8"/>
<path d="M151.859 247.732H142.035V248.78H151.859V247.732Z" fill="#84B5FF"/>
<path d="M134.703 253.378H126.215V254.426H134.703V253.378Z" fill="#06B25F"/>
<path d="M167.773 253.378H139.609V254.426H167.773V253.378Z" fill="#06B25F"/>
<path d="M164.995 259.03H132.809V260.077H164.995V259.03Z" fill="#276ED8"/>
<path d="M134.665 264.676H124.76V265.724H134.665V264.676Z" fill="#84B5FF"/>
<path d="M148.811 264.676H138.906V265.724H148.811V264.676Z" fill="#276ED8"/>
<path d="M130.065 293.993H115.658V295.041H130.065V293.993Z" fill="#84B5FF"/>
<path d="M149.512 293.993H135.105V295.041H149.512V293.993Z" fill="#06B25F"/>
<path d="M168.449 293.993H154.043V295.041H168.449V293.993Z" fill="#84B5FF"/>
<path d="M147.673 288.337H119.51V289.385H147.673V288.337Z" fill="#276ED8"/>
<path d="M180.222 288.337H152.059V289.385H180.222V288.337Z" fill="#84B5FF"/>
<path d="M154.162 282.693H126.215V283.741H154.162V282.693Z" fill="#84B5FF"/>
<path d="M164.374 282.693H156.598V283.741H164.374V282.693Z" fill="#06B25F"/>
<path d="M134.909 277.04H124.391V278.087H134.909V277.04Z" fill="#06B25F"/>
<path d="M151.011 277.04H140.492V278.087H151.011V277.04Z" fill="#276ED8"/>
<path d="M168.303 277.039H157.785V278.087H168.303V277.039Z" fill="#84B5FF"/>
<path d="M151.335 271.395H136.586V272.443H151.335V271.395Z" fill="#06B25F"/>
<path d="M131.023 271.395H116.273V272.443H131.023V271.395Z" fill="#276ED8"/>
<path d="M112.186 241.077H110.842V242.422H112.186V241.077Z" fill="#84B5FF"/>
<path d="M112.184 290.335H110.84V287.598H112.184V290.335V290.335ZM112.184 283.489H110.84V280.752H112.184V283.489V283.489ZM112.184 276.643H110.84V273.906H112.184V276.643V276.643ZM112.184 269.797H110.84V267.06H112.184V269.797V269.797ZM112.184 262.951H110.84V260.214H112.184V262.951V262.951ZM112.184 256.105H110.84V253.368H112.184V256.105V256.105ZM112.184 249.259H110.84V246.522H112.184V249.259V249.259Z" fill="#84B5FF"/>
<path d="M112.184 294.444H110.84V295.79H112.184V294.444Z" fill="#84B5FF"/>
<path opacity="0.7" d="M76.4004 237.065C76.4004 233.752 79.0867 231.065 82.4004 231.065H105.325V304.927H82.4004C79.0867 304.927 76.4004 302.24 76.4004 298.927V237.065Z" fill="#84B5FF"/>
<path d="M91.1817 243.112H78.7148V244.16H91.1817V243.112Z" fill="#06B25F"/>
<path d="M100.722 249.514H81.3906V250.562H100.722V249.514Z" fill="#84B5FF"/>
<path d="M100.722 255.917H81.3906V256.965H100.722V255.917Z" fill="#84B5FF"/>
<path d="M100.722 262.319H81.3906V263.367H100.722V262.319Z" fill="#84B5FF"/>
<path d="M100.722 268.72H81.3906V269.768H100.722V268.72Z" fill="#84B5FF"/>
<path d="M101.726 281.524H82.3945V282.572H101.726V281.524Z" fill="#84B5FF"/>
<path d="M101.726 287.928H82.3945V288.975H101.726V287.928Z" fill="#84B5FF"/>
<path d="M101.726 294.328H82.3945V295.376H101.726V294.328Z" fill="#84B5FF"/>
<path d="M91.1817 275.123H78.7148V276.17H91.1817V275.123Z" fill="#06B25F"/>
<path d="M187.797 233.033V233.343H76.6543V233.033C76.6543 228.958 79.96 225.647 84.0404 225.647H180.411C184.492 225.647 187.797 228.958 187.797 233.033Z" fill="#84B5FF"/>
<path opacity="0.3" d="M170.918 229.853C170.918 230.385 170.489 230.814 169.957 230.814C169.425 230.814 168.996 230.385 168.996 229.853C168.996 229.321 169.425 228.892 169.957 228.892C170.484 228.892 170.918 229.321 170.918 229.853Z" fill="white"/>
<path opacity="0.3" d="M176.175 229.852C176.175 230.384 175.747 230.813 175.215 230.813C174.683 230.813 174.254 230.384 174.254 229.852C174.254 229.32 174.683 228.891 175.215 228.891C175.741 228.891 176.175 229.32 176.175 229.852Z" fill="white"/>
<path opacity="0.3" d="M181.203 229.852C181.203 230.384 180.774 230.813 180.242 230.813C179.71 230.813 179.281 230.384 179.281 229.852C179.281 229.32 179.71 228.891 180.242 228.891C180.774 228.891 181.203 229.32 181.203 229.852Z" fill="white"/>
<path d="M187.797 233.033V301.724C187.797 303.49 186.367 304.921 184.6 304.921H79.8515C78.085 304.921 76.6543 303.49 76.6543 301.724V233.033C76.6543 228.958 79.96 225.647 84.0404 225.647H180.411C184.492 225.647 187.797 228.958 187.797 233.033Z" stroke="#84B5FF" stroke-miterlimit="10"/>
<path d="M131.059 217.778C131.059 217.778 128.597 217.086 126.552 220.11L126.78 221.2C126.78 221.2 124.275 221.361 121.389 225.015C121.389 225.015 122.987 229.104 127.938 231.5C127.938 231.5 130.436 231.136 131.116 229.154L130.815 227.785L132.51 229.446C132.51 229.446 134.674 230.418 136.104 227.205L131.059 217.778Z" fill="#FFA49C"/>
<path d="M138.059 216.645C138.059 216.645 135.597 215.953 133.552 218.977L133.78 220.067C133.799 220.056 134.137 221.933 137.815 226.653L139.51 228.313C139.51 228.313 141.674 229.285 143.104 226.072L138.059 216.645Z" fill="#FFA49C"/>
<path d="M118.843 229.429C118.843 229.429 118.268 227.012 120.816 225.383L125.937 230.814C125.937 230.814 125.823 232.594 123.659 233.021C123.659 233.021 120.213 231.93 118.843 229.429Z" fill="#FFA49C"/>
<path d="M126.779 221.208C126.779 221.208 128.671 225.494 130.813 227.794L131.115 229.163C131.115 229.163 126.855 225.401 125.615 221.544C125.607 221.543 126.223 221.211 126.779 221.208Z" fill="#E28183"/>
<path d="M121.343 225.244C121.343 225.244 123.447 228.257 125.421 229.691L125.866 230.703C125.866 230.703 122.071 228.477 120.524 225.692C120.518 225.693 120.926 225.336 121.343 225.244Z" fill="#E28183"/>
<path d="M131.354 217.944C131.354 217.944 134.232 220.949 136.762 225.287L134.954 225.287C134.954 225.287 133.567 223.336 131.884 219.471C131.884 219.471 130.798 217.947 131.354 217.944Z" fill="#E28183"/>
<path d="M138.271 216.66C138.271 216.66 142.343 221.375 144.712 225.286L142.543 225.286C142.543 225.286 141.24 224.251 138.98 218.81C138.98 218.81 137.515 216.668 138.271 216.66Z" fill="#FF9E8D"/>
<path d="M348.199 141.417V153.094L358.208 146.722L348.199 141.417Z" fill="white"/>
<path d="M352.716 284.188C353.433 281.37 367.723 209.926 367.723 209.926C367.723 209.926 329.617 198.7 305.245 209.926L320.853 284.812L352.716 284.188Z" fill="white"/>
<path opacity="0.83" d="M346.034 286.368C346.494 285.962 348.084 284.553 349.552 283.201C351.285 281.595 352.303 280.23 352.303 280.23C352.303 280.23 352.061 277.666 352.061 276.949C352.061 276.225 355.891 259.144 359.655 253.857C363.168 248.925 359.717 221.142 359.234 217.391L359.177 216.972C359.177 216.972 356.696 221.142 355.622 229.438C354.542 237.741 356.067 254.098 356.067 254.098C356.067 254.098 353.917 267.326 348.624 267.567C348.624 267.567 353.065 276.282 351.313 280.656C350.977 281.487 346.844 285.6 346.034 286.368Z" fill="#CAC3CD" fill-opacity="0.3"/>
<path d="M354.59 247.855C354.59 247.855 325.941 250.812 318.033 244.898C318.056 244.898 327.929 268.574 354.59 247.855Z" fill="#CAC3CD" fill-opacity="0.3"/>
<path d="M354.567 283.929C354.567 283.929 377.735 332.436 368.278 486.781C368.278 486.781 358.289 488.883 355.145 487.82C355.145 487.82 326.565 353.687 333.502 286.355L354.567 283.929Z" fill="#84B5FF"/>
<path d="M341.479 315.114C341.479 315.114 342.011 440.586 320.461 484.681L304.159 484.15C304.159 484.15 295.465 334.355 320.831 283.77L340.277 285.918L341.479 315.114Z" fill="#84B5FF"/>
<path d="M355.93 287.028C355.93 287.028 337.94 292.387 319.673 285.18L319.442 277.997C319.442 277.997 328.807 280.815 336.784 280.33C344.738 279.868 355.513 278.459 355.513 278.459L355.93 287.028Z" fill="#8F99B6"/>
<path d="M351.747 277.046C351.747 277.046 354.776 288.757 351.978 290.143C349.157 291.552 347.515 290.929 347.515 290.929L347.538 277.97L351.747 277.046Z" fill="#84B5FF"/>
<path d="M322.842 276.125C322.842 276.125 320.946 287.074 323.328 289.129C326.565 291.878 326.75 289.661 326.75 289.661L327.051 277.072L322.842 276.125Z" fill="#84B5FF"/>
<path d="M342.379 277.997C342.379 279.406 341.893 288.068 341.893 288.068L331.812 288.299L330.887 278.228L342.379 277.997ZM333.477 286.566L340.275 286.104L340.506 280.768H333.014L333.477 286.566Z" fill="#EAEAEA"/>
<path d="M347.319 205.963C348.359 212.084 340.151 212.615 340.151 212.615C336.521 212.615 330.856 211.506 330.856 207.88L332.613 185.22C332.613 181.594 335.55 178.66 339.18 178.66C342.81 178.66 345.747 181.594 345.747 185.22L347.319 205.963Z" fill="#F39B8D"/>
<path d="M321.059 126.043C322.082 124.59 328.109 127.055 329.007 125.492C332.565 129.599 342.111 123.616 346.582 126.954C352.437 131.329 357.053 135.547 363.77 138.448C365.98 139.404 362.462 140.494 364.879 140.917C364.986 145.215 367.288 158.849 366.506 163.174C362.565 184.863 345.115 195.395 329.589 191.376C317.855 188.327 308.094 173.294 307.753 151.923C307.546 139.029 319.326 130.457 319.708 128.549C326.049 123.766 316.41 132.555 321.059 126.043Z" fill="#FBB2A6"/>
<path d="M336.969 171.025C336.969 171.025 333.223 177.331 329.2 170.909L336.969 171.025Z" fill="#D8826C"/>
<path d="M340.831 158.23C340.831 162.388 344.207 165.783 348.392 165.783C352.577 165.783 355.953 162.411 355.953 158.23C355.953 154.072 352.577 150.677 348.392 150.677C344.207 150.677 340.831 154.072 340.831 158.23Z" fill="white"/>
<path d="M344.194 160.015C344.356 163.029 346.334 165.383 348.616 165.281C350.905 165.16 352.619 162.631 352.476 159.624C352.32 156.591 350.336 154.256 348.072 154.365C345.771 154.46 344.038 156.982 344.194 160.015Z" fill="#06B25F"/>
<path d="M345.403 159.955C345.517 162.088 346.92 163.761 348.547 163.68C350.174 163.6 351.407 161.803 351.281 159.643C351.174 157.491 349.77 155.818 348.144 155.899C346.51 155.998 345.296 157.803 345.403 159.955Z" fill="#400404"/>
<path opacity="0.8" d="M345.028 156.283C345.052 156.874 345.76 157.302 346.596 157.26C347.432 157.217 348.094 156.701 348.063 156.129C348.039 155.538 347.331 155.109 346.495 155.152C345.659 155.195 344.997 155.711 345.028 156.283Z" fill="white"/>
<path d="M344.949 177.103C344.949 177.103 332.764 182.716 327.607 177.565C327.607 177.565 332.301 189.276 344.949 177.103Z" fill="#D5503B"/>
<path d="M340.831 158.231C340.831 158.231 340.23 153.381 344.97 150.932C352.231 147.19 356.208 155.852 358.566 157.261C358.566 157.261 357.04 158.786 355.93 158.254C355.93 158.231 347.329 147.953 340.831 158.231Z" fill="#302725"/>
<path d="M328.934 158.713C328.934 162.894 325.558 166.267 321.372 166.267C317.21 166.267 313.811 162.894 313.811 158.713C313.811 154.556 317.187 151.183 321.372 151.183C325.535 151.16 328.934 154.556 328.934 158.713Z" fill="white"/>
<path d="M317.503 159.831C317.788 162.837 319.918 165.07 322.283 164.824C324.649 164.578 326.32 161.953 326.033 158.967C325.748 155.96 323.618 153.727 321.255 153.953C318.909 154.201 317.218 156.824 317.503 159.831Z" fill="#06B25F"/>
<path d="M318.918 159.739C319.085 161.945 320.483 163.552 322.061 163.37C323.639 163.188 324.776 161.233 324.625 159.049C324.457 156.843 323.044 155.214 321.463 155.416C319.904 155.6 318.751 157.533 318.918 159.739Z" fill="#400404"/>
<path opacity="0.8" d="M317.84 155.644C317.915 156.223 318.798 156.648 319.784 156.574C320.792 156.503 321.526 155.973 321.473 155.396C321.398 154.817 320.538 154.395 319.53 154.466C318.521 154.537 317.765 155.065 317.84 155.644Z" fill="white"/>
<path d="M329.05 157.786C329.05 157.786 329.651 153.467 324.911 151.295C317.65 147.969 313.673 155.661 311.338 156.908C311.338 156.908 312.864 158.248 313.974 157.786C313.95 157.786 321.743 148.431 329.05 157.786Z" fill="#302725"/>
<path d="M357.75 147.882C357.75 147.882 350.073 141.022 342.72 143.979C341.009 144.672 340.616 145.48 339.529 148.806C339.529 148.806 347.9 144.117 357.75 147.882Z" fill="#6F3B1E"/>
<path d="M311.339 149.78C311.339 149.78 315.709 141.857 322.368 143.451C323.918 143.82 324.449 144.536 326.184 147.539C326.184 147.562 318.253 144.49 311.339 149.78Z" fill="#6F3B1E"/>
<path d="M364.673 153.013C364.673 153.013 372.835 141.879 375.194 152.574C377.067 161.097 369.459 167.357 364.742 165.763C360.025 164.17 364.673 153.013 364.673 153.013Z" fill="#FBB2A6"/>
<path d="M364.579 154.996C364.579 154.996 370.359 147.974 371.839 151.278C373.319 154.581 372.44 158.461 372.44 158.461C372.44 158.461 371.839 154.026 368.324 156.082C368.324 156.082 370.822 163.381 364.579 160.609C364.555 160.609 362.104 158.184 364.579 154.996Z" fill="#F39B8D"/>
<path d="M364.227 166.327C364.227 167.459 365.083 168.359 366.123 168.359C367.187 168.359 368.02 167.435 368.02 166.327C368.02 165.195 367.164 164.271 366.123 164.271C365.083 164.271 364.227 165.172 364.227 166.327Z" fill="white"/>
<path d="M297.916 145.368C304.529 147.216 311.974 145.876 317.593 141.834C323.212 137.791 326.865 131.116 327.235 124.209C327.351 122.292 326.958 119.982 325.224 119.197C324.622 118.92 323.929 118.897 323.258 118.92C319.165 119.035 315.235 120.768 311.974 123.285C308.714 125.803 306.124 129.06 303.835 132.479C302.193 134.95 300.714 137.537 299.812 140.355C299.257 142.134 298.933 143.982 298.864 145.83" fill="url(#paint13_linear_167_239)"/>
<path d="M325.802 128.53C337.896 135.367 351.584 147.447 364.695 146.778C365.365 146.755 368.741 142.62 369.019 142.089C369.25 141.627 368.996 141.049 368.741 140.541C366.082 135.506 358.96 126.751 353.665 123.771C348.37 120.792 342.566 118.898 336.786 117.188C333.849 116.334 330.866 115.502 327.907 115.456C324.97 115.41 322.01 116.218 320.369 118.205" fill="url(#paint14_linear_167_239)"/>
<path d="M305.128 209.744C305.128 209.744 279.499 268.645 288.867 276.782C288.867 276.782 298.235 281.789 306.378 259.257C314.52 236.703 314.497 208.446 305.128 209.744Z" fill="white"/>
<path opacity="0.83" d="M291.61 277.053C292.124 276.719 293.906 275.561 295.557 274.441C297.509 273.11 294.838 278.417 294.838 278.417C294.838 278.417 294.732 277.167 294.838 276.458C294.946 275.742 301.262 259.417 305.767 254.745C309.971 250.387 310.671 222.4 310.748 218.618L310.754 218.195C310.754 218.195 307.683 221.952 305.393 229.998C303.096 238.049 302.182 254.452 302.182 254.452C302.182 254.452 298.098 267.216 292.828 266.671C292.828 266.671 296.369 273.267 293.99 277.333C293.534 278.105 292.524 276.413 291.61 277.053Z" fill="#CAC3CD" fill-opacity="0.3"/>
<path d="M307.624 249.242C307.624 249.242 286.019 264.379 287.638 273.674C287.893 275.181 288.887 276.803 288.887 276.803C288.887 276.803 298.256 287.466 310.145 263.034C310.122 263.011 317.015 247.364 307.624 249.242Z" fill="white"/>
<path d="M304.504 245.79C306.47 241.456 311.929 238.21 313.664 238.465C315.052 237.793 316.44 238.025 317.619 240.32C319.308 243.588 319.239 249.198 317.943 252.698C315.422 259.513 308.436 250.89 308.737 245.466C306.031 247.784 302.468 250.287 304.504 245.79Z" fill="#F0A98F"/>
<path d="M313.87 238.903C313.87 238.903 321.99 265.213 319.491 266.465C316.993 267.717 304.479 267.717 304.479 267.717C304.479 267.717 295.735 239.529 297.609 238.903C299.506 238.277 313.269 237.652 313.87 238.903Z" fill="#06B25F"/>
<path d="M329.001 270.546C329.001 270.546 325.832 269.897 324.629 268.297C323.426 266.698 322.686 266.003 318.406 264.148C314.15 262.294 312.462 259.813 312.462 259.813C312.462 259.813 309.478 262.734 316.001 265.84C320.003 267.741 306.864 267.764 302.908 267.37C302.908 267.37 300.618 268.715 304.389 270.546C308.159 272.377 304.528 272.586 311.999 275.738C319.471 278.868 328.353 280.398 330.18 275.646C332.008 270.894 329.001 270.546 329.001 270.546Z" fill="#FFBC9F"/>
<path d="M357.521 228.005C356.063 235.238 362.332 265.836 362.332 265.836C358.076 265.558 339.131 266.67 332.122 267.458C329.74 267.713 328.213 267.899 328.213 267.899L325.877 280.022C327.195 280.324 328.491 280.579 329.763 280.834C355.045 285.586 373.574 278.678 373.574 278.678C381.207 231.9 367.629 209.739 367.629 209.739C361.36 209.322 357.521 228.005 357.521 228.005Z" fill="white"/>
<path d="M358.339 197.883C358.339 197.883 356.406 205.498 353.307 211.719C353.307 211.719 353.03 214.472 356.143 215.318L357.106 214.613C357.106 214.613 357.012 217.788 359.748 218.605L362.956 216.508L361.811 218.555C361.811 218.555 362.274 221.091 364.809 221.523C364.809 221.523 369.702 219.115 370.875 214.878L367.462 210.482L368.028 207.79L363.825 203.279L364.152 201.292C364.131 201.297 361.69 198.547 358.339 197.883Z" fill="url(#paint15_linear_167_239)"/>
<path d="M364.217 201.144C364.217 201.144 361.1 210.786 357.043 214.829C357.043 214.829 361.967 210.73 363.882 203.174L364.217 201.144Z" fill="#E28183"/>
<path d="M367.93 208.002C367.93 208.002 365.355 215.491 359.918 218.81C359.918 218.81 364.373 217.561 367.365 210.69L367.93 208.002Z" fill="#E28183"/>
<path d="M326.879 205.045H331.578C331.578 205.045 330.08 209.091 331.939 210.105C335.915 212.274 336.276 212.274 341.698 212.274C344.917 212.274 347.119 205.768 347.119 205.768L351.095 206.491C351.095 206.491 346.9 214.134 341.698 215.888C338.087 217.106 335.269 217.742 331.939 215.888C328.078 213.739 326.879 205.045 326.879 205.045Z" fill="#CAC3CD" fill-opacity="0.3"/>
</g>
<path d="M497.244 243.139V240.033C497.244 239.461 496.781 238.998 496.209 238.998C495.636 238.998 495.173 239.461 495.173 240.033V240.064C493.308 237.171 491.278 234.58 490.166 233.217C489.805 232.773 489.153 232.705 488.71 233.07C488.266 233.431 488.201 234.083 488.562 234.526C490.582 237.002 492.179 239.198 493.424 241.121C492.877 240.946 492.301 241.236 492.122 241.776C491.941 242.319 492.234 242.906 492.776 243.086L495.064 243.849C497.344 247.996 497.593 250.396 496.905 251.084C496.171 251.817 493.476 251.563 488.302 248.442C485.166 246.55 481.673 243.938 478.104 240.845C479.57 239.52 481.039 238.125 482.494 236.669C487.684 231.478 492.123 226.113 495.174 221.385V221.396C495.174 221.969 495.636 222.432 496.209 222.432C496.781 222.432 497.244 221.968 497.244 221.396V218.29C497.244 218.193 497.204 218.106 497.178 218.015C499.556 213.537 499.957 210.47 498.369 208.882C495.29 205.803 487.148 210.986 482.569 214.35C482.108 214.687 482.009 215.336 482.348 215.797C482.684 216.256 483.332 216.355 483.794 216.018C491.233 210.555 495.808 209.247 496.905 210.346C497.571 211.011 497.402 213.31 495.04 217.589L492.776 218.344C492.234 218.524 491.941 219.11 492.122 219.653C492.299 220.186 492.863 220.474 493.403 220.311C490.434 224.905 486.103 230.131 481.031 235.205C479.541 236.695 478.038 238.116 476.541 239.464C475.045 238.116 473.542 236.695 472.052 235.205C466.98 230.131 462.648 224.905 459.679 220.311C460.22 220.474 460.784 220.186 460.961 219.653C461.142 219.11 460.848 218.524 460.307 218.344L458.042 217.589C455.681 213.31 455.512 211.011 456.177 210.346C457.277 209.246 461.853 210.556 469.298 216.026C469.757 216.364 470.407 216.265 470.745 215.805C471.083 215.345 470.984 214.697 470.523 214.358C465.942 210.989 457.791 205.8 454.713 208.882C453.125 210.47 453.527 213.538 455.905 218.015C455.879 218.106 455.839 218.193 455.839 218.29V221.396C455.839 221.969 456.301 222.432 456.874 222.432C457.446 222.432 457.909 221.968 457.909 221.396V221.385C460.96 226.113 465.399 231.478 470.588 236.669C472.043 238.125 473.513 239.52 474.978 240.845C471.409 243.938 467.917 246.55 464.781 248.442C459.601 251.565 456.907 251.813 456.177 251.084C455.489 250.396 455.739 247.996 458.019 243.848L460.307 243.086C460.849 242.906 461.142 242.319 460.961 241.776C460.782 241.237 460.206 240.946 459.659 241.121C460.899 239.207 462.486 237.022 464.494 234.559C464.855 234.116 464.788 233.464 464.345 233.102C463.903 232.742 463.251 232.811 462.888 233.251C461.782 234.608 459.765 237.184 457.909 240.063V240.033C457.909 239.461 457.446 238.998 456.874 238.998C456.302 238.998 455.839 239.461 455.839 240.033V243.139C455.839 243.251 455.881 243.351 455.914 243.454C453.973 247.126 452.894 250.729 454.713 252.548C455.348 253.183 456.219 253.499 457.321 253.499C459.371 253.499 462.224 252.402 465.85 250.215C469.143 248.228 472.809 245.476 476.541 242.226C480.273 245.476 483.939 248.228 487.232 250.215C490.858 252.403 493.711 253.5 495.762 253.499C496.864 253.499 497.734 253.183 498.369 252.548C500.188 250.729 499.11 247.128 497.168 243.455C497.202 243.352 497.244 243.251 497.244 243.139Z" fill="#66D6A0"/>
<path d="M466.188 221.401C466.188 221.973 466.651 222.436 467.223 222.436C467.795 222.436 468.258 221.973 468.258 221.401C468.258 220.829 468.723 220.365 469.294 220.365C469.865 220.365 470.329 220.829 470.329 221.401C470.329 221.972 469.865 222.436 469.294 222.436C468.722 222.436 468.258 222.899 468.258 223.472C468.258 224.044 468.722 224.507 469.294 224.507C469.865 224.507 470.329 224.971 470.329 225.543C470.329 226.114 469.865 226.578 469.294 226.578C468.723 226.578 468.258 226.114 468.258 225.543C468.258 224.97 467.795 224.507 467.223 224.507C466.651 224.507 466.188 224.97 466.188 225.542C466.188 227.255 467.581 228.649 469.294 228.649C471.007 228.649 472.4 227.255 472.4 225.542C472.4 224.748 472.1 224.022 471.607 223.472C472.1 222.921 472.4 222.195 472.4 221.401C472.4 219.688 471.007 218.294 469.294 218.294C467.581 218.294 466.188 219.688 466.188 221.401Z" fill="#66D6A0"/>
<path d="M483.786 228.648C485.499 228.648 486.892 227.254 486.892 225.541V221.4C486.892 219.687 485.499 218.293 483.786 218.293C482.073 218.293 480.68 219.687 480.68 221.4V225.541C480.68 227.254 482.073 228.648 483.786 228.648ZM482.751 221.4C482.751 220.829 483.215 220.364 483.786 220.364C484.357 220.364 484.822 220.828 484.822 221.4V225.542C484.822 226.113 484.357 226.577 483.786 226.577C483.215 226.577 482.751 226.113 482.751 225.542V221.4Z" fill="#66D6A0"/>
<path d="M476.544 228.648C478.257 228.648 479.65 227.254 479.65 225.541C479.65 223.829 478.257 222.435 476.544 222.435C476.226 222.435 475.925 222.497 475.635 222.587C475.869 221.644 476.555 220.364 478.615 220.364C479.187 220.364 479.65 219.901 479.65 219.329C479.65 218.757 479.187 218.293 478.615 218.293C474.519 218.293 473.438 221.68 473.438 223.471V225.541C473.438 227.254 474.831 228.648 476.544 228.648ZM476.544 224.506C477.115 224.506 477.579 224.97 477.579 225.542C477.579 226.113 477.115 226.577 476.544 226.577C475.972 226.577 475.508 226.113 475.508 225.541C475.508 224.97 475.972 224.506 476.544 224.506Z" fill="#66D6A0"/>
<path d="M491.036 218.294C491.036 217.152 490.107 216.223 488.965 216.223C487.824 216.223 486.895 217.152 486.895 218.294C486.895 219.436 487.824 220.365 488.965 220.365C490.107 220.365 491.036 219.436 491.036 218.294Z" fill="#66D6A0"/>
<defs>
<linearGradient id="paint0_linear_167_239" x1="282.062" y1="260.345" x2="365.554" y2="107.818" gradientUnits="userSpaceOnUse">
<stop stop-color="#12844D"/>
<stop offset="1" stop-color="#3BE090"/>
</linearGradient>
<linearGradient id="paint1_linear_167_239" x1="180.398" y1="304.843" x2="180.398" y2="262.514" gradientUnits="userSpaceOnUse">
<stop stop-color="#CF6074"/>
<stop offset="1" stop-color="#FF817F"/>
</linearGradient>
<linearGradient id="paint2_linear_167_239" x1="195.424" y1="302.856" x2="195.424" y2="201.994" gradientUnits="userSpaceOnUse">
<stop stop-color="#79ADFA"/>
<stop offset="1" stop-color="#2C72DA"/>
</linearGradient>
<linearGradient id="paint3_linear_167_239" x1="248.755" y1="442.884" x2="248.755" y2="318.087" gradientUnits="userSpaceOnUse">
<stop stop-color="#000B78"/>
<stop offset="1" stop-color="#1B279B"/>
</linearGradient>
<linearGradient id="paint4_linear_167_239" x1="295.814" y1="272.821" x2="295.814" y2="198.748" gradientUnits="userSpaceOnUse">
<stop stop-color="#7CAFFC"/>
<stop offset="1" stop-color="#2C72DA"/>
</linearGradient>
<linearGradient id="paint5_linear_167_239" x1="244.229" y1="332.63" x2="244.229" y2="193.475" gradientUnits="userSpaceOnUse">
<stop stop-color="#67A1F8"/>
<stop offset="1" stop-color="#1B67D9"/>
</linearGradient>
<linearGradient id="paint6_linear_167_239" x1="259.533" y1="186.426" x2="231.781" y2="186.426" gradientUnits="userSpaceOnUse">
<stop stop-color="#CF6074"/>
<stop offset="1" stop-color="#FF817F"/>
</linearGradient>
<linearGradient id="paint7_linear_167_239" x1="265.302" y1="201.894" x2="265.302" y2="201.681" gradientUnits="userSpaceOnUse">
<stop stop-color="#9D68C2"/>
<stop offset="1" stop-color="#CCEDFF"/>
</linearGradient>
<linearGradient id="paint8_linear_167_239" x1="230.528" y1="211.038" x2="230.528" y2="197.517" gradientUnits="userSpaceOnUse">
<stop stop-color="#3D2CB0"/>
<stop offset="1" stop-color="#0355C7"/>
</linearGradient>
<linearGradient id="paint9_linear_167_239" x1="360.21" y1="220.748" x2="364.698" y2="199.397" gradientUnits="userSpaceOnUse">
<stop offset="0.016" stop-color="#FFC2A9"/>
<stop offset="1" stop-color="#FF9595"/>
</linearGradient>
<linearGradient id="paint10_linear_167_239" x1="346.954" y1="217.435" x2="354.363" y2="182.188" gradientUnits="userSpaceOnUse">
<stop stop-color="#FFEADB"/>
<stop offset="0.9944" stop-color="#C27CB6"/>
</linearGradient>
<linearGradient id="paint11_linear_167_239" x1="340.329" y1="181.719" x2="340.329" y2="161.172" gradientUnits="userSpaceOnUse">
<stop stop-color="#A242EA"/>
<stop offset="1" stop-color="#FE117E"/>
</linearGradient>
<linearGradient id="paint12_linear_167_239" x1="312.384" y1="270.614" x2="312.384" y2="228.286" gradientUnits="userSpaceOnUse">
<stop stop-color="#CF6074"/>
<stop offset="1" stop-color="#FF817F"/>
</linearGradient>
<linearGradient id="paint13_linear_167_239" x1="298.05" y1="146.109" x2="323.142" y2="118.842" gradientUnits="userSpaceOnUse">
<stop stop-color="#25B770" stop-opacity="0.6"/>
<stop offset="1" stop-color="#1FCF79"/>
</linearGradient>
<linearGradient id="paint14_linear_167_239" x1="367.67" y1="144.513" x2="325.319" y2="119.276" gradientUnits="userSpaceOnUse">
<stop stop-color="#33CF83"/>
<stop offset="1" stop-color="#32CE82"/>
</linearGradient>
<linearGradient id="paint15_linear_167_239" x1="360.534" y1="220.643" x2="365.022" y2="199.292" gradientUnits="userSpaceOnUse">
<stop offset="0.016" stop-color="#FFC2A9"/>
<stop offset="1" stop-color="#FF9595"/>
</linearGradient>
</defs>
</svg>
