<svg width="558" height="469" viewBox="0 0 558 469" fill="none" xmlns="http://www.w3.org/2000/svg">
<path d="M177.586 40H104.414C86.5105 40 72 54.5094 72 72.4118V74.4176C72 92.32 86.5105 106.829 104.414 106.829H106.177V127L131.017 106.829H177.586C195.489 106.829 210 92.32 210 74.4176V72.4118C209.981 54.5094 195.471 40 177.586 40Z" fill="#E6F0FF"/>
<path opacity="0.06" d="M283.05 80.0554C205.773 133.666 135.972 219.256 138.5 290.997C141.028 362.738 251 404.997 331 388.497C343.208 384.488 354.396 386.707 367 385.997C394.563 384.489 396 361.997 418.053 341.457C441.03 333.394 397.156 354.798 418.053 341.457C427.128 335.592 447.826 331.565 461.394 319.938C491.401 294.224 529.396 198.701 512.108 167.098C494.82 135.495 388.868 6.64474 283.05 80.0554Z" fill="#276ED8"/>
<path d="M360 101.277V243.383C360 247.037 357.026 249.997 353.355 249.997H135.645C131.974 249.997 129 247.037 129 243.383V101.277C129 92.8464 135.871 85.9971 144.351 85.9971H344.649C353.129 85.9971 360 92.8464 360 101.277Z" fill="white" stroke="#84B5FF" stroke-miterlimit="10"/>
<path d="M360 100.393V100.997H129V100.393C129 92.4501 135.871 85.9971 144.351 85.9971H344.649C353.129 85.9971 360 92.4501 360 100.393Z" fill="#84B5FF"/>
<path d="M360 219.997V243.515C360 247.097 357.026 249.997 353.355 249.997H135.645C131.974 249.997 129 247.097 129 243.515V219.997H360Z" fill="#EDF1FF"/>
<path d="M360 101.277V243.383C360 247.037 357.026 249.997 353.355 249.997H135.645C131.974 249.997 129 247.037 129 243.383V101.277C129 92.8464 135.871 85.9971 144.351 85.9971H344.649C353.129 85.9971 360 92.8464 360 101.277Z" stroke="#84B5FF" stroke-miterlimit="10"/>
<path d="M454.57 289.737C453.8 300.837 444.57 309.597 433.28 309.597C421.48 309.597 411.92 300.037 411.92 288.237C411.92 276.947 420.69 267.727 431.78 266.947V249.997C411.34 250.787 395 267.597 395 288.237C395 309.377 412.14 326.517 433.28 326.517C453.92 326.517 470.73 310.187 471.52 289.737H454.57Z" fill="#06B25F"/>
<path d="M434.779 249.997V266.947C445.379 267.687 453.829 276.137 454.569 286.737H471.519C470.749 266.787 454.719 250.767 434.779 249.997Z" fill="#66D6A0"/>
<g filter="url(#filter0_d_217_7554)">
<path d="M149.03 269.157H75.3C71.27 269.157 68 265.887 68 261.857V202.297C68 198.267 71.27 194.997 75.3 194.997H149.03C153.06 194.997 156.33 198.267 156.33 202.297V261.857C156.33 265.887 153.06 269.157 149.03 269.157Z" fill="#EDF1FF"/>
</g>
<path d="M82.6416 255.017H77.6668C76.6459 255.017 75.8105 254.117 75.8105 253.017V232.947C75.8105 231.847 76.6459 230.947 77.6668 230.947H82.6416C83.6625 230.947 84.4978 231.847 84.4978 232.947V253.017C84.4978 254.117 83.6718 255.017 82.6416 255.017Z" fill="#276ED8"/>
<path d="M97.9736 255.017H92.9988C91.9779 255.017 91.1426 254.117 91.1426 253.017V221.157C91.1426 220.057 91.9779 219.157 92.9988 219.157H97.9736C98.9945 219.157 99.8299 220.057 99.8299 221.157V253.017C99.8299 254.117 98.9945 255.017 97.9736 255.017Z" fill="#276ED8"/>
<path d="M113.298 255.017H108.323C107.302 255.017 106.467 254.117 106.467 253.017V240.517C106.467 239.417 107.302 238.517 108.323 238.517H113.298C114.319 238.517 115.154 239.417 115.154 240.517V253.017C115.154 254.117 114.328 255.017 113.298 255.017Z" fill="#276ED8"/>
<path d="M128.632 255.017H123.657C122.636 255.017 121.801 254.117 121.801 253.017V209.867C121.801 208.767 122.636 207.867 123.657 207.867H128.632C129.653 207.867 130.488 208.767 130.488 209.867V253.017C130.488 254.117 129.653 255.017 128.632 255.017Z" fill="#276ED8"/>
<path d="M143.954 255.017H138.979C137.958 255.017 137.123 254.117 137.123 253.017V227.407C137.123 226.307 137.958 225.407 138.979 225.407H143.954C144.975 225.407 145.81 226.307 145.81 227.407V253.017C145.81 254.117 144.984 255.017 143.954 255.017Z" fill="#276ED8"/>
<path d="M56.32 121.997H17.29C7.74 121.997 0 129.737 0 139.287V140.357C0 149.907 7.74 157.647 17.29 157.647H18.23V168.407L31.48 157.647H56.32C65.87 157.647 73.61 149.907 73.61 140.357V139.287C73.61 129.737 65.87 121.997 56.32 121.997Z" fill="#66D6A0"/>
<path d="M506.94 177H473.64C465 177 458 184 458 192.64C458 201.28 465 208.28 473.64 208.28H506.94C515.58 208.28 522.58 201.28 522.58 192.64C522.57 184 515.57 177 506.94 177Z" fill="#84B5FF"/>
<path d="M479.439 184.76L481.729 189.39L486.839 190.14L483.139 193.74L484.009 198.83L479.439 196.43L474.869 198.83L475.739 193.74L472.039 190.14L477.149 189.39L479.439 184.76Z" fill="white"/>
<path d="M501.13 184.76L503.42 189.39L508.53 190.14L504.83 193.74L505.7 198.83L501.13 196.43L496.56 198.83L497.43 193.74L493.73 190.14L498.84 189.39L501.13 184.76Z" fill="white"/>
<mask id="mask0_217_7554" style="mask-type:alpha" maskUnits="userSpaceOnUse" x="105" y="11" width="377" height="381">
<path d="M482 201.997C482 306.931 397.606 391.997 293.5 391.997C189.394 391.997 105 306.931 105 201.997C105 97.063 189.394 11.9971 293.5 11.9971C397.606 11.9971 482 97.063 482 201.997Z" fill="#C4C4C4"/>
</mask>
<g mask="url(#mask0_217_7554)">
<path d="M204.125 201.432C204.125 201.432 206.847 200.611 207.938 202.793C209.028 204.975 212.441 231.166 211.491 238.533C210.53 245.899 207.808 243.177 207.808 243.177C207.808 243.177 208.078 247.54 209.849 248.772L209.86 248.761C209.882 248.75 209.925 248.718 209.979 248.674C210.022 248.653 210.076 248.61 210.141 248.566H210.152C211.199 247.875 214.828 245.477 218.177 243.177C222.13 240.444 224.452 238.122 224.452 238.122C224.452 238.122 223.901 233.759 223.901 232.538C223.901 231.307 232.639 202.242 241.225 193.245C249.24 184.853 241.366 137.578 240.264 131.195L240.135 130.482C240.135 130.482 233.179 132.534 230.176 134.727C227.184 136.93 216.395 163.5 215.854 177.141C215.304 190.782 210.4 198.527 210.4 198.527C210.4 198.527 208.758 197.533 206.026 198.527L204.125 201.432Z" fill="url(#paint0_linear_217_7554)"/>
<path opacity="0.83" d="M210.152 248.566C211.199 247.875 214.828 245.477 218.177 243.177C222.13 240.444 224.452 238.122 224.452 238.122C224.452 238.122 223.901 233.759 223.901 232.538C223.901 231.307 232.639 202.242 241.225 193.245C249.24 184.853 241.366 137.578 240.264 131.195L240.135 130.482C240.135 130.482 234.475 137.578 232.023 151.695C229.561 165.822 233.038 193.655 233.038 193.655C233.038 193.655 228.135 216.164 216.06 216.575C216.06 216.575 226.191 231.404 222.195 238.846C221.428 240.261 211.999 247.26 210.152 248.566Z" fill="#436CF6"/>
<path d="M233.243 378.855C233.47 381.34 233.902 383.349 234.42 385.098V385.109C235.295 388.123 236.397 390.38 237.002 392.972C237.952 397.066 239.043 412.997 239.043 412.997H267.697C266.606 407.099 265.246 402.531 263.604 387.788C262.038 373.693 270.462 325.111 271.186 320.953C271.218 320.769 271.24 320.672 271.24 320.672C278.606 351.497 296.686 387.248 298.533 389.289C300.37 391.341 304.053 393.177 304.053 393.177C306.105 397.066 310.403 412.997 310.403 412.997H343.346C341.51 404.572 333.117 391.957 330.45 387.248C327.793 382.539 317.77 350.406 315.102 329.129C313.989 320.261 313.136 310.897 312.51 302.98V302.959C311.635 291.899 311.213 283.69 311.213 283.69C302.832 275.104 237.261 266.636 237.261 266.636L235.187 273.365C235.187 273.365 232.843 273.872 232.53 275.514C232.228 277.145 234.42 278.646 234.42 278.646C227.065 320.391 232.638 372.105 233.243 378.855Z" fill="url(#paint1_linear_217_7554)"/>
<path opacity="0.62" d="M311.396 286.952C311.396 286.952 291.566 284.512 279.081 290.441C266.595 296.371 267.718 306.61 267.718 306.61L271.239 320.662L259.11 307.971L234.409 278.636C234.409 278.636 239.032 281.433 245.037 282.665C245.037 282.665 236.612 277.448 235.186 273.354L237.26 266.625L311.396 282.459V286.952Z" fill="#301E72"/>
<path d="M213.5 231.102C213.5 231.102 214.321 240.315 208.791 244.614C208.791 244.614 197.428 238.684 191.844 228.996C186.239 219.297 213.5 231.102 213.5 231.102Z" fill="url(#paint2_linear_217_7554)"/>
<path d="M169.734 202.091C169.734 202.091 166.569 204.661 166.548 206.865C166.526 209.068 171.775 208.042 171.775 208.042L169.734 202.091Z" fill="url(#paint3_linear_217_7554)"/>
<path d="M325.546 192.014L327.793 179.733C327.793 179.733 333.528 179.733 341.909 187.51C341.909 187.51 342.115 191.722 344.988 196.982C344.988 196.982 354.643 201.637 359.126 207.977C363.608 214.317 365.304 214.954 369.98 211.358C371.223 210.407 372.065 207.178 372.508 202.782C373.167 196.14 372.918 186.829 371.773 178.632C370.823 171.87 369.257 165.876 367.086 162.754C367.086 162.754 367.291 158.585 365.239 155.313C365.142 155.378 365.034 155.442 364.937 155.518C364.267 155.939 362.539 156.868 360.746 156.544C358.424 156.134 356.48 152.58 356.48 152.58C356.48 152.58 355.151 152.721 354.471 153.682C354.471 153.682 345.193 148.055 339.317 138.582C333.452 129.121 332.502 127.954 332.502 127.954C332.502 127.954 331.001 127.339 328.97 126.961C327.372 126.658 325.438 126.518 323.634 126.939C323.634 126.939 295.121 171.006 325.546 192.014Z" fill="url(#paint4_linear_217_7554)"/>
<path d="M264.826 130.482C264.826 130.482 268.379 125.179 268.379 112.823L296.051 99.3218C296.051 99.3218 294.657 108.848 299.345 117.111C300.587 119.292 306.365 122.749 306.365 122.749C306.365 122.749 281.081 153.93 268.941 150.939C256.801 147.947 259.231 134.727 259.231 134.727C259.231 134.727 261.283 135.526 264.826 130.482Z" fill="#FF9B8B"/>
<path d="M302.962 120.491C302.962 120.491 289.256 134.154 277.462 134.921C264.825 135.742 266.91 125.233 266.91 125.233C266.91 125.233 261.196 133.247 262.827 139.555C264.469 145.862 276.943 146.175 286.567 141.974C296.19 137.783 305.393 121.485 305.393 121.485L302.962 120.491Z" fill="url(#paint5_linear_217_7554)"/>
<path d="M304.2 120C304.2 120 290.427 133.73 278.575 134.501C265.876 135.326 267.971 124.765 267.971 124.765C267.971 124.765 262.229 132.818 263.868 139.157C265.518 145.495 278.054 145.81 287.724 141.588C297.395 137.377 306.643 120.999 306.643 120.999L304.2 120Z" fill="#CEC5FF"/>
<path d="M245.463 203.118C245.463 203.118 249.566 224.576 244.226 247.813C244.226 247.813 240.937 250.071 240.525 252.947C240.525 252.947 240.525 252.969 240.514 253.002C240.123 255.867 239.661 258.014 239.661 258.014C239.661 258.014 239.288 259.948 238.05 261.999C237.822 262.39 237.692 262.846 237.649 263.345C237.453 265.473 238.669 268.164 238.669 268.164C238.669 268.164 241.144 274.546 266.845 276.804C292.547 279.072 312.496 284 312.496 284C312.496 284 316.613 279.387 313.78 275.479C313.78 275.479 315.59 271.051 315.383 269.608C315.177 268.164 305.713 251.721 308.176 240.205C310.651 228.689 319.898 219.344 325.043 196.866C325.043 196.866 324.837 193.65 325.043 192C325.249 190.361 325.043 190.918 325.043 190.918C325.043 190.918 314.83 184.2 317.988 155.817C321.136 127.434 322.501 129.5 324.001 127C324.001 127 330.86 128.618 323.577 126.501C323.577 126.501 319.388 125.893 315.069 124.385C310.749 122.876 306.539 120.852 306.539 120.852C306.539 120.852 281.813 142.054 270.384 140.698C257.337 139.157 266.541 124.884 266.541 124.884C266.541 124.884 258.347 126.479 253.962 127.5C249.566 128.531 247.927 127.5 247.927 127.5C247.927 127.5 242.099 128.055 238.669 130.649C235.239 133.232 234.219 143.064 235.586 166.096C236.954 189.127 245.463 203.118 245.463 203.118Z" fill="url(#paint6_linear_217_7554)"/>
<path d="M284.689 167.84L276.162 153.076L273.092 158.57L278.208 167.84L273.775 175.738L277.185 181.232L284.689 167.84Z" fill="#135BC6"/>
<path d="M272.41 159.943L275.48 165.437L274.457 166.81H268.318L272.41 159.943Z" fill="#135BC6"/>
<path d="M274.116 173.334L277.185 167.84H261.496L252.97 182.605H259.109L264.566 173.334H274.116Z" fill="#135BC6"/>
<path d="M265.589 174.364H271.387L276.503 182.605H286.735L289.805 187.756L273.092 188.099L265.589 174.364Z" fill="#135BC6"/>
<path d="M263.543 177.111H265.93L269 182.605H260.473L263.543 177.111Z" fill="#135BC6"/>
<path d="M278.891 179.858L281.96 174.708L286.394 181.232H279.914L278.891 179.858Z" fill="#135BC6"/>
<path d="M151.999 161.318C160.456 183.967 183.656 232.128 183.656 232.128C214.212 237.993 242.866 233.078 242.866 233.078L244.508 230.432C233.869 198.246 210.939 156.274 210.939 156.274C182.836 154.773 153.09 159.266 153.09 159.266L151.999 161.318Z" fill="#06B25F"/>
<path opacity="0.62" d="M179.077 195.394C179.077 195.394 180.373 210.602 176.831 217.752L162.876 187.305L169.519 188.871L168.644 191.949C168.644 191.938 174.163 191.679 179.077 195.394Z" fill="url(#paint7_linear_217_7554)"/>
<path d="M163.87 187.305C163.87 187.305 161.645 189.065 161.213 190.513C160.738 192.079 160.122 196.032 164.691 197.263L166.732 197.814C166.732 197.814 165.231 198.494 164.961 199.52C164.691 200.546 166.397 202.793 169.119 203.344C171.852 203.895 176.42 202.793 177.781 201.572C179.142 200.341 178.256 198.635 176.215 198.159C176.215 198.159 179.218 197.49 179.077 195.405C178.937 193.321 172.046 191.074 164.755 191.755L163.87 187.305Z" fill="url(#paint8_linear_217_7554)"/>
<path d="M158.341 176.925C158.341 176.925 154.658 180.338 154.658 182.692C154.658 185.047 160.08 188.017 169.39 189.173C169.39 189.173 170.265 187.369 169.39 185.425C168.516 183.481 163.86 180.748 160.026 180.143L158.341 176.925Z" fill="url(#paint9_linear_217_7554)"/>
<path d="M169.076 204.694C169.076 204.694 175.406 204.078 174.855 209.857C174.855 209.857 171.312 210.353 168.72 209.608C166.128 208.863 166.473 206.876 166.679 206.195C166.873 205.515 167.111 204.975 169.076 204.694Z" fill="url(#paint10_linear_217_7554)"/>
<path d="M299.635 106.324C299.635 106.324 287.756 126.923 267.085 125.092C267.085 125.092 268.931 117.862 268.726 112.713C268.726 112.713 278.361 112.486 285.489 109.847C293.533 106.873 299.623 99.2451 299.623 99.2451L299.635 106.324Z" fill="url(#paint11_linear_217_7554)"/>
<path d="M367.086 162.744C367.086 162.744 363.446 167.053 361.016 183.956C358.586 200.859 365.261 210.947 365.261 210.947C365.261 210.947 358.499 209.673 356.48 189.886C354.46 170.099 362.787 161.307 362.787 161.307L367.086 162.744Z" fill="url(#paint12_linear_217_7554)"/>
<path opacity="0.5" d="M327.793 179.733C327.793 179.733 319.509 176.309 316.323 170.11C316.323 170.11 316.809 185.469 325.201 191.063C325.201 191.063 327.285 184.842 327.793 179.733Z" fill="#3739BE"/>
<path opacity="0.62" d="M271.24 320.662L266.877 304.698C266.877 304.698 259.295 293.714 246.982 288.702L259.111 307.29L271.24 320.662Z" fill="#281C6F"/>
<path opacity="0.62" d="M298.533 389.289C300.37 391.341 304.053 393.177 304.053 393.177C306.105 397.066 310.403 412.997 310.403 412.997H343.346C341.51 404.572 333.117 391.957 330.45 387.248C327.793 382.539 317.77 350.407 315.102 329.129C313.989 320.262 313.136 310.897 312.51 302.98C312.477 303.585 311.386 309.774 314.573 339.822C317.845 370.658 320.081 383.975 319.811 386.697C319.541 389.43 306.17 395.975 298.533 389.289Z" fill="#281C6F"/>
<path opacity="0.62" d="M234.42 385.11C235.295 388.123 236.396 390.38 237.001 392.972C237.952 397.066 239.043 412.997 239.043 412.997H267.697C266.606 407.1 265.245 402.531 263.603 387.788C262.037 373.693 270.462 325.111 271.186 320.953C270.235 325.425 259.65 375.81 257.263 380.087C252.068 389.354 237.995 392.497 234.42 385.11Z" fill="#281C6F"/>
<path opacity="0.62" d="M319.455 387.464C319.455 387.464 317.187 397.39 306.224 398.869L304.053 393.177C304.053 393.177 299.895 390.65 299.214 389.97C299.214 389.97 302.271 392.292 309.335 391.201C316.398 390.11 319.455 387.464 319.455 387.464Z" fill="url(#paint13_linear_217_7554)"/>
<path opacity="0.62" d="M251.852 386.567C251.852 386.567 246.883 392.151 236.99 392.972C236.99 392.972 235.143 388.144 234.408 385.109C234.408 385.109 238.545 389.041 243.125 389.041C247.974 389.041 251.852 386.567 251.852 386.567Z" fill="url(#paint14_linear_217_7554)"/>
<path d="M151.999 161.318C193.345 155.993 210.151 158.456 210.151 158.456C224.937 183.784 242.866 233.078 242.866 233.078L244.508 230.432C233.869 198.246 210.939 156.274 210.939 156.274C182.836 154.773 153.09 159.266 153.09 159.266L151.999 161.318Z" fill="#008444"/>
<path d="M166.732 197.803C166.732 197.803 172.121 198.419 176.215 198.149C176.215 198.149 170.588 199.175 166.03 198.214L166.732 197.803Z" fill="url(#paint15_linear_217_7554)"/>
<path opacity="0.83" d="M306.451 130.115C306.43 130.201 306.397 130.277 306.365 130.363C306.408 130.244 306.44 130.158 306.451 130.115Z" fill="url(#paint16_linear_217_7554)"/>
<path opacity="0.5" d="M226.103 191.107L181.572 227.764L183.656 232.128C183.656 232.128 211.76 237.917 242.866 233.078L244.508 230.432C244.508 230.432 234.463 203.571 227.723 189.627L226.103 191.107Z" fill="#66D6A0"/>
<path opacity="0.62" d="M311.398 314.116C311.398 314.116 314.196 336.182 309.335 359.955L311.398 314.116Z" fill="#281C6F"/>
<path opacity="0.62" d="M265.58 319.301C265.58 319.301 257.998 349.316 251.863 362.072C251.863 362.072 263.949 345.492 268.334 334.303L271.186 320.953L267.719 306.621L265.58 319.301Z" fill="#281C6F"/>
<path d="M265.473 125.341L266.899 125.222C266.899 125.222 263.951 129.942 263.335 133.83C262.719 137.719 265.301 140.224 269.297 141.078C269.297 141.078 262.86 140.7 262.039 136.271C261.218 131.843 265.473 125.341 265.473 125.341Z" fill="url(#paint17_linear_217_7554)"/>
<path d="M254.743 92.1135C258.905 106.183 266.934 110.346 271.729 114.126C278.538 117.947 284.475 116.69 284.475 116.69C307.374 106.778 309.612 96.7971 311.12 85.6552C311.874 80.1582 312.557 69.9284 310.249 57.2829C309.942 55.5574 309.424 54.0044 308.764 52.5747C304.571 43.4295 294.676 39.8799 294.676 39.8799C288.762 37.7106 282.024 37.2423 275.875 38.4255C267.017 40.1264 260.044 44.9331 257.805 54.4234C257.075 57.4801 256.675 60.6353 256.321 63.7659C255.544 70.1995 255.143 76.7072 254.931 83.1902C254.837 86.1482 254.766 89.1309 254.743 92.1135Z" fill="#FFADA0"/>
<path d="M276.535 57.7289C276.535 57.7289 264.238 55.2459 260.384 64.3029C260.384 64.3029 274.123 60.1646 276.748 62.2219L276.535 57.7289Z" fill="#38368E"/>
<path d="M289.611 59.0662C289.611 59.0662 301.719 55.8265 306.141 64.6234C306.141 64.6234 292.165 61.3601 289.682 63.5593L289.611 59.0662Z" fill="#38368E"/>
<path d="M303.23 73.6102C302.976 77.3901 299.374 80.2568 295.188 79.9777C291.002 79.6987 287.806 76.4007 288.06 72.5954C288.313 68.8155 291.916 65.9742 296.101 66.2533C300.287 66.5323 303.484 69.8303 303.23 73.6102Z" fill="white"/>
<path d="M290.57 72.5163C290.342 75.865 292.295 78.7316 294.908 78.9092C297.521 79.0868 299.83 76.4992 300.058 73.1505C300.286 69.8019 298.358 66.9352 295.72 66.7576C293.107 66.5801 290.798 69.1677 290.57 72.5163Z" fill="#7F9EC9"/>
<path d="M291.942 72.617C291.789 75.0017 293.159 77.0312 295.011 77.158C296.863 77.2848 298.512 75.4583 298.664 73.0737C298.816 70.689 297.447 68.6595 295.595 68.5327C293.743 68.3805 292.094 70.2324 291.942 72.617Z" fill="#38368E"/>
<path d="M291.991 68.5091C291.94 69.1433 292.676 69.7268 293.64 69.8029C294.604 69.879 295.416 69.397 295.466 68.7374C295.517 68.0778 294.756 67.5197 293.792 67.4436C292.853 67.3929 292.042 67.8749 291.991 68.5091Z" fill="white" fill-opacity="0.8"/>
<path d="M276.139 73.0181C275.892 76.745 272.387 79.5586 268.315 79.2871C264.242 79.0156 261.133 75.7577 261.379 72.0309C261.626 68.2794 265.131 65.4904 269.203 65.7619C273.276 66.0334 276.385 69.2913 276.139 73.0181Z" fill="white"/>
<path d="M264.859 72.028C264.637 75.2859 266.537 78.0748 269.08 78.2476C271.622 78.4204 273.868 75.9029 274.09 72.645C274.312 69.3871 272.411 66.5981 269.869 66.4254C267.327 66.2526 265.081 68.7701 264.859 72.028Z" fill="#7F9EC9"/>
<path d="M266.192 72.1293C266.044 74.4493 267.377 76.4238 269.179 76.5472C270.981 76.6706 272.585 74.8689 272.733 72.5489C272.881 70.2289 271.548 68.2544 269.746 68.131C267.945 68.0076 266.365 69.8093 266.192 72.1293Z" fill="#38368E"/>
<path d="M266.241 68.1287C266.192 68.7458 266.932 69.3134 267.846 69.3875C268.783 69.4615 269.573 68.9926 269.623 68.3509C269.672 67.7091 268.956 67.1662 268.018 67.0921C267.08 67.0428 266.291 67.487 266.241 68.1287Z" fill="white" fill-opacity="0.8"/>
<path d="M255.56 70.1132C255.56 70.1132 251.045 55.8533 247.321 67.0754C244.353 76.0129 249.3 84.7747 253.294 84.1471C257.287 83.5446 255.56 70.1132 255.56 70.1132Z" fill="#FFADA0"/>
<path d="M255.457 72.6607C255.457 72.6607 251.896 63.0296 250.039 66.4958C248.181 69.9619 248.2 74.6981 248.2 74.6981C248.2 74.6981 249.522 69.6709 252.106 72.9782C252.106 72.9782 248.641 80.8366 254.423 79.1961C254.442 79.1961 256.951 77 255.457 72.6607Z" fill="#E398AF"/>
<path d="M309.873 70.1313C309.873 70.1313 314.953 54.6814 319.142 66.84C322.481 76.5234 316.916 85.9892 312.423 85.3364C307.931 84.6836 309.873 70.1313 309.873 70.1313Z" fill="#FFADA0"/>
<path d="M309.956 72.3663C309.956 72.3663 313.796 62.3164 315.799 65.9333C317.802 69.5501 317.781 74.4922 317.781 74.4922C317.781 74.4922 316.357 69.2464 313.569 72.6976C313.569 72.6976 317.306 80.8976 311.071 79.1858C311.071 79.1858 308.366 76.8942 309.956 72.3663Z" fill="#E398AF"/>
<path d="M292.549 94.4143C292.461 94.6775 290.728 98.8672 287.92 102.004C284.542 105.777 279.607 108.014 274.145 99.9421C272.982 98.2311 271.82 96.0814 270.613 93.3833C270.613 93.3833 272.5 94.1072 275.264 94.8969C279.607 96.1253 286.056 97.5072 290.531 95.5111C291.277 95.4891 291.935 94.8969 292.549 94.4143Z" fill="#712311"/>
<path d="M287.92 102.05C284.542 105.822 279.606 108.038 274.144 99.9657C277.062 99.176 283.972 97.9476 287.92 102.05Z" fill="#D5503B"/>
<path d="M290.531 95.6224C283.402 103.585 278.225 99.3954 275.264 94.9644C279.607 96.1928 286.056 97.4431 290.531 95.6224Z" fill="white"/>
<path d="M276.775 84.6514C276.775 84.6514 283.74 94.5508 290.193 83.8176L276.775 84.6514Z" fill="#D8826C"/>
<path d="M310.154 77.637C309.398 75.3964 308.945 70.6828 308.945 70.6828C308.945 70.6828 308.807 62.5537 308.793 61.4881C308.766 58.9059 307.474 47.2032 301.865 46.889C300.559 46.8206 297.108 50.9057 292.53 52.7774C291.705 53.119 284.721 48.6514 281.092 47.3808C270.287 43.61 260.32 53.8841 260.32 53.8841C257.172 57.3543 256.938 62.8739 256.924 64.4998C256.91 65.5791 257.02 65.4414 256.924 69.6085C256.869 71.9857 256.099 75.3827 255.329 77.637C254.793 75.1095 253.432 71.3309 252.126 66.5081C249.954 58.502 249.171 51.6298 249.569 49.84L255.329 39.3747C263.152 25.1794 281.573 20.7528 295.06 29.8247L300.119 33.2266C307.185 30.7537 308.862 34.2239 310.828 36.8335C314.471 41.6973 315.887 46.2135 316.025 53.0447C316.08 55.5859 315.323 57.8265 313.385 65.1359C312.162 69.7538 310.649 75.328 310.154 77.637Z" fill="#293AA1"/>
<path d="M237.458 38.8697C242.104 47.7502 250.353 40.4955 253.405 33.9512C260.911 17.816 269.957 20.3298 269.957 20.3298C288.474 6.06631 293.341 20.4938 293.341 20.4938C307.831 19.0866 308.367 27.1337 306.181 34.2791C303.995 41.3972 298.978 47.313 292.557 51.1248C292.269 51.2888 291.98 51.4664 291.705 51.6303C286.935 43.8564 278.054 43.1733 274.136 43.6788C268.871 44.3483 266.808 47.1354 263.413 49.9362C258.175 54.2535 255.838 56.2209 245.912 55.3055C229.993 53.83 237.458 38.8697 237.458 38.8697Z" fill="#5A65BA"/>
<path d="M237.458 38.8697C242.104 47.7502 250.353 40.4955 253.405 33.9512C260.911 17.816 269.957 20.3298 269.957 20.3298C288.474 6.06631 293.341 20.4938 293.341 20.4938C307.831 19.0866 308.367 27.1337 306.181 34.2791C303.995 41.3972 298.978 47.313 292.557 51.1248C292.269 51.2888 291.98 51.4664 291.705 51.6303C288.158 42.2716 278.851 41.4245 274.919 41.124C272.555 40.9464 268.293 41.3562 265.008 43.8974C256.072 50.8106 255.852 56.2072 245.912 55.2919C229.993 53.83 237.458 38.8697 237.458 38.8697Z" fill="#293AA1"/>
<path d="M237.458 38.8697C242.104 47.7502 250.353 40.4955 253.405 33.9512C260.911 17.816 269.957 20.3298 269.957 20.3298C288.474 6.06631 293.341 20.4938 293.341 20.4938C307.831 19.0866 308.367 27.1337 306.181 34.2791C303.995 41.3972 298.978 47.313 292.557 51.1248C292.269 51.2888 291.98 51.4664 291.705 51.6303C288.158 42.2716 279.484 34.9896 275.538 34.689C273.174 34.5114 268.912 34.9212 265.626 37.4761C256.69 44.3893 255.838 56.2072 245.912 55.2919C229.993 53.83 237.458 38.8697 237.458 38.8697Z" fill="#5A65BA"/>
<path d="M292.53 51.1383C292.53 51.1383 303.212 12.6923 282.879 14.0312C282.879 14.0312 275.882 14.7007 269.957 20.3296C269.957 20.3296 283.209 15.6571 287.704 22.3926C293.355 30.8633 293.767 41.7522 292.53 51.1383Z" fill="#293AA1"/>
<path d="M258.711 29.6744C258.711 29.6744 262.807 24.6194 271.427 24.2641C279.73 23.9089 291.155 27.6524 292.529 51.138C292.529 51.138 286.563 29.7974 270.685 26.8053C268.265 26.3545 264.883 26.5184 258.711 29.6744Z" fill="#293AA1"/>
<path fill-rule="evenodd" clip-rule="evenodd" d="M425.074 114.557C424.545 114.983 423.536 116.237 422.275 117.806C419.86 120.81 416.52 124.965 413.842 126.658C409.651 129.315 403.613 127.965 403.613 127.965C403.613 127.965 396.895 165.692 393.623 180.694C390.35 195.696 377.8 211.249 366.88 211.941C366.88 211.941 357.062 208.117 356.511 187.931C355.961 167.722 362.787 161.318 362.787 161.318L367.085 162.754C367.085 162.754 386.732 151.1 393.072 122.748C393.072 122.748 388.158 114.248 387.952 111.181C387.929 110.836 387.9 110.451 387.869 110.027C387.617 106.675 387.184 100.902 388.028 93.7589C388.73 87.8173 387.877 82.9121 387.435 80.3697C387.278 79.4691 387.173 78.8649 387.207 78.6163C387.348 77.6658 392.251 77.5254 393.623 81.4785C394.433 83.8327 394.037 87.3018 393.728 90.0102C393.518 91.8496 393.348 93.3381 393.623 93.8885C394.303 95.2494 399.758 97.4636 399.758 97.4636C399.758 97.4636 399.999 97.0995 400.404 96.4977L399.995 98.8572L425.074 114.557Z" fill="url(#paint18_linear_217_7554)"/>
<path d="M394.765 95.7577C394.765 95.7577 399.024 82.2445 399.856 73.6714C400.688 65.0983 403.857 55.8187 403.857 55.8187C403.857 55.8187 406.087 55.3951 407.414 56.5664C408.741 57.7378 410.422 67.1326 407.384 73.7625C404.346 80.3924 402.05 97.3354 402.05 97.3354L404.406 97.8307L411.038 91.8859L413.691 91.7037C413.691 91.7037 425.276 108.23 423.372 116.214L420.672 119.395L409.296 115.132L398.004 102.733L394.765 95.7577Z" fill="#F88A7F"/>
<path d="M413.632 91.5299C413.632 91.5299 411.365 100.46 407.731 107.756C407.731 107.756 407.406 110.985 411.057 111.977L412.186 111.151C412.186 111.151 412.076 114.874 415.285 115.832L419.047 113.373L417.704 115.773C417.704 115.773 418.247 118.748 421.221 119.254C421.221 119.254 426.959 116.431 428.334 111.461L424.332 106.306L424.996 103.148L420.066 97.8578L420.45 95.5276C420.425 95.5341 417.563 92.309 413.632 91.5299Z" fill="url(#paint19_linear_217_7554)"/>
<path opacity="0.3" d="M400.543 71.3561C400.543 71.3561 400.929 73.7355 401.95 74.8457C402.97 75.956 406.315 77.3425 406.315 77.3425L402.231 97.5337L404.523 98.0154L411.019 92.0148C411.019 92.0148 407.627 95.5093 406.837 98.5018L408.611 99.912L411.599 94.2347L411.501 98.7516L409.549 103.987C409.549 103.987 407.125 100.743 401.77 99.511L400.65 100.843C400.65 100.843 408.644 111.139 409.858 116.474C409.858 116.474 406.369 109.211 396.856 100.01L396.506 96.4717L396.781 88.2677C396.803 88.2723 400.511 77.1479 400.543 71.3561Z" fill="url(#paint20_linear_217_7554)"/>
<path d="M420.524 95.3543C420.524 95.3543 416.869 106.663 412.11 111.404C412.11 111.404 417.886 106.598 420.131 97.7357L420.524 95.3543Z" fill="#E28183"/>
<path d="M424.881 103.397C424.881 103.397 421.862 112.181 415.485 116.073C415.485 116.073 420.709 114.608 424.218 106.55L424.881 103.397Z" fill="#E28183"/>
</g>
<rect x="396" y="39.9971" width="94" height="34" rx="6" fill="#276ED8"/>
<path d="M416.415 63.1891C415.273 63.1891 414.239 62.9437 413.311 62.4531C412.393 61.9517 411.668 61.2637 411.135 60.3891C410.612 59.5037 410.351 58.5064 410.351 57.3971C410.351 56.2877 410.612 55.2957 411.135 54.4211C411.668 53.5357 412.393 52.8477 413.311 52.3571C414.239 51.8557 415.279 51.6051 416.431 51.6051C417.401 51.6051 418.276 51.7757 419.055 52.1171C419.844 52.4584 420.505 52.9491 421.039 53.5891L419.375 55.1251C418.617 54.2504 417.679 53.8131 416.559 53.8131C415.865 53.8131 415.247 53.9677 414.703 54.2771C414.159 54.5757 413.732 54.9971 413.423 55.5411C413.124 56.0851 412.975 56.7037 412.975 57.3971C412.975 58.0904 413.124 58.7091 413.423 59.2531C413.732 59.7971 414.159 60.2237 414.703 60.5331C415.247 60.8317 415.865 60.9811 416.559 60.9811C417.679 60.9811 418.617 60.5384 419.375 59.6531L421.039 61.1891C420.505 61.8397 419.844 62.3357 419.055 62.6771C418.265 63.0184 417.385 63.1891 416.415 63.1891ZM429.925 62.9971L427.765 59.8771H427.637H425.381V62.9971H422.789V51.7971H427.637C428.629 51.7971 429.488 51.9624 430.213 52.2931C430.949 52.6237 431.514 53.0931 431.909 53.7011C432.304 54.3091 432.501 55.0291 432.501 55.8611C432.501 56.6931 432.298 57.4131 431.893 58.0211C431.498 58.6184 430.933 59.0771 430.197 59.3971L432.709 62.9971H429.925ZM429.877 55.8611C429.877 55.2317 429.674 54.7517 429.269 54.4211C428.864 54.0797 428.272 53.9091 427.493 53.9091H425.381V57.8131H427.493C428.272 57.8131 428.864 57.6424 429.269 57.3011C429.674 56.9597 429.877 56.4797 429.877 55.8611ZM443.227 60.9171V62.9971H434.555V51.7971H443.019V53.8771H437.131V56.3091H442.331V58.3251H437.131V60.9171H443.227ZM452.665 60.5971H447.465L446.473 62.9971H443.817L448.809 51.7971H451.369L456.377 62.9971H453.657L452.665 60.5971ZM451.849 58.6291L450.073 54.3411L448.297 58.6291H451.849ZM459.296 53.9091H455.712V51.7971H465.472V53.9091H461.888V62.9971H459.296V53.9091ZM475.539 60.9171V62.9971H466.867V51.7971H475.331V53.8771H469.443V56.3091H474.643V58.3251H469.443V60.9171H475.539Z" fill="white"/>
<defs>
<filter id="filter0_d_217_7554" x="60" y="186.997" width="112.33" height="98.1602" filterUnits="userSpaceOnUse" color-interpolation-filters="sRGB">
<feFlood flood-opacity="0" result="BackgroundImageFix"/>
<feColorMatrix in="SourceAlpha" type="matrix" values="0 0 0 0 0 0 0 0 0 0 0 0 0 0 0 0 0 0 127 0" result="hardAlpha"/>
<feOffset dx="4" dy="4"/>
<feGaussianBlur stdDeviation="6"/>
<feColorMatrix type="matrix" values="0 0 0 0 0.320833 0 0 0 0 0.320833 0 0 0 0 0.320833 0 0 0 0.25 0"/>
<feBlend mode="normal" in2="BackgroundImageFix" result="effect1_dropShadow_217_7554"/>
<feBlend mode="normal" in="SourceGraphic" in2="effect1_dropShadow_217_7554" result="shape"/>
</filter>
<linearGradient id="paint0_linear_217_7554" x1="224.449" y1="248.768" x2="224.449" y2="130.478" gradientUnits="userSpaceOnUse">
<stop stop-color="#4485E4"/>
<stop offset="1" stop-color="#4384E4"/>
</linearGradient>
<linearGradient id="paint1_linear_217_7554" x1="286.994" y1="412.993" x2="286.994" y2="266.632" gradientUnits="userSpaceOnUse">
<stop stop-color="#1C257B"/>
<stop offset="1" stop-color="#482C83"/>
</linearGradient>
<linearGradient id="paint2_linear_217_7554" x1="202.309" y1="244.604" x2="202.309" y2="225.165" gradientUnits="userSpaceOnUse">
<stop offset="0.016" stop-color="#FFC2A9"/>
<stop offset="1" stop-color="#FF9595"/>
</linearGradient>
<linearGradient id="paint3_linear_217_7554" x1="169.164" y1="208.277" x2="169.164" y2="202.089" gradientUnits="userSpaceOnUse">
<stop offset="0.016" stop-color="#FFA58B"/>
<stop offset="1" stop-color="#FF898E"/>
</linearGradient>
<linearGradient id="paint4_linear_217_7554" x1="342.184" y1="213.544" x2="342.184" y2="126.671" gradientUnits="userSpaceOnUse">
<stop stop-color="#3378DD"/>
<stop offset="1" stop-color="#5491EB"/>
</linearGradient>
<linearGradient id="paint5_linear_217_7554" x1="283.959" y1="144.769" x2="283.959" y2="120.487" gradientUnits="userSpaceOnUse">
<stop stop-color="#D1C8F8"/>
<stop offset="1" stop-color="#EEE5F9"/>
</linearGradient>
<linearGradient id="paint6_linear_217_7554" x1="282.826" y1="283.996" x2="282.826" y2="119.996" gradientUnits="userSpaceOnUse">
<stop stop-color="#67A1F8"/>
<stop offset="1" stop-color="#1B67D9"/>
</linearGradient>
<linearGradient id="paint7_linear_217_7554" x1="171.093" y1="217.745" x2="171.093" y2="187.303" gradientUnits="userSpaceOnUse">
<stop stop-color="#8B8BE0"/>
<stop offset="1" stop-color="#A177B7"/>
</linearGradient>
<linearGradient id="paint8_linear_217_7554" x1="169.983" y1="203.478" x2="169.983" y2="187.303" gradientUnits="userSpaceOnUse">
<stop offset="0.016" stop-color="#FFC2A9"/>
<stop offset="1" stop-color="#FF9595"/>
</linearGradient>
<linearGradient id="paint9_linear_217_7554" x1="162.221" y1="189.178" x2="162.221" y2="176.926" gradientUnits="userSpaceOnUse">
<stop offset="0.016" stop-color="#FFC2A9"/>
<stop offset="1" stop-color="#FF9595"/>
</linearGradient>
<linearGradient id="paint10_linear_217_7554" x1="170.71" y1="210.024" x2="170.71" y2="204.679" gradientUnits="userSpaceOnUse">
<stop offset="0.016" stop-color="#FFC2A9"/>
<stop offset="1" stop-color="#FF9595"/>
</linearGradient>
<linearGradient id="paint11_linear_217_7554" x1="299.638" y1="112.22" x2="267.092" y2="112.22" gradientUnits="userSpaceOnUse">
<stop stop-color="#CF6074"/>
<stop offset="1" stop-color="#FF817F"/>
</linearGradient>
<linearGradient id="paint12_linear_217_7554" x1="361.621" y1="210.956" x2="361.621" y2="161.313" gradientUnits="userSpaceOnUse">
<stop stop-color="#CF6074"/>
<stop offset="1" stop-color="#FF817F"/>
</linearGradient>
<linearGradient id="paint13_linear_217_7554" x1="309.336" y1="398.864" x2="309.336" y2="387.462" gradientUnits="userSpaceOnUse">
<stop stop-color="#8B8BE0"/>
<stop offset="1" stop-color="#A177B7"/>
</linearGradient>
<linearGradient id="paint14_linear_217_7554" x1="243.135" y1="392.968" x2="243.135" y2="385.105" gradientUnits="userSpaceOnUse">
<stop stop-color="#8B8BE0"/>
<stop offset="1" stop-color="#A177B7"/>
</linearGradient>
<linearGradient id="paint15_linear_217_7554" x1="176.215" y1="198.218" x2="166.032" y2="198.218" gradientUnits="userSpaceOnUse">
<stop stop-color="#CF6074"/>
<stop offset="1" stop-color="#FF817F"/>
</linearGradient>
<linearGradient id="paint16_linear_217_7554" x1="306.403" y1="130.359" x2="306.403" y2="130.111" gradientUnits="userSpaceOnUse">
<stop stop-color="#9D68C2"/>
<stop offset="1" stop-color="#CCEDFF"/>
</linearGradient>
<linearGradient id="paint17_linear_217_7554" x1="265.618" y1="141.085" x2="265.618" y2="125.227" gradientUnits="userSpaceOnUse">
<stop stop-color="#3D2CB0"/>
<stop offset="1" stop-color="#0355C7"/>
</linearGradient>
<linearGradient id="paint18_linear_217_7554" x1="402.787" y1="211.928" x2="402.787" y2="67.2885" gradientUnits="userSpaceOnUse">
<stop offset="0.016" stop-color="#FFC2A9"/>
<stop offset="1" stop-color="#FF9595"/>
</linearGradient>
<linearGradient id="paint19_linear_217_7554" x1="416.207" y1="118.222" x2="421.47" y2="93.1823" gradientUnits="userSpaceOnUse">
<stop offset="0.016" stop-color="#FFC2A9"/>
<stop offset="1" stop-color="#FF9595"/>
</linearGradient>
<linearGradient id="paint20_linear_217_7554" x1="400.773" y1="114.57" x2="409.462" y2="73.2327" gradientUnits="userSpaceOnUse">
<stop stop-color="#FFEADB"/>
<stop offset="0.9944" stop-color="#C27CB6"/>
</linearGradient>
</defs>
</svg>
