<svg xmlns="http://www.w3.org/2000/svg" width="516" height="537" fill="none"><path fill="url(#a)" fill-opacity=".06" d="M337.086 461.516c-91.169 36.327-154.936 50.097-209.357-1.606C73.308 408.207 63 354.641 98.084 326.196c10.919-8.805-51.938-55.361-52.629-109.209-.405-31.607 24.255-57.272 47.44-71.048 55.869-33.195 101.612 26.016 125.362 15.398 10.371-4.562 61.16-65.708 150.188-67.958 76.08-1.924 115.694 64.348 117.149 122.466 1.454 58.119-23.666 195.926-148.508 245.671Z"/><path fill="#fff" stroke="#84B5FF" stroke-miterlimit="10" d="M210.241 192.407v112.37c0 2.89-2.34 5.23-5.23 5.23H33.655c-2.89 0-5.23-2.34-5.23-5.23v-112.37c0-6.666 5.408-12.082 12.083-12.082h157.65c6.675 0 12.083 5.416 12.083 12.082Z"/><path fill="#84B5FF" d="M210.241 192.407v.507H28.425v-.507c0-6.666 5.408-12.082 12.083-12.082h157.65c6.675 0 12.083 5.416 12.083 12.082Z"/><mask id="b" width="441" height="469" x="45" y="25" maskUnits="userSpaceOnUse" style="mask-type:alpha"><path fill="#84B5FF" d="M337.086 461.516c-91.17 36.327-154.936 50.097-209.358-1.606C73.308 408.207 63 354.641 98.084 326.196c10.919-8.805-51.939-55.361-52.63-109.209-.405-31.607 24.255-57.272 47.44-71.048 55.87-33.195 105.318-109.48 129.068-120.098 10.371-4.562 57.455 69.788 146.483 67.538 76.08-1.923 115.694 64.348 117.148 122.467 1.455 58.118-23.665 195.925-148.507 245.67Z"/></mask><g mask="url(#b)"><path fill="#66D6A0" d="M424.448 171.531h-24.681a1.765 1.765 0 1 1 0-3.531h24.681a1.764 1.764 0 1 1 0 3.531ZM424.447 180.344h-24.681a1.766 1.766 0 1 1 0-3.532h24.681a1.765 1.765 0 1 1 0 3.532Z"/><path fill="#84B5FF" d="m374.801 345.98 16.939-3.186v-15.187l-16.939-2.921a50.094 50.094 0 0 0-7.168-17.257l9.717-14.258-10.753-10.753-14.045 9.93a49.816 49.816 0 0 0-17.258-7.142l-3.186-16.939h-15.187l-2.92 16.939a50.091 50.091 0 0 0-17.258 7.168l-14.231-9.717-10.753 10.753 9.93 14.045a50.032 50.032 0 0 0-7.142 17.258l-16.94 3.186v15.187l16.94 2.92a49.882 49.882 0 0 0 7.168 17.258l-9.717 14.231 10.753 10.753 14.071-9.93a49.522 49.522 0 0 0 17.258 7.142l3.186 16.94h15.187l2.921-16.94a49.89 49.89 0 0 0 17.258-7.168l14.231 9.717 10.753-10.753-9.93-14.045a49.945 49.945 0 0 0 7.115-17.231Zm-50.127 20.815c-17.364 0-31.436-14.098-31.436-31.435 0-17.338 14.072-31.436 31.436-31.436s31.436 14.072 31.436 31.436-14.072 31.435-31.436 31.435Z" opacity=".2"/><mask id="c" width="346" height="508" x="88" y="39" maskUnits="userSpaceOnUse" style="mask-type:alpha"><path fill="#C4C4C4" d="M88 293.005c0 139.731 77.267 253.005 172.58 253.005 95.313 0 172.58-113.274 172.58-253.005S355.893 40 260.58 40C165.267 40 88 153.274 88 293.005Z"/></mask><g mask="url(#c)"><path fill="#66D6A0" d="M146.668 378c-9.759 0-17.668 7.908-17.668 17.667 0 9.76 7.909 17.668 17.668 17.668s17.668-7.908 17.668-17.668c0-9.759-7.909-17.667-17.668-17.667Zm0 30.933c-7.334 0-13.274-5.94-13.274-13.274 0-7.334 5.94-13.274 13.274-13.274 7.334 0 13.274 5.94 13.274 13.274 0 7.334-5.94 13.274-13.274 13.274Z"/><path fill="url(#d)" d="M268.589 320.955c18.785 15.655 46.048 21.995 67.051 9.882 6.587-3.79 12.653-9.847 13.958-17.639 1.565-9.387-4.012-19.092-1.664-28.301 2.055-8.146 9.556-13.141 15.132-19.162 8.088-8.713 12.784-20.862 12.752-33.082-.033-12.22-4.729-24.334-12.849-33.011-6.882-7.368-15.85-12.114-23.742-18.277-6.229-4.888-11.838-11.228-14.806-18.914-2.935-7.58-.522-12.043-.098-19.481.881-15.904-2.805-33.685-13.338-45.515-13.632-15.372-33.884-15.124-51.788-11.157-9.067 1.983-19.078 5.065-27.036 10.307-3.391 2.232-5.642 4.959-7.957 8.536-.75 1.134-4.925 12.433-4.762 12.397-26.546 6.588-12.294 46.542-20.447 64.889-2.577 5.774-7.077 10.237-11.023 15.018-6.914 8.43-12.328 18.56-14.024 29.682-1.695 11.122.62 23.236 7.501 31.666 1.109 1.381 2.414 2.727 2.838 4.498.652 2.656-.718 5.313-1.729 7.828-6.033 15.053.881 32.48 9.588 45.904 5.838 9.032 12.719 17.604 21.655 22.846 14.251 8.394 32.253 7.084 46.928-.425"/><g opacity=".26"><path fill="#005E30" d="M268.252 114.628c-9.155-4.742-20.841.53-26.5 9.554-5.626 9.024-12.95 17.057-11.619 27.779.666 5.308 1.765 10.722.766 15.995-2.53 13.66-10.453 23.639-18.71 34.432-6.991 9.13-9.255 21.268-11.052 32.875-1.066 6.936-1.931 14.579 1.531 20.56 4.395 7.572 9.421 17.339 14.149 24.665 7.79 11.996 3.229 23.709 12.65 34.325 2.797 3.114 6.725 4.742 10.587 6.051a93.48 93.48 0 0 0 24.103 4.565c6.991.39 14.082-.07 20.674-2.512 16.179-6.051 26.999-25.373 24.069-43.35-2.23-13.624-11.053-24.948-15.247-38.076-2.996-9.413 2.863 15.732 4.894 6.036 10.353 2.06 10.353-63.347 0-72.033" opacity=".42"/></g><path fill="#fff" d="M286.721 330.095c.944-3.743 19.909-98.696 19.909-98.696s-50.574-14.939-82.938 0l20.727 99.514 42.302-.818Z"/><path fill="#F4F4F4" d="M289.207 281.814s-38.025 3.931-48.53-3.932c0 0 13.116 31.452 48.53 3.932Z"/><path fill="#CAC3CD" fill-opacity=".3" d="M265.341 366.678c.668-.583 2.984-2.605 5.134-4.556 2.542-2.32 4.144-4.379 4.144-4.379s.37-4.284.557-5.469c.188-1.196 9.322-28.684 15.309-36.696 5.588-7.473 8.578-54.05 8.962-60.342l.039-.703s-4.125 6.413-7.598 19.915c-3.481 13.512-5.864 40.837-5.864 40.837s-6.072 21.445-12.623 20.823c0 0 3.178 15.258-.105 22.147-.629 1.31-6.764 7.31-7.955 8.423Z" opacity=".83"/><path fill="#CAC3CD" fill-opacity=".3" d="M250.329 225h5.83s-1.858 5.02.448 6.278c4.933 2.691 5.382 2.691 12.109 2.691 3.993 0 6.726-8.073 6.726-8.073l4.933.897s-5.204 9.483-11.659 11.66c-4.481 1.511-7.977 2.3-12.109 0-4.79-2.667-6.278-13.453-6.278-13.453Z"/><path fill="#47556B" d="M288.356 332.917s30.76 64.445 18.211 269.542c0 0-13.242 2.799-17.425 1.384 0 0-37.962-178.238-28.747-267.718l27.961-3.208Z"/><path fill="#47556B" d="M242.253 334.978s-30.759 64.444-18.21 269.541c0 0 13.241 2.8 17.424 1.384 0 0 37.962-178.237 28.747-267.717l-27.961-3.208Z"/><path fill="#8F99B6" d="M290.15 339.066s-23.872 7.108-48.122-2.453l-.314-9.561s12.423 3.743 23.023 3.113c10.567-.629 24.878-2.484 24.878-2.484l.535 11.385Z"/><path fill="#47556B" d="M284.612 325.824s4.026 15.568.314 17.424c-3.742 1.856-5.944 1.038-5.944 1.038l.031-17.236 5.599-1.226ZM246.243 324.595s-2.516 14.562.661 17.267c4.309 3.648 4.529.692 4.529.692l.409-16.733-5.599-1.226Z"/><path fill="#EAEAEA" d="m256.936 327.391 1.258 13.367 13.367-.314s.629-11.512.629-13.367l-15.254.314Zm2.799 2.988h9.97l-.314 7.265-9.027.535-.629-7.8Z"/><path fill="#D8826C" d="M263.355 233.92c4.812 0 12.329-1.447 12.329-6.29l-1.227-16.072-1.069-14.059c0-4.812-3.9-8.712-8.712-8.712a8.676 8.676 0 0 0-6.165 2.547 8.673 8.673 0 0 0-2.548 6.165l-1.069 14.059-1.038 13.493c-1.415 8.177 9.499 8.869 9.499 8.869Z"/><path fill="#F0A98F" d="M303.927 154.254s10.41-14.248 13.43-.566c2.422 10.882-7.328 18.902-13.336 16.858-6.007-2.013-.094-16.292-.094-16.292Z"/><path fill="#D8826C" d="M303.833 156.795s7.359-8.995 9.246-4.749c1.888 4.215.787 9.184.787 9.184s-.787-5.693-5.284-3.051c0 0 3.208 9.341-4.781 5.787 0 0-3.145-3.114.032-7.171Z"/><path fill="#fff" d="M302.229 170.956c0 1.258 1.007 2.265 2.234 2.265 1.226 0 2.233-1.007 2.233-2.265a2.242 2.242 0 0 0-2.233-2.233 2.243 2.243 0 0 0-2.234 2.233Z"/><path fill="#F0A98F" d="M244.515 124.022c4.529-5.41 8.712-11.795 12.14-18.683 11.732 17.173 28.936 34.346 46.518 40.573.566 4.624.817 9.373.817 14.091 0 27.488-20.192 43.749-42.491 43.246-19.843-3.619-30.791-17.01-33.402-43.246 0-7.989.787-16.041 2.611-23.495 5.063-3.523 9.75-7.674 13.807-12.486Z"/><path fill="#fff" d="M253.383 152.764c0 5.315-4.34 9.655-9.656 9.655-5.315 0-9.655-4.309-9.655-9.655 0-5.316 4.309-9.656 9.655-9.656 5.347 0 9.656 4.34 9.656 9.656Z"/><path fill="#7F5242" d="M238.253 152.171c0 4.403 2.863 7.957 6.385 7.957 3.523 0 6.385-3.554 6.385-7.957 0-4.403-2.862-7.957-6.385-7.957-3.522 0-6.385 3.554-6.385 7.957Z"/><path fill="#400404" d="M240.075 152.173c0 3.114 2.013 5.661 4.529 5.661s4.529-2.547 4.529-5.661c0-3.145-2.013-5.661-4.529-5.661s-4.529 2.516-4.529 5.661Z"/><path fill="#fff" d="M239.795 146.786c0 .849 1.038 1.541 2.328 1.541 1.289 0 2.327-.692 2.327-1.541s-1.038-1.541-2.327-1.541c-1.258 0-2.328.692-2.328 1.541Z"/><path fill="#390A0A" d="M243.978 141.73c-6.354-.629-11.291 5.127-11.291 11.071 0 .629.754.723 1.1.283 2.611-3.586 3.429-7.077 8.209-8.461 7.014-2.012 10.851 5.19 11.26 10.82.063.566.786.535.849 0 .598-6.731-3.019-13.021-10.127-13.713Z"/><path fill="#D8826C" d="M266.122 171.725s-4.75 8.052-9.908-.157l9.908.157Z"/><path fill="#fff" d="M271.058 152.764c0 5.315 4.309 9.655 9.656 9.655 5.315 0 9.624-4.309 9.624-9.655 0-5.316-4.309-9.656-9.624-9.656-5.347 0-9.656 4.34-9.656 9.656Z"/><path fill="#7F5242" d="M274.676 152.171c0 4.403 2.705 7.957 6.038 7.957 3.334 0 6.008-3.554 6.008-7.957 0-4.403-2.705-7.957-6.008-7.957-3.365 0-6.038 3.554-6.038 7.957Z"/><path fill="#400404" d="M276.406 152.173c0 3.114 1.919 5.661 4.278 5.661 2.359 0 4.277-2.547 4.277-5.661 0-3.145-1.918-5.661-4.277-5.661s-4.278 2.516-4.278 5.661Z"/><path fill="#fff" d="M276.124 146.825c0 .85 1.006 1.542 2.202 1.542 1.226 0 2.201-.692 2.201-1.542 0-.849-1.006-1.541-2.201-1.541-1.196-.031-2.202.661-2.202 1.541Z"/><path fill="#390A0A" d="M280.809 141.73c6.385-.629 11.291 5.127 11.291 11.071 0 .629-.754.723-1.069.283-2.61-3.554-3.428-7.077-8.209-8.461-7.014-2.012-10.851 5.19-11.26 10.851-.031.535-.786.535-.849 0-.629-6.762 2.988-13.052 10.096-13.744Z"/><path fill="#99360A" d="M292.447 140.371s-9.121-12.297-23.212-1.824c-.031 0 11.355-4.529 23.212 1.824ZM252.723 138.364s-10.662-10.63-22.142 1.982c0 0 9.907-6.353 22.142-1.982Z"/><path fill="#712311" d="M248.225 178.799c.125.346 2.359 5.441 6.007 9.498 4.403 4.875 10.788 7.611 17.865-2.862 1.509-2.202 3.019-5.064 4.56-8.586 0 0-2.453 1.604-6.039 2.61-5.63 1.604-13.996 4.592-19.814 1.447-.944 0-1.793-1.478-2.579-2.107Z"/><path fill="#D5503B" d="M254.232 188.013c4.404 4.875 10.788 7.769 17.865-2.705-3.806-1.037-12.738-2.61-17.865 2.705Z"/><path fill="#fff" d="M250.836 179.675c9.247 10.316 15.978 4.875 19.815-.849-5.63 1.572-14.028 3.208-19.815.849Z"/><path fill="url(#e)" d="M219.581 131.186c9.35 3.374 20.185 2.396 28.636-2.575 8.452-4.97 14.313-13.854 15.47-23.454.34-2.663-.016-5.936-2.441-7.24-.84-.46-1.836-.575-2.803-.623-5.9-.33-11.714 1.618-16.633 4.742-4.92 3.125-8.941 7.362-12.544 11.862-2.586 3.254-4.95 6.689-6.503 10.516a28.423 28.423 0 0 0-1.859 7.531"/><path fill="url(#f)" d="M254.94 113.583c17.576 11.835 36.911 31.735 57.01 32.458 1.026.053 6.714-5.696 7.206-6.456.413-.661.099-1.56-.223-2.354-3.409-7.894-13.149-21.947-20.846-27.108-7.698-5.161-16.313-8.762-24.916-12.084-4.372-1.667-8.818-3.306-13.33-3.764-4.476-.456-9.099.365-11.861 3.125"/><path fill="#FFBC9F" d="M157.299 291.953s-4.498-.975-6.196-3.208c-1.73-2.202-2.768-3.177-8.838-5.85-6.039-2.642-8.429-6.07-8.429-6.07s-4.215 3.868 5.032 8.303c5.662 2.705-12.958 2.327-18.556 1.698 0 0-3.24 1.762 2.107 4.372 5.378 2.611.22 2.799 10.819 7.266 10.6 4.497 23.18 6.856 25.759.44 2.548-6.385-1.698-6.951-1.698-6.951Z"/><path fill="#fff" d="M231.494 255.47S218.787 317.052 213 320.418c-4.655 2.736-40.384-8.901-53.908-13.462-3.208-1.069-5.19-1.761-5.19-1.761l2.328-15.789 7.643 1.038 38.088 5.158s12.832-62.558 22.079-63.344c9.247-.755 7.454 23.212 7.454 23.212ZM306.847 231.83s31.764 55.595 28.735 78.325c0 0-9.953 10.651-56.161 23.667l-.827-11.13s29.114-19.582 38.565-23.986c0 0-27.151-38.175-24.141-46.128 2.979-7.961 8.824-21.633 13.829-20.748Z"/><g filter="url(#g)"><path fill="#84B5FF" d="M284.62 327.098c-.126.312-.253.621-.38.931-1.319 3.186-4.228 5.684-7.594 5.664-4.854-.029-10-.497-14.753-1.179-3.952-.568-7.778-2.022-11.833-1.87-4.735.178-9.383-.318-13.859-1.276-1.89-.404-3.871-.814-5.701-1.36-.92-.275-1.871-.491-2.775-.796-.535-.179-1.625-.518-1.562-1.262.005-.055.014-.116-.013-.159-.023-.039-.067-.054-.111-.07-.882-.325-1.801-.632-2.594-1.107-.662-.399-.34-1.263-.088-1.93.143-.379.774-2.138 1.823-2.476-1.813-.779-3.747-1.368-5.546-2.198-.004-.001-.008-.002-.009-.005a9.978 9.978 0 0 1 2.497-5.229c3.069 1.056 6.139 2.114 9.205 3.171 1.629.563 3.362 1.129 5.175.758-2.796-.589-5.4-1.713-7.637-3.298-1.882-1.333-3.542-2.997-5.639-4 .019-.087.045-.175.067-.264.055-.133.114-.265.179-.393.357-.719.798-1.366 1.304-2.03.31-.407.638-.802.981-1.186a11.377 11.377 0 0 1 1.708-.938c3.025 1.921 6.092 3.787 9.443 5.199 4.202 1.77 8.895 2.813 13.761 2.193a6.537 6.537 0 0 0 2.828-1.046c4.625-3.109-1.584-9.362-3.599-11.702a3.12 3.12 0 0 1 .237-.332c.978-1.203 2.656-1.921 4.088-2.428a29.176 29.176 0 0 1 2.222-.671c.054.083.109.168.17.258 1.041 1.478 3.162 4.176 4.367 5.522 2.331 2.601 5.561 4.238 7.37 7.338 2.479 4.252 3.361 8.187 9.08 8.918l2.184.279c4.331.551 6.705 4.761 5.004 8.974Z"/><path fill="#06B25F" d="M247.005 314.574c-6.207.854-13.124-.967-17.706-4.269-1.212-.875-2.375-1.812-3.64-2.616-1.161-.738-.466-1.495-.524-1.324.356-1.481 3.686-.838 5.525.281 2.64 1.607 4.165 2.715 6.731 3.985 1.794.887 4.888 1.504 6.875 2.03 1.98.527 2.444.21 4.603-.005 3.857-.382 2.667-.928 4.62-2.369 0 0-1.132-3.877-1.258-4.314-.491-1.672-4.331-3.473-3.65-5.269.079-.207.188-.379.325-.585 1.145-.403.798-.415 1.182-.31-.282-.262.384.104 0 0 1.19 1.107 2.099 2.402 2.972 3.769 1.372 2.151 2.637 6.398.412 9.074-1.637 1.972-4.119 1.598-6.467 1.922Z"/><path fill="#276ED8" d="M222.982 314.651c.089.038.177.079.267.117 2.581 1.095 4.468 1.141 7.354 1.841 1.431.347 2.902.659 4.432.842.903.108 1.817.19 2.768.172l1.148.17c.595.565-.097 1.28-.999 1.731a4.497 4.497 0 0 1-1.151.396c-.887.159-1.695.033-2.47-.101-3.884-.675-8.344-1.289-11.493-2.938-.873-.457-1.592-.69-.2-1.989.104-.098.219-.174.344-.241ZM237.354 324.608c.016.173-.08.384-.343.652-.271.27-.644.41-1.004.468-.959.153-1.86-.186-2.709-.52-1.841-.725-3.815-1.169-5.606-1.901-.497-.204-2.018-.84-.576-1.552.71-.351 1.858.021 2.449.218 1.33.443 2.673.862 4.025 1.252.686.197 1.373.419 2.066.588.479.118 1.647.252 1.698.795ZM264.426 332.374c-1.892-.296-3.685-.618-5.767-1.139.048-.03.217-.16.268-.192 6.54-3.745 11.573-10.317 12.985-17.547.007-.041.019-.079.028-.117 1.493.95 2.667 2.226 4.303 2.761-1.899 6.4-6.449 11.993-11.817 16.234ZM279.026 333.048c-2.383-.272-3.903-.495-6.272-.821.095-.06.194-.118.298-.17 5.981-2.992 9.318-9.066 8.083-15.054a2.594 2.594 0 0 1-.053-.538c1.803-.07 3.694.352 5.458.482.773 5.96-.946 11.597-7.514 16.101Z"/><path fill="#fff" d="M265.305 332.324c-.529-.087-1.052-.177-1.574-.27a47.994 47.994 0 0 1-3.582-1.211c3.307-1.984 6.217-4.72 8.442-7.915 1.056.408 2.147.745 3.245 1.065.316.143.637.284.957.419-2.091 2.967-4.675 5.637-7.488 7.912ZM273.497 321.551c-.147.248-.295.493-.449.738-1.407-.669-2.817-1.364-4.293-1.909.083-.142.161-.289.24-.432 1.494.545 2.994 1.079 4.502 1.603ZM282.64 323.837c.992.295 2.005.574 3.05.753-.108.299-.22.594-.349.891-1.674-.538-3.375-1.016-5.07-1.507.101-.255.192-.512.273-.773.7.212 1.397.426 2.096.636ZM280.434 326.092c1.573.495 3.151.979 4.714 1.498-1.19 1.931-2.887 3.748-5.201 5.407-2.284-.283-3.74-.513-6.009-.851.092-.06.187-.119.288-.171 2.666-1.398 4.795-3.463 6.208-5.883Z" opacity=".33"/><path fill="#194484" d="M278.949 335.208c-1.67.348-3.605.514-5.642.429-4.382-.184-8.533-.305-9.774-1.934-.376-.493.059-2.163.15-2.704.394-2.323 5.342-4.012 11.05-3.774 3.5.147 6.351.897 8.175 1.941.291.166.735.568.724.958-.006.228-.234 1.797-.606 2.105-1.23 1.011-2.825 2.007-4.077 2.979Z"/><path fill="#06B25F" d="M277.936 336.073c-1.004.719-2.162 1.136-3.299 1.158-.446.006-.902.005-1.362-.009-5.664-.177-9.955-2.008-9.581-4.092.374-2.083 5.27-3.629 10.935-3.449 3.789.118 6.958.977 8.532 2.159.146.111.125.353-.046.483-1.698 1.289-3.442 2.51-5.179 3.75Z"/><path fill="#fff" d="M251.174 318.344c3.895-.102 6.822 2.304 6.538 5.373-.284 3.069-3.672 5.64-7.566 5.742-3.895.102-6.822-2.304-6.538-5.373.284-3.069 3.672-5.64 7.566-5.742Z" opacity=".33"/><path fill="#276ED8" d="M255.406 323.763c.197-1.812-1.765-3.217-4.384-3.139-2.618.077-4.902 1.609-5.096 3.42-.197 1.812 1.766 3.217 4.384 3.139 2.615-.079 4.898-1.61 5.096-3.42Z"/><path fill="#fff" d="M253.225 323.827c.107-.978-.955-1.739-2.369-1.696-1.414.041-2.647.87-2.754 1.848-.107.978.955 1.739 2.368 1.695 1.418-.042 2.648-.869 2.755-1.847ZM233.111 314.401c.079-.719-.702-1.281-1.745-1.249-1.041.031-1.951.639-2.028 1.361-.079.719.702 1.281 1.746 1.248 1.041-.031 1.95-.639 2.027-1.36ZM256.202 303.889c.803-.627.973-1.735.38-2.474-.594-.74-1.728-.832-2.532-.205-.803.627-.972 1.735-.379 2.474.593.74 1.728.832 2.531.205ZM228.306 319.017c.978-.024 1.72.486 1.658 1.139-.062.654-.905 1.203-1.882 1.227-.977.024-1.719-.486-1.657-1.139.061-.653.904-1.202 1.881-1.227ZM232.404 325.894c.097-.667-.644-1.157-1.659-1.088-1.016.068-1.919.665-2.017 1.332-.098.668.643 1.157 1.659 1.089 1.017-.067 1.916-.664 2.017-1.333Z" opacity=".33"/><path fill="#194484" d="M278.387 335.692c-.3.012-.611.014-.927 0-2.384-.097-4.19-.887-4.037-1.764.155-.878 2.211-1.51 4.595-1.414 1.563.063 2.869.429 3.546.917a345.965 345.965 0 0 1-3.177 2.261ZM269.252 334.654l-1.213-.369-1.558 1.228-.035.363 2.772-.859.034-.363Z"/><path fill="#194484" d="m269.3 335.006-1.226-.376-1.569 1.223 1.226.376 1.569-1.223ZM271.166 332.882l-1.213-.369-1.559 1.228-.034.362 2.769-.857.037-.364Z"/><path fill="#194484" d="m271.215 333.237-1.223-.378-1.569 1.223 1.226.376 1.566-1.221ZM273.109 331.091l-1.213-.369-1.558 1.228-.035.363 2.772-.859.034-.363Z"/><path fill="#194484" d="m273.161 331.444-1.226-.377-1.569 1.224 1.226.376 1.569-1.223ZM228.247 326.771c-.01-.001-.019 0-.027-.002-.04-.003.063.003.027.002Z"/><path fill="#276ED8" d="M236.122 328.745c-2.152-.044-5.622-.431-7.777-.745-.041-.152-.083-.303-.119-.458 2.289.313 6.482.786 8.65 1.023-.109.028-.615.182-.754.18Z" opacity=".43"/></g><path fill="#002E73" d="M226.151 154.584a1.977 1.977 0 0 1-1.978 1.945l-2.088-.018a1.978 1.978 0 0 1-1.943-1.982l.127-13.579a1.977 1.977 0 0 1 1.979-1.945l2.07.018a1.977 1.977 0 0 1 1.942 1.982l-.109 13.579ZM308.285 155.401a1.977 1.977 0 0 1-1.979 1.945l-2.07-.018a1.965 1.965 0 0 1-1.943-1.981l.128-13.58a1.977 1.977 0 0 1 1.978-1.945l2.07.018a1.967 1.967 0 0 1 1.943 1.982l-.127 13.579Z"/><path fill="#070059" d="m257.868 123.808 1.162-18.906 11.855.127 1.398 18.924-14.415-.145Z"/><path fill="#002E73" d="M302.345 132.152c-.091 8.489-16.903 15.197-37.599 14.979-20.679-.2-37.364-7.254-37.291-15.725.091-8.489 16.92-15.197 37.581-14.979 20.697.2 37.4 7.235 37.309 15.725Z"/><path fill="#fff" d="M248.174 126.408c14.179-.236 29.229-.818 43.372 1.036 4.521.691 9.641 2.709 13.708 5.581v-.254c.054-5.509-4.358-10.017-9.859-10.071l-61.582-.618c-5.501-.055-10.004 4.362-10.058 9.871v.527c5.828-6.381 16.031-5.927 24.419-6.072ZM274.061 167.418c-1.833-.745-3.159-1.981-5.101-2.618-2.07-.636-4.394-.654-6.463-.545-1.217.109-2.578.218-3.559.691-1.834.6-3.195 2.29-5.283 2.636-1.834.345-11.728.254-14.415-.146-2.923-.4-6.336-1.29-9.023-2.29-1.761-.691-4.939-2.782-6.663-5.018.181 5.309 4.484 9.581 9.84 9.635 5.465.055 18.682.618 19.771.473 1.325-.182 1.725-1.109 2.669-1.945 2.251-1.982 5.428-2.873 8.387-2.854 2.905.036 5.973.945 8.188 2.89.872.763 1.307 1.818 2.506 2.018 1.888.345 17.574 0 20.043.018 5.447.055 9.913-4.29 10.04-9.707-2.124 2.036-4.739 4.163-7.462 5.271-5.283 2.291-21.532 2.491-23.475 1.491Z"/><path fill="#0B51B9" d="M305.27 133.043c-4.067-2.873-9.187-4.909-13.707-5.581-14.161-1.855-29.194-1.273-43.373-1.036-8.406.127-18.609-.328-24.401 6.071l-.272 27.214c0 .145.018.29.018.436 1.725 2.236 4.92 4.326 6.663 5.017 2.687 1 6.1 1.891 9.023 2.291 2.687.4 12.582.49 14.416.145 2.087-.345 3.449-2.054 5.283-2.636.98-.472 2.324-.582 3.558-.691 2.07-.109 4.394-.072 6.463.546 1.943.636 3.286 1.872 5.102 2.617 1.943 1 18.21.8 23.475-1.472 2.705-1.091 5.319-3.236 7.461-5.272v-.163l.291-27.486Z"/><mask id="h" width="83" height="43" x="223" y="126" maskUnits="userSpaceOnUse" style="mask-type:alpha"><path fill="#0B51B9" d="M305.27 133.043c-4.067-2.873-9.187-4.909-13.707-5.581-14.161-1.855-29.194-1.273-43.373-1.036-8.406.127-18.609-.328-24.401 6.071l-.272 27.214c0 .145.018.29.018.436 1.725 2.236 4.92 4.326 6.663 5.017 2.687 1 6.1 1.891 9.023 2.291 2.687.4 12.582.49 14.416.145 2.087-.345 3.449-2.054 5.283-2.636.98-.472 2.324-.582 3.558-.691 2.07-.109 4.394-.072 6.463.546 1.943.636 3.286 1.872 5.102 2.617 1.943 1 18.21.8 23.475-1.472 2.705-1.091 5.319-3.236 7.461-5.272v-.163l.291-27.486Z"/></mask><g fill="#fff" mask="url(#h)" opacity=".2"><path d="m308.847 97.066-113.179 69.642.054-4.254 113.18-69.642-.055 4.254ZM308.558 126.933l-113.179 69.642.272-27.304 113.18-69.643-.273 27.305ZM308.43 139.403l-113.179 69.643.073-7.144 113.179-69.643-.073 7.144ZM308.376 145.457 195.197 215.1l.036-3.054 113.18-69.643-.037 3.054Z" opacity=".2"/></g></g></g><defs><radialGradient id="d" cx="0" cy="0" r="1" gradientTransform="matrix(130.57954 -216.74461 167.67899 101.01956 187.431 306.018)" gradientUnits="userSpaceOnUse"><stop stop-color="#0F7C47"/><stop offset="1" stop-color="#3EE695"/></radialGradient><radialGradient id="e" cx="0" cy="0" r="1" gradientTransform="rotate(-43.386 275.111 -211.904) scale(49.9217 55.4697)" gradientUnits="userSpaceOnUse"><stop stop-color="#21B16C"/><stop offset="1" stop-color="#39DB8D"/></radialGradient><linearGradient id="a" x1="188.343" x2="125.338" y1="95.064" y2="436.621" gradientUnits="userSpaceOnUse"><stop offset=".004" stop-color="#0214BE"/><stop offset=".286" stop-color="#0016D9"/><stop offset="1" stop-color="#2051FE"/></linearGradient><linearGradient id="f" x1="249.61" x2="315.345" y1="95.492" y2="135.909" gradientUnits="userSpaceOnUse"><stop stop-color="#29CF7F"/><stop offset="1" stop-color="#36D387"/></linearGradient><filter id="g" width="83.087" height="57.425" x="211.625" y="291.809" color-interpolation-filters="sRGB" filterUnits="userSpaceOnUse"><feFlood flood-opacity="0" result="BackgroundImageFix"/><feColorMatrix in="SourceAlpha" result="hardAlpha" values="0 0 0 0 0 0 0 0 0 0 0 0 0 0 0 0 0 0 127 0"/><feOffset dy="4"/><feGaussianBlur stdDeviation="4"/><feColorMatrix values="0 0 0 0 0.0771528 0 0 0 0 0.152763 0 0 0 0 0.420833 0 0 0 0.25 0"/><feBlend in2="BackgroundImageFix" result="effect1_dropShadow_620_6475"/><feBlend in="SourceGraphic" in2="effect1_dropShadow_620_6475" result="shape"/></filter></defs></svg>